G04 Layer: TopPasteMaskLayer*
G04 EasyEDA v6.4.17, 2021-03-05T15:54:57+08:00*
G04 7810626ff2e9405a9b1361f117870e28,a0ab3b0d74464cd6b67425ecbf828b8b,10*
G04 Gerber Generator version 0.2*
G04 Scale: 100 percent, Rotated: No, Reflected: No *
G04 Dimensions in millimeters *
G04 leading zeros omitted , absolute positions ,4 integer and 5 decimal *
%FSLAX45Y45*%
%MOMM*%

%ADD13C,0.6300*%
%ADD14C,0.5880*%
%ADD15C,0.5684*%
%ADD18R,1.8161X1.3589*%
%ADD19R,1.2000X1.9000*%
%ADD20R,1.9000X1.2000*%
%ADD21R,1.2000X1.2000*%
%ADD22R,1.5000X1.6000*%

%LPD*%
D13*
X6359400Y7696200D02*
G01*
X6235900Y7696200D01*
X6359400Y7569200D02*
G01*
X6235900Y7569200D01*
X6359400Y7442200D02*
G01*
X6235900Y7442200D01*
X6359400Y7315200D02*
G01*
X6235900Y7315200D01*
X6895899Y7696200D02*
G01*
X6772399Y7696200D01*
X6895899Y7569200D02*
G01*
X6772399Y7569200D01*
X6895899Y7442200D02*
G01*
X6772399Y7442200D01*
X6895899Y7315200D02*
G01*
X6772399Y7315200D01*
D14*
X2932508Y5842000D02*
G01*
X2786809Y5842000D01*
X2932508Y5715000D02*
G01*
X2786809Y5715000D01*
X2932508Y5588000D02*
G01*
X2786809Y5588000D01*
X2932508Y5461000D02*
G01*
X2786809Y5461000D01*
X3486990Y5842000D02*
G01*
X3341291Y5842000D01*
X3486990Y5715000D02*
G01*
X3341291Y5715000D01*
X3486990Y5588000D02*
G01*
X3341291Y5588000D01*
X3486990Y5461000D02*
G01*
X3341291Y5461000D01*
D15*
X2935480Y6629400D02*
G01*
X2797299Y6629400D01*
X2935480Y6502400D02*
G01*
X2797299Y6502400D01*
X2935480Y6375400D02*
G01*
X2797299Y6375400D01*
X2935480Y6248400D02*
G01*
X2797299Y6248400D01*
X3476500Y6629400D02*
G01*
X3338319Y6629400D01*
X3476500Y6502400D02*
G01*
X3338319Y6502400D01*
X3476500Y6375400D02*
G01*
X3338319Y6375400D01*
X3476500Y6248400D02*
G01*
X3338319Y6248400D01*
D13*
X5337299Y6692900D02*
G01*
X5460799Y6692900D01*
X5337299Y6819900D02*
G01*
X5460799Y6819900D01*
X5337299Y6946900D02*
G01*
X5460799Y6946900D01*
X5337299Y7073900D02*
G01*
X5460799Y7073900D01*
X4800800Y6692900D02*
G01*
X4924300Y6692900D01*
X4800800Y6819900D02*
G01*
X4924300Y6819900D01*
X4800800Y6946900D02*
G01*
X4924300Y6946900D01*
X4800800Y7073900D02*
G01*
X4924300Y7073900D01*
G36*
X6106795Y4718685D02*
G01*
X6288404Y4718685D01*
X6288404Y4582795D01*
X6106795Y4582795D01*
G37*
G36*
X5779134Y4718685D02*
G01*
X5960745Y4718685D01*
X5960745Y4582795D01*
X5779134Y4582795D01*
G37*
D18*
G01*
X6807200Y4645660D03*
G01*
X7134859Y4645660D03*
G36*
X5052695Y4718685D02*
G01*
X5234304Y4718685D01*
X5234304Y4582795D01*
X5052695Y4582795D01*
G37*
G36*
X4725034Y4718685D02*
G01*
X4906645Y4718685D01*
X4906645Y4582795D01*
X4725034Y4582795D01*
G37*
G36*
X3844000Y5670301D02*
G01*
X3964000Y5670301D01*
X3964000Y5480298D01*
X3844000Y5480298D01*
G37*
G36*
X4164015Y5670301D02*
G01*
X4284014Y5670301D01*
X4284014Y5480298D01*
X4164015Y5480298D01*
G37*
D20*
G01*
X4330700Y6421094D03*
G01*
X4330700Y6101079D03*
G36*
X5622000Y7842001D02*
G01*
X5742000Y7842001D01*
X5742000Y7651998D01*
X5622000Y7651998D01*
G37*
G36*
X5942015Y7842001D02*
G01*
X6062014Y7842001D01*
X6062014Y7651998D01*
X5942015Y7651998D01*
G37*
G36*
X4682200Y5213101D02*
G01*
X4802200Y5213101D01*
X4802200Y5023098D01*
X4682200Y5023098D01*
G37*
G36*
X5002215Y5213101D02*
G01*
X5122214Y5213101D01*
X5122214Y5023098D01*
X5002215Y5023098D01*
G37*
G01*
X5829300Y6507505D03*
G01*
X5829300Y6827520D03*
D21*
G01*
X6885990Y5932500D03*
D22*
G01*
X7211009Y6032500D03*
D21*
G01*
X6885990Y6132499D03*
D20*
G01*
X2476500Y6075679D03*
G01*
X2476500Y6395694D03*
G01*
X3860800Y6101079D03*
G01*
X3860800Y6421094D03*
G01*
X2476500Y7195794D03*
G01*
X2476500Y6875779D03*
G01*
X3860800Y7183094D03*
G01*
X3860800Y6863079D03*
D19*
G01*
X2976905Y7162800D03*
G01*
X3296894Y7162800D03*
G01*
X3916705Y5067300D03*
G01*
X4236694Y5067300D03*
G36*
X5002207Y5695701D02*
G01*
X5122207Y5695701D01*
X5122207Y5505698D01*
X5002207Y5505698D01*
G37*
G36*
X4682192Y5695701D02*
G01*
X4802192Y5695701D01*
X4802192Y5505698D01*
X4682192Y5505698D01*
G37*
D20*
G01*
X6223000Y6827494D03*
G01*
X6223000Y6507479D03*
G36*
X5700707Y6127501D02*
G01*
X5820707Y6127501D01*
X5820707Y5937498D01*
X5700707Y5937498D01*
G37*
G36*
X5380692Y6127501D02*
G01*
X5500692Y6127501D01*
X5500692Y5937498D01*
X5380692Y5937498D01*
G37*
G36*
X6437307Y6127501D02*
G01*
X6557307Y6127501D01*
X6557307Y5937498D01*
X6437307Y5937498D01*
G37*
G36*
X6117292Y6127501D02*
G01*
X6237292Y6127501D01*
X6237292Y5937498D01*
X6117292Y5937498D01*
G37*
D19*
G01*
X4742205Y6045200D03*
G01*
X5062194Y6045200D03*
D20*
G01*
X4318000Y6863079D03*
G01*
X4318000Y7183094D03*
D19*
G01*
X4983505Y7442200D03*
G01*
X5303494Y7442200D03*
G36*
X5942007Y7372101D02*
G01*
X6062007Y7372101D01*
X6062007Y7182098D01*
X5942007Y7182098D01*
G37*
G36*
X5621992Y7372101D02*
G01*
X5741992Y7372101D01*
X5741992Y7182098D01*
X5621992Y7182098D01*
G37*
D20*
G01*
X6705600Y6507479D03*
G01*
X6705600Y6827494D03*
M02*
