G04 Layer: TopSolderMaskLayer*
G04 EasyEDA v6.4.17, 2021-03-05T15:54:57+08:00*
G04 7810626ff2e9405a9b1361f117870e28,a0ab3b0d74464cd6b67425ecbf828b8b,10*
G04 Gerber Generator version 0.2*
G04 Scale: 100 percent, Rotated: No, Reflected: No *
G04 Dimensions in millimeters *
G04 leading zeros omitted , absolute positions ,4 integer and 5 decimal *
%FSLAX45Y45*%
%MOMM*%

%ADD34C,0.7316*%
%ADD35C,0.6896*%
%ADD36C,0.6700*%
%ADD37C,1.1032*%
%ADD38C,1.4032*%
%ADD42C,2.0032*%
%ADD45C,1.7780*%
%ADD46R,1.7780X1.7780*%

%LPD*%
D34*
X6359400Y7696200D02*
G01*
X6235900Y7696200D01*
X6359400Y7569200D02*
G01*
X6235900Y7569200D01*
X6359400Y7442200D02*
G01*
X6235900Y7442200D01*
X6359400Y7315200D02*
G01*
X6235900Y7315200D01*
X6895899Y7696200D02*
G01*
X6772399Y7696200D01*
X6895899Y7569200D02*
G01*
X6772399Y7569200D01*
X6895899Y7442200D02*
G01*
X6772399Y7442200D01*
X6895899Y7315200D02*
G01*
X6772399Y7315200D01*
D35*
X2932508Y5842000D02*
G01*
X2786809Y5842000D01*
X2932508Y5715000D02*
G01*
X2786809Y5715000D01*
X2932508Y5588000D02*
G01*
X2786809Y5588000D01*
X2932508Y5461000D02*
G01*
X2786809Y5461000D01*
X3486990Y5842000D02*
G01*
X3341291Y5842000D01*
X3486990Y5715000D02*
G01*
X3341291Y5715000D01*
X3486990Y5588000D02*
G01*
X3341291Y5588000D01*
X3486990Y5461000D02*
G01*
X3341291Y5461000D01*
D36*
X2935480Y6629400D02*
G01*
X2797299Y6629400D01*
X2935480Y6502400D02*
G01*
X2797299Y6502400D01*
X2935480Y6375400D02*
G01*
X2797299Y6375400D01*
X2935480Y6248400D02*
G01*
X2797299Y6248400D01*
X3476500Y6629400D02*
G01*
X3338319Y6629400D01*
X3476500Y6502400D02*
G01*
X3338319Y6502400D01*
X3476500Y6375400D02*
G01*
X3338319Y6375400D01*
X3476500Y6248400D02*
G01*
X3338319Y6248400D01*
D37*
X3356848Y4573270D02*
G01*
X3446846Y4573270D01*
X2847375Y5053329D02*
G01*
X2937372Y5053329D01*
X2650728Y4573574D02*
G01*
X2740728Y4573574D01*
D34*
X5337299Y6692900D02*
G01*
X5460799Y6692900D01*
X5337299Y6819900D02*
G01*
X5460799Y6819900D01*
X5337299Y6946900D02*
G01*
X5460799Y6946900D01*
X5337299Y7073900D02*
G01*
X5460799Y7073900D01*
X4800800Y6692900D02*
G01*
X4924300Y6692900D01*
X4800800Y6819900D02*
G01*
X4924300Y6819900D01*
X4800800Y6946900D02*
G01*
X4924300Y6946900D01*
X4800800Y7073900D02*
G01*
X4924300Y7073900D01*
D38*
G01*
X2694152Y4815789D03*
G01*
X3296056Y4815789D03*
G36*
X6096761Y4572507D02*
G01*
X6096761Y4728718D01*
X6298691Y4728718D01*
X6298691Y4572507D01*
G37*
G36*
X5768847Y4572507D02*
G01*
X5768847Y4728718D01*
X5971031Y4728718D01*
X5971031Y4572507D01*
G37*
G36*
X6706361Y4567428D02*
G01*
X6706361Y4723637D01*
X6908291Y4723637D01*
X6908291Y4567428D01*
G37*
G36*
X7034022Y4567428D02*
G01*
X7034022Y4723637D01*
X7235952Y4723637D01*
X7235952Y4567428D01*
G37*
G36*
X5042661Y4572507D02*
G01*
X5042661Y4728718D01*
X5244591Y4728718D01*
X5244591Y4572507D01*
G37*
G36*
X4714747Y4572507D02*
G01*
X4714747Y4728718D01*
X4916931Y4728718D01*
X4916931Y4572507D01*
G37*
G36*
X3833875Y5470144D02*
G01*
X3833875Y5680455D01*
X3974084Y5680455D01*
X3974084Y5470144D01*
G37*
G36*
X4153915Y5470144D02*
G01*
X4153915Y5680455D01*
X4294124Y5680455D01*
X4294124Y5470144D01*
G37*
G36*
X4225543Y6351015D02*
G01*
X4225543Y6491223D01*
X4435856Y6491223D01*
X4435856Y6351015D01*
G37*
G36*
X4225543Y6030976D02*
G01*
X4225543Y6171184D01*
X4435856Y6171184D01*
X4435856Y6030976D01*
G37*
G36*
X5611875Y7641844D02*
G01*
X5611875Y7852155D01*
X5752084Y7852155D01*
X5752084Y7641844D01*
G37*
G36*
X5931915Y7641844D02*
G01*
X5931915Y7852155D01*
X6072124Y7852155D01*
X6072124Y7641844D01*
G37*
G36*
X4672075Y5012944D02*
G01*
X4672075Y5223255D01*
X4812284Y5223255D01*
X4812284Y5012944D01*
G37*
G36*
X4992115Y5012944D02*
G01*
X4992115Y5223255D01*
X5132324Y5223255D01*
X5132324Y5012944D01*
G37*
G36*
X5724143Y6437376D02*
G01*
X5724143Y6577584D01*
X5934456Y6577584D01*
X5934456Y6437376D01*
G37*
G36*
X5724143Y6757415D02*
G01*
X5724143Y6897623D01*
X5934456Y6897623D01*
X5934456Y6757415D01*
G37*
D42*
G01*
X7099300Y5105400D03*
G01*
X6845300Y5105400D03*
G01*
X6337300Y5105400D03*
G01*
X5829300Y5105400D03*
G01*
X6083300Y5105400D03*
G36*
X6815836Y5862320D02*
G01*
X6815836Y6002781D01*
X6956043Y6002781D01*
X6956043Y5862320D01*
G37*
G36*
X7125715Y5942329D02*
G01*
X7125715Y6122670D01*
X7296150Y6122670D01*
X7296150Y5942329D01*
G37*
G36*
X6815836Y6062218D02*
G01*
X6815836Y6202679D01*
X6956043Y6202679D01*
X6956043Y6062218D01*
G37*
G36*
X2371343Y6005576D02*
G01*
X2371343Y6145784D01*
X2581656Y6145784D01*
X2581656Y6005576D01*
G37*
G36*
X2371343Y6325615D02*
G01*
X2371343Y6465823D01*
X2581656Y6465823D01*
X2581656Y6325615D01*
G37*
G36*
X3755643Y6030976D02*
G01*
X3755643Y6171184D01*
X3965956Y6171184D01*
X3965956Y6030976D01*
G37*
G36*
X3755643Y6351015D02*
G01*
X3755643Y6491223D01*
X3965956Y6491223D01*
X3965956Y6351015D01*
G37*
G36*
X2371343Y7125715D02*
G01*
X2371343Y7265923D01*
X2581656Y7265923D01*
X2581656Y7125715D01*
G37*
G36*
X2371343Y6805676D02*
G01*
X2371343Y6945884D01*
X2581656Y6945884D01*
X2581656Y6805676D01*
G37*
G36*
X3755643Y7113015D02*
G01*
X3755643Y7253223D01*
X3965956Y7253223D01*
X3965956Y7113015D01*
G37*
G36*
X3755643Y6792976D02*
G01*
X3755643Y6933184D01*
X3965956Y6933184D01*
X3965956Y6792976D01*
G37*
G36*
X2906775Y7057644D02*
G01*
X2906775Y7267955D01*
X3046984Y7267955D01*
X3046984Y7057644D01*
G37*
G36*
X3226815Y7057644D02*
G01*
X3226815Y7267955D01*
X3367024Y7267955D01*
X3367024Y7057644D01*
G37*
G36*
X3846575Y4962144D02*
G01*
X3846575Y5172455D01*
X3986784Y5172455D01*
X3986784Y4962144D01*
G37*
G36*
X4166615Y4962144D02*
G01*
X4166615Y5172455D01*
X4306824Y5172455D01*
X4306824Y4962144D01*
G37*
G36*
X4992115Y5495544D02*
G01*
X4992115Y5705855D01*
X5132324Y5705855D01*
X5132324Y5495544D01*
G37*
G36*
X4672075Y5495544D02*
G01*
X4672075Y5705855D01*
X4812284Y5705855D01*
X4812284Y5495544D01*
G37*
G36*
X6117843Y6757415D02*
G01*
X6117843Y6897623D01*
X6328156Y6897623D01*
X6328156Y6757415D01*
G37*
G36*
X6117843Y6437376D02*
G01*
X6117843Y6577584D01*
X6328156Y6577584D01*
X6328156Y6437376D01*
G37*
G36*
X5690615Y5927344D02*
G01*
X5690615Y6137655D01*
X5830824Y6137655D01*
X5830824Y5927344D01*
G37*
G36*
X5370575Y5927344D02*
G01*
X5370575Y6137655D01*
X5510784Y6137655D01*
X5510784Y5927344D01*
G37*
G36*
X6427215Y5927344D02*
G01*
X6427215Y6137655D01*
X6567424Y6137655D01*
X6567424Y5927344D01*
G37*
G36*
X6107175Y5927344D02*
G01*
X6107175Y6137655D01*
X6247384Y6137655D01*
X6247384Y5927344D01*
G37*
G36*
X4672075Y5940044D02*
G01*
X4672075Y6150355D01*
X4812284Y6150355D01*
X4812284Y5940044D01*
G37*
G36*
X4992115Y5940044D02*
G01*
X4992115Y6150355D01*
X5132324Y6150355D01*
X5132324Y5940044D01*
G37*
G36*
X4212843Y6792976D02*
G01*
X4212843Y6933184D01*
X4423156Y6933184D01*
X4423156Y6792976D01*
G37*
G36*
X4212843Y7113015D02*
G01*
X4212843Y7253223D01*
X4423156Y7253223D01*
X4423156Y7113015D01*
G37*
G36*
X4913375Y7337044D02*
G01*
X4913375Y7547355D01*
X5053584Y7547355D01*
X5053584Y7337044D01*
G37*
G36*
X5233415Y7337044D02*
G01*
X5233415Y7547355D01*
X5373624Y7547355D01*
X5373624Y7337044D01*
G37*
G36*
X5931915Y7171944D02*
G01*
X5931915Y7382255D01*
X6072124Y7382255D01*
X6072124Y7171944D01*
G37*
G36*
X5611875Y7171944D02*
G01*
X5611875Y7382255D01*
X5752084Y7382255D01*
X5752084Y7171944D01*
G37*
G36*
X6600443Y6437376D02*
G01*
X6600443Y6577584D01*
X6810756Y6577584D01*
X6810756Y6437376D01*
G37*
G36*
X6600443Y6757415D02*
G01*
X6600443Y6897623D01*
X6810756Y6897623D01*
X6810756Y6757415D01*
G37*
D45*
G01*
X7188200Y7607300D03*
G01*
X7188200Y7353300D03*
G01*
X7188200Y7099300D03*
G01*
X7188200Y6845300D03*
D46*
G01*
X7188200Y6591300D03*
M02*
