G04 Layer: TopSilkLayer*
G04 EasyEDA v6.4.17, 2021-03-05T15:54:57+08:00*
G04 7810626ff2e9405a9b1361f117870e28,a0ab3b0d74464cd6b67425ecbf828b8b,10*
G04 Gerber Generator version 0.2*
G04 Scale: 100 percent, Rotated: No, Reflected: No *
G04 Dimensions in millimeters *
G04 leading zeros omitted , absolute positions ,4 integer and 5 decimal *
%FSLAX45Y45*%
%MOMM*%

%ADD10C,0.2540*%
%ADD28C,0.1524*%
%ADD29C,0.3302*%
%ADD30C,0.2032*%
%ADD31C,0.2030*%
%ADD32C,0.3000*%
%ADD33C,0.1520*%

%LPD*%
G36*
X2293721Y8117890D02*
G01*
X2282850Y8117636D01*
X2271776Y8116773D01*
X2260600Y8115300D01*
X2248662Y8113014D01*
X2237028Y8110067D01*
X2225751Y8106511D01*
X2214778Y8102346D01*
X2204161Y8097570D01*
X2193950Y8092287D01*
X2184095Y8086445D01*
X2174646Y8080044D01*
X2165604Y8073237D01*
X2157018Y8065922D01*
X2148840Y8058150D01*
X2141067Y8050022D01*
X2133854Y8041487D01*
X2127046Y8032546D01*
X2120747Y8023301D01*
X2115007Y8013750D01*
X2109724Y8003895D01*
X2104999Y7993786D01*
X2100834Y7983423D01*
X2097227Y7972856D01*
X2094179Y7962087D01*
X2091740Y7951114D01*
X2089912Y7940040D01*
X2088692Y7928813D01*
X2088083Y7917535D01*
X2088049Y7910880D01*
X2096160Y7910880D01*
X2096363Y7919974D01*
X2096973Y7929067D01*
X2097989Y7938058D01*
X2099462Y7946999D01*
X2101342Y7955838D01*
X2103577Y7964627D01*
X2106269Y7973212D01*
X2109317Y7981696D01*
X2112772Y7990027D01*
X2116582Y7998206D01*
X2120747Y8006232D01*
X2125268Y8014004D01*
X2130145Y8021624D01*
X2135378Y8028990D01*
X2143760Y8039608D01*
X2149805Y8046364D01*
X2156104Y8052866D01*
X2162759Y8059064D01*
X2169668Y8064957D01*
X2176830Y8070545D01*
X2188159Y8078317D01*
X2196033Y8083042D01*
X2204161Y8087410D01*
X2212492Y8091424D01*
X2221128Y8094980D01*
X2229967Y8098180D01*
X2239010Y8100923D01*
X2248255Y8103260D01*
X2257704Y8105140D01*
X2267407Y8106562D01*
X2277211Y8107476D01*
X2287270Y8107934D01*
X2297430Y8107832D01*
X2307793Y8107222D01*
X2318308Y8106105D01*
X2328976Y8104378D01*
X2339746Y8102142D01*
X2350719Y8099247D01*
X2361539Y8095589D01*
X2372106Y8091170D01*
X2382367Y8086090D01*
X2392324Y8080349D01*
X2401874Y8073999D01*
X2411069Y8067040D01*
X2419908Y8059521D01*
X2428240Y8051546D01*
X2436164Y8043062D01*
X2443632Y8034121D01*
X2450541Y8024825D01*
X2456992Y8015122D01*
X2462885Y8005114D01*
X2468168Y7994802D01*
X2472893Y7984236D01*
X2476957Y7973466D01*
X2480411Y7962493D01*
X2483154Y7951368D01*
X2485237Y7940192D01*
X2486050Y7934553D01*
X2487015Y7923225D01*
X2487269Y7911896D01*
X2487117Y7906207D01*
X2486152Y7894929D01*
X2484424Y7883601D01*
X2482088Y7872425D01*
X2479192Y7861553D01*
X2475839Y7851038D01*
X2471928Y7840878D01*
X2467559Y7831074D01*
X2462733Y7821625D01*
X2457500Y7812531D01*
X2451811Y7803794D01*
X2445766Y7795463D01*
X2439314Y7787487D01*
X2432507Y7779918D01*
X2425344Y7772806D01*
X2417876Y7766050D01*
X2410155Y7759700D01*
X2402078Y7753756D01*
X2393797Y7748270D01*
X2385263Y7743240D01*
X2376525Y7738618D01*
X2367534Y7734452D01*
X2358440Y7730744D01*
X2349144Y7727492D01*
X2339695Y7724749D01*
X2330145Y7722412D01*
X2320493Y7720634D01*
X2310739Y7719263D01*
X2300935Y7718450D01*
X2291080Y7718145D01*
X2281224Y7718298D01*
X2271369Y7719009D01*
X2261514Y7720228D01*
X2251659Y7722006D01*
X2241905Y7724292D01*
X2232253Y7727137D01*
X2222652Y7730490D01*
X2213203Y7734452D01*
X2203856Y7738973D01*
X2194661Y7744053D01*
X2185670Y7749692D01*
X2176830Y7755991D01*
X2168245Y7762798D01*
X2159863Y7770266D01*
X2151888Y7778191D01*
X2144471Y7786268D01*
X2137613Y7794548D01*
X2131364Y7802981D01*
X2125624Y7811566D01*
X2120392Y7820253D01*
X2115718Y7829042D01*
X2111603Y7837931D01*
X2107946Y7846923D01*
X2104847Y7855966D01*
X2102205Y7865059D01*
X2100021Y7874203D01*
X2098395Y7883398D01*
X2097176Y7892542D01*
X2096465Y7901736D01*
X2096160Y7910880D01*
X2088049Y7910880D01*
X2088438Y7900416D01*
X2089454Y7888986D01*
X2091182Y7877556D01*
X2093620Y7866125D01*
X2096770Y7854696D01*
X2100580Y7843367D01*
X2105050Y7832344D01*
X2109927Y7821980D01*
X2115261Y7812074D01*
X2121001Y7802625D01*
X2127148Y7793634D01*
X2133650Y7785049D01*
X2140559Y7776972D01*
X2147773Y7769352D01*
X2155342Y7762138D01*
X2163216Y7755432D01*
X2171344Y7749184D01*
X2179777Y7743342D01*
X2188413Y7738008D01*
X2197303Y7733182D01*
X2206396Y7728762D01*
X2215642Y7724800D01*
X2225090Y7721346D01*
X2234641Y7718348D01*
X2244344Y7715808D01*
X2254097Y7713776D01*
X2264003Y7712151D01*
X2273909Y7711084D01*
X2283866Y7710424D01*
X2293874Y7710271D01*
X2303881Y7710576D01*
X2313838Y7711389D01*
X2323795Y7712659D01*
X2333650Y7714437D01*
X2343454Y7716672D01*
X2353106Y7719415D01*
X2362708Y7722666D01*
X2372106Y7726375D01*
X2381402Y7730540D01*
X2390495Y7735265D01*
X2399385Y7740446D01*
X2408021Y7746085D01*
X2416454Y7752283D01*
X2424633Y7758938D01*
X2432507Y7766100D01*
X2440076Y7773771D01*
X2447340Y7781899D01*
X2454249Y7790586D01*
X2460802Y7799730D01*
X2466949Y7809382D01*
X2472639Y7819390D01*
X2477566Y7829397D01*
X2481935Y7839456D01*
X2485644Y7849666D01*
X2488793Y7859877D01*
X2491282Y7870139D01*
X2493213Y7880400D01*
X2494584Y7890662D01*
X2495448Y7900924D01*
X2495702Y7911185D01*
X2495448Y7921345D01*
X2494635Y7931454D01*
X2493365Y7941513D01*
X2491536Y7951419D01*
X2489301Y7961223D01*
X2486507Y7970926D01*
X2483307Y7980425D01*
X2479649Y7989773D01*
X2475585Y7998917D01*
X2471013Y8007858D01*
X2466086Y8016595D01*
X2460752Y8025130D01*
X2455062Y8033359D01*
X2448915Y8041284D01*
X2442464Y8048955D01*
X2435656Y8056321D01*
X2428494Y8063331D01*
X2420975Y8070037D01*
X2413203Y8076387D01*
X2405075Y8082330D01*
X2396642Y8087868D01*
X2387955Y8092998D01*
X2379014Y8097723D01*
X2369820Y8101939D01*
X2360371Y8105749D01*
X2350668Y8109051D01*
X2340762Y8111896D01*
X2330653Y8114182D01*
X2320290Y8115960D01*
X2309825Y8117128D01*
X2299157Y8117789D01*
G37*
G36*
X2301951Y8095640D02*
G01*
X2301138Y8094472D01*
X2300478Y8091220D01*
X2300020Y8086394D01*
X2299614Y8073136D01*
X2298852Y8068208D01*
X2297379Y8065160D01*
X2295042Y8063585D01*
X2290114Y8063585D01*
X2286254Y8067243D01*
X2283917Y8073796D01*
X2283612Y8082330D01*
X2283866Y8087359D01*
X2283460Y8090611D01*
X2282291Y8092338D01*
X2280259Y8092846D01*
X2278227Y8092236D01*
X2277059Y8090153D01*
X2276703Y8086090D01*
X2277008Y8079536D01*
X2277973Y8072628D01*
X2279599Y8067040D01*
X2281783Y8062722D01*
X2284323Y8059724D01*
X2287168Y8057946D01*
X2290114Y8057489D01*
X2293112Y8058302D01*
X2295906Y8060334D01*
X2298446Y8063636D01*
X2300579Y8068157D01*
X2302154Y8073948D01*
X2303068Y8080959D01*
X2303272Y8086648D01*
X2303170Y8091322D01*
X2302713Y8094522D01*
G37*
G36*
X2320290Y8092084D02*
G01*
X2318461Y8088782D01*
X2317800Y8079536D01*
X2317953Y8071967D01*
X2318258Y8071154D01*
X2320188Y8077403D01*
X2322372Y8078114D01*
X2325624Y8074507D01*
X2330348Y8066278D01*
X2334971Y8058962D01*
X2338628Y8055711D01*
X2341016Y8056676D01*
X2341930Y8061959D01*
X2341727Y8064042D01*
X2341219Y8065922D01*
X2340457Y8067294D01*
X2338019Y8069376D01*
X2335631Y8072272D01*
X2323846Y8089442D01*
G37*
G36*
X2344318Y8086090D02*
G01*
X2343404Y8085988D01*
X2342642Y8084616D01*
X2342083Y8082229D01*
X2341981Y8075675D01*
X2342591Y8071103D01*
X2342997Y8070443D01*
X2344521Y8072678D01*
X2345385Y8077708D01*
X2345436Y8083042D01*
G37*
G36*
X2362809Y8078317D02*
G01*
X2360523Y8077301D01*
X2357932Y8072678D01*
X2354224Y8063484D01*
X2351836Y8056727D01*
X2350566Y8051749D01*
X2350414Y8048548D01*
X2351430Y8047126D01*
X2353411Y8047888D01*
X2355951Y8050784D01*
X2358796Y8055152D01*
X2361539Y8060385D01*
X2363927Y8065770D01*
X2365654Y8070748D01*
X2366365Y8074609D01*
X2365756Y8076692D01*
G37*
G36*
X2219553Y8076742D02*
G01*
X2213813Y8075828D01*
X2208682Y8072628D01*
X2205431Y8068005D01*
X2203958Y8062569D01*
X2204161Y8056778D01*
X2205939Y8051342D01*
X2209190Y8046720D01*
X2213813Y8043570D01*
X2219706Y8042452D01*
X2222703Y8042605D01*
X2223820Y8043011D01*
X2223109Y8043875D01*
X2220671Y8045399D01*
X2215743Y8049971D01*
X2211578Y8056575D01*
X2209038Y8063484D01*
X2209038Y8068868D01*
X2211476Y8072526D01*
X2214727Y8073898D01*
X2218334Y8073339D01*
X2222042Y8071103D01*
X2225344Y8067598D01*
X2227884Y8063077D01*
X2229256Y8057896D01*
X2229104Y8052358D01*
X2228596Y8048904D01*
X2228748Y8047177D01*
X2229713Y8047024D01*
X2231542Y8048294D01*
X2234996Y8052714D01*
X2236216Y8057794D01*
X2235504Y8063128D01*
X2233168Y8068106D01*
X2229561Y8072374D01*
X2224887Y8075422D01*
G37*
G36*
X2670048Y8072932D02*
G01*
X2667203Y8071713D01*
X2664460Y8067802D01*
X2663291Y8065211D01*
X2662377Y8062061D01*
X2661767Y8058810D01*
X2661259Y8052816D01*
X2660446Y8049564D01*
X2659227Y8046364D01*
X2656128Y8040979D01*
X2654554Y8037626D01*
X2650439Y8025942D01*
X2648153Y8022793D01*
X2645562Y8021167D01*
X2642920Y8021066D01*
X2640431Y8022437D01*
X2638348Y8025180D01*
X2636875Y8029244D01*
X2635910Y8039506D01*
X2634742Y8043113D01*
X2633014Y8045450D01*
X2630881Y8046669D01*
X2628442Y8046770D01*
X2625852Y8045856D01*
X2623261Y8044027D01*
X2620822Y8041335D01*
X2618638Y8037830D01*
X2616911Y8033613D01*
X2615742Y8028787D01*
X2615285Y8023402D01*
X2615031Y8016849D01*
X2614472Y8010753D01*
X2613761Y8005876D01*
X2612339Y8000542D01*
X2613152Y7998561D01*
X2615387Y7996681D01*
X2625394Y7991906D01*
X2627122Y7989112D01*
X2624074Y7984896D01*
X2610002Y7972094D01*
X2606395Y7967370D01*
X2605479Y7964728D01*
X2622397Y7964728D01*
X2623159Y7967065D01*
X2627172Y7970824D01*
X2634234Y7975752D01*
X2642209Y7980832D01*
X2646121Y7982915D01*
X2647391Y7982356D01*
X2647492Y7979562D01*
X2644749Y7975549D01*
X2638247Y7970316D01*
X2630728Y7965795D01*
X2624937Y7963865D01*
X2622397Y7964728D01*
X2605479Y7964728D01*
X2604668Y7962392D01*
X2603703Y7951165D01*
X2602890Y7946745D01*
X2601772Y7943138D01*
X2600401Y7940903D01*
X2598064Y7937855D01*
X2597302Y7936433D01*
X2597048Y7935315D01*
X2598724Y7933334D01*
X2602687Y7933181D01*
X2607310Y7934502D01*
X2610967Y7937144D01*
X2612796Y7938871D01*
X2615133Y7940548D01*
X2617825Y7942021D01*
X2623515Y7944459D01*
X2627376Y7946898D01*
X2631541Y7949996D01*
X2635554Y7953502D01*
X2641803Y7958378D01*
X2646121Y7959902D01*
X2647746Y7958226D01*
X2645816Y7953248D01*
X2643936Y7951063D01*
X2640533Y7948015D01*
X2630322Y7940040D01*
X2617571Y7930946D01*
X2604719Y7922412D01*
X2594051Y7916062D01*
X2590342Y7914233D01*
X2588056Y7913522D01*
X2583484Y7911693D01*
X2580030Y7907528D01*
X2578557Y7902600D01*
X2579979Y7898536D01*
X2582113Y7897571D01*
X2585466Y7897825D01*
X2589834Y7899095D01*
X2595168Y7901431D01*
X2601264Y7904784D01*
X2608122Y7909052D01*
X2615539Y7914131D01*
X2634437Y7928356D01*
X2640888Y7932166D01*
X2643936Y7932013D01*
X2644698Y7928305D01*
X2643428Y7924952D01*
X2640025Y7920228D01*
X2635046Y7914589D01*
X2629204Y7908645D01*
X2623007Y7903006D01*
X2617114Y7898282D01*
X2612136Y7895031D01*
X2608681Y7893812D01*
X2602788Y7892440D01*
X2599131Y7889087D01*
X2598369Y7884871D01*
X2601214Y7880858D01*
X2605735Y7877962D01*
X2609646Y7877759D01*
X2615031Y7880959D01*
X2629865Y7892897D01*
X2634335Y7896199D01*
X2637586Y7898079D01*
X2639771Y7898485D01*
X2641041Y7897368D01*
X2641549Y7894726D01*
X2641447Y7890509D01*
X2639872Y7874965D01*
X2638450Y7857337D01*
X2637790Y7842503D01*
X2637891Y7830820D01*
X2638196Y7826298D01*
X2638704Y7822742D01*
X2639314Y7820152D01*
X2640126Y7818678D01*
X2641092Y7818221D01*
X2642209Y7818983D01*
X2643479Y7820914D01*
X2644851Y7824114D01*
X2647238Y7830921D01*
X2649474Y7836255D01*
X2650693Y7838643D01*
X2651302Y7840319D01*
X2652674Y7847075D01*
X2654147Y7857286D01*
X2655519Y7869681D01*
X2657652Y7892745D01*
X2658567Y7899196D01*
X2659684Y7904683D01*
X2661005Y7909407D01*
X2662682Y7913420D01*
X2664815Y7916976D01*
X2667406Y7920177D01*
X2670556Y7923174D01*
X2674366Y7926171D01*
X2690215Y7936534D01*
X2694736Y7940090D01*
X2697835Y7943240D01*
X2699512Y7945932D01*
X2699715Y7948218D01*
X2698445Y7949996D01*
X2695752Y7951317D01*
X2691536Y7952181D01*
X2687472Y7952130D01*
X2683713Y7950962D01*
X2679903Y7948422D01*
X2669895Y7938922D01*
X2665374Y7936280D01*
X2662529Y7936534D01*
X2661513Y7939836D01*
X2662885Y7944358D01*
X2666593Y7948625D01*
X2672283Y7952282D01*
X2679547Y7955076D01*
X2687828Y7958581D01*
X2694736Y7963662D01*
X2699004Y7969199D01*
X2699613Y7974126D01*
X2698140Y7975853D01*
X2695295Y7975803D01*
X2690317Y7973720D01*
X2676652Y7966252D01*
X2671927Y7963966D01*
X2668270Y7962493D01*
X2665679Y7961833D01*
X2664104Y7961884D01*
X2663596Y7962595D01*
X2664104Y7964017D01*
X2665679Y7965998D01*
X2668320Y7968538D01*
X2671978Y7971586D01*
X2676702Y7975142D01*
X2693060Y7986420D01*
X2698496Y7991398D01*
X2700070Y7995869D01*
X2699156Y8001609D01*
X2696260Y8007197D01*
X2691638Y8008366D01*
X2685592Y8005114D01*
X2671927Y7990535D01*
X2666542Y7986877D01*
X2662885Y7986826D01*
X2661513Y7990586D01*
X2661869Y7992414D01*
X2662732Y7994091D01*
X2664002Y7995513D01*
X2667508Y7997596D01*
X2669743Y7999577D01*
X2672029Y8002066D01*
X2674061Y8004809D01*
X2676499Y8010804D01*
X2674467Y8013496D01*
X2668930Y8012582D01*
X2660954Y8007908D01*
X2656890Y8005064D01*
X2652522Y8002422D01*
X2648508Y8000339D01*
X2645257Y7999018D01*
X2641498Y7998256D01*
X2639974Y7998764D01*
X2640330Y8000390D01*
X2642463Y8002879D01*
X2646121Y8006080D01*
X2651048Y8009636D01*
X2657043Y8013496D01*
X2670098Y8020862D01*
X2675280Y8024266D01*
X2679344Y8027568D01*
X2682290Y8030514D01*
X2683865Y8033054D01*
X2684068Y8035036D01*
X2682798Y8036306D01*
X2677769Y8037017D01*
X2676855Y8037880D01*
X2677007Y8039557D01*
X2678277Y8042198D01*
X2680512Y8048345D01*
X2680970Y8054797D01*
X2679750Y8061198D01*
X2676804Y8066989D01*
X2673146Y8071358D01*
G37*
G36*
X2383332Y8068919D02*
G01*
X2381808Y8068767D01*
X2380691Y8066887D01*
X2375509Y8045907D01*
X2374442Y8039608D01*
X2375966Y8037220D01*
X2380792Y8038642D01*
X2394153Y8046516D01*
X2398420Y8048752D01*
X2401874Y8050225D01*
X2405532Y8050987D01*
X2406040Y8051495D01*
X2405684Y8052460D01*
X2404364Y8053933D01*
X2402586Y8055102D01*
X2400554Y8055051D01*
X2398014Y8053730D01*
X2390952Y8048040D01*
X2387650Y8046567D01*
X2385009Y8046415D01*
X2383282Y8047532D01*
X2382469Y8049666D01*
X2382774Y8052714D01*
X2384348Y8056524D01*
X2387193Y8060944D01*
X2387904Y8062468D01*
X2387854Y8064144D01*
X2387041Y8065871D01*
X2385517Y8067497D01*
G37*
G36*
X3263900Y8066278D02*
G01*
X3258515Y8065566D01*
X3253994Y8062366D01*
X3247542Y8054543D01*
X3228797Y8030006D01*
X3224225Y8024571D01*
X3220008Y8019999D01*
X3216148Y8016240D01*
X3212744Y8013344D01*
X3209696Y8011363D01*
X3207054Y8010194D01*
X3204819Y8009890D01*
X3202990Y8010499D01*
X3201619Y8011972D01*
X3199688Y8016544D01*
X3198114Y8018322D01*
X3196132Y8019542D01*
X3193999Y8019948D01*
X3191764Y8019542D01*
X3189478Y8018322D01*
X3187395Y8016544D01*
X3182315Y8009534D01*
X3179622Y8008874D01*
X3178200Y8011972D01*
X3178657Y8018576D01*
X3178759Y8026044D01*
X3176371Y8030260D01*
X3172358Y8030667D01*
X3167583Y8026603D01*
X3165043Y8022793D01*
X3162350Y8017865D01*
X3156864Y8005825D01*
X3151835Y7992414D01*
X3147923Y7979613D01*
X3146552Y7974075D01*
X3145739Y7969402D01*
X3145536Y7965897D01*
X3145914Y7964271D01*
X3169767Y7964271D01*
X3170732Y7971688D01*
X3172663Y7980324D01*
X3175050Y7986979D01*
X3176524Y7989265D01*
X3178098Y7990281D01*
X3180080Y7990027D01*
X3185718Y7987233D01*
X3188563Y7987182D01*
X3191814Y7988503D01*
X3201314Y7995005D01*
X3205175Y7997037D01*
X3207461Y7997342D01*
X3208274Y7995920D01*
X3206953Y7992465D01*
X3203397Y7987588D01*
X3198266Y7981899D01*
X3192119Y7975904D01*
X3185617Y7970316D01*
X3179419Y7965541D01*
X3174136Y7962290D01*
X3170326Y7961071D01*
X3169767Y7964271D01*
X3145914Y7964271D01*
X3148634Y7958074D01*
X3148939Y7952333D01*
X3146856Y7945526D01*
X3138170Y7929524D01*
X3136595Y7925155D01*
X3137204Y7922056D01*
X3139897Y7918703D01*
X3143300Y7915605D01*
X3146704Y7913827D01*
X3150057Y7913370D01*
X3153460Y7914182D01*
X3156813Y7916367D01*
X3160115Y7919770D01*
X3163417Y7924495D01*
X3168904Y7935010D01*
X3171393Y7939176D01*
X3174085Y7943138D01*
X3177082Y7946898D01*
X3180435Y7950504D01*
X3184144Y7954009D01*
X3188258Y7957464D01*
X3192830Y7960868D01*
X3197961Y7964271D01*
X3209899Y7971332D01*
X3224072Y7978648D01*
X3236976Y7984439D01*
X3242564Y7986572D01*
X3247542Y7988198D01*
X3251809Y7989316D01*
X3255467Y7989976D01*
X3258362Y7990128D01*
X3260496Y7989773D01*
X3261817Y7988909D01*
X3262376Y7987538D01*
X3262020Y7985709D01*
X3260801Y7983423D01*
X3258667Y7980578D01*
X3245510Y7967929D01*
X3242005Y7963611D01*
X3240786Y7960715D01*
X3241700Y7959242D01*
X3244697Y7959293D01*
X3249523Y7960817D01*
X3256178Y7963916D01*
X3264509Y7968589D01*
X3269792Y7972094D01*
X3274314Y7975498D01*
X3277971Y7978851D01*
X3280918Y7982102D01*
X3283051Y7985252D01*
X3284524Y7988198D01*
X3285236Y7990941D01*
X3285286Y7993532D01*
X3284728Y7995818D01*
X3283508Y7997799D01*
X3281679Y7999526D01*
X3279241Y8000898D01*
X3276295Y8001863D01*
X3272790Y8002473D01*
X3268776Y8002676D01*
X3264255Y8002371D01*
X3259328Y8001609D01*
X3253943Y8000339D01*
X3248101Y7998510D01*
X3229914Y7991246D01*
X3224072Y7989570D01*
X3223412Y7990941D01*
X3229914Y7998866D01*
X3237128Y8008975D01*
X3240633Y8014360D01*
X3244900Y8020405D01*
X3250692Y8027619D01*
X3257296Y8035036D01*
X3271774Y8049615D01*
X3275888Y8054644D01*
X3276854Y8057946D01*
X3275329Y8060436D01*
X3269640Y8064550D01*
G37*
G36*
X2315413Y8064804D02*
G01*
X2314803Y8064601D01*
X2313228Y8063128D01*
X2312009Y8060944D01*
X2312111Y8060029D01*
X2312670Y8059420D01*
X2313686Y8059216D01*
X2314854Y8059420D01*
X2315819Y8060029D01*
X2316429Y8060944D01*
X2316683Y8062010D01*
X2316327Y8063992D01*
X2315921Y8064601D01*
G37*
G36*
X2177084Y8050377D02*
G01*
X2176678Y8048701D01*
X2177643Y8044840D01*
X2179370Y8040878D01*
X2181047Y8038338D01*
X2181910Y8038795D01*
X2183333Y8040624D01*
X2186279Y8040522D01*
X2189175Y8039049D01*
X2190496Y8036458D01*
X2190191Y8035493D01*
X2189276Y8034731D01*
X2187956Y8034172D01*
X2184654Y8033766D01*
X2183333Y8033156D01*
X2182418Y8032242D01*
X2182114Y8031175D01*
X2182876Y8028990D01*
X2184806Y8028533D01*
X2187549Y8029752D01*
X2192426Y8034528D01*
X2194153Y8035290D01*
X2195931Y8034985D01*
X2199995Y8032242D01*
X2201722Y8031734D01*
X2203399Y8032089D01*
X2204974Y8033308D01*
X2205583Y8035086D01*
X2204008Y8037322D01*
X2200097Y8040116D01*
X2193747Y8043570D01*
X2184552Y8048091D01*
X2179370Y8050275D01*
G37*
G36*
X2291689Y8045856D02*
G01*
X2281275Y8045500D01*
X2270709Y8044281D01*
X2259888Y8042148D01*
X2254707Y8040624D01*
X2248458Y8038236D01*
X2241550Y8035239D01*
X2234336Y8031784D01*
X2227224Y8028076D01*
X2220569Y8024317D01*
X2214727Y8020659D01*
X2210155Y8017306D01*
X2209241Y8016036D01*
X2211984Y8016748D01*
X2217877Y8019288D01*
X2231948Y8026044D01*
X2237841Y8028381D01*
X2243886Y8030464D01*
X2256485Y8033715D01*
X2262936Y8034883D01*
X2269439Y8035798D01*
X2275992Y8036407D01*
X2288997Y8036763D01*
X2295398Y8036509D01*
X2301646Y8035950D01*
X2307793Y8035137D01*
X2313736Y8034020D01*
X2319477Y8032597D01*
X2324912Y8030921D01*
X2330145Y8028940D01*
X2334971Y8026704D01*
X2339492Y8024164D01*
X2343607Y8021370D01*
X2346452Y8018068D01*
X2344166Y8017002D01*
X2338324Y8018221D01*
X2330246Y8021574D01*
X2327046Y8023098D01*
X2324760Y8023859D01*
X2323490Y8023809D01*
X2323541Y8022996D01*
X2323185Y8021624D01*
X2320137Y8020710D01*
X2314295Y8020151D01*
X2305608Y8019948D01*
X2295499Y8020151D01*
X2289454Y8020812D01*
X2286558Y8022285D01*
X2285847Y8024723D01*
X2285746Y8027162D01*
X2285288Y8028025D01*
X2284222Y8027212D01*
X2282342Y8024875D01*
X2279548Y8022742D01*
X2274519Y8020405D01*
X2267966Y8018068D01*
X2253030Y8014208D01*
X2245156Y8011871D01*
X2230323Y8006638D01*
X2224227Y8004149D01*
X2219553Y8001863D01*
X2216759Y8000034D01*
X2216302Y7998815D01*
X2217775Y7998663D01*
X2220823Y7999120D01*
X2229764Y8001711D01*
X2237790Y8004302D01*
X2245563Y8006232D01*
X2252827Y8007553D01*
X2259228Y8008264D01*
X2264460Y8008315D01*
X2268321Y8007654D01*
X2270455Y8006334D01*
X2270607Y8004302D01*
X2265680Y7991348D01*
X2263648Y7987436D01*
X2262437Y7986318D01*
X2276805Y7986318D01*
X2279650Y8001050D01*
X2281377Y8007756D01*
X2282037Y8009432D01*
X2283561Y8010398D01*
X2286558Y8011058D01*
X2290775Y8011414D01*
X2302306Y8011159D01*
X2309164Y8010550D01*
X2324100Y8008467D01*
X2330094Y8007096D01*
X2335580Y8005114D01*
X2340508Y8002625D01*
X2344886Y7999628D01*
X2357577Y7999628D01*
X2361031Y7999222D01*
X2369312Y7996021D01*
X2373172Y7994040D01*
X2377186Y7991094D01*
X2380996Y7987690D01*
X2384348Y7984083D01*
X2386939Y7980680D01*
X2388463Y7977835D01*
X2388616Y7975853D01*
X2387092Y7975092D01*
X2381250Y7976158D01*
X2375052Y7979257D01*
X2368956Y7984032D01*
X2363317Y7990230D01*
X2358542Y7996834D01*
X2357577Y7999628D01*
X2344886Y7999628D01*
X2348280Y7996529D01*
X2350922Y7993024D01*
X2352548Y7989316D01*
X2353106Y7985556D01*
X2351582Y7984286D01*
X2347518Y7983931D01*
X2341626Y7984337D01*
X2334768Y7985404D01*
X2327656Y7986877D01*
X2321102Y7988757D01*
X2315870Y7990789D01*
X2312720Y7992922D01*
X2310384Y7995310D01*
X2309012Y7996377D01*
X2308555Y7996021D01*
X2309012Y7994294D01*
X2308809Y7990789D01*
X2305253Y7988350D01*
X2298242Y7986877D01*
X2287625Y7986369D01*
X2262437Y7986318D01*
X2260346Y7984388D01*
X2255012Y7981848D01*
X2242312Y7977784D01*
X2230526Y7973466D01*
X2217369Y7968081D01*
X2204770Y7962493D01*
X2194712Y7957616D01*
X2191258Y7955686D01*
X2189226Y7954264D01*
X2188768Y7953451D01*
X2190953Y7953603D01*
X2195982Y7954772D01*
X2221331Y7962392D01*
X2231085Y7965033D01*
X2239975Y7967167D01*
X2246833Y7968386D01*
X2259990Y7970113D01*
X2257722Y7958531D01*
X2271369Y7958531D01*
X2273503Y7967878D01*
X2275890Y7969961D01*
X2280666Y7971485D01*
X2287066Y7972399D01*
X2294229Y7972704D01*
X2301443Y7972399D01*
X2307793Y7971485D01*
X2312568Y7969961D01*
X2314956Y7967878D01*
X2315912Y7963560D01*
X2326538Y7963560D01*
X2326538Y7965897D01*
X2327910Y7967522D01*
X2330602Y7968538D01*
X2334463Y7968894D01*
X2339238Y7968589D01*
X2344877Y7967624D01*
X2351125Y7965998D01*
X2357831Y7963712D01*
X2362403Y7960563D01*
X2366314Y7955432D01*
X2367160Y7953400D01*
X2381402Y7953400D01*
X2382469Y7955076D01*
X2386228Y7954416D01*
X2393442Y7951571D01*
X2399385Y7947152D01*
X2404160Y7940344D01*
X2406599Y7933385D01*
X2405583Y7928508D01*
X2401112Y7928406D01*
X2393797Y7931048D01*
X2386939Y7934909D01*
X2383942Y7938414D01*
X2383383Y7943392D01*
X2381402Y7953400D01*
X2367160Y7953400D01*
X2368956Y7949082D01*
X2369972Y7942376D01*
X2369464Y7940294D01*
X2367838Y7939278D01*
X2364638Y7939125D01*
X2350211Y7941411D01*
X2343302Y7942783D01*
X2338324Y7944205D01*
X2334768Y7946034D01*
X2332278Y7948574D01*
X2330348Y7952130D01*
X2326538Y7963560D01*
X2315912Y7963560D01*
X2316530Y7957921D01*
X2316683Y7944256D01*
X2293772Y7944053D01*
X2287320Y7943697D01*
X2281834Y7943138D01*
X2278126Y7942478D01*
X2274011Y7944002D01*
X2271623Y7949996D01*
X2271369Y7958531D01*
X2257722Y7958531D01*
X2255113Y7942630D01*
X2252878Y7940700D01*
X2246833Y7937753D01*
X2237943Y7934198D01*
X2221179Y7928406D01*
X2208987Y7923631D01*
X2197404Y7918551D01*
X2187905Y7913674D01*
X2179015Y7907883D01*
X2175510Y7905191D01*
X2174087Y7903667D01*
X2175103Y7903667D01*
X2209546Y7915757D01*
X2226716Y7920990D01*
X2233523Y7922615D01*
X2239213Y7923530D01*
X2243937Y7923682D01*
X2247747Y7923174D01*
X2250744Y7921955D01*
X2253030Y7920024D01*
X2254758Y7917383D01*
X2255926Y7913979D01*
X2256739Y7909915D01*
X2258293Y7898638D01*
X2269032Y7898638D01*
X2269083Y7916621D01*
X2269439Y7920685D01*
X2270455Y7923580D01*
X2272436Y7925511D01*
X2275586Y7926628D01*
X2280310Y7927086D01*
X2286863Y7927136D01*
X2318054Y7926019D01*
X2319782Y7902194D01*
X2303830Y7902041D01*
X2290267Y7901076D01*
X2281555Y7900111D01*
X2336292Y7900111D01*
X2336393Y7920177D01*
X2337104Y7922259D01*
X2338781Y7923275D01*
X2341727Y7923377D01*
X2346350Y7922564D01*
X2362250Y7918653D01*
X2368092Y7916925D01*
X2371242Y7914741D01*
X2372512Y7911033D01*
X2372766Y7904581D01*
X2372563Y7899095D01*
X2371902Y7895894D01*
X2371620Y7895590D01*
X2382316Y7895590D01*
X2383485Y7900162D01*
X2384399Y7908848D01*
X2386279Y7910271D01*
X2390495Y7909763D01*
X2397861Y7907426D01*
X2403144Y7903362D01*
X2405938Y7896859D01*
X2405938Y7889646D01*
X2402738Y7883601D01*
X2398014Y7883601D01*
X2390800Y7886953D01*
X2384450Y7891576D01*
X2382316Y7895590D01*
X2371620Y7895590D01*
X2370632Y7894523D01*
X2368600Y7894777D01*
X2361488Y7896453D01*
X2350363Y7898282D01*
X2336292Y7900111D01*
X2281555Y7900111D01*
X2269032Y7898638D01*
X2258293Y7898638D01*
X2258517Y7897012D01*
X2246376Y7893761D01*
X2240229Y7891830D01*
X2230467Y7888173D01*
X2291232Y7888173D01*
X2306066Y7887766D01*
X2311450Y7887258D01*
X2314498Y7886700D01*
X2316226Y7885379D01*
X2317191Y7882839D01*
X2317394Y7878927D01*
X2315260Y7861553D01*
X2304507Y7860690D01*
X2328621Y7860690D01*
X2331415Y7871612D01*
X2334006Y7878724D01*
X2338120Y7882128D01*
X2345232Y7882280D01*
X2356612Y7879638D01*
X2363317Y7877505D01*
X2366365Y7875016D01*
X2366365Y7870698D01*
X2364028Y7863179D01*
X2362454Y7859674D01*
X2360777Y7857083D01*
X2358999Y7855661D01*
X2357374Y7855559D01*
X2351176Y7857032D01*
X2328621Y7860690D01*
X2304507Y7860690D01*
X2287625Y7859318D01*
X2281631Y7859014D01*
X2277364Y7859217D01*
X2274570Y7860131D01*
X2272893Y7861909D01*
X2272080Y7864754D01*
X2271826Y7868818D01*
X2271826Y7888173D01*
X2230467Y7888173D01*
X2215946Y7882229D01*
X2202129Y7875828D01*
X2198116Y7873542D01*
X2197049Y7872323D01*
X2199589Y7872475D01*
X2205736Y7873695D01*
X2244801Y7883347D01*
X2251151Y7884312D01*
X2255824Y7884159D01*
X2259126Y7882940D01*
X2261565Y7880502D01*
X2263495Y7876794D01*
X2266848Y7866938D01*
X2267762Y7863230D01*
X2267712Y7860385D01*
X2266594Y7858099D01*
X2264206Y7856220D01*
X2260142Y7854391D01*
X2364435Y7854391D01*
X2370074Y7863992D01*
X2372969Y7867396D01*
X2376627Y7869783D01*
X2380742Y7871155D01*
X2384958Y7871510D01*
X2388870Y7870850D01*
X2392121Y7869224D01*
X2394356Y7866634D01*
X2395169Y7863128D01*
X2393848Y7857693D01*
X2390698Y7852359D01*
X2386736Y7848498D01*
X2383180Y7847584D01*
X2364435Y7854391D01*
X2260142Y7854391D01*
X2240178Y7848092D01*
X2234184Y7845907D01*
X2229916Y7843977D01*
X2227884Y7842554D01*
X2227630Y7841640D01*
X2228240Y7841132D01*
X2229612Y7841081D01*
X2244191Y7844840D01*
X2257348Y7847075D01*
X2264359Y7847888D01*
X2279446Y7848752D01*
X2313381Y7848955D01*
X2307945Y7828025D01*
X2306980Y7823453D01*
X2306675Y7820609D01*
X2307082Y7819440D01*
X2308148Y7820050D01*
X2309926Y7822387D01*
X2312466Y7826400D01*
X2323693Y7846568D01*
X2344674Y7843723D01*
X2351887Y7842402D01*
X2357983Y7841030D01*
X2362962Y7839506D01*
X2366924Y7837881D01*
X2369769Y7836052D01*
X2371598Y7834122D01*
X2372410Y7831988D01*
X2372258Y7829651D01*
X2371090Y7827111D01*
X2368956Y7824368D01*
X2365857Y7821371D01*
X2361082Y7817408D01*
X2356205Y7813700D01*
X2351125Y7810246D01*
X2345944Y7807045D01*
X2335225Y7801457D01*
X2329688Y7799070D01*
X2324049Y7796936D01*
X2318359Y7795107D01*
X2312619Y7793532D01*
X2306777Y7792212D01*
X2300884Y7791145D01*
X2294991Y7790383D01*
X2289098Y7789925D01*
X2277211Y7789773D01*
X2265426Y7790789D01*
X2253742Y7792974D01*
X2248001Y7794498D01*
X2242362Y7796326D01*
X2236774Y7798409D01*
X2223820Y7804200D01*
X2214473Y7808010D01*
X2213711Y7808010D01*
X2214067Y7806944D01*
X2213660Y7805521D01*
X2212543Y7803946D01*
X2210765Y7802321D01*
X2206802Y7799781D01*
X2203856Y7798663D01*
X2202484Y7799171D01*
X2203602Y7802372D01*
X2203602Y7803235D01*
X2203094Y7803845D01*
X2202230Y7804048D01*
X2199233Y7802930D01*
X2196490Y7800187D01*
X2194864Y7797088D01*
X2195220Y7794701D01*
X2195626Y7793990D01*
X2195322Y7793380D01*
X2194458Y7792923D01*
X2189022Y7791856D01*
X2185162Y7789621D01*
X2181707Y7786471D01*
X2179015Y7782915D01*
X2177338Y7779359D01*
X2176983Y7776260D01*
X2178151Y7774076D01*
X2181148Y7773212D01*
X2183434Y7773060D01*
X2184196Y7772298D01*
X2183282Y7770622D01*
X2180691Y7767624D01*
X2176830Y7762494D01*
X2177135Y7760766D01*
X2180590Y7762494D01*
X2189784Y7770926D01*
X2193290Y7773568D01*
X2196439Y7775397D01*
X2198776Y7776057D01*
X2202688Y7777734D01*
X2206599Y7781696D01*
X2209190Y7786116D01*
X2209038Y7789265D01*
X2208784Y7790129D01*
X2209139Y7791399D01*
X2210054Y7792923D01*
X2213000Y7796225D01*
X2215540Y7799730D01*
X2216200Y7801051D01*
X2218182Y7801305D01*
X2223008Y7799933D01*
X2229815Y7797241D01*
X2242972Y7791094D01*
X2248103Y7789062D01*
X2253335Y7787284D01*
X2264156Y7784439D01*
X2269744Y7783423D01*
X2275382Y7782661D01*
X2286812Y7781848D01*
X2298395Y7782052D01*
X2304186Y7782509D01*
X2315819Y7784185D01*
X2327300Y7786827D01*
X2332939Y7788503D01*
X2344064Y7792567D01*
X2349449Y7794955D01*
X2359914Y7800441D01*
X2364994Y7803489D01*
X2376017Y7810906D01*
X2379421Y7811973D01*
X2380843Y7809839D01*
X2381148Y7804251D01*
X2380843Y7800441D01*
X2379827Y7797546D01*
X2378049Y7795514D01*
X2375458Y7794244D01*
X2373325Y7792415D01*
X2372461Y7789062D01*
X2372715Y7784744D01*
X2373934Y7780020D01*
X2375865Y7775397D01*
X2378354Y7771434D01*
X2381250Y7768691D01*
X2384348Y7767624D01*
X2385618Y7769961D01*
X2384907Y7775346D01*
X2382875Y7781340D01*
X2380030Y7785404D01*
X2379065Y7786319D01*
X2379014Y7786725D01*
X2379878Y7786725D01*
X2383536Y7786014D01*
X2385364Y7786319D01*
X2386787Y7787182D01*
X2387701Y7788503D01*
X2388362Y7795006D01*
X2387498Y7803997D01*
X2385618Y7811871D01*
X2383332Y7815275D01*
X2383180Y7816291D01*
X2384755Y7819034D01*
X2387752Y7823047D01*
X2395423Y7832191D01*
X2401824Y7840776D01*
X2407412Y7849565D01*
X2412085Y7858607D01*
X2415946Y7867751D01*
X2418994Y7877048D01*
X2421280Y7886395D01*
X2422804Y7895844D01*
X2423566Y7905292D01*
X2423617Y7914741D01*
X2422956Y7924088D01*
X2421636Y7933385D01*
X2419604Y7942529D01*
X2417013Y7951571D01*
X2413762Y7960359D01*
X2409952Y7968945D01*
X2405583Y7977276D01*
X2400604Y7985252D01*
X2395169Y7992922D01*
X2389225Y8000238D01*
X2382774Y8007096D01*
X2375865Y8013547D01*
X2368550Y8019542D01*
X2360777Y8024977D01*
X2352649Y8029854D01*
X2344115Y8034172D01*
X2335276Y8037880D01*
X2326081Y8040928D01*
X2316581Y8043265D01*
X2306828Y8044891D01*
X2296769Y8045703D01*
G37*
G36*
X2413406Y8043925D02*
G01*
X2390952Y8020659D01*
X2400249Y8011515D01*
X2404770Y8007350D01*
X2408174Y8005064D01*
X2410764Y8004505D01*
X2412746Y8005572D01*
X2414016Y8007045D01*
X2414270Y8008061D01*
X2413457Y8008569D01*
X2411526Y8008721D01*
X2406243Y8010093D01*
X2402992Y8013446D01*
X2402230Y8017764D01*
X2404516Y8022081D01*
X2407158Y8024469D01*
X2409037Y8025180D01*
X2410815Y8024114D01*
X2414879Y8019288D01*
X2416606Y8018018D01*
X2418130Y8017509D01*
X2419299Y8017916D01*
X2419705Y8019034D01*
X2419248Y8020507D01*
X2417978Y8022234D01*
X2413508Y8026044D01*
X2412441Y8027873D01*
X2412796Y8029803D01*
X2414524Y8032242D01*
X2417673Y8034883D01*
X2420620Y8034934D01*
X2423312Y8032546D01*
X2426716Y8025587D01*
X2427782Y8024368D01*
X2428798Y8024012D01*
X2429662Y8024622D01*
X2429611Y8026400D01*
X2428240Y8029041D01*
X2425750Y8032292D01*
X2422398Y8035696D01*
G37*
G36*
X2864764Y8039150D02*
G01*
X2860446Y8036915D01*
X2856077Y8030464D01*
X2850997Y8021574D01*
X2848102Y8017306D01*
X2840786Y8008162D01*
X2829976Y7996478D01*
X2842615Y7996478D01*
X2844139Y7999120D01*
X2848000Y8004302D01*
X2853283Y8010499D01*
X2856636Y8012988D01*
X2857398Y8011617D01*
X2855163Y8006232D01*
X2853486Y8003743D01*
X2851251Y8001253D01*
X2848711Y7998968D01*
X2846171Y7997291D01*
X2843326Y7996021D01*
X2842615Y7996478D01*
X2829976Y7996478D01*
X2817266Y7983067D01*
X2812694Y7977225D01*
X2809798Y7972501D01*
X2808579Y7969046D01*
X2809087Y7967116D01*
X2811322Y7966862D01*
X2815336Y7968488D01*
X2825089Y7974787D01*
X2827782Y7976108D01*
X2829204Y7976260D01*
X2829407Y7975346D01*
X2828442Y7973466D01*
X2826258Y7970672D01*
X2822956Y7967065D01*
X2813812Y7958226D01*
X2809240Y7953451D01*
X2805430Y7949031D01*
X2802788Y7945526D01*
X2798775Y7940954D01*
X2794762Y7938922D01*
X2791206Y7939531D01*
X2785262Y7947558D01*
X2781249Y7946745D01*
X2777286Y7940852D01*
X2773934Y7930438D01*
X2772003Y7922920D01*
X2769463Y7914741D01*
X2766618Y7906918D01*
X2760065Y7891525D01*
X2758948Y7885277D01*
X2760370Y7881162D01*
X2764485Y7878521D01*
X2768854Y7877352D01*
X2772664Y7877505D01*
X2776016Y7878978D01*
X2778861Y7881924D01*
X2781249Y7886293D01*
X2783281Y7892186D01*
X2785008Y7899653D01*
X2787700Y7917281D01*
X2789428Y7922717D01*
X2792069Y7926222D01*
X2800299Y7931353D01*
X2805582Y7935061D01*
X2825242Y7950860D01*
X2830931Y7954568D01*
X2834284Y7955330D01*
X2835351Y7953248D01*
X2835097Y7952130D01*
X2833471Y7949234D01*
X2832252Y7947863D01*
X2830779Y7945069D01*
X2830982Y7942072D01*
X2832557Y7939633D01*
X2835300Y7938668D01*
X2836926Y7939227D01*
X2839466Y7940700D01*
X2842666Y7942935D01*
X2852267Y7950504D01*
X2855874Y7952333D01*
X2857195Y7951165D01*
X2855468Y7943138D01*
X2856484Y7941868D01*
X2860243Y7943291D01*
X2867609Y7947406D01*
X2872892Y7951114D01*
X2876143Y7954416D01*
X2877312Y7957261D01*
X2876600Y7959547D01*
X2874111Y7961020D01*
X2869946Y7961680D01*
X2864256Y7961274D01*
X2854096Y7959140D01*
X2851658Y7959039D01*
X2849981Y7959394D01*
X2849372Y7960207D01*
X2851200Y7961782D01*
X2856077Y7964525D01*
X2871825Y7972044D01*
X2890215Y7979765D01*
X2898394Y7982864D01*
X2904744Y7984947D01*
X2909468Y7987030D01*
X2910840Y7989316D01*
X2909011Y7991144D01*
X2903982Y7991906D01*
X2899765Y7991500D01*
X2894025Y7990281D01*
X2887218Y7988452D01*
X2872536Y7983677D01*
X2865729Y7981035D01*
X2859938Y7978495D01*
X2847035Y7971231D01*
X2840837Y7968792D01*
X2837688Y7969097D01*
X2838145Y7972247D01*
X2840278Y7975447D01*
X2843326Y7978749D01*
X2847238Y7982153D01*
X2851912Y7985607D01*
X2857347Y7989011D01*
X2863443Y7992414D01*
X2870149Y7995716D01*
X2890062Y8004556D01*
X2898038Y8009280D01*
X2901696Y8013293D01*
X2901442Y8016900D01*
X2898800Y8019288D01*
X2895193Y8019694D01*
X2890570Y8018018D01*
X2877870Y8009737D01*
X2872994Y8008416D01*
X2871216Y8010398D01*
X2873349Y8015528D01*
X2875635Y8019440D01*
X2876397Y8022640D01*
X2875635Y8026095D01*
X2873349Y8030972D01*
X2869031Y8037169D01*
G37*
G36*
X2156460Y8031835D02*
G01*
X2154174Y8029905D01*
X2152954Y8028228D01*
X2152345Y8026857D01*
X2152345Y8025892D01*
X2154834Y8024723D01*
X2157882Y8022539D01*
X2161844Y8019288D01*
X2171344Y8010804D01*
X2175154Y8008213D01*
X2177999Y8007400D01*
X2179980Y8008315D01*
X2181860Y8010753D01*
X2182114Y8011668D01*
X2181860Y8012226D01*
X2163064Y8029041D01*
X2159101Y8031683D01*
G37*
G36*
X2186025Y8025384D02*
G01*
X2185212Y8024114D01*
X2184908Y8021218D01*
X2185111Y8019643D01*
X2185720Y8018627D01*
X2186635Y8018272D01*
X2187752Y8018576D01*
X2188718Y8019491D01*
X2189276Y8020608D01*
X2189378Y8021828D01*
X2188972Y8022945D01*
X2187346Y8025028D01*
G37*
G36*
X2815590Y8024926D02*
G01*
X2813405Y8024520D01*
X2810814Y8022590D01*
X2808020Y8019389D01*
X2801721Y8009585D01*
X2796489Y8002320D01*
X2783789Y7986318D01*
X2774391Y7974888D01*
X2767634Y7965897D01*
X2763621Y7959394D01*
X2762554Y7957108D01*
X2762250Y7955534D01*
X2762554Y7954568D01*
X2763520Y7954314D01*
X2765196Y7954772D01*
X2767533Y7955889D01*
X2770530Y7957718D01*
X2778556Y7963560D01*
X2790545Y7973720D01*
X2796997Y7980019D01*
X2802788Y7986318D01*
X2807919Y7992516D01*
X2812237Y7998561D01*
X2815793Y8004251D01*
X2818384Y8009534D01*
X2820060Y8014208D01*
X2820670Y8018221D01*
X2820162Y8021421D01*
X2818485Y8023707D01*
G37*
G36*
X2438654Y8013700D02*
G01*
X2425496Y8005318D01*
X2420162Y8001558D01*
X2416077Y7997901D01*
X2431948Y7997901D01*
X2432964Y7999526D01*
X2435707Y8001812D01*
X2440635Y8004048D01*
X2444140Y8003336D01*
X2445207Y8000441D01*
X2442718Y7996224D01*
X2440635Y7994548D01*
X2438603Y7993735D01*
X2436571Y7993888D01*
X2434437Y7994903D01*
X2432456Y7996478D01*
X2431948Y7997901D01*
X2416077Y7997901D01*
X2414168Y7995310D01*
X2413863Y7993125D01*
X2414879Y7991398D01*
X2416352Y7990890D01*
X2418638Y7991703D01*
X2426462Y7996377D01*
X2428392Y7996478D01*
X2428087Y7993684D01*
X2425903Y7987436D01*
X2424938Y7984083D01*
X2424430Y7980680D01*
X2424430Y7977631D01*
X2424938Y7975346D01*
X2427274Y7969503D01*
X2429459Y7961579D01*
X2431389Y7956346D01*
X2433421Y7953248D01*
X2435809Y7951673D01*
X2440889Y7950809D01*
X2445004Y7952486D01*
X2448102Y7956550D01*
X2450134Y7963001D01*
X2451252Y7967776D01*
X2452674Y7970570D01*
X2454605Y7971637D01*
X2459583Y7970977D01*
X2461056Y7971180D01*
X2461768Y7971942D01*
X2461717Y7973212D01*
X2458364Y7976819D01*
X2453284Y7976565D01*
X2448052Y7973059D01*
X2444292Y7966862D01*
X2442768Y7963052D01*
X2441041Y7959750D01*
X2439263Y7957312D01*
X2437739Y7956092D01*
X2434590Y7956600D01*
X2432761Y7959699D01*
X2432608Y7963966D01*
X2434488Y7968132D01*
X2436012Y7970215D01*
X2436368Y7971485D01*
X2435504Y7972145D01*
X2431592Y7972552D01*
X2430170Y7973314D01*
X2429205Y7974431D01*
X2428849Y7975803D01*
X2429814Y7980425D01*
X2432354Y7984134D01*
X2436063Y7986674D01*
X2440584Y7987639D01*
X2445613Y7989722D01*
X2447950Y7994751D01*
X2447391Y8001355D01*
X2443683Y8007959D01*
G37*
G36*
X2151126Y8009940D02*
G01*
X2146046Y8009534D01*
X2141372Y8007654D01*
X2137460Y8004149D01*
X2134514Y7999679D01*
X2133574Y7997240D01*
X2137257Y7997240D01*
X2138121Y8002879D01*
X2141067Y8005470D01*
X2146198Y8005064D01*
X2153970Y8001812D01*
X2159254Y7998459D01*
X2162505Y7994954D01*
X2163826Y7991144D01*
X2163165Y7987030D01*
X2161133Y7984540D01*
X2157780Y7983575D01*
X2153564Y7983829D01*
X2148992Y7985150D01*
X2144623Y7987334D01*
X2140864Y7990230D01*
X2138222Y7993583D01*
X2137257Y7997240D01*
X2133574Y7997240D01*
X2132888Y7995462D01*
X2132482Y7991551D01*
X2133142Y7987995D01*
X2134768Y7984896D01*
X2137359Y7982305D01*
X2140712Y7980324D01*
X2144776Y7979003D01*
X2149500Y7978444D01*
X2154732Y7978648D01*
X2160422Y7979765D01*
X2166416Y7981848D01*
X2173528Y7985556D01*
X2177897Y7989062D01*
X2178405Y7991195D01*
X2174036Y7990636D01*
X2171141Y7989976D01*
X2169312Y7990281D01*
X2168347Y7991703D01*
X2168093Y7994345D01*
X2167128Y7999374D01*
X2164588Y8003590D01*
X2160778Y8006842D01*
X2156155Y8009026D01*
G37*
G36*
X3051911Y8005876D02*
G01*
X3048304Y8004962D01*
X3044342Y8001812D01*
X3039516Y7995970D01*
X3028340Y7979308D01*
X3022150Y7970926D01*
X3044190Y7970926D01*
X3044342Y7972399D01*
X3045764Y7975346D01*
X3048457Y7978648D01*
X3051352Y7979968D01*
X3053537Y7979308D01*
X3054096Y7976412D01*
X3053537Y7975193D01*
X3052216Y7973923D01*
X3050387Y7972653D01*
X3048203Y7971688D01*
X3045409Y7970774D01*
X3044190Y7970926D01*
X3022150Y7970926D01*
X3020009Y7968284D01*
X3016250Y7964576D01*
X3012440Y7961731D01*
X3008325Y7959547D01*
X3003600Y7957769D01*
X2983484Y7952282D01*
X2975051Y7949031D01*
X2971749Y7946034D01*
X2972765Y7942834D01*
X2976270Y7939938D01*
X2980842Y7939024D01*
X2987294Y7939989D01*
X3004769Y7945424D01*
X3008172Y7945120D01*
X3007106Y7941411D01*
X2996133Y7926476D01*
X2987598Y7914182D01*
X2984601Y7909204D01*
X2982417Y7904988D01*
X2981045Y7901482D01*
X2980537Y7898688D01*
X2980842Y7896606D01*
X2981909Y7895132D01*
X2983788Y7894269D01*
X2986481Y7893964D01*
X2989935Y7894269D01*
X2993440Y7896098D01*
X2998114Y7900365D01*
X3003448Y7906410D01*
X3009036Y7913674D01*
X3014421Y7921498D01*
X3019145Y7929270D01*
X3022752Y7936382D01*
X3024784Y7942173D01*
X3025698Y7945374D01*
X3027172Y7948117D01*
X3029407Y7950555D01*
X3032760Y7952892D01*
X3037433Y7955229D01*
X3043783Y7957820D01*
X3070961Y7967065D01*
X3077565Y7969758D01*
X3082239Y7972196D01*
X3085033Y7974431D01*
X3085947Y7976514D01*
X3085033Y7978444D01*
X3082340Y7980324D01*
X3070199Y7984998D01*
X3065830Y7987741D01*
X3064103Y7990890D01*
X3064560Y7995005D01*
X3064662Y7999526D01*
X3062478Y8002930D01*
X3058160Y8005114D01*
G37*
G36*
X2149144Y7966202D02*
G01*
X2132330Y7964627D01*
X2123846Y7963408D01*
X2121306Y7961071D01*
X2124760Y7956651D01*
X2126240Y7955483D01*
X2131618Y7955483D01*
X2131974Y7956550D01*
X2132888Y7957464D01*
X2134209Y7958074D01*
X2135835Y7958277D01*
X2137460Y7958074D01*
X2138781Y7957464D01*
X2139696Y7956550D01*
X2140051Y7955483D01*
X2139696Y7954365D01*
X2138781Y7953502D01*
X2137460Y7952892D01*
X2135835Y7952689D01*
X2134209Y7952892D01*
X2132888Y7953502D01*
X2131974Y7954365D01*
X2131618Y7955483D01*
X2126240Y7955483D01*
X2134412Y7949031D01*
X2139899Y7945069D01*
X2144318Y7942173D01*
X2147366Y7940497D01*
X2148433Y7940395D01*
X2148128Y7941360D01*
X2145792Y7944053D01*
X2144115Y7945424D01*
X2141474Y7949184D01*
X2141677Y7953400D01*
X2144217Y7956854D01*
X2148738Y7958277D01*
X2150821Y7958632D01*
X2152497Y7959496D01*
X2153666Y7960868D01*
X2154072Y7962493D01*
X2153666Y7964068D01*
X2152599Y7965338D01*
X2151075Y7966049D01*
G37*
G36*
X2461666Y7965389D02*
G01*
X2460498Y7964982D01*
X2459482Y7963966D01*
X2458669Y7962493D01*
X2458262Y7960715D01*
X2458618Y7959394D01*
X2459583Y7958581D01*
X2461158Y7958277D01*
X2463901Y7958988D01*
X2465120Y7960766D01*
X2464816Y7963001D01*
X2462784Y7965084D01*
G37*
G36*
X3226663Y7951876D02*
G01*
X3221126Y7950657D01*
X3213862Y7947761D01*
X3204768Y7943189D01*
X3198012Y7939176D01*
X3192983Y7935468D01*
X3189630Y7932115D01*
X3188055Y7929270D01*
X3188258Y7927086D01*
X3190240Y7925612D01*
X3194100Y7925003D01*
X3199841Y7925409D01*
X3211068Y7926882D01*
X3211068Y7915503D01*
X3210610Y7908899D01*
X3208477Y7903514D01*
X3203702Y7897520D01*
X3187090Y7881467D01*
X3182772Y7876336D01*
X3181604Y7872882D01*
X3182924Y7870139D01*
X3187496Y7866888D01*
X3193135Y7865922D01*
X3198520Y7867192D01*
X3202330Y7870647D01*
X3205073Y7873898D01*
X3207004Y7873187D01*
X3207816Y7869174D01*
X3207156Y7862366D01*
X3204972Y7853578D01*
X3202482Y7848549D01*
X3199485Y7847025D01*
X3195777Y7848803D01*
X3191662Y7851190D01*
X3189528Y7850073D01*
X3189427Y7845602D01*
X3191408Y7837881D01*
X3193135Y7833309D01*
X3195066Y7829702D01*
X3197098Y7827060D01*
X3199231Y7825333D01*
X3201466Y7824571D01*
X3203651Y7824622D01*
X3205886Y7825536D01*
X3208121Y7827264D01*
X3210255Y7829753D01*
X3212287Y7833055D01*
X3214268Y7837017D01*
X3216046Y7841742D01*
X3217672Y7847075D01*
X3219094Y7853121D01*
X3220262Y7859725D01*
X3222142Y7874152D01*
X3223514Y7880146D01*
X3225444Y7885125D01*
X3228035Y7889138D01*
X3231489Y7892440D01*
X3235807Y7895183D01*
X3241243Y7897469D01*
X3247898Y7899501D01*
X3254400Y7901838D01*
X3257854Y7904632D01*
X3258362Y7908290D01*
X3256229Y7913065D01*
X3252825Y7915148D01*
X3246729Y7915656D01*
X3238449Y7914589D01*
X3228594Y7911998D01*
X3223920Y7911693D01*
X3222294Y7914944D01*
X3223717Y7921752D01*
X3231286Y7939582D01*
X3232759Y7945221D01*
X3232454Y7949133D01*
X3230422Y7951368D01*
G37*
G36*
X2901137Y7951622D02*
G01*
X2896057Y7950758D01*
X2889707Y7948980D01*
X2882138Y7946288D01*
X2863799Y7938922D01*
X2854502Y7935874D01*
X2846527Y7933791D01*
X2840837Y7933029D01*
X2835859Y7932623D01*
X2831541Y7931403D01*
X2827731Y7929219D01*
X2821127Y7923326D01*
X2817672Y7921091D01*
X2814320Y7919567D01*
X2811373Y7919008D01*
X2809036Y7917942D01*
X2806496Y7914894D01*
X2803956Y7910322D01*
X2801518Y7904632D01*
X2799384Y7898231D01*
X2797657Y7891424D01*
X2796540Y7884718D01*
X2796133Y7878521D01*
X2796946Y7874457D01*
X2799181Y7873288D01*
X2802280Y7874406D01*
X2805887Y7877454D01*
X2809544Y7881874D01*
X2812745Y7887258D01*
X2815082Y7893151D01*
X2816047Y7899095D01*
X2816656Y7904734D01*
X2817164Y7905292D01*
X2817723Y7904124D01*
X2820720Y7900060D01*
X2825242Y7899704D01*
X2829458Y7902549D01*
X2831439Y7908086D01*
X2832201Y7914386D01*
X2833979Y7918653D01*
X2836926Y7921040D01*
X2841142Y7921853D01*
X2844850Y7920939D01*
X2846273Y7918450D01*
X2845671Y7915554D01*
X2858262Y7915554D01*
X2858312Y7918246D01*
X2859684Y7921447D01*
X2862275Y7924850D01*
X2865932Y7928051D01*
X2870657Y7930692D01*
X2878480Y7933080D01*
X2882798Y7932013D01*
X2883052Y7928102D01*
X2878785Y7921802D01*
X2876346Y7919567D01*
X2873248Y7917332D01*
X2869844Y7915402D01*
X2866542Y7913979D01*
X2862275Y7913065D01*
X2859532Y7913725D01*
X2858262Y7915554D01*
X2845671Y7915554D01*
X2845460Y7914538D01*
X2840380Y7905800D01*
X2840126Y7902600D01*
X2841345Y7900009D01*
X2843834Y7898079D01*
X2847340Y7897012D01*
X2851607Y7896859D01*
X2856382Y7897723D01*
X2861462Y7899806D01*
X2866390Y7902956D01*
X2868320Y7904632D01*
X2872232Y7908696D01*
X2873146Y7906461D01*
X2872333Y7900568D01*
X2869742Y7892084D01*
X2867456Y7886801D01*
X2864916Y7882585D01*
X2862224Y7879537D01*
X2859481Y7877606D01*
X2856738Y7876895D01*
X2854147Y7877454D01*
X2851658Y7879283D01*
X2849473Y7882432D01*
X2846222Y7886344D01*
X2842514Y7888020D01*
X2839415Y7887309D01*
X2838145Y7884058D01*
X2839974Y7877200D01*
X2844292Y7868361D01*
X2849524Y7860385D01*
X2853944Y7856169D01*
X2857601Y7855458D01*
X2861259Y7856067D01*
X2864916Y7857998D01*
X2868574Y7861198D01*
X2872181Y7865719D01*
X2875788Y7871459D01*
X2879344Y7878521D01*
X2884322Y7890560D01*
X2888335Y7899400D01*
X2893060Y7909052D01*
X2904286Y7929778D01*
X2907233Y7935925D01*
X2909062Y7941056D01*
X2909773Y7945170D01*
X2909366Y7948269D01*
X2907792Y7950403D01*
X2905048Y7951470D01*
G37*
G36*
X2464968Y7946491D02*
G01*
X2458872Y7945831D01*
X2447645Y7943596D01*
X2440533Y7941462D01*
X2435860Y7938922D01*
X2434488Y7936585D01*
X2437333Y7935264D01*
X2445766Y7935620D01*
X2455976Y7937652D01*
X2464511Y7940395D01*
X2468067Y7943138D01*
X2467559Y7945628D01*
G37*
G36*
X2118410Y7933588D02*
G01*
X2114804Y7933283D01*
X2113127Y7932572D01*
X2113788Y7931708D01*
X2116582Y7930896D01*
X2121001Y7930184D01*
X2134311Y7928711D01*
X2139848Y7927035D01*
X2143252Y7924850D01*
X2144268Y7922920D01*
X2144268Y7921752D01*
X2143607Y7920126D01*
X2140508Y7918145D01*
X2135174Y7916722D01*
X2127605Y7916214D01*
X2120036Y7916011D01*
X2115210Y7915351D01*
X2112721Y7913979D01*
X2112010Y7911896D01*
X2112670Y7909763D01*
X2115159Y7908544D01*
X2120087Y7908137D01*
X2144268Y7909204D01*
X2144268Y7921752D01*
X2144522Y7922463D01*
X2144268Y7922920D01*
X2144268Y7931658D01*
X2123440Y7933588D01*
G37*
G36*
X2468321Y7927441D02*
G01*
X2467457Y7926984D01*
X2467000Y7925816D01*
X2466898Y7923987D01*
X2467610Y7918805D01*
X2466035Y7917129D01*
X2461463Y7916367D01*
X2446020Y7916011D01*
X2441092Y7915351D01*
X2438196Y7914284D01*
X2437231Y7912709D01*
X2438146Y7911185D01*
X2440889Y7910068D01*
X2445461Y7909407D01*
X2460040Y7909052D01*
X2464358Y7908239D01*
X2465984Y7906308D01*
X2465933Y7900263D01*
X2466289Y7898587D01*
X2467000Y7897774D01*
X2468067Y7898028D01*
X2470099Y7903514D01*
X2470810Y7913522D01*
X2470251Y7923123D01*
G37*
G36*
X3028543Y7925053D02*
G01*
X3024682Y7921904D01*
X3024378Y7920177D01*
X3024733Y7917535D01*
X3025749Y7914284D01*
X3029000Y7907324D01*
X3031337Y7900924D01*
X3032607Y7893303D01*
X3035147Y7890103D01*
X3039364Y7889240D01*
X3045206Y7890814D01*
X3052216Y7894777D01*
X3055162Y7899349D01*
X3054146Y7904886D01*
X3049219Y7911744D01*
X3040837Y7919923D01*
X3033928Y7924393D01*
G37*
G36*
X2687066Y7912811D02*
G01*
X2683103Y7912760D01*
X2678785Y7910931D01*
X2677058Y7909407D01*
X2676601Y7907324D01*
X2677414Y7904276D01*
X2679547Y7899755D01*
X2682849Y7894167D01*
X2685643Y7891576D01*
X2688437Y7891678D01*
X2691790Y7894370D01*
X2694533Y7898180D01*
X2695498Y7902092D01*
X2695041Y7905800D01*
X2693314Y7909052D01*
X2690571Y7911490D01*
G37*
G36*
X2142134Y7895488D02*
G01*
X2135936Y7895132D01*
X2126742Y7893354D01*
X2118614Y7890408D01*
X2114804Y7886953D01*
X2115972Y7884210D01*
X2122525Y7883448D01*
X2126335Y7883398D01*
X2128824Y7882585D01*
X2130348Y7880705D01*
X2131110Y7877657D01*
X2131263Y7874508D01*
X2130399Y7872577D01*
X2128266Y7871612D01*
X2121509Y7871104D01*
X2119426Y7870444D01*
X2118309Y7869326D01*
X2118309Y7867853D01*
X2119426Y7865567D01*
X2121865Y7864754D01*
X2127504Y7865211D01*
X2137918Y7866938D01*
X2143506Y7868107D01*
X2147671Y7869631D01*
X2150313Y7871256D01*
X2151278Y7873034D01*
X2150770Y7874660D01*
X2149297Y7875574D01*
X2146706Y7875727D01*
X2138324Y7874457D01*
X2135784Y7874914D01*
X2134666Y7876895D01*
X2134412Y7880807D01*
X2134717Y7884515D01*
X2135835Y7886750D01*
X2138019Y7887868D01*
X2144623Y7888427D01*
X2146706Y7889138D01*
X2147773Y7890205D01*
X2147773Y7891678D01*
X2145893Y7894320D01*
G37*
G36*
X2467356Y7888020D02*
G01*
X2459685Y7884972D01*
X2456230Y7884007D01*
X2452065Y7883398D01*
X2447645Y7883245D01*
X2443530Y7883601D01*
X2436926Y7883499D01*
X2434285Y7881366D01*
X2435910Y7878368D01*
X2441956Y7875676D01*
X2445410Y7874355D01*
X2449169Y7872171D01*
X2452827Y7869428D01*
X2458516Y7863687D01*
X2460955Y7861757D01*
X2462987Y7860842D01*
X2464308Y7861046D01*
X2464612Y7862163D01*
X2463952Y7863738D01*
X2462428Y7865567D01*
X2455722Y7871206D01*
X2454402Y7874304D01*
X2456180Y7876743D01*
X2463800Y7879638D01*
X2466035Y7881010D01*
X2467508Y7882636D01*
X2468067Y7884261D01*
X2467660Y7887766D01*
G37*
G36*
X2202129Y7818069D02*
G01*
X2201722Y7817053D01*
X2203145Y7815173D01*
X2209139Y7810195D01*
X2210155Y7809687D01*
X2207666Y7813192D01*
X2205228Y7816088D01*
X2203348Y7817713D01*
G37*
G36*
X2278684Y7809484D02*
G01*
X2278126Y7808010D01*
X2278176Y7804251D01*
X2278481Y7802270D01*
X2279091Y7800848D01*
X2279853Y7800086D01*
X2280666Y7800136D01*
X2281377Y7801000D01*
X2281682Y7802270D01*
X2281631Y7803845D01*
X2281224Y7805572D01*
X2279751Y7808671D01*
G37*
G36*
X2291232Y7808468D02*
G01*
X2289098Y7808163D01*
X2287371Y7807198D01*
X2286254Y7805826D01*
X2285847Y7804048D01*
X2287422Y7800594D01*
X2290876Y7799324D01*
X2294432Y7800340D01*
X2296261Y7803692D01*
X2296007Y7805674D01*
X2295093Y7807198D01*
X2293467Y7808163D01*
G37*
G36*
X2318004Y7808366D02*
G01*
X2317546Y7808010D01*
X2317242Y7806537D01*
X2317242Y7801609D01*
X2317546Y7800136D01*
X2318004Y7799781D01*
X2318512Y7800543D01*
X2318969Y7802219D01*
X2319121Y7804099D01*
X2318969Y7805928D01*
X2318512Y7807604D01*
G37*
G36*
X2309571Y7808366D02*
G01*
X2309114Y7808010D01*
X2308809Y7806537D01*
X2308809Y7801609D01*
X2309114Y7800136D01*
X2309571Y7799781D01*
X2310130Y7800543D01*
X2310536Y7802219D01*
X2310688Y7804099D01*
X2310536Y7805928D01*
X2310130Y7807604D01*
G37*
G36*
X2301494Y7806690D02*
G01*
X2300986Y7805521D01*
X2300782Y7802778D01*
X2300986Y7801305D01*
X2301494Y7800340D01*
X2302256Y7799933D01*
X2303170Y7800187D01*
X2303983Y7800949D01*
X2304389Y7802016D01*
X2304389Y7803134D01*
X2303932Y7804251D01*
X2302510Y7806232D01*
G37*
G36*
X2631338Y7804150D02*
G01*
X2629560Y7803032D01*
X2628341Y7799374D01*
X2627630Y7788351D01*
X2626461Y7785811D01*
X2623820Y7784693D01*
X2619146Y7784439D01*
X2614422Y7784642D01*
X2611932Y7785709D01*
X2611221Y7788249D01*
X2612034Y7796936D01*
X2611628Y7799527D01*
X2610358Y7800898D01*
X2608021Y7801254D01*
X2605430Y7800492D01*
X2603804Y7797444D01*
X2602839Y7791043D01*
X2602179Y7780223D01*
X2601772Y7768488D01*
X2602280Y7762189D01*
X2604008Y7759649D01*
X2607411Y7759192D01*
X2610612Y7759496D01*
X2612237Y7760868D01*
X2612593Y7763814D01*
X2611221Y7774584D01*
X2611780Y7777530D01*
X2614320Y7778648D01*
X2619400Y7778851D01*
X2624480Y7778648D01*
X2627071Y7777480D01*
X2627833Y7774533D01*
X2626918Y7763713D01*
X2627528Y7760766D01*
X2629509Y7759496D01*
X2633370Y7759192D01*
X2637485Y7759547D01*
X2639466Y7761884D01*
X2639974Y7768132D01*
X2639568Y7780223D01*
X2638806Y7788097D01*
X2637332Y7794650D01*
X2635453Y7799730D01*
X2633370Y7802981D01*
G37*
G36*
X3153105Y7804048D02*
G01*
X3151479Y7803692D01*
X3149447Y7802778D01*
X3147364Y7801356D01*
X3145383Y7799679D01*
X3141776Y7794955D01*
X3141827Y7790586D01*
X3145840Y7785658D01*
X3157829Y7776413D01*
X3160725Y7773517D01*
X3162706Y7770825D01*
X3163417Y7768742D01*
X3161995Y7764627D01*
X3158337Y7763002D01*
X3153308Y7764068D01*
X3147822Y7767777D01*
X3140964Y7774228D01*
X3140964Y7767421D01*
X3141827Y7764475D01*
X3144062Y7762138D01*
X3147364Y7760462D01*
X3151378Y7759496D01*
X3155746Y7759242D01*
X3160064Y7759801D01*
X3164078Y7761224D01*
X3167380Y7763560D01*
X3170885Y7768386D01*
X3171139Y7772958D01*
X3167786Y7778089D01*
X3156254Y7788097D01*
X3152698Y7791500D01*
X3150260Y7794244D01*
X3149396Y7795971D01*
X3150819Y7799019D01*
X3154426Y7800289D01*
X3159048Y7799628D01*
X3163519Y7796987D01*
X3166313Y7794548D01*
X3167989Y7793685D01*
X3168802Y7794294D01*
X3169005Y7796326D01*
X3167684Y7799171D01*
X3164179Y7801609D01*
X3159099Y7803337D01*
G37*
G36*
X2752648Y7804048D02*
G01*
X2749296Y7803540D01*
X2745486Y7802067D01*
X2741777Y7799882D01*
X2738526Y7797190D01*
X2735681Y7793786D01*
X2733751Y7790129D01*
X2732633Y7786217D01*
X2732419Y7781340D01*
X2741574Y7781340D01*
X2742031Y7787131D01*
X2743250Y7792110D01*
X2745181Y7796123D01*
X2747568Y7799070D01*
X2750362Y7800746D01*
X2753360Y7801102D01*
X2756458Y7799984D01*
X2759506Y7797292D01*
X2761030Y7794294D01*
X2761894Y7790027D01*
X2762199Y7785049D01*
X2761894Y7779664D01*
X2761132Y7774431D01*
X2759913Y7769707D01*
X2758236Y7765999D01*
X2756204Y7763764D01*
X2750820Y7762697D01*
X2746146Y7765796D01*
X2742844Y7772298D01*
X2741574Y7781340D01*
X2732419Y7781340D01*
X2732786Y7778038D01*
X2734056Y7773822D01*
X2736037Y7769656D01*
X2738729Y7765592D01*
X2742133Y7761630D01*
X2746197Y7757820D01*
X2750921Y7754315D01*
X2756255Y7751114D01*
X2762910Y7748371D01*
X2767584Y7747812D01*
X2768955Y7749184D01*
X2765806Y7752435D01*
X2759506Y7756855D01*
X2766618Y7765237D01*
X2770479Y7771333D01*
X2772460Y7777784D01*
X2772765Y7784287D01*
X2771394Y7790434D01*
X2768600Y7795869D01*
X2764434Y7800187D01*
X2759100Y7803032D01*
G37*
G36*
X2395575Y7803845D02*
G01*
X2393238Y7803591D01*
X2390698Y7800848D01*
X2390089Y7799679D01*
X2390089Y7799019D01*
X2390648Y7798968D01*
X2391714Y7799476D01*
X2392984Y7799781D01*
X2394254Y7799324D01*
X2395321Y7798155D01*
X2396693Y7794345D01*
X2397150Y7793888D01*
X2397455Y7795006D01*
X2397658Y7797749D01*
X2397201Y7801813D01*
G37*
G36*
X2860141Y7803286D02*
G01*
X2855010Y7802118D01*
X2850184Y7799324D01*
X2846679Y7794802D01*
X2844495Y7788706D01*
X2843836Y7781645D01*
X2852166Y7781645D01*
X2852572Y7787894D01*
X2853639Y7793024D01*
X2855315Y7796987D01*
X2857500Y7799730D01*
X2860192Y7801152D01*
X2863240Y7801152D01*
X2866644Y7799781D01*
X2870200Y7796885D01*
X2872841Y7792872D01*
X2874365Y7787741D01*
X2874721Y7782001D01*
X2874162Y7776159D01*
X2872689Y7770723D01*
X2870403Y7766253D01*
X2867456Y7763154D01*
X2863850Y7762036D01*
X2858617Y7763154D01*
X2854960Y7766710D01*
X2852877Y7772806D01*
X2852166Y7781645D01*
X2843836Y7781645D01*
X2844647Y7774127D01*
X2847136Y7768336D01*
X2850845Y7763814D01*
X2855468Y7760716D01*
X2860700Y7759242D01*
X2866237Y7759446D01*
X2871774Y7761579D01*
X2876956Y7765694D01*
X2880156Y7770063D01*
X2882188Y7774686D01*
X2883052Y7779461D01*
X2882849Y7784185D01*
X2881680Y7788757D01*
X2879699Y7792923D01*
X2876905Y7796682D01*
X2873502Y7799730D01*
X2869488Y7801914D01*
X2865018Y7803184D01*
G37*
G36*
X2819146Y7802676D02*
G01*
X2809284Y7779410D01*
X2813100Y7779410D01*
X2813100Y7782458D01*
X2814726Y7785303D01*
X2816860Y7786268D01*
X2819044Y7785404D01*
X2820670Y7783220D01*
X2821330Y7780070D01*
X2821025Y7778496D01*
X2820111Y7777225D01*
X2818790Y7776362D01*
X2817164Y7776057D01*
X2814523Y7777022D01*
X2813100Y7779410D01*
X2809284Y7779410D01*
X2805379Y7771028D01*
X2801213Y7762748D01*
X2800604Y7760411D01*
X2801569Y7759446D01*
X2804160Y7759192D01*
X2806395Y7759598D01*
X2807868Y7760766D01*
X2808732Y7762748D01*
X2809189Y7768488D01*
X2810306Y7770622D01*
X2812338Y7771993D01*
X2815437Y7772755D01*
X2820314Y7772450D01*
X2823972Y7770317D01*
X2825902Y7766913D01*
X2825546Y7761224D01*
X2826512Y7760157D01*
X2828442Y7759446D01*
X2831236Y7759192D01*
X2836062Y7759293D01*
X2837383Y7761325D01*
X2835046Y7768031D01*
G37*
G36*
X3103118Y7801305D02*
G01*
X3103712Y7789824D01*
X3112922Y7789824D01*
X3113176Y7794091D01*
X3114090Y7796733D01*
X3115868Y7798104D01*
X3118713Y7798460D01*
X3121558Y7798155D01*
X3123184Y7796936D01*
X3123844Y7794599D01*
X3123641Y7790789D01*
X3121406Y7784185D01*
X3117799Y7781747D01*
X3114446Y7783575D01*
X3112922Y7789824D01*
X3103712Y7789824D01*
X3104337Y7774025D01*
X3103930Y7767828D01*
X3102965Y7763814D01*
X3101289Y7761681D01*
X3100120Y7760614D01*
X3100527Y7759852D01*
X3102508Y7759446D01*
X3106064Y7759242D01*
X3110839Y7759446D01*
X3113278Y7760716D01*
X3113989Y7763814D01*
X3112668Y7780223D01*
X3121456Y7769707D01*
X3125216Y7765643D01*
X3128873Y7762290D01*
X3132023Y7760055D01*
X3134258Y7759192D01*
X3137204Y7759750D01*
X3137865Y7761579D01*
X3136138Y7764830D01*
X3128975Y7773212D01*
X3127552Y7775956D01*
X3127705Y7778394D01*
X3132226Y7785912D01*
X3133953Y7790078D01*
X3134360Y7793532D01*
X3133445Y7796377D01*
X3131159Y7798511D01*
X3127502Y7800035D01*
X3122472Y7800949D01*
X3116122Y7801254D01*
G37*
G36*
X3235655Y7801254D02*
G01*
X3243275Y7791297D01*
X3246932Y7785912D01*
X3249117Y7781086D01*
X3249980Y7776108D01*
X3249422Y7764068D01*
X3250082Y7760766D01*
X3252470Y7759446D01*
X3257092Y7759192D01*
X3261004Y7759395D01*
X3263036Y7759903D01*
X3263341Y7760970D01*
X3262122Y7762595D01*
X3259226Y7767929D01*
X3259175Y7774838D01*
X3261918Y7782661D01*
X3267354Y7790840D01*
X3271977Y7796580D01*
X3273806Y7799730D01*
X3273094Y7801000D01*
X3269996Y7801254D01*
X3267811Y7801051D01*
X3266236Y7800543D01*
X3265424Y7799730D01*
X3265779Y7797292D01*
X3265119Y7795107D01*
X3263849Y7792567D01*
X3261969Y7789875D01*
X3256788Y7783525D01*
X3252876Y7792415D01*
X3250692Y7796479D01*
X3248304Y7799222D01*
X3245561Y7800797D01*
X3242310Y7801254D01*
G37*
G36*
X3215284Y7801254D02*
G01*
X3208223Y7801102D01*
X3202381Y7800543D01*
X3198469Y7799781D01*
X3197047Y7798866D01*
X3197606Y7798003D01*
X3199130Y7797546D01*
X3201314Y7797444D01*
X3204057Y7797800D01*
X3206800Y7796987D01*
X3208985Y7793939D01*
X3210610Y7789214D01*
X3211576Y7783474D01*
X3211830Y7777327D01*
X3211322Y7771384D01*
X3209950Y7766253D01*
X3207715Y7762595D01*
X3206445Y7760970D01*
X3206750Y7759903D01*
X3208782Y7759344D01*
X3220872Y7759192D01*
X3219958Y7778851D01*
X3219958Y7791043D01*
X3221532Y7797647D01*
X3224885Y7798917D01*
X3230118Y7795107D01*
X3231743Y7793685D01*
X3232810Y7793431D01*
X3233318Y7794345D01*
X3233521Y7796530D01*
X3232810Y7798917D01*
X3230118Y7800390D01*
X3224580Y7801102D01*
G37*
G36*
X3184448Y7801254D02*
G01*
X3181451Y7800797D01*
X3179876Y7798562D01*
X3179419Y7793481D01*
X3179927Y7776972D01*
X3179572Y7770825D01*
X3178708Y7766202D01*
X3177336Y7763306D01*
X3175914Y7761224D01*
X3176066Y7759953D01*
X3177997Y7759395D01*
X3182010Y7759192D01*
X3190036Y7759192D01*
X3189884Y7791602D01*
X3189173Y7797952D01*
X3187446Y7800695D01*
G37*
G36*
X3063392Y7801254D02*
G01*
X3064662Y7786268D01*
X3064916Y7779816D01*
X3064611Y7773771D01*
X3063849Y7768691D01*
X3062630Y7765084D01*
X3061055Y7761579D01*
X3062071Y7759852D01*
X3066948Y7759395D01*
X3086150Y7760411D01*
X3091688Y7761478D01*
X3094482Y7763306D01*
X3095650Y7766202D01*
X3096006Y7768844D01*
X3095752Y7770063D01*
X3094786Y7769809D01*
X3093008Y7768336D01*
X3086811Y7764678D01*
X3080512Y7764576D01*
X3075635Y7767523D01*
X3073704Y7773212D01*
X3074212Y7778496D01*
X3076092Y7781086D01*
X3079597Y7781137D01*
X3087827Y7777480D01*
X3089503Y7777429D01*
X3090316Y7778699D01*
X3090519Y7781493D01*
X3090214Y7784287D01*
X3088944Y7785760D01*
X3086404Y7786065D01*
X3077565Y7784744D01*
X3075025Y7785201D01*
X3073908Y7787182D01*
X3073704Y7791094D01*
X3076041Y7796123D01*
X3081477Y7798816D01*
X3087420Y7798612D01*
X3091434Y7794955D01*
X3092043Y7793888D01*
X3092551Y7793786D01*
X3092907Y7794599D01*
X3093110Y7796377D01*
X3092602Y7798866D01*
X3090468Y7800340D01*
X3085947Y7801102D01*
G37*
G36*
X3023260Y7801254D02*
G01*
X3020161Y7801000D01*
X3019145Y7799374D01*
X3020263Y7795006D01*
X3033928Y7760665D01*
X3035909Y7760716D01*
X3039211Y7766913D01*
X3049270Y7790992D01*
X3051251Y7797190D01*
X3051302Y7800390D01*
X3049574Y7801254D01*
X3048000Y7801102D01*
X3046933Y7800644D01*
X3046425Y7799984D01*
X3046679Y7797342D01*
X3046018Y7793990D01*
X3044698Y7789519D01*
X3037890Y7771841D01*
X3031591Y7787182D01*
X3029204Y7795056D01*
X3028848Y7797393D01*
X3028391Y7798917D01*
X3027172Y7800136D01*
X3025444Y7800949D01*
G37*
G36*
X3003092Y7801254D02*
G01*
X3000705Y7800441D01*
X2999130Y7797292D01*
X2998165Y7790891D01*
X2997504Y7780223D01*
X2996590Y7759192D01*
X3008630Y7759344D01*
X3010560Y7759953D01*
X3010712Y7761224D01*
X3009290Y7763306D01*
X3007918Y7766202D01*
X3007055Y7770825D01*
X3006699Y7776972D01*
X3007156Y7793024D01*
X3006750Y7798206D01*
X3005480Y7800644D01*
G37*
G36*
X2984652Y7801254D02*
G01*
X2983890Y7800238D01*
X2983382Y7797342D01*
X2983230Y7793126D01*
X2983382Y7787944D01*
X2984296Y7774635D01*
X2965450Y7793837D01*
X2960878Y7797952D01*
X2957423Y7800238D01*
X2954985Y7800644D01*
X2953461Y7799120D01*
X2952648Y7795615D01*
X2952445Y7790180D01*
X2952902Y7774025D01*
X2952546Y7767828D01*
X2951530Y7763814D01*
X2949854Y7761681D01*
X2948381Y7760563D01*
X2948178Y7759801D01*
X2949295Y7759395D01*
X2951734Y7759242D01*
X2954731Y7759700D01*
X2956306Y7761833D01*
X2956763Y7766659D01*
X2955696Y7791450D01*
X2986532Y7757820D01*
X2986684Y7779562D01*
X2986532Y7787995D01*
X2986125Y7794904D01*
X2985465Y7799578D01*
G37*
G36*
X2911754Y7801254D02*
G01*
X2909265Y7800695D01*
X2907893Y7798206D01*
X2907487Y7792872D01*
X2907741Y7783728D01*
X2908401Y7777429D01*
X2909570Y7771942D01*
X2911195Y7767320D01*
X2913176Y7763509D01*
X2915462Y7760563D01*
X2918002Y7758480D01*
X2920695Y7757210D01*
X2923489Y7756804D01*
X2926232Y7757210D01*
X2928975Y7758480D01*
X2931515Y7760563D01*
X2933903Y7763509D01*
X2935935Y7767320D01*
X2937662Y7771942D01*
X2938881Y7777429D01*
X2939643Y7783728D01*
X2939948Y7790535D01*
X2939846Y7796123D01*
X2939389Y7799882D01*
X2938576Y7801254D01*
X2937713Y7799933D01*
X2936951Y7796377D01*
X2936494Y7791043D01*
X2936087Y7775905D01*
X2935224Y7770368D01*
X2933446Y7766964D01*
X2930499Y7764729D01*
X2924302Y7763052D01*
X2920034Y7765745D01*
X2917494Y7772958D01*
X2916682Y7784795D01*
X2916478Y7793177D01*
X2915767Y7798206D01*
X2914294Y7800644D01*
G37*
G36*
X2787243Y7801254D02*
G01*
X2784805Y7800441D01*
X2783230Y7797292D01*
X2782265Y7790891D01*
X2781604Y7780223D01*
X2780690Y7759192D01*
X2792730Y7759344D01*
X2794660Y7759953D01*
X2794812Y7761224D01*
X2793390Y7763306D01*
X2792069Y7766202D01*
X2791155Y7770825D01*
X2790799Y7776972D01*
X2791256Y7793024D01*
X2790901Y7798206D01*
X2789580Y7800644D01*
G37*
G36*
X2655214Y7801254D02*
G01*
X2652725Y7800644D01*
X2651252Y7798206D01*
X2650490Y7793126D01*
X2650337Y7784642D01*
X2650540Y7778089D01*
X2651201Y7772653D01*
X2652318Y7768285D01*
X2654046Y7764830D01*
X2656281Y7762240D01*
X2659227Y7760512D01*
X2662834Y7759547D01*
X2667152Y7759192D01*
X2671470Y7759547D01*
X2675077Y7760512D01*
X2677972Y7762240D01*
X2680258Y7764830D01*
X2681935Y7768285D01*
X2683103Y7772653D01*
X2683764Y7778089D01*
X2683967Y7784642D01*
X2683814Y7791094D01*
X2683357Y7796377D01*
X2682697Y7799984D01*
X2681884Y7801254D01*
X2681122Y7800086D01*
X2680665Y7796885D01*
X2680512Y7792110D01*
X2680919Y7779003D01*
X2680411Y7773568D01*
X2679141Y7769606D01*
X2677007Y7766659D01*
X2673197Y7763662D01*
X2669641Y7762443D01*
X2666441Y7762849D01*
X2663698Y7764881D01*
X2661513Y7768285D01*
X2659989Y7773111D01*
X2659176Y7779105D01*
X2659176Y7786268D01*
X2659481Y7793990D01*
X2659075Y7798562D01*
X2657703Y7800746D01*
G37*
G36*
X2708198Y7800441D02*
G01*
X2705963Y7799273D01*
X2703423Y7793583D01*
X2697145Y7777073D01*
X2701086Y7777073D01*
X2701188Y7779105D01*
X2702458Y7782814D01*
X2704388Y7785353D01*
X2706573Y7785608D01*
X2708402Y7783728D01*
X2709214Y7780070D01*
X2708859Y7778496D01*
X2707944Y7777225D01*
X2706624Y7776362D01*
X2704998Y7776057D01*
X2702255Y7776209D01*
X2701086Y7777073D01*
X2697145Y7777073D01*
X2695448Y7772958D01*
X2692755Y7767828D01*
X2687980Y7761478D01*
X2687574Y7760004D01*
X2688844Y7759344D01*
X2692044Y7759192D01*
X2694432Y7759496D01*
X2696260Y7760258D01*
X2697480Y7761376D01*
X2697784Y7762697D01*
X2697480Y7768132D01*
X2698496Y7771333D01*
X2701137Y7772755D01*
X2705709Y7772704D01*
X2709418Y7771993D01*
X2711754Y7770672D01*
X2712923Y7768590D01*
X2713431Y7762392D01*
X2714548Y7760462D01*
X2716885Y7759496D01*
X2720695Y7759192D01*
X2724962Y7759344D01*
X2726842Y7760258D01*
X2726588Y7762544D01*
X2710992Y7796834D01*
G37*
G36*
X2393594Y7786014D02*
G01*
X2392426Y7785963D01*
X2391511Y7785404D01*
X2389733Y7782458D01*
X2389682Y7779664D01*
X2391105Y7777835D01*
X2393797Y7777835D01*
X2395728Y7778191D01*
X2397048Y7777378D01*
X2397760Y7775346D01*
X2398217Y7769148D01*
X2398776Y7767116D01*
X2399690Y7766100D01*
X2400808Y7766202D01*
X2401874Y7766558D01*
X2402789Y7766151D01*
X2403348Y7765135D01*
X2403856Y7761884D01*
X2404516Y7760512D01*
X2405481Y7759547D01*
X2406700Y7759192D01*
X2407920Y7759649D01*
X2408478Y7760868D01*
X2408478Y7762849D01*
X2407005Y7768488D01*
X2405938Y7775295D01*
X2405583Y7780985D01*
X2404872Y7782763D01*
X2403754Y7783626D01*
X2400655Y7783118D01*
X2398928Y7783271D01*
X2397353Y7783779D01*
X2394864Y7785608D01*
G37*
G36*
X2254351Y7771993D02*
G01*
X2253335Y7771892D01*
X2251506Y7770672D01*
X2249068Y7768590D01*
X2242718Y7761782D01*
X2241397Y7759953D01*
X2242464Y7760004D01*
X2245715Y7761630D01*
X2250084Y7764424D01*
X2253234Y7767320D01*
X2254758Y7770012D01*
G37*
G36*
X2265527Y7770672D02*
G01*
X2262987Y7770368D01*
X2259685Y7768386D01*
X2251557Y7761427D01*
X2245766Y7757058D01*
X2244293Y7756398D01*
X2241550Y7754569D01*
X2238654Y7750403D01*
X2236622Y7745882D01*
X2236622Y7742986D01*
X2237638Y7742834D01*
X2239060Y7743596D01*
X2240788Y7745222D01*
X2244496Y7749844D01*
X2246477Y7751825D01*
X2248306Y7753146D01*
X2249728Y7753603D01*
X2250490Y7753248D01*
X2250440Y7752334D01*
X2249678Y7750911D01*
X2244953Y7745069D01*
X2243785Y7741869D01*
X2244750Y7740599D01*
X2249982Y7743647D01*
X2252116Y7744206D01*
X2254402Y7743850D01*
X2256942Y7742681D01*
X2259634Y7741056D01*
X2260447Y7740192D01*
X2259431Y7739786D01*
X2253996Y7739481D01*
X2252878Y7738922D01*
X2253081Y7737856D01*
X2254504Y7736128D01*
X2256485Y7734808D01*
X2258618Y7735112D01*
X2261209Y7737094D01*
X2264664Y7741056D01*
X2268372Y7745882D01*
X2269744Y7748981D01*
X2268880Y7751419D01*
X2262225Y7758226D01*
X2260955Y7760716D01*
X2262174Y7762494D01*
X2268372Y7765338D01*
X2269439Y7766456D01*
X2269185Y7767777D01*
X2267661Y7769504D01*
G37*
G36*
X2328265Y7767421D02*
G01*
X2325979Y7766202D01*
X2325065Y7763509D01*
X2324608Y7761478D01*
X2323287Y7758938D01*
X2321356Y7756245D01*
X2316835Y7751521D01*
X2315616Y7749692D01*
X2315362Y7748473D01*
X2317445Y7747558D01*
X2318512Y7746288D01*
X2319223Y7744459D01*
X2319680Y7740142D01*
X2320290Y7738668D01*
X2321204Y7737957D01*
X2322271Y7738160D01*
X2323388Y7739380D01*
X2324252Y7741412D01*
X2324862Y7743952D01*
X2325573Y7749844D01*
X2326995Y7752943D01*
X2329281Y7755737D01*
X2335479Y7760512D01*
X2337104Y7762341D01*
X2337155Y7763865D01*
X2335784Y7765237D01*
X2331669Y7767116D01*
G37*
G36*
X2267356Y7761782D02*
G01*
X2265426Y7761579D01*
X2264460Y7761224D01*
X2264562Y7760716D01*
X2265680Y7760106D01*
X2267254Y7759649D01*
X2268778Y7759547D01*
X2270099Y7759801D01*
X2271064Y7760309D01*
X2271268Y7760970D01*
X2270658Y7761478D01*
X2269337Y7761731D01*
G37*
G36*
X2329484Y7747660D02*
G01*
X2328570Y7747304D01*
X2328214Y7746390D01*
X2328418Y7745018D01*
X2329180Y7743494D01*
X2330348Y7742072D01*
X2331821Y7740903D01*
X2333345Y7740091D01*
X2334717Y7739888D01*
X2335580Y7740294D01*
X2335987Y7741208D01*
X2335784Y7742580D01*
X2335022Y7744104D01*
X2333853Y7745526D01*
X2332380Y7746695D01*
X2330856Y7747457D01*
G37*
G36*
X2341626Y7596631D02*
G01*
X2339898Y7592517D01*
X2337663Y7588250D01*
X2331923Y7579207D01*
X2324658Y7569911D01*
X2316276Y7560614D01*
X2307082Y7551572D01*
X2297328Y7543139D01*
X2287422Y7535621D01*
X2277618Y7529322D01*
X2278634Y7527290D01*
X2289556Y7532573D01*
X2300427Y7538821D01*
X2311044Y7545831D01*
X2321204Y7553502D01*
X2330653Y7561580D01*
X2335123Y7565694D01*
X2343200Y7574127D01*
X2350109Y7582560D01*
X2353056Y7586725D01*
X2355951Y7581188D01*
X2359355Y7575803D01*
X2363165Y7570622D01*
X2367381Y7565542D01*
X2371953Y7560665D01*
X2376779Y7555992D01*
X2381961Y7551521D01*
X2387346Y7547305D01*
X2392934Y7543292D01*
X2398674Y7539532D01*
X2404516Y7536078D01*
X2410460Y7532878D01*
X2411933Y7536332D01*
X2414320Y7539532D01*
X2417521Y7542072D01*
X2421382Y7543546D01*
X2421636Y7546086D01*
X2408936Y7551166D01*
X2396388Y7557058D01*
X2390343Y7560309D01*
X2384501Y7563764D01*
X2378862Y7567422D01*
X2373528Y7571231D01*
X2368550Y7575245D01*
X2363978Y7579512D01*
X2359812Y7583881D01*
X2356104Y7588503D01*
X2358644Y7588961D01*
X2360523Y7589570D01*
X2361793Y7590383D01*
X2362454Y7591552D01*
G37*
G36*
X2473198Y7596124D02*
G01*
X2473198Y7580630D01*
X2431796Y7580630D01*
X2432812Y7576058D01*
X2473198Y7576058D01*
X2473198Y7563866D01*
X2478786Y7564120D01*
X2481884Y7564729D01*
X2484069Y7565593D01*
X2484882Y7566406D01*
X2484882Y7576058D01*
X2517902Y7576058D01*
X2517902Y7566914D01*
X2503932Y7571740D01*
X2501188Y7567015D01*
X2497886Y7562189D01*
X2494178Y7557414D01*
X2490557Y7553198D01*
X2502154Y7553198D01*
X2503932Y7554722D01*
X2534158Y7554722D01*
X2531313Y7551521D01*
X2524760Y7545425D01*
X2521204Y7542530D01*
X2515819Y7544917D01*
X2510840Y7547508D01*
X2506218Y7550251D01*
X2502154Y7553198D01*
X2490557Y7553198D01*
X2485847Y7548219D01*
X2481376Y7544053D01*
X2476754Y7540244D01*
X2472182Y7536942D01*
X2473452Y7534909D01*
X2480310Y7538161D01*
X2487015Y7542072D01*
X2493467Y7546390D01*
X2499614Y7550912D01*
X2506675Y7544257D01*
X2510637Y7541158D01*
X2514854Y7538212D01*
X2510282Y7535418D01*
X2500426Y7530287D01*
X2489860Y7525816D01*
X2484374Y7523835D01*
X2472944Y7520431D01*
X2474214Y7518146D01*
X2487574Y7520838D01*
X2500172Y7524394D01*
X2506167Y7526477D01*
X2511958Y7528763D01*
X2522728Y7533894D01*
X2527452Y7531608D01*
X2537409Y7527645D01*
X2547924Y7524394D01*
X2558796Y7521803D01*
X2564384Y7520686D01*
X2565450Y7523988D01*
X2567228Y7526680D01*
X2569565Y7528661D01*
X2572512Y7529830D01*
X2572512Y7531608D01*
X2562098Y7532776D01*
X2551633Y7534452D01*
X2541320Y7536484D01*
X2531364Y7538974D01*
X2535986Y7542326D01*
X2540304Y7545831D01*
X2544267Y7549540D01*
X2547874Y7553452D01*
X2550312Y7553553D01*
X2552141Y7553909D01*
X2553462Y7554518D01*
X2554478Y7555484D01*
X2543302Y7565644D01*
X2535682Y7559294D01*
X2508758Y7559294D01*
X2513838Y7564881D01*
X2516276Y7564678D01*
X2517902Y7564881D01*
X2517902Y7564120D01*
X2519934Y7564120D01*
X2523947Y7564577D01*
X2527096Y7565339D01*
X2529128Y7566304D01*
X2529840Y7567168D01*
X2529840Y7576058D01*
X2567686Y7576058D01*
X2569260Y7576210D01*
X2570480Y7576667D01*
X2571343Y7577429D01*
X2571750Y7578598D01*
X2567584Y7582408D01*
X2558034Y7590028D01*
X2550668Y7580630D01*
X2529840Y7580630D01*
X2529840Y7590536D01*
X2532227Y7591044D01*
X2533853Y7591907D01*
X2534767Y7593075D01*
X2535174Y7594600D01*
X2517902Y7596124D01*
X2517902Y7580630D01*
X2484882Y7580630D01*
X2484882Y7590536D01*
X2487320Y7591044D01*
X2488996Y7591907D01*
X2490012Y7593075D01*
X2490470Y7594600D01*
G37*
G36*
X3806698Y7595870D02*
G01*
X3802532Y7592923D01*
X3797503Y7589774D01*
X3791813Y7586624D01*
X3785565Y7583474D01*
X3772306Y7577632D01*
X3765550Y7575143D01*
X3758946Y7573009D01*
X3759708Y7570724D01*
X3772204Y7572603D01*
X3784854Y7575042D01*
X3784854Y7550912D01*
X3759454Y7550912D01*
X3760470Y7546340D01*
X3783076Y7546340D01*
X3780231Y7535621D01*
X3776776Y7525003D01*
X3772712Y7514590D01*
X3770477Y7509509D01*
X3765448Y7499858D01*
X3759758Y7490815D01*
X3756660Y7486650D01*
X3758946Y7484618D01*
X3766413Y7492034D01*
X3773220Y7500061D01*
X3779367Y7508646D01*
X3784854Y7517638D01*
X3784854Y7455662D01*
X3786886Y7455662D01*
X3790899Y7456068D01*
X3794048Y7457084D01*
X3796080Y7458354D01*
X3796792Y7459472D01*
X3796792Y7529322D01*
X3800297Y7524242D01*
X3803446Y7518704D01*
X3805936Y7513116D01*
X3807460Y7507731D01*
X3810050Y7506208D01*
X3812438Y7505801D01*
X3814521Y7506411D01*
X3816197Y7507782D01*
X3817315Y7509916D01*
X3817670Y7512608D01*
X3817162Y7515707D01*
X3815638Y7519212D01*
X3812997Y7522819D01*
X3809085Y7526528D01*
X3803700Y7530185D01*
X3796792Y7533640D01*
X3796792Y7546340D01*
X3818382Y7546340D01*
X3819804Y7546492D01*
X3820972Y7546949D01*
X3821785Y7547711D01*
X3822192Y7548880D01*
X3814267Y7556195D01*
X3809746Y7560056D01*
X3803142Y7550912D01*
X3796792Y7550912D01*
X3796792Y7578090D01*
X3805732Y7580782D01*
X3813301Y7583424D01*
X3816096Y7582763D01*
X3818432Y7582611D01*
X3820312Y7582916D01*
X3821684Y7583678D01*
G37*
G36*
X3494278Y7595870D02*
G01*
X3494278Y7577074D01*
X3455162Y7577074D01*
X3456178Y7572502D01*
X3494278Y7572502D01*
X3494278Y7555738D01*
X3499764Y7556042D01*
X3502914Y7556804D01*
X3505149Y7557770D01*
X3505962Y7558786D01*
X3505962Y7572502D01*
X3541522Y7572502D01*
X3541522Y7556246D01*
X3547364Y7556601D01*
X3550564Y7557516D01*
X3552698Y7558582D01*
X3553460Y7559548D01*
X3553460Y7572502D01*
X3589528Y7572502D01*
X3591051Y7572654D01*
X3592220Y7573111D01*
X3592931Y7573873D01*
X3593337Y7575042D01*
X3589121Y7578953D01*
X3579368Y7586980D01*
X3571494Y7577074D01*
X3553460Y7577074D01*
X3553460Y7590028D01*
X3556000Y7590586D01*
X3557574Y7591501D01*
X3558540Y7592669D01*
X3559048Y7594092D01*
X3541522Y7595870D01*
X3541522Y7577074D01*
X3505962Y7577074D01*
X3505962Y7590028D01*
X3508501Y7590586D01*
X3510178Y7591501D01*
X3511143Y7592669D01*
X3511550Y7594092D01*
G37*
G36*
X3846829Y7595108D02*
G01*
X3846829Y7564881D01*
X3846576Y7550962D01*
X3845864Y7537805D01*
X3844544Y7525410D01*
X3842410Y7513675D01*
X3840987Y7508138D01*
X3839260Y7502702D01*
X3837228Y7497470D01*
X3834892Y7492390D01*
X3832199Y7487462D01*
X3829151Y7482738D01*
X3825697Y7478166D01*
X3821836Y7473696D01*
X3817467Y7469428D01*
X3812692Y7465263D01*
X3807409Y7461300D01*
X3801618Y7457440D01*
X3803650Y7454900D01*
X3809644Y7457998D01*
X3815130Y7461250D01*
X3820261Y7464653D01*
X3824884Y7468158D01*
X3829202Y7471816D01*
X3833063Y7475575D01*
X3836568Y7479487D01*
X3839768Y7483551D01*
X3842613Y7487716D01*
X3845204Y7492034D01*
X3847439Y7496505D01*
X3849420Y7501077D01*
X3852672Y7510627D01*
X3855008Y7520736D01*
X3856685Y7531353D01*
X3857751Y7542530D01*
X3859225Y7527798D01*
X3861257Y7514183D01*
X3862476Y7507731D01*
X3863898Y7501585D01*
X3867302Y7490104D01*
X3869283Y7484770D01*
X3871518Y7479741D01*
X3873957Y7474966D01*
X3876649Y7470495D01*
X3879596Y7466279D01*
X3882796Y7462367D01*
X3886250Y7458760D01*
X3890010Y7455408D01*
X3891635Y7460132D01*
X3894124Y7463688D01*
X3897426Y7466177D01*
X3901440Y7467600D01*
X3901948Y7469378D01*
X3897223Y7472527D01*
X3892905Y7475931D01*
X3888892Y7479538D01*
X3885184Y7483398D01*
X3881831Y7487513D01*
X3878732Y7491882D01*
X3875938Y7496505D01*
X3873398Y7501381D01*
X3871112Y7506563D01*
X3869080Y7511999D01*
X3867251Y7517739D01*
X3865626Y7523734D01*
X3873296Y7529677D01*
X3880916Y7536688D01*
X3888282Y7544460D01*
X3895090Y7552690D01*
X3897325Y7552588D01*
X3899103Y7552944D01*
X3900373Y7553706D01*
X3901186Y7554722D01*
X3885184Y7563358D01*
X3880459Y7553604D01*
X3875328Y7544003D01*
X3869994Y7535164D01*
X3864864Y7527544D01*
X3863594Y7533843D01*
X3861562Y7547356D01*
X3860088Y7561935D01*
X3859123Y7577836D01*
X3858768Y7589012D01*
X3861054Y7589469D01*
X3862679Y7590383D01*
X3863644Y7591602D01*
X3864101Y7593075D01*
G37*
G36*
X3731260Y7592822D02*
G01*
X3725418Y7585456D01*
X3692651Y7585456D01*
X3678936Y7591298D01*
X3678936Y7581392D01*
X3726942Y7581392D01*
X3726942Y7550912D01*
X3690620Y7550912D01*
X3690620Y7581392D01*
X3678936Y7581392D01*
X3678885Y7530846D01*
X3678326Y7519416D01*
X3677916Y7515352D01*
X3689350Y7515352D01*
X3690365Y7526121D01*
X3690620Y7546340D01*
X3726942Y7546340D01*
X3726942Y7515352D01*
X3677916Y7515352D01*
X3676954Y7508494D01*
X3675938Y7503159D01*
X3674618Y7497978D01*
X3673043Y7492898D01*
X3671112Y7487970D01*
X3668826Y7483144D01*
X3666134Y7478420D01*
X3663086Y7473848D01*
X3659581Y7469428D01*
X3655618Y7465110D01*
X3651148Y7460945D01*
X3646170Y7456931D01*
X3647948Y7455153D01*
X3654348Y7458811D01*
X3660038Y7462723D01*
X3665169Y7466838D01*
X3669690Y7471156D01*
X3673601Y7475626D01*
X3677056Y7480300D01*
X3680002Y7485125D01*
X3682542Y7490053D01*
X3684625Y7495082D01*
X3686352Y7500213D01*
X3687775Y7505496D01*
X3688842Y7510780D01*
X3726942Y7510780D01*
X3726942Y7473442D01*
X3726789Y7471664D01*
X3726129Y7470495D01*
X3724910Y7469835D01*
X3722878Y7469631D01*
X3700018Y7471156D01*
X3700018Y7468616D01*
X3705606Y7467650D01*
X3709974Y7466634D01*
X3713175Y7465415D01*
X3715512Y7464044D01*
X3717036Y7462367D01*
X3718204Y7460386D01*
X3719068Y7457948D01*
X3719576Y7455153D01*
X3729888Y7457338D01*
X3735679Y7460843D01*
X3738270Y7465720D01*
X3738879Y7471918D01*
X3738879Y7579106D01*
X3741013Y7579614D01*
X3742791Y7580325D01*
X3744214Y7581188D01*
X3745229Y7582153D01*
G37*
G36*
X2236216Y7592059D02*
G01*
X2230120Y7585202D01*
X2168144Y7585202D01*
X2154428Y7590536D01*
X2154428Y7580630D01*
X2230374Y7580630D01*
X2230374Y7545831D01*
X2166366Y7545831D01*
X2166366Y7580630D01*
X2154428Y7580630D01*
X2154428Y7531862D01*
X2156460Y7531862D01*
X2160574Y7532268D01*
X2163673Y7533284D01*
X2165654Y7534452D01*
X2166366Y7535418D01*
X2166366Y7541259D01*
X2230374Y7541259D01*
X2230374Y7533640D01*
X2232660Y7533640D01*
X2236774Y7534097D01*
X2240076Y7535062D01*
X2243074Y7536688D01*
X2243074Y7579868D01*
X2245106Y7580172D01*
X2246630Y7580731D01*
X2247798Y7581493D01*
X2248662Y7582408D01*
G37*
G36*
X3654551Y7590028D02*
G01*
X3648456Y7582916D01*
X3625850Y7582916D01*
X3612387Y7588503D01*
X3612387Y7578598D01*
X3649979Y7578598D01*
X3649979Y7544816D01*
X3624072Y7544816D01*
X3624072Y7578598D01*
X3612387Y7578598D01*
X3612387Y7540244D01*
X3649979Y7540244D01*
X3649979Y7505192D01*
X3624072Y7505192D01*
X3624072Y7540244D01*
X3612387Y7540244D01*
X3612387Y7481824D01*
X3614420Y7481824D01*
X3618382Y7482331D01*
X3621430Y7483500D01*
X3623360Y7484922D01*
X3624072Y7486142D01*
X3624072Y7500874D01*
X3649979Y7500874D01*
X3649979Y7488428D01*
X3652012Y7488428D01*
X3655212Y7488936D01*
X3658260Y7490053D01*
X3660597Y7491425D01*
X3661664Y7492492D01*
X3661664Y7576312D01*
X3665728Y7577785D01*
X3667251Y7578648D01*
X3668268Y7579614D01*
G37*
G36*
X4738878Y7581646D02*
G01*
X4733290Y7581290D01*
X4728006Y7580325D01*
X4723079Y7578648D01*
X4718659Y7576261D01*
X4714849Y7573264D01*
X4711649Y7569555D01*
X4709210Y7565136D01*
X4707636Y7560056D01*
X4709007Y7557312D01*
X4710836Y7555534D01*
X4712970Y7554518D01*
X4715510Y7554214D01*
X4718964Y7554823D01*
X4721555Y7556703D01*
X4723434Y7559903D01*
X4727702Y7574025D01*
X4732070Y7574838D01*
X4735830Y7575042D01*
X4744516Y7573619D01*
X4750968Y7569504D01*
X4755032Y7562697D01*
X4756404Y7553452D01*
X4755946Y7548219D01*
X4754676Y7543647D01*
X4752644Y7539685D01*
X4749850Y7536383D01*
X4746345Y7533792D01*
X4742129Y7531862D01*
X4737354Y7530744D01*
X4732020Y7530338D01*
X4725670Y7530338D01*
X4725670Y7522718D01*
X4733544Y7522718D01*
X4739640Y7522260D01*
X4744872Y7520990D01*
X4749342Y7518857D01*
X4753000Y7515961D01*
X4755794Y7512354D01*
X4757826Y7508036D01*
X4759045Y7503109D01*
X4759452Y7497572D01*
X4759045Y7492085D01*
X4757775Y7487158D01*
X4755692Y7482738D01*
X4752898Y7479030D01*
X4749292Y7476032D01*
X4744974Y7473797D01*
X4739995Y7472375D01*
X4734306Y7471918D01*
X4729581Y7472172D01*
X4724654Y7473188D01*
X4720336Y7488021D01*
X4718507Y7491425D01*
X4716119Y7493406D01*
X4712716Y7494016D01*
X4710226Y7493660D01*
X4708093Y7492695D01*
X4706213Y7491018D01*
X4704588Y7488681D01*
X4706162Y7483043D01*
X4708550Y7478217D01*
X4711700Y7474203D01*
X4715560Y7471054D01*
X4720031Y7468616D01*
X4725060Y7466888D01*
X4730597Y7465872D01*
X4736592Y7465568D01*
X4744618Y7466177D01*
X4751832Y7467904D01*
X4758232Y7470698D01*
X4763617Y7474458D01*
X4767986Y7479080D01*
X4771237Y7484414D01*
X4773218Y7490459D01*
X4773930Y7497064D01*
X4773523Y7502499D01*
X4772355Y7507528D01*
X4770323Y7512100D01*
X4767427Y7516164D01*
X4763668Y7519720D01*
X4759045Y7522616D01*
X4753508Y7524953D01*
X4747006Y7526528D01*
X4752390Y7528559D01*
X4757115Y7531100D01*
X4761179Y7534046D01*
X4764532Y7537399D01*
X4767173Y7541158D01*
X4769104Y7545222D01*
X4770221Y7549591D01*
X4770628Y7554214D01*
X4770069Y7560157D01*
X4768392Y7565440D01*
X4765751Y7570165D01*
X4762093Y7574127D01*
X4757521Y7577328D01*
X4752086Y7579664D01*
X4745837Y7581138D01*
G37*
G36*
X4655820Y7581646D02*
G01*
X4651349Y7581341D01*
X4646930Y7580325D01*
X4642713Y7578547D01*
X4638649Y7576058D01*
X4634890Y7572806D01*
X4631385Y7568641D01*
X4628337Y7563662D01*
X4625644Y7557770D01*
X4623511Y7550912D01*
X4621885Y7543038D01*
X4620869Y7534198D01*
X4620514Y7524242D01*
X4635246Y7524242D01*
X4635449Y7533690D01*
X4636008Y7541920D01*
X4636973Y7549083D01*
X4638192Y7555179D01*
X4639767Y7560309D01*
X4641545Y7564577D01*
X4643526Y7567980D01*
X4645761Y7570622D01*
X4648098Y7572552D01*
X4650587Y7573822D01*
X4653178Y7574584D01*
X4655820Y7574788D01*
X4658360Y7574584D01*
X4660798Y7573822D01*
X4663186Y7572552D01*
X4665472Y7570622D01*
X4667605Y7567980D01*
X4669536Y7564577D01*
X4671263Y7560309D01*
X4672736Y7555179D01*
X4673955Y7549083D01*
X4674870Y7541920D01*
X4675428Y7533690D01*
X4675632Y7524242D01*
X4675428Y7514539D01*
X4674870Y7506004D01*
X4673955Y7498588D01*
X4672736Y7492288D01*
X4671263Y7486954D01*
X4669536Y7482535D01*
X4667605Y7479030D01*
X4665472Y7476286D01*
X4663186Y7474254D01*
X4660798Y7472934D01*
X4658360Y7472172D01*
X4655820Y7471918D01*
X4653178Y7472172D01*
X4650587Y7472883D01*
X4648098Y7474254D01*
X4645761Y7476236D01*
X4643526Y7478928D01*
X4641545Y7482484D01*
X4639767Y7486853D01*
X4638192Y7492187D01*
X4636973Y7498486D01*
X4636008Y7505903D01*
X4635449Y7514437D01*
X4635246Y7524242D01*
X4620514Y7524242D01*
X4620869Y7514031D01*
X4621885Y7504887D01*
X4623511Y7496860D01*
X4625644Y7489850D01*
X4628337Y7483805D01*
X4631385Y7478725D01*
X4634890Y7474508D01*
X4638649Y7471206D01*
X4642713Y7468666D01*
X4646930Y7466939D01*
X4651349Y7465872D01*
X4655820Y7465568D01*
X4660188Y7465872D01*
X4664506Y7466939D01*
X4668672Y7468666D01*
X4672634Y7471206D01*
X4676343Y7474508D01*
X4679797Y7478725D01*
X4682845Y7483805D01*
X4685487Y7489850D01*
X4687620Y7496860D01*
X4689246Y7504887D01*
X4690262Y7514031D01*
X4690618Y7524242D01*
X4690262Y7534198D01*
X4689246Y7543038D01*
X4687620Y7550912D01*
X4685487Y7557770D01*
X4682845Y7563662D01*
X4679797Y7568641D01*
X4676343Y7572806D01*
X4672634Y7576058D01*
X4668672Y7578547D01*
X4664506Y7580325D01*
X4660188Y7581341D01*
G37*
G36*
X4572000Y7581646D02*
G01*
X4567580Y7581341D01*
X4563211Y7580325D01*
X4559046Y7578547D01*
X4555032Y7576058D01*
X4551273Y7572806D01*
X4547819Y7568641D01*
X4544720Y7563662D01*
X4542078Y7557770D01*
X4539945Y7550912D01*
X4538319Y7543038D01*
X4537303Y7534198D01*
X4536948Y7524242D01*
X4551680Y7524242D01*
X4551883Y7533690D01*
X4552442Y7541920D01*
X4553356Y7549083D01*
X4554575Y7555179D01*
X4556099Y7560309D01*
X4557826Y7564577D01*
X4559808Y7567980D01*
X4561992Y7570622D01*
X4564329Y7572552D01*
X4566767Y7573822D01*
X4569358Y7574584D01*
X4572000Y7574788D01*
X4574590Y7574584D01*
X4577080Y7573822D01*
X4579467Y7572552D01*
X4581753Y7570622D01*
X4583887Y7567980D01*
X4585817Y7564577D01*
X4587544Y7560309D01*
X4588967Y7555179D01*
X4590186Y7549083D01*
X4591050Y7541920D01*
X4591608Y7533690D01*
X4591812Y7524242D01*
X4591608Y7514539D01*
X4591050Y7506004D01*
X4590186Y7498588D01*
X4588967Y7492288D01*
X4587544Y7486954D01*
X4585817Y7482535D01*
X4583887Y7479030D01*
X4581753Y7476286D01*
X4579467Y7474254D01*
X4577080Y7472934D01*
X4574590Y7472172D01*
X4572000Y7471918D01*
X4569358Y7472172D01*
X4566767Y7472883D01*
X4564329Y7474254D01*
X4561992Y7476236D01*
X4559808Y7478928D01*
X4557826Y7482484D01*
X4556099Y7486853D01*
X4554575Y7492187D01*
X4553356Y7498486D01*
X4552442Y7505903D01*
X4551883Y7514437D01*
X4551680Y7524242D01*
X4536948Y7524242D01*
X4537303Y7514031D01*
X4538319Y7504887D01*
X4539945Y7496860D01*
X4542078Y7489850D01*
X4544720Y7483805D01*
X4547819Y7478725D01*
X4551273Y7474508D01*
X4555032Y7471206D01*
X4559046Y7468666D01*
X4563211Y7466939D01*
X4567580Y7465872D01*
X4572000Y7465568D01*
X4576368Y7465872D01*
X4580686Y7466939D01*
X4584852Y7468666D01*
X4588814Y7471206D01*
X4592523Y7474508D01*
X4595977Y7478725D01*
X4599025Y7483805D01*
X4601667Y7489850D01*
X4603800Y7496860D01*
X4605426Y7504887D01*
X4606442Y7514031D01*
X4606798Y7524242D01*
X4606442Y7534198D01*
X4605426Y7543038D01*
X4603800Y7550912D01*
X4601667Y7557770D01*
X4599025Y7563662D01*
X4595977Y7568641D01*
X4592523Y7572806D01*
X4588814Y7576058D01*
X4584852Y7578547D01*
X4580686Y7580325D01*
X4576368Y7581341D01*
G37*
G36*
X4320032Y7581646D02*
G01*
X4313936Y7581239D01*
X4308144Y7580071D01*
X4302760Y7578090D01*
X4297934Y7575346D01*
X4293768Y7571841D01*
X4290364Y7567523D01*
X4287926Y7562392D01*
X4286504Y7556500D01*
X4288028Y7554264D01*
X4289907Y7552588D01*
X4292092Y7551521D01*
X4294632Y7551166D01*
X4297578Y7551724D01*
X4300067Y7553553D01*
X4302099Y7556855D01*
X4303776Y7561834D01*
X4307078Y7574025D01*
X4312005Y7574838D01*
X4315968Y7575042D01*
X4320489Y7574584D01*
X4324553Y7573365D01*
X4328058Y7571282D01*
X4331004Y7568539D01*
X4333392Y7565085D01*
X4335119Y7561021D01*
X4336186Y7556347D01*
X4336542Y7551166D01*
X4336186Y7546238D01*
X4335119Y7541259D01*
X4333290Y7536180D01*
X4330700Y7530947D01*
X4327347Y7525461D01*
X4323232Y7519619D01*
X4318355Y7513421D01*
X4303826Y7496606D01*
X4287266Y7478014D01*
X4287266Y7467600D01*
X4355846Y7467600D01*
X4355846Y7480553D01*
X4297934Y7480553D01*
X4328718Y7512659D01*
X4337354Y7522413D01*
X4340809Y7526680D01*
X4343704Y7530693D01*
X4346041Y7534452D01*
X4347921Y7538008D01*
X4349292Y7541463D01*
X4350258Y7544917D01*
X4350816Y7548372D01*
X4351020Y7551928D01*
X4350562Y7558227D01*
X4349191Y7563967D01*
X4346905Y7569047D01*
X4343603Y7573365D01*
X4339336Y7576870D01*
X4334002Y7579461D01*
X4327550Y7581087D01*
G37*
G36*
X3243834Y7581646D02*
G01*
X3237687Y7581239D01*
X3231845Y7580071D01*
X3226460Y7578090D01*
X3221634Y7575346D01*
X3217519Y7571841D01*
X3214166Y7567523D01*
X3211728Y7562392D01*
X3210306Y7556500D01*
X3211728Y7554264D01*
X3213608Y7552588D01*
X3215894Y7551521D01*
X3218434Y7551166D01*
X3221278Y7551724D01*
X3223768Y7553553D01*
X3225850Y7556855D01*
X3227578Y7561834D01*
X3230880Y7574025D01*
X3235807Y7574838D01*
X3239770Y7575042D01*
X3244240Y7574584D01*
X3248253Y7573365D01*
X3251758Y7571282D01*
X3254705Y7568539D01*
X3257092Y7565085D01*
X3258870Y7561021D01*
X3259988Y7556347D01*
X3260344Y7551166D01*
X3259988Y7546238D01*
X3258870Y7541259D01*
X3257042Y7536180D01*
X3254451Y7530947D01*
X3251098Y7525461D01*
X3246932Y7519619D01*
X3242005Y7513421D01*
X3227527Y7496606D01*
X3211068Y7478014D01*
X3211068Y7467600D01*
X3279648Y7467600D01*
X3279648Y7480553D01*
X3221736Y7480553D01*
X3252520Y7512659D01*
X3261156Y7522413D01*
X3264611Y7526680D01*
X3267506Y7530693D01*
X3269843Y7534452D01*
X3271723Y7538008D01*
X3273094Y7541463D01*
X3274060Y7544917D01*
X3274618Y7548372D01*
X3274822Y7551928D01*
X3274364Y7558227D01*
X3272993Y7563967D01*
X3270656Y7569047D01*
X3267354Y7573365D01*
X3263036Y7576870D01*
X3257702Y7579461D01*
X3251301Y7581087D01*
G37*
G36*
X2992882Y7581646D02*
G01*
X2986735Y7581239D01*
X2980893Y7580071D01*
X2975508Y7578090D01*
X2970682Y7575346D01*
X2966567Y7571841D01*
X2963214Y7567523D01*
X2960776Y7562392D01*
X2959354Y7556500D01*
X2960776Y7554264D01*
X2962605Y7552588D01*
X2964840Y7551521D01*
X2967228Y7551166D01*
X2970225Y7551724D01*
X2972765Y7553553D01*
X2974797Y7556855D01*
X2979928Y7574025D01*
X2984652Y7574838D01*
X2988818Y7575042D01*
X2993288Y7574584D01*
X2997250Y7573365D01*
X3000705Y7571282D01*
X3003651Y7568539D01*
X3005988Y7565085D01*
X3007715Y7561021D01*
X3008782Y7556347D01*
X3009138Y7551166D01*
X3008782Y7546238D01*
X3007715Y7541259D01*
X3005886Y7536180D01*
X3003296Y7530947D01*
X2999943Y7525461D01*
X2995828Y7519619D01*
X2990951Y7513421D01*
X2960116Y7478014D01*
X2960116Y7467600D01*
X3028696Y7467600D01*
X3028696Y7480553D01*
X2970784Y7480553D01*
X3001467Y7512659D01*
X3010103Y7522413D01*
X3013557Y7526680D01*
X3016453Y7530693D01*
X3018840Y7534452D01*
X3020720Y7538008D01*
X3022142Y7541463D01*
X3023108Y7544917D01*
X3023666Y7548372D01*
X3023870Y7551928D01*
X3023412Y7558227D01*
X3022041Y7563967D01*
X3019704Y7569047D01*
X3016402Y7573365D01*
X3012084Y7576870D01*
X3006750Y7579461D01*
X3000349Y7581087D01*
G37*
G36*
X4495038Y7580884D02*
G01*
X4460748Y7571994D01*
X4460748Y7566152D01*
X4482846Y7568438D01*
X4482744Y7482789D01*
X4482592Y7476236D01*
X4458970Y7472680D01*
X4458970Y7467600D01*
X4520438Y7467600D01*
X4520438Y7472680D01*
X4497070Y7476236D01*
X4496562Y7502906D01*
X4496562Y7555230D01*
X4497324Y7579359D01*
G37*
G36*
X4411218Y7580884D02*
G01*
X4376928Y7571994D01*
X4376928Y7566152D01*
X4399280Y7568438D01*
X4399026Y7476236D01*
X4375150Y7472680D01*
X4375150Y7467600D01*
X4436872Y7467600D01*
X4436872Y7472680D01*
X4413250Y7476236D01*
X4412996Y7555230D01*
X4413504Y7579359D01*
G37*
G36*
X4160265Y7580884D02*
G01*
X4125976Y7571994D01*
X4125976Y7566152D01*
X4148328Y7568438D01*
X4148074Y7476236D01*
X4124198Y7472680D01*
X4124198Y7467600D01*
X4185665Y7467600D01*
X4185665Y7472680D01*
X4162298Y7476236D01*
X4162044Y7496200D01*
X4162044Y7555230D01*
X4162551Y7579359D01*
G37*
G36*
X3992879Y7580884D02*
G01*
X3958590Y7571994D01*
X3958590Y7566152D01*
X3980942Y7568438D01*
X3980687Y7476236D01*
X3956812Y7472680D01*
X3956812Y7467600D01*
X4018534Y7467600D01*
X4018534Y7472680D01*
X3994912Y7476236D01*
X3994658Y7555230D01*
X3995165Y7579359D01*
G37*
G36*
X3340354Y7580884D02*
G01*
X3292145Y7512050D01*
X3299460Y7512050D01*
X3336290Y7565390D01*
X3336290Y7512050D01*
X3292145Y7512050D01*
X3291078Y7510525D01*
X3291078Y7502398D01*
X3336290Y7502398D01*
X3336290Y7467600D01*
X3349751Y7467600D01*
X3349751Y7502398D01*
X3367278Y7502398D01*
X3367278Y7512050D01*
X3349751Y7512050D01*
X3349751Y7580884D01*
G37*
G36*
X3167634Y7580884D02*
G01*
X3133344Y7571994D01*
X3133344Y7566152D01*
X3155696Y7568438D01*
X3155442Y7476236D01*
X3131566Y7472680D01*
X3131566Y7467600D01*
X3193288Y7467600D01*
X3193288Y7472680D01*
X3169666Y7476236D01*
X3169412Y7555230D01*
X3169920Y7579359D01*
G37*
G36*
X3084068Y7580884D02*
G01*
X3049778Y7571994D01*
X3049778Y7566152D01*
X3072130Y7568438D01*
X3072079Y7496200D01*
X3071622Y7476236D01*
X3048000Y7472680D01*
X3048000Y7467600D01*
X3109468Y7467600D01*
X3109468Y7472680D01*
X3086100Y7476236D01*
X3085846Y7496200D01*
X3085846Y7555230D01*
X3086354Y7579359D01*
G37*
G36*
X2833116Y7580884D02*
G01*
X2798826Y7571994D01*
X2798826Y7566152D01*
X2820924Y7568438D01*
X2820822Y7482789D01*
X2820670Y7476236D01*
X2797048Y7472680D01*
X2797048Y7467600D01*
X2858516Y7467600D01*
X2858516Y7472680D01*
X2835148Y7476236D01*
X2834640Y7502906D01*
X2834640Y7555230D01*
X2835402Y7579359D01*
G37*
G36*
X2665730Y7580884D02*
G01*
X2631440Y7571994D01*
X2631440Y7566152D01*
X2653792Y7568438D01*
X2653741Y7496200D01*
X2653284Y7476236D01*
X2629662Y7472680D01*
X2629662Y7467600D01*
X2691130Y7467600D01*
X2691130Y7472680D01*
X2667762Y7476236D01*
X2667508Y7496200D01*
X2667508Y7555230D01*
X2668016Y7579359D01*
G37*
G36*
X4214368Y7579359D02*
G01*
X4210812Y7527290D01*
X4215130Y7526020D01*
X4219143Y7526985D01*
X4227118Y7527950D01*
X4231132Y7528052D01*
X4236872Y7527594D01*
X4241952Y7526274D01*
X4246422Y7524038D01*
X4250232Y7520990D01*
X4253230Y7517130D01*
X4255465Y7512405D01*
X4256836Y7506919D01*
X4257294Y7500620D01*
X4256887Y7494371D01*
X4255617Y7488732D01*
X4253534Y7483856D01*
X4250690Y7479690D01*
X4247083Y7476388D01*
X4242714Y7473950D01*
X4237634Y7472425D01*
X4231894Y7471918D01*
X4226661Y7472273D01*
X4221480Y7473442D01*
X4217111Y7488428D01*
X4215282Y7491730D01*
X4212945Y7493508D01*
X4209796Y7494016D01*
X4207154Y7493660D01*
X4204868Y7492695D01*
X4203039Y7491018D01*
X4201668Y7488681D01*
X4203344Y7483246D01*
X4205681Y7478522D01*
X4208627Y7474559D01*
X4212234Y7471308D01*
X4216501Y7468819D01*
X4221327Y7466990D01*
X4226814Y7465923D01*
X4232910Y7465568D01*
X4238650Y7465872D01*
X4243984Y7466736D01*
X4248962Y7468209D01*
X4253484Y7470190D01*
X4257598Y7472680D01*
X4261205Y7475677D01*
X4264355Y7479080D01*
X4266946Y7482941D01*
X4269028Y7487208D01*
X4270552Y7491831D01*
X4271467Y7496860D01*
X4271772Y7502144D01*
X4271111Y7510068D01*
X4269130Y7517028D01*
X4265980Y7523073D01*
X4261713Y7528052D01*
X4256430Y7532014D01*
X4250232Y7534859D01*
X4243222Y7536586D01*
X4235450Y7537196D01*
X4231030Y7537043D01*
X4226763Y7536586D01*
X4222597Y7535824D01*
X4218432Y7534656D01*
X4220718Y7566152D01*
X4268724Y7566152D01*
X4268724Y7579359D01*
G37*
G36*
X4036314Y7579359D02*
G01*
X4036314Y7566152D01*
X4094987Y7566152D01*
X4050537Y7469124D01*
X4052062Y7467600D01*
X4064762Y7467600D01*
X4104132Y7570978D01*
X4104132Y7579359D01*
G37*
G36*
X2886964Y7579359D02*
G01*
X2883408Y7527290D01*
X2887726Y7526020D01*
X2891739Y7526985D01*
X2899816Y7527950D01*
X2903728Y7528052D01*
X2909468Y7527594D01*
X2914548Y7526274D01*
X2919018Y7524038D01*
X2922828Y7520990D01*
X2925826Y7517130D01*
X2928061Y7512405D01*
X2929432Y7506919D01*
X2929890Y7500620D01*
X2929483Y7494371D01*
X2928264Y7488732D01*
X2926232Y7483856D01*
X2923438Y7479690D01*
X2919831Y7476388D01*
X2915513Y7473950D01*
X2910484Y7472425D01*
X2904744Y7471918D01*
X2899308Y7472273D01*
X2894076Y7473442D01*
X2891536Y7483348D01*
X2889910Y7488428D01*
X2888030Y7491730D01*
X2885592Y7493508D01*
X2882392Y7494016D01*
X2879852Y7493660D01*
X2877616Y7492695D01*
X2875788Y7491018D01*
X2874518Y7488681D01*
X2876092Y7483246D01*
X2878378Y7478522D01*
X2881376Y7474559D01*
X2884982Y7471308D01*
X2889199Y7468819D01*
X2894076Y7466990D01*
X2899511Y7465923D01*
X2905506Y7465568D01*
X2911246Y7465872D01*
X2916580Y7466736D01*
X2921558Y7468209D01*
X2926130Y7470190D01*
X2930245Y7472680D01*
X2933903Y7475677D01*
X2937103Y7479080D01*
X2939745Y7482941D01*
X2941828Y7487208D01*
X2943352Y7491831D01*
X2944317Y7496860D01*
X2944622Y7502144D01*
X2943961Y7510068D01*
X2941980Y7517028D01*
X2938830Y7523073D01*
X2934563Y7528052D01*
X2929280Y7532014D01*
X2923082Y7534859D01*
X2916072Y7536586D01*
X2908300Y7537196D01*
X2903880Y7537043D01*
X2899613Y7536586D01*
X2895447Y7535824D01*
X2891282Y7534656D01*
X2893314Y7566152D01*
X2941574Y7566152D01*
X2941574Y7579359D01*
G37*
G36*
X2709164Y7579359D02*
G01*
X2709164Y7566152D01*
X2767584Y7566152D01*
X2723134Y7469124D01*
X2724658Y7467600D01*
X2737612Y7467600D01*
X2776982Y7570978D01*
X2776982Y7579359D01*
G37*
G36*
X2441194Y7564374D02*
G01*
X2439670Y7563358D01*
X2443937Y7557922D01*
X2448052Y7551572D01*
X2451404Y7544866D01*
X2453386Y7538466D01*
X2456230Y7537043D01*
X2458872Y7536840D01*
X2461158Y7537602D01*
X2462936Y7539177D01*
X2464054Y7541514D01*
X2464358Y7544358D01*
X2463698Y7547609D01*
X2461971Y7551115D01*
X2458974Y7554671D01*
X2454656Y7558176D01*
X2448763Y7561478D01*
G37*
G36*
X3829050Y7563103D02*
G01*
X3827932Y7554722D01*
X3825392Y7546898D01*
X3821836Y7540294D01*
X3815740Y7533386D01*
X3814318Y7530795D01*
X3813860Y7528102D01*
X3814572Y7525512D01*
X3817213Y7523632D01*
X3820464Y7523276D01*
X3823868Y7524242D01*
X3826764Y7526528D01*
X3828592Y7528966D01*
X3830269Y7532116D01*
X3831640Y7535875D01*
X3832656Y7540244D01*
X3833215Y7545171D01*
X3833266Y7550658D01*
X3832656Y7556652D01*
X3831336Y7563103D01*
G37*
G36*
X3467608Y7558024D02*
G01*
X3466337Y7556753D01*
X3471214Y7553096D01*
X3476040Y7548575D01*
X3480104Y7543647D01*
X3482848Y7538720D01*
X3485743Y7537805D01*
X3488283Y7537907D01*
X3490366Y7538974D01*
X3491839Y7540701D01*
X3492550Y7542936D01*
X3492449Y7545527D01*
X3491433Y7548270D01*
X3489299Y7550962D01*
X3485946Y7553502D01*
X3481324Y7555636D01*
X3475228Y7557211D01*
G37*
G36*
X3567684Y7554722D02*
G01*
X3562096Y7547864D01*
X3528822Y7547864D01*
X3514598Y7553452D01*
X3514598Y7472680D01*
X3515461Y7466025D01*
X3518611Y7461961D01*
X3524758Y7459980D01*
X3534664Y7459472D01*
X3556254Y7459218D01*
X3575354Y7459573D01*
X3581958Y7460081D01*
X3586886Y7460894D01*
X3590340Y7461910D01*
X3592576Y7463281D01*
X3593744Y7465009D01*
X3594100Y7467092D01*
X3593846Y7468666D01*
X3592931Y7470038D01*
X3591204Y7471257D01*
X3588512Y7472425D01*
X3588258Y7490968D01*
X3586226Y7490968D01*
X3583025Y7479639D01*
X3581603Y7475626D01*
X3580384Y7472934D01*
X3579622Y7472121D01*
X3577539Y7471156D01*
X3573170Y7470698D01*
X3563365Y7470444D01*
X3535934Y7470394D01*
X3531158Y7470648D01*
X3528415Y7471460D01*
X3527094Y7472984D01*
X3526790Y7475220D01*
X3526790Y7543292D01*
X3563620Y7543292D01*
X3563620Y7510780D01*
X3563467Y7509611D01*
X3562908Y7508697D01*
X3561892Y7508189D01*
X3560318Y7507986D01*
X3541776Y7509002D01*
X3541776Y7506716D01*
X3546348Y7506004D01*
X3549954Y7505039D01*
X3552698Y7503820D01*
X3554729Y7502398D01*
X3556050Y7500823D01*
X3556965Y7498842D01*
X3558032Y7493762D01*
X3567328Y7495641D01*
X3572611Y7498994D01*
X3574999Y7503617D01*
X3575558Y7509509D01*
X3575558Y7541006D01*
X3577742Y7541666D01*
X3581044Y7543342D01*
X3581908Y7544308D01*
G37*
G36*
X2372106Y7552944D02*
G01*
X2364486Y7544053D01*
X2311400Y7544053D01*
X2312416Y7539481D01*
X2342134Y7539481D01*
X2342134Y7515859D01*
X2289048Y7515859D01*
X2290318Y7511288D01*
X2342134Y7511288D01*
X2342134Y7464298D01*
X2281682Y7464298D01*
X2282952Y7460234D01*
X2415336Y7460335D01*
X2416556Y7460691D01*
X2417419Y7461402D01*
X2417826Y7462520D01*
X2402332Y7475474D01*
X2393696Y7464298D01*
X2354834Y7464298D01*
X2354834Y7511288D01*
X2407158Y7511288D01*
X2408732Y7511440D01*
X2410002Y7511846D01*
X2410917Y7512558D01*
X2411476Y7513574D01*
X2401773Y7521651D01*
X2396490Y7525766D01*
X2388616Y7515859D01*
X2354834Y7515859D01*
X2354834Y7539481D01*
X2381758Y7539481D01*
X2383332Y7539634D01*
X2384552Y7540040D01*
X2385415Y7540752D01*
X2385822Y7541768D01*
X2376982Y7549184D01*
G37*
G36*
X3504184Y7547356D02*
G01*
X3470656Y7494270D01*
X3469386Y7492644D01*
X3468370Y7491831D01*
X3467354Y7491526D01*
X3458718Y7491475D01*
X3458718Y7488428D01*
X3462782Y7487818D01*
X3466084Y7486396D01*
X3468217Y7483602D01*
X3469335Y7478471D01*
X3469386Y7471105D01*
X3468370Y7461758D01*
X3469182Y7458913D01*
X3470503Y7456830D01*
X3472129Y7455560D01*
X3473958Y7455153D01*
X3478022Y7455865D01*
X3481120Y7457795D01*
X3483051Y7460843D01*
X3483864Y7464806D01*
X3483457Y7471562D01*
X3481984Y7476947D01*
X3480409Y7481570D01*
X3479546Y7485888D01*
X3479749Y7488529D01*
X3481374Y7494473D01*
X3484016Y7500772D01*
X3506470Y7546340D01*
G37*
G36*
X3455162Y7534909D02*
G01*
X3453892Y7533386D01*
X3458718Y7529880D01*
X3463239Y7525410D01*
X3466998Y7520431D01*
X3469386Y7515352D01*
X3472281Y7514234D01*
X3474872Y7514285D01*
X3477006Y7515250D01*
X3478529Y7516926D01*
X3479342Y7519162D01*
X3479342Y7521803D01*
X3478377Y7524597D01*
X3476345Y7527391D01*
X3473145Y7530033D01*
X3468624Y7532268D01*
X3462680Y7533944D01*
G37*
G36*
X2457196Y7531608D02*
G01*
X2450338Y7522718D01*
X2432304Y7522718D01*
X2433066Y7518146D01*
X2452370Y7518146D01*
X2452370Y7480046D01*
X2432304Y7467853D01*
X2441448Y7454900D01*
X2442210Y7455662D01*
X2442667Y7456474D01*
X2442819Y7457287D01*
X2442718Y7458202D01*
X2450541Y7468514D01*
X2458516Y7477912D01*
X2459736Y7478369D01*
X2461158Y7478115D01*
X2462784Y7476998D01*
X2465984Y7473594D01*
X2469286Y7470546D01*
X2472740Y7467853D01*
X2476398Y7465568D01*
X2480310Y7463586D01*
X2484526Y7461910D01*
X2489047Y7460538D01*
X2494076Y7459472D01*
X2499512Y7458659D01*
X2505456Y7458100D01*
X2519172Y7457694D01*
X2563368Y7457694D01*
X2564333Y7461097D01*
X2566060Y7463942D01*
X2568600Y7466075D01*
X2572004Y7467346D01*
X2572004Y7469378D01*
X2547162Y7468717D01*
X2512263Y7468717D01*
X2502916Y7469124D01*
X2494584Y7469835D01*
X2487168Y7471003D01*
X2480564Y7472680D01*
X2474671Y7474915D01*
X2469337Y7477861D01*
X2464054Y7481824D01*
X2464054Y7516622D01*
X2466797Y7517130D01*
X2468930Y7517841D01*
X2470505Y7518704D01*
X2471674Y7519670D01*
G37*
G36*
X2513838Y7527798D02*
G01*
X2513838Y7515606D01*
X2483358Y7515606D01*
X2484628Y7511288D01*
X2513838Y7511288D01*
X2513838Y7501381D01*
X2486914Y7501381D01*
X2488184Y7497064D01*
X2513838Y7497064D01*
X2513838Y7487158D01*
X2478024Y7487158D01*
X2479294Y7482586D01*
X2513838Y7482586D01*
X2513838Y7470902D01*
X2515870Y7470902D01*
X2519172Y7471308D01*
X2522169Y7472324D01*
X2524404Y7473594D01*
X2525268Y7474712D01*
X2525268Y7482586D01*
X2562606Y7482586D01*
X2564028Y7482738D01*
X2565196Y7483195D01*
X2566009Y7483957D01*
X2566416Y7485125D01*
X2562555Y7488478D01*
X2553970Y7494778D01*
X2547112Y7487158D01*
X2525268Y7487158D01*
X2525268Y7497064D01*
X2551176Y7497064D01*
X2552598Y7497216D01*
X2553766Y7497622D01*
X2554579Y7498334D01*
X2554986Y7499350D01*
X2551430Y7502448D01*
X2543810Y7508240D01*
X2537968Y7501381D01*
X2525268Y7501381D01*
X2525268Y7511288D01*
X2553208Y7511288D01*
X2554630Y7511440D01*
X2555798Y7511846D01*
X2556611Y7512558D01*
X2557018Y7513574D01*
X2549448Y7519670D01*
X2545334Y7522718D01*
X2538730Y7515606D01*
X2525268Y7515606D01*
X2525268Y7522972D01*
X2527198Y7523429D01*
X2528468Y7524089D01*
X2529230Y7524953D01*
X2529586Y7526020D01*
G37*
G36*
X2243582Y7526020D02*
G01*
X2237232Y7518653D01*
X2157984Y7518653D01*
X2143760Y7524242D01*
X2143760Y7514336D01*
X2237740Y7514336D01*
X2237740Y7473188D01*
X2156206Y7473188D01*
X2156206Y7514336D01*
X2143760Y7514336D01*
X2143760Y7455662D01*
X2145792Y7455662D01*
X2150211Y7456068D01*
X2153462Y7457033D01*
X2155494Y7458151D01*
X2156206Y7458964D01*
X2156206Y7468616D01*
X2237740Y7468616D01*
X2237740Y7457694D01*
X2240026Y7457694D01*
X2244242Y7458100D01*
X2247646Y7459065D01*
X2249881Y7460183D01*
X2250694Y7460996D01*
X2250694Y7513320D01*
X2252878Y7513777D01*
X2255672Y7515199D01*
X2256536Y7516114D01*
G37*
G36*
X2379726Y7505953D02*
G01*
X2372360Y7486802D01*
X2368600Y7478115D01*
X2364994Y7470902D01*
X2367280Y7469378D01*
X2373223Y7475118D01*
X2379421Y7481824D01*
X2385517Y7489088D01*
X2391156Y7496556D01*
X2393391Y7496606D01*
X2395118Y7497165D01*
X2396337Y7498029D01*
X2396998Y7499096D01*
G37*
G36*
X2307082Y7505192D02*
G01*
X2305304Y7504430D01*
X2309114Y7497470D01*
X2312568Y7489596D01*
X2315108Y7481366D01*
X2316226Y7473442D01*
X2319020Y7471409D01*
X2321763Y7470749D01*
X2324252Y7471308D01*
X2326284Y7472883D01*
X2327706Y7475321D01*
X2328418Y7478572D01*
X2328164Y7482382D01*
X2326843Y7486650D01*
X2324201Y7491171D01*
X2320188Y7495895D01*
X2314498Y7500620D01*
G37*
G36*
X5044440Y8014462D02*
G01*
X5037886Y8014208D01*
X5031333Y8013496D01*
X5024831Y8012277D01*
X5018481Y8010448D01*
X5012283Y8008061D01*
X5006289Y8005013D01*
X5000548Y8001355D01*
X4995164Y7996936D01*
X4991303Y7993176D01*
X4987848Y7989214D01*
X4984750Y7984998D01*
X4982006Y7980527D01*
X4979619Y7975803D01*
X4977536Y7970672D01*
X4975656Y7965186D01*
X4974082Y7959293D01*
X4972710Y7952943D01*
X4970576Y7938820D01*
X4969764Y7930896D01*
X4944110Y7927594D01*
X4944110Y7916672D01*
X4969764Y7916672D01*
X4969662Y7830108D01*
X4969002Y7798053D01*
X4944364Y7794498D01*
X4944364Y7785100D01*
X5022850Y7785100D01*
X5022850Y7794498D01*
X4995418Y7798308D01*
X4995062Y7823809D01*
X4994910Y7916672D01*
X5064760Y7916672D01*
X5065318Y7894116D01*
X5065522Y7843723D01*
X5065014Y7798053D01*
X5042154Y7794498D01*
X5042154Y7785100D01*
X5112258Y7785100D01*
X5112258Y7794498D01*
X5091176Y7798053D01*
X5090820Y7824165D01*
X5090668Y7891525D01*
X5091430Y7931150D01*
X5087620Y7933944D01*
X5061204Y7930134D01*
X4994402Y7930134D01*
X4994503Y7944662D01*
X4994910Y7951114D01*
X4995621Y7957108D01*
X4996535Y7962595D01*
X4997653Y7967675D01*
X4999075Y7972348D01*
X5000752Y7976666D01*
X5002631Y7980629D01*
X5004816Y7984236D01*
X5007203Y7987538D01*
X5009896Y7990586D01*
X5016296Y7995818D01*
X5024018Y7999882D01*
X5032806Y8002676D01*
X5042662Y8004048D01*
X5055108Y7987284D01*
X5059832Y7981746D01*
X5064658Y7977784D01*
X5069738Y7975396D01*
X5075174Y7974584D01*
X5080457Y7975498D01*
X5084775Y7977936D01*
X5087924Y7981543D01*
X5089652Y7986014D01*
X5089144Y7990179D01*
X5087874Y7994142D01*
X5085892Y7997748D01*
X5083302Y8001050D01*
X5080050Y8004048D01*
X5076291Y8006689D01*
X5071973Y8009026D01*
X5067249Y8010906D01*
X5062016Y8012430D01*
X5056479Y8013547D01*
X5050586Y8014208D01*
G37*
G36*
X4805426Y8011414D02*
G01*
X4758182Y7998459D01*
X4758182Y7989316D01*
X4783074Y7987030D01*
X4783023Y7836611D01*
X4782566Y7798053D01*
X4758182Y7794498D01*
X4758182Y7785100D01*
X4833366Y7785100D01*
X4833366Y7794498D01*
X4808728Y7798053D01*
X4808220Y7843012D01*
X4808220Y7965694D01*
X4809744Y8009128D01*
G37*
G36*
X4888738Y8006842D02*
G01*
X4880914Y8005521D01*
X4874615Y8001762D01*
X4870450Y7995920D01*
X4868926Y7988300D01*
X4870450Y7980730D01*
X4874615Y7974685D01*
X4880914Y7970672D01*
X4888738Y7969250D01*
X4896307Y7970672D01*
X4902504Y7974685D01*
X4906721Y7980730D01*
X4908296Y7988300D01*
X4906721Y7995920D01*
X4902504Y8001762D01*
X4896307Y8005521D01*
G37*
G36*
X3938524Y7994650D02*
G01*
X3932021Y7994497D01*
X3925620Y7993989D01*
X3919423Y7993125D01*
X3913378Y7991957D01*
X3907485Y7990484D01*
X3901795Y7988706D01*
X3896258Y7986674D01*
X3890924Y7984286D01*
X3885793Y7981645D01*
X3880865Y7978698D01*
X3876141Y7975549D01*
X3871620Y7972094D01*
X3867353Y7968386D01*
X3863289Y7964424D01*
X3859428Y7960258D01*
X3855872Y7955838D01*
X3852519Y7951165D01*
X3849420Y7946339D01*
X3846626Y7941259D01*
X3844086Y7936026D01*
X3841800Y7930591D01*
X3839819Y7924952D01*
X3838092Y7919110D01*
X3836670Y7913166D01*
X3835603Y7907020D01*
X3834790Y7900720D01*
X3834282Y7894269D01*
X3834129Y7887716D01*
X3834282Y7881061D01*
X3834790Y7874558D01*
X3835552Y7868208D01*
X3836670Y7862011D01*
X3838041Y7856016D01*
X3839718Y7850174D01*
X3841699Y7844485D01*
X3843934Y7839049D01*
X3846423Y7833766D01*
X3849217Y7828686D01*
X3852265Y7823809D01*
X3855567Y7819186D01*
X3859123Y7814767D01*
X3862882Y7810601D01*
X3866896Y7806639D01*
X3871163Y7802981D01*
X3875633Y7799527D01*
X3880307Y7796326D01*
X3885234Y7793431D01*
X3890314Y7790789D01*
X3895648Y7788452D01*
X3901135Y7786370D01*
X3906824Y7784642D01*
X3912666Y7783169D01*
X3918712Y7782052D01*
X3924909Y7781188D01*
X3931259Y7780680D01*
X3937762Y7780528D01*
X3943858Y7780680D01*
X3949750Y7781086D01*
X3961231Y7782712D01*
X3972255Y7785353D01*
X3982974Y7788909D01*
X3993540Y7793329D01*
X4004056Y7798562D01*
X4004259Y7841843D01*
X4005072Y7870444D01*
X4023360Y7871968D01*
X4023360Y7882636D01*
X3943858Y7882636D01*
X3943858Y7871968D01*
X3976115Y7869428D01*
X3976573Y7840878D01*
X3976878Y7800086D01*
X3968292Y7797444D01*
X3959910Y7795514D01*
X3951325Y7794345D01*
X3942334Y7793990D01*
X3936542Y7794193D01*
X3930954Y7794701D01*
X3925570Y7795615D01*
X3920337Y7796834D01*
X3915359Y7798460D01*
X3910584Y7800390D01*
X3906012Y7802676D01*
X3901643Y7805267D01*
X3897477Y7808163D01*
X3893565Y7811414D01*
X3889908Y7814970D01*
X3886504Y7818831D01*
X3883304Y7823047D01*
X3880358Y7827518D01*
X3877665Y7832293D01*
X3875278Y7837322D01*
X3873093Y7842707D01*
X3871214Y7848295D01*
X3869588Y7854238D01*
X3868267Y7860385D01*
X3867251Y7866837D01*
X3866489Y7873542D01*
X3866032Y7880502D01*
X3865879Y7887716D01*
X3866032Y7895031D01*
X3866540Y7902041D01*
X3867353Y7908798D01*
X3868420Y7915300D01*
X3869842Y7921498D01*
X3871518Y7927390D01*
X3873500Y7933029D01*
X3875735Y7938363D01*
X3878224Y7943392D01*
X3881018Y7948168D01*
X3884015Y7952587D01*
X3887266Y7956753D01*
X3890721Y7960563D01*
X3894429Y7964068D01*
X3898290Y7967268D01*
X3902405Y7970164D01*
X3906723Y7972704D01*
X3911193Y7974939D01*
X3915867Y7976819D01*
X3920693Y7978394D01*
X3925722Y7979613D01*
X3930853Y7980476D01*
X3936136Y7981035D01*
X3941572Y7981188D01*
X3950970Y7980680D01*
X3959809Y7979003D01*
X3968140Y7976260D01*
X3976115Y7972298D01*
X3983736Y7934198D01*
X4000246Y7934198D01*
X3999737Y7979664D01*
X3995521Y7982102D01*
X3986733Y7986268D01*
X3977386Y7989620D01*
X3972458Y7990992D01*
X3962095Y7993024D01*
X3950817Y7994243D01*
G37*
G36*
X3744976Y7994650D02*
G01*
X3738626Y7994497D01*
X3732377Y7993989D01*
X3726281Y7993176D01*
X3720337Y7992008D01*
X3714546Y7990535D01*
X3708908Y7988808D01*
X3703421Y7986725D01*
X3698138Y7984388D01*
X3693007Y7981746D01*
X3688079Y7978851D01*
X3683355Y7975650D01*
X3678834Y7972247D01*
X3674516Y7968538D01*
X3670452Y7964627D01*
X3666591Y7960461D01*
X3662934Y7956042D01*
X3659581Y7951419D01*
X3656431Y7946542D01*
X3653586Y7941513D01*
X3650996Y7936230D01*
X3648659Y7930794D01*
X3646627Y7925155D01*
X3644900Y7919313D01*
X3643477Y7913319D01*
X3642309Y7907121D01*
X3641496Y7900822D01*
X3640988Y7894320D01*
X3640836Y7887716D01*
X3640988Y7880959D01*
X3641496Y7874355D01*
X3642258Y7867954D01*
X3643376Y7861706D01*
X3644747Y7855661D01*
X3646424Y7849768D01*
X3648405Y7844078D01*
X3650640Y7838592D01*
X3653180Y7833309D01*
X3655974Y7828229D01*
X3659022Y7823403D01*
X3662324Y7818780D01*
X3665880Y7814360D01*
X3669690Y7810195D01*
X3673703Y7806283D01*
X3677970Y7802625D01*
X3682441Y7799222D01*
X3687165Y7796072D01*
X3692093Y7793228D01*
X3697224Y7790637D01*
X3702558Y7788300D01*
X3708095Y7786268D01*
X3713784Y7784541D01*
X3719677Y7783118D01*
X3725773Y7782001D01*
X3732022Y7781188D01*
X3738422Y7780680D01*
X3750360Y7780629D01*
X3760978Y7781391D01*
X3771392Y7783017D01*
X3781551Y7785455D01*
X3786581Y7786979D01*
X3791508Y7788757D01*
X3801211Y7793024D01*
X3805936Y7795514D01*
X3806698Y7840472D01*
X3789934Y7840472D01*
X3782314Y7801609D01*
X3773474Y7798053D01*
X3764584Y7795717D01*
X3755694Y7794396D01*
X3747008Y7793990D01*
X3741623Y7794142D01*
X3736390Y7794650D01*
X3731260Y7795514D01*
X3726332Y7796682D01*
X3721557Y7798206D01*
X3716934Y7800035D01*
X3712514Y7802168D01*
X3708298Y7804708D01*
X3704285Y7807502D01*
X3700424Y7810652D01*
X3696817Y7814106D01*
X3693414Y7817916D01*
X3690264Y7821980D01*
X3687318Y7826400D01*
X3684625Y7831175D01*
X3682187Y7836204D01*
X3680002Y7841589D01*
X3678072Y7847228D01*
X3676446Y7853222D01*
X3675075Y7859522D01*
X3674008Y7866125D01*
X3673195Y7873034D01*
X3672738Y7880197D01*
X3672586Y7887716D01*
X3672738Y7895183D01*
X3673246Y7902295D01*
X3674110Y7909153D01*
X3675278Y7915706D01*
X3676751Y7921955D01*
X3678478Y7927949D01*
X3680510Y7933588D01*
X3682847Y7938922D01*
X3685438Y7943951D01*
X3688232Y7948675D01*
X3691331Y7953095D01*
X3694633Y7957210D01*
X3698138Y7961020D01*
X3701846Y7964474D01*
X3705809Y7967624D01*
X3709924Y7970469D01*
X3714191Y7972958D01*
X3718661Y7975142D01*
X3723284Y7976971D01*
X3728008Y7978495D01*
X3732936Y7979664D01*
X3737914Y7980527D01*
X3743045Y7981035D01*
X3748278Y7981188D01*
X3755948Y7980730D01*
X3763721Y7979409D01*
X3771544Y7977124D01*
X3779520Y7973822D01*
X3787140Y7934706D01*
X3803904Y7934706D01*
X3803142Y7979664D01*
X3795623Y7983677D01*
X3788054Y7986928D01*
X3780536Y7989519D01*
X3773119Y7991551D01*
X3765804Y7992973D01*
X3758641Y7993938D01*
X3751681Y7994497D01*
G37*
G36*
X4191762Y7991348D02*
G01*
X4148958Y7865109D01*
X4161790Y7865109D01*
X4193032Y7960106D01*
X4224782Y7865109D01*
X4148958Y7865109D01*
X4126737Y7799578D01*
X4101846Y7795768D01*
X4101846Y7785100D01*
X4170172Y7785100D01*
X4170172Y7795768D01*
X4140200Y7799578D01*
X4157726Y7852918D01*
X4228846Y7852918D01*
X4246626Y7799324D01*
X4216400Y7795768D01*
X4216400Y7785100D01*
X4299712Y7785100D01*
X4299712Y7795768D01*
X4275836Y7798562D01*
X4209796Y7991348D01*
G37*
G36*
X3455415Y7989824D02*
G01*
X3455415Y7979156D01*
X3483864Y7976108D01*
X3484219Y7949285D01*
X3484372Y7852562D01*
X3483864Y7798816D01*
X3455415Y7795768D01*
X3455415Y7785100D01*
X3612896Y7785100D01*
X3614674Y7839456D01*
X3599687Y7839456D01*
X3591560Y7798562D01*
X3513074Y7798562D01*
X3512464Y7832648D01*
X3512312Y7883144D01*
X3558794Y7883144D01*
X3562858Y7853680D01*
X3575558Y7853680D01*
X3575558Y7925562D01*
X3562858Y7925562D01*
X3558540Y7895336D01*
X3512312Y7895336D01*
X3512616Y7956448D01*
X3513074Y7976362D01*
X3585464Y7976362D01*
X3593592Y7935975D01*
X3608832Y7935975D01*
X3607054Y7989824D01*
G37*
G36*
X5383530Y7934198D02*
G01*
X5379262Y7933893D01*
X5374995Y7932978D01*
X5370779Y7931505D01*
X5366613Y7929422D01*
X5362549Y7926831D01*
X5358587Y7923682D01*
X5354777Y7920024D01*
X5351170Y7915859D01*
X5347716Y7911134D01*
X5344464Y7906003D01*
X5341518Y7900365D01*
X5338826Y7894320D01*
X5335778Y7931150D01*
X5331460Y7933944D01*
X5288534Y7917180D01*
X5288534Y7908036D01*
X5312918Y7905496D01*
X5313476Y7887360D01*
X5313680Y7843723D01*
X5313172Y7798053D01*
X5290820Y7794498D01*
X5290820Y7785100D01*
X5364988Y7785100D01*
X5364988Y7794498D01*
X5339588Y7798308D01*
X5339232Y7824317D01*
X5339080Y7873492D01*
X5341366Y7880197D01*
X5343906Y7886344D01*
X5346750Y7891983D01*
X5349849Y7897215D01*
X5353253Y7901990D01*
X5357063Y7906308D01*
X5361178Y7910271D01*
X5365750Y7913878D01*
X5369306Y7910575D01*
X5373725Y7906969D01*
X5378246Y7904276D01*
X5383072Y7902549D01*
X5388356Y7901940D01*
X5396179Y7903413D01*
X5401564Y7907578D01*
X5404662Y7914131D01*
X5405628Y7922768D01*
X5402021Y7927644D01*
X5396788Y7931251D01*
X5390438Y7933436D01*
G37*
G36*
X5206746Y7934198D02*
G01*
X5201107Y7933994D01*
X5195570Y7933283D01*
X5190185Y7932216D01*
X5184902Y7930692D01*
X5179822Y7928711D01*
X5174894Y7926374D01*
X5170220Y7923631D01*
X5165699Y7920532D01*
X5161483Y7917027D01*
X5157520Y7913166D01*
X5153812Y7908950D01*
X5150408Y7904429D01*
X5147360Y7899501D01*
X5144617Y7894320D01*
X5142280Y7888782D01*
X5140299Y7882940D01*
X5138724Y7876794D01*
X5137660Y7870698D01*
X5163566Y7870698D01*
X5164683Y7879334D01*
X5166410Y7887157D01*
X5168696Y7894116D01*
X5171541Y7900263D01*
X5174843Y7905648D01*
X5178501Y7910220D01*
X5182463Y7914081D01*
X5186730Y7917129D01*
X5191201Y7919516D01*
X5195824Y7921193D01*
X5200497Y7922209D01*
X5205222Y7922514D01*
X5212384Y7921752D01*
X5218836Y7919618D01*
X5224627Y7916265D01*
X5229555Y7911896D01*
X5233517Y7906562D01*
X5236514Y7900568D01*
X5238343Y7893964D01*
X5239004Y7886953D01*
X5238292Y7880096D01*
X5235803Y7874711D01*
X5230774Y7871206D01*
X5222494Y7869936D01*
X5163566Y7870698D01*
X5137660Y7870698D01*
X5136896Y7863687D01*
X5136642Y7856728D01*
X5136845Y7849666D01*
X5137454Y7842961D01*
X5138470Y7836560D01*
X5139893Y7830464D01*
X5141671Y7824673D01*
X5143804Y7819237D01*
X5146243Y7814157D01*
X5149088Y7809433D01*
X5152237Y7805064D01*
X5155742Y7801000D01*
X5159502Y7797342D01*
X5163566Y7794040D01*
X5167934Y7791094D01*
X5172557Y7788503D01*
X5177485Y7786319D01*
X5182616Y7784541D01*
X5188000Y7783118D01*
X5193588Y7782102D01*
X5199430Y7781493D01*
X5205476Y7781290D01*
X5212130Y7781544D01*
X5218430Y7782356D01*
X5224424Y7783677D01*
X5230063Y7785506D01*
X5235448Y7787843D01*
X5240426Y7790586D01*
X5245100Y7793837D01*
X5249468Y7797495D01*
X5253431Y7801559D01*
X5257088Y7806029D01*
X5260441Y7810855D01*
X5263388Y7816088D01*
X5257292Y7820406D01*
X5253126Y7815681D01*
X5248808Y7811363D01*
X5244185Y7807604D01*
X5239207Y7804403D01*
X5233822Y7801813D01*
X5227878Y7799882D01*
X5221376Y7798714D01*
X5214112Y7798308D01*
X5208625Y7798562D01*
X5203393Y7799273D01*
X5198414Y7800441D01*
X5193690Y7802118D01*
X5189270Y7804251D01*
X5185105Y7806842D01*
X5181295Y7809941D01*
X5177739Y7813497D01*
X5174589Y7817561D01*
X5171795Y7822082D01*
X5169357Y7827060D01*
X5167274Y7832496D01*
X5165648Y7838440D01*
X5164429Y7844790D01*
X5163616Y7851698D01*
X5163312Y7859014D01*
X5261610Y7858759D01*
X5262626Y7862265D01*
X5263337Y7866329D01*
X5263743Y7870850D01*
X5263896Y7875778D01*
X5263591Y7882381D01*
X5262778Y7888630D01*
X5261406Y7894574D01*
X5259578Y7900111D01*
X5257241Y7905292D01*
X5254447Y7910118D01*
X5251246Y7914538D01*
X5247589Y7918500D01*
X5243576Y7922107D01*
X5239207Y7925206D01*
X5234533Y7927898D01*
X5229504Y7930134D01*
X5224170Y7931912D01*
X5218633Y7933181D01*
X5212791Y7933944D01*
G37*
G36*
X4680204Y7934198D02*
G01*
X4674108Y7933893D01*
X4668113Y7932928D01*
X4662170Y7931251D01*
X4656277Y7928914D01*
X4650486Y7925765D01*
X4644796Y7921853D01*
X4639208Y7917180D01*
X4633722Y7911592D01*
X4631690Y7931150D01*
X4627372Y7933944D01*
X4584446Y7917180D01*
X4584446Y7908036D01*
X4609084Y7905496D01*
X4609642Y7887258D01*
X4609846Y7812024D01*
X4634992Y7812024D01*
X4634992Y7902194D01*
X4640935Y7906918D01*
X4646472Y7910728D01*
X4651603Y7913624D01*
X4656328Y7915808D01*
X4660747Y7917332D01*
X4664862Y7918297D01*
X4668723Y7918805D01*
X4672330Y7918958D01*
X4676648Y7918703D01*
X4680762Y7917942D01*
X4684674Y7916672D01*
X4688382Y7914944D01*
X4691888Y7912709D01*
X4695139Y7909966D01*
X4698136Y7906715D01*
X4700930Y7903006D01*
X4703368Y7898841D01*
X4705553Y7894167D01*
X4707483Y7888986D01*
X4709058Y7883398D01*
X4710277Y7877302D01*
X4711192Y7870748D01*
X4711750Y7863687D01*
X4711954Y7856220D01*
X4711750Y7848600D01*
X4711090Y7841538D01*
X4710023Y7835087D01*
X4708601Y7829143D01*
X4706823Y7823758D01*
X4704689Y7818881D01*
X4702251Y7814513D01*
X4699457Y7810703D01*
X4696460Y7807350D01*
X4693158Y7804454D01*
X4689652Y7802067D01*
X4685893Y7800136D01*
X4681982Y7798663D01*
X4677918Y7797596D01*
X4673650Y7796987D01*
X4669282Y7796784D01*
X4664913Y7796987D01*
X4660646Y7797647D01*
X4656378Y7798714D01*
X4652162Y7800289D01*
X4647895Y7802422D01*
X4643628Y7805013D01*
X4639360Y7808214D01*
X4634992Y7812024D01*
X4609846Y7812024D01*
X4609795Y7763916D01*
X4609338Y7725156D01*
X4584446Y7721092D01*
X4584446Y7711948D01*
X4662678Y7711948D01*
X4662678Y7721092D01*
X4634738Y7725409D01*
X4634331Y7758023D01*
X4634230Y7801609D01*
X4639157Y7796123D01*
X4644237Y7791703D01*
X4649419Y7788148D01*
X4654702Y7785455D01*
X4659985Y7783525D01*
X4665319Y7782204D01*
X4670602Y7781493D01*
X4675886Y7781290D01*
X4681169Y7781493D01*
X4686300Y7782153D01*
X4691227Y7783271D01*
X4696053Y7784744D01*
X4700625Y7786674D01*
X4705045Y7789011D01*
X4709261Y7791703D01*
X4713224Y7794802D01*
X4716983Y7798257D01*
X4720488Y7802067D01*
X4723688Y7806283D01*
X4726635Y7810804D01*
X4729276Y7815681D01*
X4731613Y7820863D01*
X4733594Y7826400D01*
X4735271Y7832242D01*
X4736592Y7838389D01*
X4737557Y7844790D01*
X4738166Y7851495D01*
X4738370Y7858506D01*
X4738166Y7865414D01*
X4737608Y7872018D01*
X4736693Y7878368D01*
X4735474Y7884414D01*
X4733899Y7890154D01*
X4732020Y7895590D01*
X4729784Y7900670D01*
X4727346Y7905445D01*
X4724603Y7909864D01*
X4721555Y7913979D01*
X4718304Y7917688D01*
X4714849Y7921091D01*
X4711141Y7924088D01*
X4707229Y7926730D01*
X4703114Y7928965D01*
X4698847Y7930845D01*
X4694377Y7932318D01*
X4689805Y7933334D01*
X4685080Y7933994D01*
G37*
G36*
X4416044Y7934198D02*
G01*
X4411319Y7933994D01*
X4406595Y7933334D01*
X4401870Y7932267D01*
X4397197Y7930794D01*
X4392523Y7928914D01*
X4387951Y7926679D01*
X4383430Y7924139D01*
X4379010Y7921193D01*
X4374692Y7917891D01*
X4370578Y7914335D01*
X4366564Y7910423D01*
X4362704Y7906258D01*
X4360164Y7931150D01*
X4355846Y7933944D01*
X4312920Y7917180D01*
X4312920Y7908036D01*
X4337050Y7905496D01*
X4337659Y7896504D01*
X4338066Y7877200D01*
X4337913Y7824165D01*
X4337558Y7798053D01*
X4314952Y7794498D01*
X4314952Y7785100D01*
X4385310Y7785100D01*
X4385310Y7794498D01*
X4363974Y7798053D01*
X4363618Y7824165D01*
X4363466Y7894574D01*
X4369155Y7899501D01*
X4374540Y7903718D01*
X4379772Y7907172D01*
X4384852Y7909915D01*
X4389882Y7912049D01*
X4394911Y7913522D01*
X4399940Y7914386D01*
X4405122Y7914640D01*
X4411167Y7914182D01*
X4416348Y7912760D01*
X4420666Y7910271D01*
X4424172Y7906562D01*
X4426864Y7901584D01*
X4428744Y7895132D01*
X4429912Y7887157D01*
X4430268Y7877556D01*
X4430115Y7823911D01*
X4429760Y7798053D01*
X4406392Y7794498D01*
X4406392Y7785100D01*
X4476750Y7785100D01*
X4476750Y7794498D01*
X4455922Y7798053D01*
X4455363Y7823911D01*
X4455160Y7878572D01*
X4454956Y7886903D01*
X4454144Y7894320D01*
X4460087Y7899400D01*
X4465777Y7903718D01*
X4471212Y7907223D01*
X4476445Y7910017D01*
X4481474Y7912100D01*
X4486452Y7913522D01*
X4491278Y7914386D01*
X4496054Y7914640D01*
X4502251Y7914233D01*
X4507585Y7912912D01*
X4512056Y7910575D01*
X4515662Y7907020D01*
X4518456Y7902143D01*
X4520438Y7895793D01*
X4521555Y7887817D01*
X4521962Y7878064D01*
X4521860Y7837271D01*
X4521200Y7798053D01*
X4498594Y7794498D01*
X4498594Y7785100D01*
X4568698Y7785100D01*
X4568698Y7794498D01*
X4547362Y7798053D01*
X4546701Y7837271D01*
X4546600Y7881112D01*
X4546295Y7890103D01*
X4545431Y7898180D01*
X4544009Y7905394D01*
X4541977Y7911693D01*
X4539437Y7917180D01*
X4536389Y7921853D01*
X4532782Y7925714D01*
X4528667Y7928864D01*
X4524095Y7931200D01*
X4519015Y7932877D01*
X4513478Y7933893D01*
X4507484Y7934198D01*
X4502607Y7933994D01*
X4497730Y7933436D01*
X4492853Y7932470D01*
X4488078Y7931099D01*
X4483303Y7929321D01*
X4478578Y7927187D01*
X4473956Y7924596D01*
X4469434Y7921650D01*
X4464964Y7918246D01*
X4460646Y7914436D01*
X4456430Y7910169D01*
X4452366Y7905496D01*
X4450029Y7912506D01*
X4447082Y7918450D01*
X4443476Y7923377D01*
X4439259Y7927390D01*
X4434382Y7930388D01*
X4428896Y7932521D01*
X4422800Y7933791D01*
G37*
G36*
X4897882Y7933944D02*
G01*
X4850892Y7917434D01*
X4850892Y7908290D01*
X4875784Y7906003D01*
X4876698Y7877251D01*
X4876800Y7843723D01*
X4876038Y7798053D01*
X4852670Y7794498D01*
X4852670Y7785100D01*
X4923028Y7785100D01*
X4923028Y7794498D01*
X4902200Y7798053D01*
X4901539Y7837525D01*
X4901438Y7890509D01*
X4902200Y7931150D01*
G37*
D33*
X2654300Y4446015D02*
G01*
X2654300Y4337050D01*
X2654300Y4446015D02*
G01*
X2701036Y4446015D01*
X2716529Y4440936D01*
X2721863Y4435602D01*
X2726943Y4425187D01*
X2726943Y4414773D01*
X2721863Y4404360D01*
X2716529Y4399279D01*
X2701036Y4394200D01*
X2654300Y4394200D01*
X2690622Y4394200D02*
G01*
X2726943Y4337050D01*
X2761234Y4446015D02*
G01*
X2761234Y4337050D01*
X2761234Y4337050D02*
G01*
X2823718Y4337050D01*
X2938018Y4446015D02*
G01*
X2938018Y4337050D01*
X2938018Y4446015D02*
G01*
X2984754Y4446015D01*
X3000247Y4440936D01*
X3005581Y4435602D01*
X3010661Y4425187D01*
X3010661Y4414773D01*
X3005581Y4404360D01*
X3000247Y4399279D01*
X2984754Y4394200D01*
X2938018Y4394200D01*
X2974340Y4394200D02*
G01*
X3010661Y4337050D01*
X3086608Y4446015D02*
G01*
X3044952Y4337050D01*
X3086608Y4446015D02*
G01*
X3128009Y4337050D01*
X3060700Y4373371D02*
G01*
X3112515Y4373371D01*
X3242309Y4446015D02*
G01*
X3242309Y4337050D01*
X3242309Y4337050D02*
G01*
X3304793Y4337050D01*
X3380740Y4446015D02*
G01*
X3339084Y4337050D01*
X3380740Y4446015D02*
G01*
X3422141Y4337050D01*
X3354577Y4373371D02*
G01*
X3406647Y4373371D01*
X7384541Y7608315D02*
G01*
X7374127Y7603236D01*
X7363713Y7592821D01*
X7358379Y7582408D01*
X7353300Y7566660D01*
X7353300Y7540752D01*
X7358379Y7525258D01*
X7363713Y7514844D01*
X7374127Y7504429D01*
X7384541Y7499350D01*
X7405370Y7499350D01*
X7415529Y7504429D01*
X7425943Y7514844D01*
X7431277Y7525258D01*
X7436358Y7540752D01*
X7436358Y7566660D01*
X7431277Y7582408D01*
X7425943Y7592821D01*
X7415529Y7603236D01*
X7405370Y7608315D01*
X7384541Y7608315D01*
X7470647Y7608315D02*
G01*
X7470647Y7530337D01*
X7475981Y7514844D01*
X7486395Y7504429D01*
X7501890Y7499350D01*
X7512304Y7499350D01*
X7527797Y7504429D01*
X7538211Y7514844D01*
X7543545Y7530337D01*
X7543545Y7608315D01*
X7614158Y7608315D02*
G01*
X7614158Y7499350D01*
X7577836Y7608315D02*
G01*
X7650479Y7608315D01*
X7431277Y7366508D02*
G01*
X7425943Y7376921D01*
X7415529Y7387336D01*
X7405370Y7392415D01*
X7384541Y7392415D01*
X7374127Y7387336D01*
X7363713Y7376921D01*
X7358379Y7366508D01*
X7353300Y7350760D01*
X7353300Y7324852D01*
X7358379Y7309358D01*
X7363713Y7298944D01*
X7374127Y7288529D01*
X7384541Y7283450D01*
X7405370Y7283450D01*
X7415529Y7288529D01*
X7425943Y7298944D01*
X7431277Y7309358D01*
X7431277Y7324852D01*
X7405370Y7324852D02*
G01*
X7431277Y7324852D01*
X7465568Y7392415D02*
G01*
X7465568Y7283450D01*
X7465568Y7392415D02*
G01*
X7538211Y7283450D01*
X7538211Y7392415D02*
G01*
X7538211Y7283450D01*
X7572502Y7392415D02*
G01*
X7572502Y7283450D01*
X7572502Y7392415D02*
G01*
X7608824Y7392415D01*
X7624572Y7387336D01*
X7634986Y7376921D01*
X7640065Y7366508D01*
X7645400Y7350760D01*
X7645400Y7324852D01*
X7640065Y7309358D01*
X7634986Y7298944D01*
X7624572Y7288529D01*
X7608824Y7283450D01*
X7572502Y7283450D01*
X7353300Y7176515D02*
G01*
X7353300Y7067550D01*
X7353300Y7176515D02*
G01*
X7400036Y7176515D01*
X7415529Y7171436D01*
X7420863Y7166102D01*
X7425943Y7155687D01*
X7425943Y7140194D01*
X7420863Y7129779D01*
X7415529Y7124700D01*
X7400036Y7119365D01*
X7353300Y7119365D01*
X7460234Y7176515D02*
G01*
X7460234Y7067550D01*
X7460234Y7176515D02*
G01*
X7506970Y7176515D01*
X7522718Y7171436D01*
X7527797Y7166102D01*
X7533131Y7155687D01*
X7533131Y7145273D01*
X7527797Y7134860D01*
X7522718Y7129779D01*
X7506970Y7124700D01*
X7460234Y7124700D01*
X7496809Y7124700D02*
G01*
X7533131Y7067550D01*
X7567422Y7176515D02*
G01*
X7567422Y7067550D01*
X7567422Y7176515D02*
G01*
X7634986Y7176515D01*
X7567422Y7124700D02*
G01*
X7608824Y7124700D01*
X7567422Y7067550D02*
G01*
X7634986Y7067550D01*
X7431277Y6934708D02*
G01*
X7425943Y6945121D01*
X7415529Y6955536D01*
X7405370Y6960615D01*
X7384541Y6960615D01*
X7374127Y6955536D01*
X7363713Y6945121D01*
X7358379Y6934708D01*
X7353300Y6918960D01*
X7353300Y6893052D01*
X7358379Y6877558D01*
X7363713Y6867144D01*
X7374127Y6856729D01*
X7384541Y6851650D01*
X7405370Y6851650D01*
X7415529Y6856729D01*
X7425943Y6867144D01*
X7431277Y6877558D01*
X7431277Y6893052D01*
X7405370Y6893052D02*
G01*
X7431277Y6893052D01*
X7465568Y6960615D02*
G01*
X7465568Y6851650D01*
X7465568Y6960615D02*
G01*
X7538211Y6851650D01*
X7538211Y6960615D02*
G01*
X7538211Y6851650D01*
X7572502Y6960615D02*
G01*
X7572502Y6851650D01*
X7572502Y6960615D02*
G01*
X7608824Y6960615D01*
X7624572Y6955536D01*
X7634986Y6945121D01*
X7640065Y6934708D01*
X7645400Y6918960D01*
X7645400Y6893052D01*
X7640065Y6877558D01*
X7634986Y6867144D01*
X7624572Y6856729D01*
X7608824Y6851650D01*
X7572502Y6851650D01*
X7400036Y6729221D02*
G01*
X7400036Y6635750D01*
X7353300Y6682486D02*
G01*
X7446772Y6682486D01*
X7543545Y6744715D02*
G01*
X7491475Y6744715D01*
X7486395Y6697979D01*
X7491475Y6703060D01*
X7506970Y6708394D01*
X7522718Y6708394D01*
X7538211Y6703060D01*
X7548625Y6692900D01*
X7553959Y6677152D01*
X7553959Y6666737D01*
X7548625Y6651244D01*
X7538211Y6640829D01*
X7522718Y6635750D01*
X7506970Y6635750D01*
X7491475Y6640829D01*
X7486395Y6645910D01*
X7481061Y6656323D01*
X7588250Y6744715D02*
G01*
X7629652Y6635750D01*
X7671308Y6744715D02*
G01*
X7629652Y6635750D01*
D28*
X7062215Y7531100D02*
G01*
X6984238Y7531100D01*
X6968743Y7526020D01*
X6958329Y7515605D01*
X6953250Y7499858D01*
X6953250Y7489444D01*
X6958329Y7473950D01*
X6968743Y7463536D01*
X6984238Y7458455D01*
X7062215Y7458455D01*
X7062215Y7372095D02*
G01*
X6989572Y7424165D01*
X6989572Y7346187D01*
X7062215Y7372095D02*
G01*
X6953250Y7372095D01*
X3658615Y5676900D02*
G01*
X3580638Y5676900D01*
X3565143Y5671820D01*
X3554729Y5661405D01*
X3549650Y5645657D01*
X3549650Y5635244D01*
X3554729Y5619750D01*
X3565143Y5609336D01*
X3580638Y5604255D01*
X3658615Y5604255D01*
X3637788Y5569965D02*
G01*
X3643122Y5559552D01*
X3658615Y5543804D01*
X3549650Y5543804D01*
X3658615Y6464300D02*
G01*
X3580638Y6464300D01*
X3565143Y6459220D01*
X3554729Y6448805D01*
X3549650Y6433057D01*
X3549650Y6422644D01*
X3554729Y6407150D01*
X3565143Y6396736D01*
X3580638Y6391655D01*
X3658615Y6391655D01*
X3632708Y6352031D02*
G01*
X3637788Y6352031D01*
X3648202Y6346952D01*
X3653536Y6341618D01*
X3658615Y6331204D01*
X3658615Y6310629D01*
X3653536Y6300215D01*
X3648202Y6294881D01*
X3637788Y6289802D01*
X3627374Y6289802D01*
X3616959Y6294881D01*
X3601465Y6305295D01*
X3549650Y6357365D01*
X3549650Y6284468D01*
X2284971Y5208270D02*
G01*
X2368029Y5208270D01*
X2383777Y5202936D01*
X2388857Y5197855D01*
X2393937Y5187442D01*
X2393937Y5177028D01*
X2388857Y5166613D01*
X2383777Y5161279D01*
X2368029Y5156200D01*
X2357615Y5156200D01*
X2310879Y5247639D02*
G01*
X2305799Y5247639D01*
X2295385Y5252720D01*
X2290051Y5258054D01*
X2284971Y5268468D01*
X2284971Y5289295D01*
X2290051Y5299710D01*
X2295385Y5304789D01*
X2305799Y5309870D01*
X2316213Y5309870D01*
X2326627Y5304789D01*
X2342121Y5294376D01*
X2393937Y5242560D01*
X2393937Y5315204D01*
X4621784Y6769100D02*
G01*
X4699761Y6769100D01*
X4715256Y6774179D01*
X4725670Y6784594D01*
X4730750Y6800342D01*
X4730750Y6810755D01*
X4725670Y6826250D01*
X4715256Y6836663D01*
X4699761Y6841744D01*
X4621784Y6841744D01*
X4621784Y6886447D02*
G01*
X4621784Y6943597D01*
X4663440Y6912610D01*
X4663440Y6928104D01*
X4668520Y6938518D01*
X4673600Y6943597D01*
X4689347Y6948931D01*
X4699761Y6948931D01*
X4715256Y6943597D01*
X4725670Y6933184D01*
X4730750Y6917689D01*
X4730750Y6902195D01*
X4725670Y6886447D01*
X4720590Y6881368D01*
X4710175Y6876034D01*
X5941822Y4406392D02*
G01*
X5947156Y4395978D01*
X5957570Y4385563D01*
X5967729Y4380484D01*
X5988558Y4380484D01*
X5998972Y4385563D01*
X6009386Y4395978D01*
X6014720Y4406392D01*
X6019800Y4422139D01*
X6019800Y4448047D01*
X6014720Y4463542D01*
X6009386Y4473955D01*
X5998972Y4484370D01*
X5988558Y4489450D01*
X5967729Y4489450D01*
X5957570Y4484370D01*
X5947156Y4473955D01*
X5941822Y4463542D01*
X5834888Y4380484D02*
G01*
X5886704Y4489450D01*
X5907531Y4380484D02*
G01*
X5834888Y4380484D01*
X7037577Y4445507D02*
G01*
X7032243Y4455921D01*
X7021829Y4466336D01*
X7011670Y4471415D01*
X6990841Y4471415D01*
X6980427Y4466336D01*
X6970013Y4455921D01*
X6964679Y4445507D01*
X6959600Y4429760D01*
X6959600Y4403852D01*
X6964679Y4388357D01*
X6970013Y4377944D01*
X6980427Y4367529D01*
X6990841Y4362450D01*
X7011670Y4362450D01*
X7021829Y4367529D01*
X7032243Y4377944D01*
X7037577Y4388357D01*
X7134097Y4455921D02*
G01*
X7129018Y4466336D01*
X7113270Y4471415D01*
X7103109Y4471415D01*
X7087361Y4466336D01*
X7076947Y4450587D01*
X7071868Y4424679D01*
X7071868Y4398771D01*
X7076947Y4377944D01*
X7087361Y4367529D01*
X7103109Y4362450D01*
X7108190Y4362450D01*
X7123684Y4367529D01*
X7134097Y4377944D01*
X7139431Y4393437D01*
X7139431Y4398771D01*
X7134097Y4414265D01*
X7123684Y4424679D01*
X7108190Y4429760D01*
X7103109Y4429760D01*
X7087361Y4424679D01*
X7076947Y4414265D01*
X7071868Y4398771D01*
X4887722Y4406392D02*
G01*
X4893056Y4395978D01*
X4903470Y4385563D01*
X4913629Y4380484D01*
X4934458Y4380484D01*
X4944872Y4385563D01*
X4955286Y4395978D01*
X4960620Y4406392D01*
X4965700Y4422139D01*
X4965700Y4448047D01*
X4960620Y4463542D01*
X4955286Y4473955D01*
X4944872Y4484370D01*
X4934458Y4489450D01*
X4913629Y4489450D01*
X4903470Y4484370D01*
X4893056Y4473955D01*
X4887722Y4463542D01*
X4827524Y4380484D02*
G01*
X4843018Y4385563D01*
X4848352Y4395978D01*
X4848352Y4406392D01*
X4843018Y4416805D01*
X4832604Y4422139D01*
X4812029Y4427220D01*
X4796281Y4432300D01*
X4785868Y4442713D01*
X4780788Y4453128D01*
X4780788Y4468876D01*
X4785868Y4479289D01*
X4791202Y4484370D01*
X4806695Y4489450D01*
X4827524Y4489450D01*
X4843018Y4484370D01*
X4848352Y4479289D01*
X4853431Y4468876D01*
X4853431Y4453128D01*
X4848352Y4442713D01*
X4837938Y4432300D01*
X4822190Y4427220D01*
X4801615Y4422139D01*
X4791202Y4416805D01*
X4785868Y4406392D01*
X4785868Y4395978D01*
X4791202Y4385563D01*
X4806695Y4380484D01*
X4827524Y4380484D01*
X4134370Y5829807D02*
G01*
X4129036Y5840221D01*
X4118622Y5850636D01*
X4108462Y5855715D01*
X4087634Y5855715D01*
X4077220Y5850636D01*
X4066806Y5840221D01*
X4061472Y5829807D01*
X4056392Y5814060D01*
X4056392Y5788152D01*
X4061472Y5772657D01*
X4066806Y5762244D01*
X4077220Y5751829D01*
X4087634Y5746750D01*
X4108462Y5746750D01*
X4118622Y5751829D01*
X4129036Y5762244D01*
X4134370Y5772657D01*
X4168660Y5834887D02*
G01*
X4179074Y5840221D01*
X4194568Y5855715D01*
X4194568Y5746750D01*
X4610608Y6411721D02*
G01*
X4621022Y6417055D01*
X4631436Y6427470D01*
X4636515Y6437629D01*
X4636515Y6458457D01*
X4631436Y6468871D01*
X4621022Y6479286D01*
X4610608Y6484620D01*
X4594859Y6489700D01*
X4568952Y6489700D01*
X4553458Y6484620D01*
X4543043Y6479286D01*
X4532629Y6468871D01*
X4527550Y6458457D01*
X4527550Y6437629D01*
X4532629Y6427470D01*
X4543043Y6417055D01*
X4553458Y6411721D01*
X4636515Y6325615D02*
G01*
X4563872Y6377431D01*
X4563872Y6299454D01*
X4636515Y6325615D02*
G01*
X4527550Y6325615D01*
X5912370Y8001508D02*
G01*
X5907036Y8011921D01*
X5896622Y8022336D01*
X5886462Y8027415D01*
X5865634Y8027415D01*
X5855220Y8022336D01*
X5844806Y8011921D01*
X5839472Y8001508D01*
X5834392Y7985760D01*
X5834392Y7959852D01*
X5839472Y7944358D01*
X5844806Y7933944D01*
X5855220Y7923529D01*
X5865634Y7918450D01*
X5886462Y7918450D01*
X5896622Y7923529D01*
X5907036Y7933944D01*
X5912370Y7944358D01*
X6008890Y8027415D02*
G01*
X5957074Y8027415D01*
X5951740Y7980679D01*
X5957074Y7985760D01*
X5972568Y7991094D01*
X5988062Y7991094D01*
X6003810Y7985760D01*
X6014224Y7975600D01*
X6019304Y7959852D01*
X6019304Y7949437D01*
X6014224Y7933944D01*
X6003810Y7923529D01*
X5988062Y7918450D01*
X5972568Y7918450D01*
X5957074Y7923529D01*
X5951740Y7928610D01*
X5946660Y7939023D01*
X4972570Y5372607D02*
G01*
X4967236Y5383021D01*
X4956822Y5393436D01*
X4946662Y5398515D01*
X4925834Y5398515D01*
X4915420Y5393436D01*
X4905006Y5383021D01*
X4899672Y5372607D01*
X4894592Y5356860D01*
X4894592Y5330952D01*
X4899672Y5315457D01*
X4905006Y5305044D01*
X4915420Y5294629D01*
X4925834Y5289550D01*
X4946662Y5289550D01*
X4956822Y5294629D01*
X4967236Y5305044D01*
X4972570Y5315457D01*
X5011940Y5372607D02*
G01*
X5011940Y5377687D01*
X5017274Y5388102D01*
X5022354Y5393436D01*
X5032768Y5398515D01*
X5053596Y5398515D01*
X5064010Y5393436D01*
X5069090Y5388102D01*
X5074424Y5377687D01*
X5074424Y5367273D01*
X5069090Y5356860D01*
X5058676Y5341365D01*
X5006860Y5289550D01*
X5079504Y5289550D01*
X5574791Y6737870D02*
G01*
X5564377Y6732536D01*
X5553963Y6722122D01*
X5548884Y6711962D01*
X5548884Y6691134D01*
X5553963Y6680720D01*
X5564377Y6670306D01*
X5574791Y6664972D01*
X5590540Y6659892D01*
X5616447Y6659892D01*
X5631941Y6664972D01*
X5642356Y6670306D01*
X5652770Y6680720D01*
X5657850Y6691134D01*
X5657850Y6711962D01*
X5652770Y6722122D01*
X5642356Y6732536D01*
X5631941Y6737870D01*
X5548884Y6782574D02*
G01*
X5548884Y6839724D01*
X5590540Y6808482D01*
X5590540Y6823976D01*
X5595620Y6834390D01*
X5600700Y6839724D01*
X5616447Y6844804D01*
X5626861Y6844804D01*
X5642356Y6839724D01*
X5652770Y6829310D01*
X5657850Y6813562D01*
X5657850Y6798068D01*
X5652770Y6782574D01*
X5647690Y6777240D01*
X5637275Y6772160D01*
X6337300Y4832682D02*
G01*
X6337300Y4910660D01*
X6332220Y4926154D01*
X6321806Y4936568D01*
X6306058Y4941648D01*
X6295643Y4941648D01*
X6280150Y4936568D01*
X6269736Y4926154D01*
X6264656Y4910660D01*
X6264656Y4832682D01*
X6167881Y4832682D02*
G01*
X6219952Y4832682D01*
X6225031Y4879418D01*
X6219952Y4874338D01*
X6204204Y4869004D01*
X6188709Y4869004D01*
X6173215Y4874338D01*
X6162802Y4884498D01*
X6157468Y4900246D01*
X6157468Y4910660D01*
X6162802Y4926154D01*
X6173215Y4936568D01*
X6188709Y4941648D01*
X6204204Y4941648D01*
X6219952Y4936568D01*
X6225031Y4931488D01*
X6230365Y4921074D01*
X7471219Y6046800D02*
G01*
X7362253Y6046800D01*
X7471219Y6046800D02*
G01*
X7471219Y6000064D01*
X7466139Y5984570D01*
X7460805Y5979236D01*
X7450391Y5974156D01*
X7439977Y5974156D01*
X7429563Y5979236D01*
X7424483Y5984570D01*
X7419403Y6000064D01*
X7419403Y6046800D01*
X7419403Y6010478D02*
G01*
X7362253Y5974156D01*
X7450391Y5939866D02*
G01*
X7455725Y5929452D01*
X7471219Y5913704D01*
X7362253Y5913704D01*
X7455725Y5817184D02*
G01*
X7466139Y5822264D01*
X7471219Y5838012D01*
X7471219Y5848426D01*
X7466139Y5863920D01*
X7450391Y5874334D01*
X7424483Y5879414D01*
X7398575Y5879414D01*
X7377747Y5874334D01*
X7367333Y5863920D01*
X7362253Y5848426D01*
X7362253Y5843092D01*
X7367333Y5827598D01*
X7377747Y5817184D01*
X7393241Y5811850D01*
X7398575Y5811850D01*
X7414069Y5817184D01*
X7424483Y5827598D01*
X7429563Y5843092D01*
X7429563Y5848426D01*
X7424483Y5863920D01*
X7414069Y5874334D01*
X7398575Y5879414D01*
X2299715Y6299200D02*
G01*
X2190750Y6299200D01*
X2299715Y6299200D02*
G01*
X2299715Y6252463D01*
X2294636Y6236970D01*
X2289302Y6231636D01*
X2278888Y6226555D01*
X2268474Y6226555D01*
X2258059Y6231636D01*
X2252979Y6236970D01*
X2247900Y6252463D01*
X2247900Y6299200D01*
X2247900Y6262878D02*
G01*
X2190750Y6226555D01*
X2278888Y6192265D02*
G01*
X2284222Y6181852D01*
X2299715Y6166104D01*
X2190750Y6166104D01*
X4141215Y6276309D02*
G01*
X4032250Y6276309D01*
X4141215Y6276309D02*
G01*
X4141215Y6229573D01*
X4136136Y6214079D01*
X4130802Y6208745D01*
X4120388Y6203665D01*
X4109974Y6203665D01*
X4099559Y6208745D01*
X4094479Y6214079D01*
X4089400Y6229573D01*
X4089400Y6276309D01*
X4089400Y6239987D02*
G01*
X4032250Y6203665D01*
X4115308Y6164041D02*
G01*
X4120388Y6164041D01*
X4130802Y6158961D01*
X4136136Y6153627D01*
X4141215Y6143213D01*
X4141215Y6122639D01*
X4136136Y6112225D01*
X4130802Y6106891D01*
X4120388Y6101811D01*
X4109974Y6101811D01*
X4099559Y6106891D01*
X4084065Y6117305D01*
X4032250Y6169375D01*
X4032250Y6096477D01*
X2196084Y7020590D02*
G01*
X2305050Y7020590D01*
X2196084Y7020590D02*
G01*
X2196084Y7067326D01*
X2201163Y7082820D01*
X2206497Y7088154D01*
X2216911Y7093234D01*
X2227325Y7093234D01*
X2237740Y7088154D01*
X2242820Y7082820D01*
X2247900Y7067326D01*
X2247900Y7020590D01*
X2247900Y7056912D02*
G01*
X2305050Y7093234D01*
X2196084Y7137938D02*
G01*
X2196084Y7195088D01*
X2237740Y7164100D01*
X2237740Y7179594D01*
X2242820Y7190008D01*
X2247900Y7195088D01*
X2263647Y7200422D01*
X2274061Y7200422D01*
X2289556Y7195088D01*
X2299970Y7184674D01*
X2305050Y7169180D01*
X2305050Y7153686D01*
X2299970Y7137938D01*
X2294890Y7132858D01*
X2284475Y7127524D01*
X3580384Y7007890D02*
G01*
X3689350Y7007890D01*
X3580384Y7007890D02*
G01*
X3580384Y7054626D01*
X3585463Y7070120D01*
X3590797Y7075454D01*
X3601211Y7080534D01*
X3611625Y7080534D01*
X3622040Y7075454D01*
X3627120Y7070120D01*
X3632200Y7054626D01*
X3632200Y7007890D01*
X3632200Y7044212D02*
G01*
X3689350Y7080534D01*
X3580384Y7166894D02*
G01*
X3653027Y7114824D01*
X3653027Y7192802D01*
X3580384Y7166894D02*
G01*
X3689350Y7166894D01*
X3152109Y6882384D02*
G01*
X3152109Y6991350D01*
X3152109Y6882384D02*
G01*
X3105373Y6882384D01*
X3089879Y6887463D01*
X3084545Y6892797D01*
X3079465Y6903212D01*
X3079465Y6913626D01*
X3084545Y6924039D01*
X3089879Y6929120D01*
X3105373Y6934200D01*
X3152109Y6934200D01*
X3115787Y6934200D02*
G01*
X3079465Y6991350D01*
X2982691Y6882384D02*
G01*
X3034761Y6882384D01*
X3039841Y6929120D01*
X3034761Y6924039D01*
X3019013Y6918705D01*
X3003519Y6918705D01*
X2988025Y6924039D01*
X2977611Y6934200D01*
X2972277Y6949947D01*
X2972277Y6960362D01*
X2977611Y6975855D01*
X2988025Y6986270D01*
X3003519Y6991350D01*
X3019013Y6991350D01*
X3034761Y6986270D01*
X3039841Y6981189D01*
X3045175Y6970776D01*
X4091909Y4786884D02*
G01*
X4091909Y4895850D01*
X4091909Y4786884D02*
G01*
X4045173Y4786884D01*
X4029679Y4791963D01*
X4024345Y4797297D01*
X4019265Y4807712D01*
X4019265Y4818126D01*
X4024345Y4828539D01*
X4029679Y4833620D01*
X4045173Y4838700D01*
X4091909Y4838700D01*
X4055587Y4838700D02*
G01*
X4019265Y4895850D01*
X3922491Y4802378D02*
G01*
X3927825Y4791963D01*
X3943319Y4786884D01*
X3953733Y4786884D01*
X3969227Y4791963D01*
X3979641Y4807712D01*
X3984975Y4833620D01*
X3984975Y4859528D01*
X3979641Y4880355D01*
X3969227Y4890770D01*
X3953733Y4895850D01*
X3948399Y4895850D01*
X3932905Y4890770D01*
X3922491Y4880355D01*
X3917411Y4864862D01*
X3917411Y4859528D01*
X3922491Y4844034D01*
X3932905Y4833620D01*
X3948399Y4828539D01*
X3953733Y4828539D01*
X3969227Y4833620D01*
X3979641Y4844034D01*
X3984975Y4859528D01*
X4886990Y5881115D02*
G01*
X4886990Y5772150D01*
X4886990Y5881115D02*
G01*
X4933726Y5881115D01*
X4949220Y5876036D01*
X4954554Y5870702D01*
X4959634Y5860287D01*
X4959634Y5849873D01*
X4954554Y5839460D01*
X4949220Y5834379D01*
X4933726Y5829300D01*
X4886990Y5829300D01*
X4923312Y5829300D02*
G01*
X4959634Y5772150D01*
X5066822Y5881115D02*
G01*
X5014752Y5772150D01*
X4993924Y5881115D02*
G01*
X5066822Y5881115D01*
X6412484Y6692900D02*
G01*
X6521450Y6692900D01*
X6412484Y6692900D02*
G01*
X6412484Y6739636D01*
X6417563Y6755129D01*
X6422897Y6760463D01*
X6433311Y6765544D01*
X6443725Y6765544D01*
X6454140Y6760463D01*
X6459220Y6755129D01*
X6464300Y6739636D01*
X6464300Y6692900D01*
X6464300Y6729221D02*
G01*
X6521450Y6765544D01*
X6412484Y6825995D02*
G01*
X6417563Y6810247D01*
X6427977Y6805168D01*
X6438391Y6805168D01*
X6448806Y6810247D01*
X6454140Y6820662D01*
X6459220Y6841489D01*
X6464300Y6856984D01*
X6474713Y6867397D01*
X6485127Y6872731D01*
X6500875Y6872731D01*
X6511290Y6867397D01*
X6516370Y6862318D01*
X6521450Y6846570D01*
X6521450Y6825995D01*
X6516370Y6810247D01*
X6511290Y6805168D01*
X6500875Y6799834D01*
X6485127Y6799834D01*
X6474713Y6805168D01*
X6464300Y6815581D01*
X6459220Y6831076D01*
X6454140Y6851904D01*
X6448806Y6862318D01*
X6438391Y6867397D01*
X6427977Y6867397D01*
X6417563Y6862318D01*
X6412484Y6846570D01*
X6412484Y6825995D01*
X5585490Y6312915D02*
G01*
X5585490Y6203950D01*
X5585490Y6312915D02*
G01*
X5632226Y6312915D01*
X5647720Y6307836D01*
X5653054Y6302502D01*
X5658134Y6292087D01*
X5658134Y6281673D01*
X5653054Y6271260D01*
X5647720Y6266179D01*
X5632226Y6261100D01*
X5585490Y6261100D01*
X5621812Y6261100D02*
G01*
X5658134Y6203950D01*
X5759988Y6276594D02*
G01*
X5754908Y6261100D01*
X5744494Y6250686D01*
X5729000Y6245352D01*
X5723666Y6245352D01*
X5708172Y6250686D01*
X5697758Y6261100D01*
X5692424Y6276594D01*
X5692424Y6281673D01*
X5697758Y6297421D01*
X5708172Y6307836D01*
X5723666Y6312915D01*
X5729000Y6312915D01*
X5744494Y6307836D01*
X5754908Y6297421D01*
X5759988Y6276594D01*
X5759988Y6250686D01*
X5754908Y6224523D01*
X5744494Y6209029D01*
X5729000Y6203950D01*
X5718586Y6203950D01*
X5702838Y6209029D01*
X5697758Y6219444D01*
X6322090Y6312915D02*
G01*
X6322090Y6203950D01*
X6322090Y6312915D02*
G01*
X6368826Y6312915D01*
X6384320Y6307836D01*
X6389654Y6302502D01*
X6394734Y6292087D01*
X6394734Y6281673D01*
X6389654Y6271260D01*
X6384320Y6266179D01*
X6368826Y6261100D01*
X6322090Y6261100D01*
X6358412Y6261100D02*
G01*
X6394734Y6203950D01*
X6429024Y6292087D02*
G01*
X6439438Y6297421D01*
X6455186Y6312915D01*
X6455186Y6203950D01*
X6520464Y6312915D02*
G01*
X6504970Y6307836D01*
X6494556Y6292087D01*
X6489476Y6266179D01*
X6489476Y6250686D01*
X6494556Y6224523D01*
X6504970Y6209029D01*
X6520464Y6203950D01*
X6530878Y6203950D01*
X6546626Y6209029D01*
X6557040Y6224523D01*
X6562120Y6250686D01*
X6562120Y6266179D01*
X6557040Y6292087D01*
X6546626Y6307836D01*
X6530878Y6312915D01*
X6520464Y6312915D01*
X4902200Y6234684D02*
G01*
X4902200Y6343650D01*
X4902200Y6234684D02*
G01*
X4855463Y6234684D01*
X4839970Y6239763D01*
X4834636Y6245097D01*
X4829556Y6255512D01*
X4829556Y6265926D01*
X4834636Y6276339D01*
X4839970Y6281420D01*
X4855463Y6286500D01*
X4902200Y6286500D01*
X4865877Y6286500D02*
G01*
X4829556Y6343650D01*
X4795265Y6255512D02*
G01*
X4784852Y6250178D01*
X4769104Y6234684D01*
X4769104Y6343650D01*
X4734813Y6255512D02*
G01*
X4724400Y6250178D01*
X4708906Y6234684D01*
X4708906Y6343650D01*
X4611115Y7327894D02*
G01*
X4502150Y7327894D01*
X4611115Y7327894D02*
G01*
X4611115Y7281158D01*
X4606036Y7265664D01*
X4600702Y7260330D01*
X4590288Y7255250D01*
X4579874Y7255250D01*
X4569459Y7260330D01*
X4564379Y7265664D01*
X4559300Y7281158D01*
X4559300Y7327894D01*
X4559300Y7291572D02*
G01*
X4502150Y7255250D01*
X4590288Y7220960D02*
G01*
X4595622Y7210546D01*
X4611115Y7194798D01*
X4502150Y7194798D01*
X4585208Y7155428D02*
G01*
X4590288Y7155428D01*
X4600702Y7150094D01*
X4606036Y7145014D01*
X4611115Y7134600D01*
X4611115Y7113772D01*
X4606036Y7103358D01*
X4600702Y7098278D01*
X4590288Y7092944D01*
X4579874Y7092944D01*
X4569459Y7098278D01*
X4553965Y7108692D01*
X4502150Y7160508D01*
X4502150Y7087864D01*
X5158709Y7161784D02*
G01*
X5158709Y7270750D01*
X5158709Y7161784D02*
G01*
X5111973Y7161784D01*
X5096479Y7166863D01*
X5091145Y7172197D01*
X5086065Y7182612D01*
X5086065Y7193026D01*
X5091145Y7203439D01*
X5096479Y7208520D01*
X5111973Y7213600D01*
X5158709Y7213600D01*
X5122387Y7213600D02*
G01*
X5086065Y7270750D01*
X5051775Y7182612D02*
G01*
X5041361Y7177278D01*
X5025613Y7161784D01*
X5025613Y7270750D01*
X4980909Y7161784D02*
G01*
X4923759Y7161784D01*
X4955001Y7203439D01*
X4939507Y7203439D01*
X4929093Y7208520D01*
X4923759Y7213600D01*
X4918679Y7229347D01*
X4918679Y7239762D01*
X4923759Y7255255D01*
X4934173Y7265670D01*
X4949921Y7270750D01*
X4965415Y7270750D01*
X4980909Y7265670D01*
X4986243Y7260589D01*
X4991323Y7250176D01*
X5826790Y7557515D02*
G01*
X5826790Y7448550D01*
X5826790Y7557515D02*
G01*
X5873526Y7557515D01*
X5889020Y7552436D01*
X5894354Y7547102D01*
X5899434Y7536687D01*
X5899434Y7526273D01*
X5894354Y7515860D01*
X5889020Y7510779D01*
X5873526Y7505700D01*
X5826790Y7505700D01*
X5863112Y7505700D02*
G01*
X5899434Y7448550D01*
X5933724Y7536687D02*
G01*
X5944138Y7542021D01*
X5959886Y7557515D01*
X5959886Y7448550D01*
X6045992Y7557515D02*
G01*
X5994176Y7484871D01*
X6071900Y7484871D01*
X6045992Y7557515D02*
G01*
X6045992Y7448550D01*
X6998715Y6946894D02*
G01*
X6889750Y6946894D01*
X6998715Y6946894D02*
G01*
X6998715Y6900158D01*
X6993636Y6884664D01*
X6988302Y6879330D01*
X6977888Y6874250D01*
X6967474Y6874250D01*
X6957059Y6879330D01*
X6951979Y6884664D01*
X6946900Y6900158D01*
X6946900Y6946894D01*
X6946900Y6910572D02*
G01*
X6889750Y6874250D01*
X6977888Y6839960D02*
G01*
X6983222Y6829546D01*
X6998715Y6813798D01*
X6889750Y6813798D01*
X6998715Y6717278D02*
G01*
X6998715Y6769094D01*
X6951979Y6774428D01*
X6957059Y6769094D01*
X6962393Y6753600D01*
X6962393Y6738106D01*
X6957059Y6722358D01*
X6946900Y6711944D01*
X6931152Y6706864D01*
X6920738Y6706864D01*
X6905243Y6711944D01*
X6894829Y6722358D01*
X6889750Y6738106D01*
X6889750Y6753600D01*
X6894829Y6769094D01*
X6899909Y6774428D01*
X6910324Y6779508D01*
X6920484Y7151370D02*
G01*
X7003541Y7151370D01*
X7019290Y7146036D01*
X7024370Y7140955D01*
X7029450Y7130542D01*
X7029450Y7120128D01*
X7024370Y7109713D01*
X7019290Y7104379D01*
X7003541Y7099300D01*
X6993127Y7099300D01*
X6941311Y7185660D02*
G01*
X6935977Y7195820D01*
X6920484Y7211568D01*
X7029450Y7211568D01*
X6413759Y7763319D02*
G01*
X6718040Y7763319D01*
X6718040Y7248080D01*
X6413759Y7248080D01*
X6413759Y7763319D01*
X2984759Y5904120D02*
G01*
X3289040Y5904120D01*
X3289040Y5398879D01*
X2984759Y5398879D01*
X2984759Y5904120D01*
X2986760Y6688521D02*
G01*
X3287039Y6688521D01*
X3287039Y6189278D01*
X2986760Y6189278D01*
X2986760Y6688521D01*
D10*
X2480574Y4564761D02*
G01*
X2210574Y4564761D01*
X2210574Y5064760D01*
X2480574Y5064760D01*
X2482354Y5113581D02*
G01*
X2482354Y4513579D01*
X3612354Y4513579D01*
X3612354Y5113581D01*
X2482354Y5113581D01*
D28*
X5282940Y6625780D02*
G01*
X4978659Y6625780D01*
X4978659Y7141019D01*
X5282940Y7141019D01*
X5282940Y6625780D01*
D10*
X5951220Y4551679D02*
G01*
X5692140Y4551679D01*
X5692140Y4749800D01*
X5951220Y4749800D01*
D29*
X5742940Y4744720D02*
G01*
X5742940Y4556760D01*
D10*
X6113779Y4749800D02*
G01*
X6317995Y4749800D01*
X6317995Y4549647D01*
X6113779Y4549647D01*
X7053579Y4744720D02*
G01*
X7312659Y4744720D01*
X7312659Y4546600D01*
X7053579Y4546600D01*
D29*
X7261859Y4551679D02*
G01*
X7261859Y4739639D01*
D10*
X6891020Y4546600D02*
G01*
X6686804Y4546600D01*
X6686804Y4746752D01*
X6891020Y4746752D01*
X4897120Y4551679D02*
G01*
X4638040Y4551679D01*
X4638040Y4749800D01*
X4897120Y4749800D01*
D29*
X4688840Y4744720D02*
G01*
X4688840Y4556760D01*
D10*
X5059679Y4749800D02*
G01*
X5263895Y4749800D01*
X5263895Y4549647D01*
X5059679Y4549647D01*
X4314002Y5675299D02*
G01*
X4314002Y5475300D01*
X3964000Y5695299D02*
G01*
X3844000Y5695299D01*
X3964000Y5455300D02*
G01*
X3844000Y5455300D01*
X4164002Y5695299D02*
G01*
X4283999Y5695299D01*
X4164002Y5455300D02*
G01*
X4283999Y5455300D01*
X3814000Y5675299D02*
G01*
X3814000Y5475300D01*
X3834000Y5695299D02*
G01*
X3844000Y5695299D01*
X3834000Y5455300D02*
G01*
X3844000Y5455300D01*
X4294002Y5695299D02*
G01*
X4283999Y5695299D01*
X4294002Y5455300D02*
G01*
X4283999Y5455300D01*
X4430699Y6011097D02*
G01*
X4230700Y6011097D01*
X4450699Y6361099D02*
G01*
X4450699Y6481099D01*
X4210700Y6361099D02*
G01*
X4210700Y6481099D01*
X4450699Y6161097D02*
G01*
X4450699Y6041100D01*
X4210700Y6161097D02*
G01*
X4210700Y6041100D01*
X4430699Y6511099D02*
G01*
X4230700Y6511099D01*
X4450699Y6491099D02*
G01*
X4450699Y6481099D01*
X4210700Y6491099D02*
G01*
X4210700Y6481099D01*
X4450699Y6031097D02*
G01*
X4450699Y6041100D01*
X4210700Y6031097D02*
G01*
X4210700Y6041100D01*
X6092002Y7846999D02*
G01*
X6092002Y7647000D01*
X5742000Y7866999D02*
G01*
X5622000Y7866999D01*
X5742000Y7627000D02*
G01*
X5622000Y7627000D01*
X5942002Y7866999D02*
G01*
X6061999Y7866999D01*
X5942002Y7627000D02*
G01*
X6061999Y7627000D01*
X5592000Y7846999D02*
G01*
X5592000Y7647000D01*
X5612000Y7866999D02*
G01*
X5622000Y7866999D01*
X5612000Y7627000D02*
G01*
X5622000Y7627000D01*
X6072002Y7866999D02*
G01*
X6061999Y7866999D01*
X6072002Y7627000D02*
G01*
X6061999Y7627000D01*
X5152202Y5218099D02*
G01*
X5152202Y5018100D01*
X4802200Y5238099D02*
G01*
X4682200Y5238099D01*
X4802200Y4998100D02*
G01*
X4682200Y4998100D01*
X5002202Y5238099D02*
G01*
X5122199Y5238099D01*
X5002202Y4998100D02*
G01*
X5122199Y4998100D01*
X4652200Y5218099D02*
G01*
X4652200Y5018100D01*
X4672200Y5238099D02*
G01*
X4682200Y5238099D01*
X4672200Y4998100D02*
G01*
X4682200Y4998100D01*
X5132202Y5238099D02*
G01*
X5122199Y5238099D01*
X5132202Y4998100D02*
G01*
X5122199Y4998100D01*
X5729300Y6917502D02*
G01*
X5929299Y6917502D01*
X5709300Y6567500D02*
G01*
X5709300Y6447500D01*
X5949299Y6567500D02*
G01*
X5949299Y6447500D01*
X5709300Y6767502D02*
G01*
X5709300Y6887499D01*
X5949299Y6767502D02*
G01*
X5949299Y6887499D01*
X5729300Y6417500D02*
G01*
X5929299Y6417500D01*
X5709300Y6437500D02*
G01*
X5709300Y6447500D01*
X5949299Y6437500D02*
G01*
X5949299Y6447500D01*
X5709300Y6897502D02*
G01*
X5709300Y6887499D01*
X5949299Y6897502D02*
G01*
X5949299Y6887499D01*
X7320279Y5010076D02*
G01*
X7320279Y5610405D01*
X5355285Y5610405D02*
G01*
X7320279Y5610405D01*
X5354320Y5610405D02*
G01*
X5354320Y5009974D01*
X7320279Y5010076D02*
G01*
X7159975Y5010076D01*
X7038624Y5010076D02*
G01*
X6905975Y5010076D01*
X6784624Y5010076D02*
G01*
X6397975Y5010076D01*
X6276624Y5010076D02*
G01*
X6143975Y5010076D01*
X6022624Y5010076D02*
G01*
X5889975Y5010076D01*
X5768624Y5010076D02*
G01*
X5354320Y5010076D01*
X7312596Y6210300D02*
G01*
X7312596Y5854700D01*
X7312596Y6210300D02*
G01*
X6804596Y6210300D01*
X6804596Y6210300D02*
G01*
X6804596Y5854700D01*
X7312596Y5854700D01*
X2596499Y6485704D02*
G01*
X2356500Y6485704D01*
X2356500Y6135705D02*
G01*
X2356500Y5985705D01*
X2596499Y6135705D02*
G01*
X2596499Y5985705D01*
X2356500Y6335704D02*
G01*
X2356500Y6485704D01*
X2596499Y6335704D02*
G01*
X2596499Y6485704D01*
X2596499Y5985705D02*
G01*
X2356500Y5985705D01*
X3980799Y6511104D02*
G01*
X3740800Y6511104D01*
X3740800Y6161105D02*
G01*
X3740800Y6011105D01*
X3980799Y6161105D02*
G01*
X3980799Y6011105D01*
X3740800Y6361104D02*
G01*
X3740800Y6511104D01*
X3980799Y6361104D02*
G01*
X3980799Y6511104D01*
X3980799Y6011105D02*
G01*
X3740800Y6011105D01*
X2356500Y6785795D02*
G01*
X2596499Y6785795D01*
X2596499Y7135794D02*
G01*
X2596499Y7285794D01*
X2356500Y7135794D02*
G01*
X2356500Y7285794D01*
X2596499Y6935795D02*
G01*
X2596499Y6785795D01*
X2356500Y6935795D02*
G01*
X2356500Y6785795D01*
X2356500Y7285794D02*
G01*
X2596499Y7285794D01*
X3740800Y6773095D02*
G01*
X3980799Y6773095D01*
X3980799Y7123094D02*
G01*
X3980799Y7273094D01*
X3740800Y7123094D02*
G01*
X3740800Y7273094D01*
X3980799Y6923095D02*
G01*
X3980799Y6773095D01*
X3740800Y6923095D02*
G01*
X3740800Y6773095D01*
X3740800Y7273094D02*
G01*
X3980799Y7273094D01*
X3386904Y7042800D02*
G01*
X3386904Y7282799D01*
X3036905Y7282799D02*
G01*
X2886905Y7282799D01*
X3036905Y7042800D02*
G01*
X2886905Y7042800D01*
X3236904Y7282799D02*
G01*
X3386904Y7282799D01*
X3236904Y7042800D02*
G01*
X3386904Y7042800D01*
X2886905Y7042800D02*
G01*
X2886905Y7282799D01*
X4326704Y4947300D02*
G01*
X4326704Y5187299D01*
X3976705Y5187299D02*
G01*
X3826705Y5187299D01*
X3976705Y4947300D02*
G01*
X3826705Y4947300D01*
X4176704Y5187299D02*
G01*
X4326704Y5187299D01*
X4176704Y4947300D02*
G01*
X4326704Y4947300D01*
X3826705Y4947300D02*
G01*
X3826705Y5187299D01*
X4652195Y5720699D02*
G01*
X4652195Y5480700D01*
X5002194Y5480700D02*
G01*
X5152194Y5480700D01*
X5002194Y5720699D02*
G01*
X5152194Y5720699D01*
X4802195Y5480700D02*
G01*
X4652195Y5480700D01*
X4802195Y5720699D02*
G01*
X4652195Y5720699D01*
X5152194Y5720699D02*
G01*
X5152194Y5480700D01*
X6103000Y6417495D02*
G01*
X6342999Y6417495D01*
X6342999Y6767494D02*
G01*
X6342999Y6917494D01*
X6103000Y6767494D02*
G01*
X6103000Y6917494D01*
X6342999Y6567495D02*
G01*
X6342999Y6417495D01*
X6103000Y6567495D02*
G01*
X6103000Y6417495D01*
X6103000Y6917494D02*
G01*
X6342999Y6917494D01*
X5350695Y6152499D02*
G01*
X5350695Y5912500D01*
X5700694Y5912500D02*
G01*
X5850694Y5912500D01*
X5700694Y6152499D02*
G01*
X5850694Y6152499D01*
X5500695Y5912500D02*
G01*
X5350695Y5912500D01*
X5500695Y6152499D02*
G01*
X5350695Y6152499D01*
X5850694Y6152499D02*
G01*
X5850694Y5912500D01*
X6087295Y6152499D02*
G01*
X6087295Y5912500D01*
X6437294Y5912500D02*
G01*
X6587294Y5912500D01*
X6437294Y6152499D02*
G01*
X6587294Y6152499D01*
X6237295Y5912500D02*
G01*
X6087295Y5912500D01*
X6237295Y6152499D02*
G01*
X6087295Y6152499D01*
X6587294Y6152499D02*
G01*
X6587294Y5912500D01*
X5152204Y5925200D02*
G01*
X5152204Y6165199D01*
X4802205Y6165199D02*
G01*
X4652205Y6165199D01*
X4802205Y5925200D02*
G01*
X4652205Y5925200D01*
X5002204Y6165199D02*
G01*
X5152204Y6165199D01*
X5002204Y5925200D02*
G01*
X5152204Y5925200D01*
X4652205Y5925200D02*
G01*
X4652205Y6165199D01*
X4437999Y7273104D02*
G01*
X4198000Y7273104D01*
X4198000Y6923105D02*
G01*
X4198000Y6773105D01*
X4437999Y6923105D02*
G01*
X4437999Y6773105D01*
X4198000Y7123104D02*
G01*
X4198000Y7273104D01*
X4437999Y7123104D02*
G01*
X4437999Y7273104D01*
X4437999Y6773105D02*
G01*
X4198000Y6773105D01*
X5393504Y7322200D02*
G01*
X5393504Y7562199D01*
X5043505Y7562199D02*
G01*
X4893505Y7562199D01*
X5043505Y7322200D02*
G01*
X4893505Y7322200D01*
X5243504Y7562199D02*
G01*
X5393504Y7562199D01*
X5243504Y7322200D02*
G01*
X5393504Y7322200D01*
X4893505Y7322200D02*
G01*
X4893505Y7562199D01*
X5591995Y7397099D02*
G01*
X5591995Y7157100D01*
X5941994Y7157100D02*
G01*
X6091994Y7157100D01*
X5941994Y7397099D02*
G01*
X6091994Y7397099D01*
X5741995Y7157100D02*
G01*
X5591995Y7157100D01*
X5741995Y7397099D02*
G01*
X5591995Y7397099D01*
X6091994Y7397099D02*
G01*
X6091994Y7157100D01*
X6825599Y6917504D02*
G01*
X6585600Y6917504D01*
X6585600Y6567505D02*
G01*
X6585600Y6417505D01*
X6825599Y6567505D02*
G01*
X6825599Y6417505D01*
X6585600Y6767504D02*
G01*
X6585600Y6917504D01*
X6825599Y6767504D02*
G01*
X6825599Y6917504D01*
X6825599Y6417505D02*
G01*
X6585600Y6417505D01*
D30*
X7061200Y6654800D02*
G01*
X7061200Y6464300D01*
X7315200Y6464300D01*
X7315200Y7734300D01*
X7061200Y7734300D01*
D31*
X7061200Y7734300D02*
G01*
X7061200Y6654800D01*
D10*
G75*
G01*
X2694191Y4890770D02*
G03*
X2695461Y4890770I635J-74997D01*
G75*
G01*
X3296171Y4890770D02*
G03*
X3297441Y4890770I635J-74997D01*
G75*
G01*
X3814001Y5675300D02*
G02*
X3834000Y5695300I19999J0D01*
G75*
G01*
X3814001Y5475300D02*
G03*
X3834000Y5455300I19999J0D01*
G75*
G01*
X4314002Y5675300D02*
G03*
X4294002Y5695300I-20000J0D01*
G75*
G01*
X4314002Y5475300D02*
G02*
X4294002Y5455300I-20000J0D01*
G75*
G01*
X4430700Y6511100D02*
G02*
X4450700Y6491100I0J-20000D01*
G75*
G01*
X4230700Y6511100D02*
G03*
X4210700Y6491100I0J-20000D01*
G75*
G01*
X4430700Y6011098D02*
G03*
X4450700Y6031098I0J20000D01*
G75*
G01*
X4230700Y6011098D02*
G02*
X4210700Y6031098I0J20000D01*
G75*
G01*
X5592001Y7847000D02*
G02*
X5612000Y7867000I19999J0D01*
G75*
G01*
X5592001Y7647000D02*
G03*
X5612000Y7627000I19999J0D01*
G75*
G01*
X6092002Y7847000D02*
G03*
X6072002Y7867000I-20000J0D01*
G75*
G01*
X6092002Y7647000D02*
G02*
X6072002Y7627000I-20000J0D01*
G75*
G01*
X4652201Y5218100D02*
G02*
X4672200Y5238100I19999J0D01*
G75*
G01*
X4652201Y5018100D02*
G03*
X4672200Y4998100I19999J0D01*
G75*
G01*
X5152202Y5218100D02*
G03*
X5132202Y5238100I-20000J0D01*
G75*
G01*
X5152202Y5018100D02*
G02*
X5132202Y4998100I-20000J0D01*
G75*
G01*
X5729300Y6417500D02*
G02*
X5709300Y6437500I0J20000D01*
G75*
G01*
X5929300Y6417500D02*
G03*
X5949300Y6437500I0J20000D01*
G75*
G01*
X5729300Y6917502D02*
G03*
X5709300Y6897502I0J-20000D01*
G75*
G01*
X5929300Y6917502D02*
G02*
X5949300Y6897502I0J-20000D01*
D32*
G75*
G01
X6504000Y7696200D02*
G03X6504000Y7696200I-15011J0D01*
G75*
G01
X6312662Y7772933D02*
G03X6312662Y7772933I-15011J0D01*
G75*
G01
X3075000Y5842000D02*
G03X3075000Y5842000I-15011J0D01*
G75*
G01
X2874670Y5916651D02*
G03X2874670Y5916651I-15011J0D01*
G75*
G01
X3077007Y6629400D02*
G03X3077007Y6629400I-15011J0D01*
G75*
G01
X2881401Y6703060D02*
G03X2881401Y6703060I-15011J0D01*
G75*
G01
X5222723Y6692900D02*
G03X5222723Y6692900I-15011J0D01*
G75*
G01
X5414061Y6616167D02*
G03X5414061Y6616167I-15011J0D01*
M02*
