G04 Layer: BottomLayer*
G04 EasyEDA v6.4.17, 2021-03-05T15:54:57+08:00*
G04 7810626ff2e9405a9b1361f117870e28,a0ab3b0d74464cd6b67425ecbf828b8b,10*
G04 Gerber Generator version 0.2*
G04 Scale: 100 percent, Rotated: No, Reflected: No *
G04 Dimensions in millimeters *
G04 leading zeros omitted , absolute positions ,4 integer and 5 decimal *
%FSLAX45Y45*%
%MOMM*%

%ADD10C,0.2540*%
%ADD11C,0.8000*%
%ADD12C,0.5000*%
%ADD16C,0.6100*%
%ADD17C,0.6200*%
%ADD23C,1.2000*%
%ADD24C,1.8000*%
%ADD25C,1.5748*%
%ADD26R,1.5748X1.5748*%
%ADD27C,0.9000*%

%LPD*%
G36*
X2067814Y4216654D02*
G01*
X2063902Y4217416D01*
X2060651Y4219651D01*
X2058416Y4222902D01*
X2057654Y4226814D01*
X2057654Y8155686D01*
X2058416Y8159597D01*
X2060651Y8162848D01*
X2063902Y8165084D01*
X2067814Y8165846D01*
X7673086Y8165846D01*
X7676997Y8165084D01*
X7680248Y8162848D01*
X7682484Y8159597D01*
X7683246Y8155686D01*
X7683246Y4226814D01*
X7682484Y4222902D01*
X7680248Y4219651D01*
X7676997Y4217416D01*
X7673086Y4216654D01*
G37*

%LPC*%
G36*
X7188200Y7502906D02*
G01*
X7201814Y7503820D01*
X7215225Y7506462D01*
X7228128Y7510881D01*
X7240371Y7516926D01*
X7251750Y7524496D01*
X7262012Y7533487D01*
X7271003Y7543749D01*
X7278573Y7555128D01*
X7284618Y7567371D01*
X7289038Y7580274D01*
X7291679Y7593685D01*
X7292594Y7607300D01*
X7291679Y7620914D01*
X7289038Y7634325D01*
X7284618Y7647228D01*
X7278573Y7659471D01*
X7271003Y7670850D01*
X7262012Y7681112D01*
X7251750Y7690103D01*
X7240371Y7697673D01*
X7228128Y7703718D01*
X7215225Y7708138D01*
X7201814Y7710779D01*
X7188200Y7711694D01*
X7174585Y7710779D01*
X7161174Y7708138D01*
X7148271Y7703718D01*
X7136028Y7697673D01*
X7124649Y7690103D01*
X7114387Y7681112D01*
X7105396Y7670850D01*
X7097826Y7659471D01*
X7091781Y7647228D01*
X7087362Y7634325D01*
X7084720Y7620914D01*
X7083806Y7607300D01*
X7084720Y7593685D01*
X7087362Y7580274D01*
X7091781Y7567371D01*
X7097826Y7555128D01*
X7105396Y7543749D01*
X7114387Y7533487D01*
X7124649Y7524496D01*
X7136028Y7516926D01*
X7148271Y7510881D01*
X7161174Y7506462D01*
X7174585Y7503820D01*
G37*
G36*
X2651099Y4502912D02*
G01*
X2740304Y4502912D01*
X2751785Y4503826D01*
X2762554Y4506417D01*
X2772765Y4510633D01*
X2782214Y4516424D01*
X2790647Y4523638D01*
X2797860Y4532071D01*
X2803652Y4541520D01*
X2807868Y4551730D01*
X2810459Y4562551D01*
X2811322Y4573574D01*
X2810459Y4584598D01*
X2807868Y4595418D01*
X2803652Y4605629D01*
X2797860Y4615078D01*
X2790647Y4623511D01*
X2782214Y4630724D01*
X2772765Y4636516D01*
X2762554Y4640732D01*
X2751785Y4643323D01*
X2740304Y4644237D01*
X2651099Y4644237D01*
X2639669Y4643323D01*
X2628900Y4640732D01*
X2618638Y4636516D01*
X2609189Y4630724D01*
X2600756Y4623511D01*
X2593594Y4615078D01*
X2587802Y4605629D01*
X2583535Y4595418D01*
X2580944Y4584598D01*
X2580081Y4573574D01*
X2580944Y4562551D01*
X2583535Y4551730D01*
X2587802Y4541520D01*
X2593594Y4532071D01*
X2600756Y4523638D01*
X2609189Y4516424D01*
X2618638Y4510633D01*
X2628900Y4506417D01*
X2639669Y4503826D01*
G37*
G36*
X2694178Y4730140D02*
G01*
X2706370Y4731054D01*
X2718308Y4733645D01*
X2729738Y4737912D01*
X2740456Y4743754D01*
X2750261Y4751070D01*
X2758897Y4759706D01*
X2766212Y4769510D01*
X2772054Y4780229D01*
X2776321Y4791659D01*
X2778912Y4803597D01*
X2779776Y4815789D01*
X2778912Y4827981D01*
X2776321Y4839919D01*
X2772054Y4851349D01*
X2766212Y4862068D01*
X2758897Y4871872D01*
X2750261Y4880508D01*
X2740456Y4887823D01*
X2729738Y4893665D01*
X2718308Y4897932D01*
X2706370Y4900523D01*
X2694178Y4901438D01*
X2681986Y4900523D01*
X2670048Y4897932D01*
X2658618Y4893665D01*
X2647848Y4887823D01*
X2638094Y4880508D01*
X2629458Y4871872D01*
X2622143Y4862068D01*
X2616250Y4851349D01*
X2611983Y4839919D01*
X2609392Y4827981D01*
X2608529Y4815789D01*
X2609392Y4803597D01*
X2611983Y4791659D01*
X2616250Y4780229D01*
X2622143Y4769510D01*
X2629458Y4759706D01*
X2638094Y4751070D01*
X2647848Y4743754D01*
X2658618Y4737912D01*
X2670048Y4733645D01*
X2681986Y4731054D01*
G37*
G36*
X3296056Y4730140D02*
G01*
X3308248Y4731054D01*
X3320186Y4733645D01*
X3331616Y4737912D01*
X3342386Y4743754D01*
X3352139Y4751070D01*
X3360775Y4759706D01*
X3368090Y4769510D01*
X3373983Y4780229D01*
X3378250Y4791659D01*
X3380841Y4803597D01*
X3381705Y4815789D01*
X3380841Y4827981D01*
X3378250Y4839919D01*
X3373983Y4851349D01*
X3368090Y4862068D01*
X3360775Y4871872D01*
X3352139Y4880508D01*
X3342386Y4887823D01*
X3331616Y4893665D01*
X3320186Y4897932D01*
X3308248Y4900523D01*
X3296056Y4901438D01*
X3283864Y4900523D01*
X3271926Y4897932D01*
X3260496Y4893665D01*
X3249777Y4887823D01*
X3239973Y4880508D01*
X3231337Y4871872D01*
X3224022Y4862068D01*
X3218180Y4851349D01*
X3213912Y4839919D01*
X3211322Y4827981D01*
X3210458Y4815789D01*
X3211322Y4803597D01*
X3213912Y4791659D01*
X3218180Y4780229D01*
X3224022Y4769510D01*
X3231337Y4759706D01*
X3239973Y4751070D01*
X3249777Y4743754D01*
X3260496Y4737912D01*
X3271926Y4733645D01*
X3283864Y4731054D01*
G37*
G36*
X5181600Y4833366D02*
G01*
X5191353Y4834229D01*
X5200802Y4836769D01*
X5209641Y4840884D01*
X5217668Y4846523D01*
X5219344Y4848148D01*
X5222646Y4850384D01*
X5226507Y4851146D01*
X5866892Y4851146D01*
X5874867Y4851908D01*
X5882081Y4854092D01*
X5888685Y4857648D01*
X5894882Y4862728D01*
X6028537Y4996383D01*
X6031788Y4998567D01*
X6035598Y4999329D01*
X6039459Y4998618D01*
X6047587Y4995418D01*
X6061608Y4991811D01*
X6076035Y4989982D01*
X6090564Y4989982D01*
X6104991Y4991811D01*
X6119012Y4995418D01*
X6132525Y5000752D01*
X6145276Y5007762D01*
X6157010Y5016296D01*
X6167577Y5026253D01*
X6176873Y5037429D01*
X6184646Y5049672D01*
X6190792Y5062829D01*
X6195314Y5076647D01*
X6198006Y5090922D01*
X6198920Y5105400D01*
X6198006Y5119878D01*
X6195314Y5134152D01*
X6190792Y5147970D01*
X6184646Y5161127D01*
X6176873Y5173370D01*
X6167577Y5184546D01*
X6157010Y5194503D01*
X6145276Y5203037D01*
X6132525Y5210048D01*
X6119012Y5215382D01*
X6104991Y5218988D01*
X6090564Y5220817D01*
X6076035Y5220817D01*
X6061608Y5218988D01*
X6047587Y5215382D01*
X6034074Y5210048D01*
X6021324Y5203037D01*
X6009589Y5194503D01*
X5999022Y5184546D01*
X5989726Y5173370D01*
X5981954Y5161127D01*
X5975807Y5147970D01*
X5971286Y5134152D01*
X5968593Y5119878D01*
X5967679Y5105400D01*
X5968593Y5090922D01*
X5971286Y5076647D01*
X5975807Y5062829D01*
X5977128Y5058003D01*
X5976416Y5053939D01*
X5974181Y5050485D01*
X5854496Y4930851D01*
X5851194Y4928616D01*
X5847283Y4927854D01*
X5226507Y4927854D01*
X5222646Y4928616D01*
X5219344Y4930851D01*
X5217668Y4932476D01*
X5209641Y4938115D01*
X5200802Y4942230D01*
X5191353Y4944770D01*
X5181600Y4945634D01*
X5171846Y4944770D01*
X5162397Y4942230D01*
X5153558Y4938115D01*
X5145532Y4932476D01*
X5138623Y4925568D01*
X5132984Y4917541D01*
X5128869Y4908702D01*
X5126329Y4899253D01*
X5125466Y4889500D01*
X5126329Y4879746D01*
X5128869Y4870297D01*
X5132984Y4861458D01*
X5138623Y4853432D01*
X5145532Y4846523D01*
X5153558Y4840884D01*
X5162397Y4836769D01*
X5171846Y4834229D01*
G37*
G36*
X2847746Y4982667D02*
G01*
X2936951Y4982667D01*
X2948432Y4983581D01*
X2959201Y4986172D01*
X2969412Y4990388D01*
X2978861Y4996180D01*
X2987294Y5003393D01*
X2994507Y5011826D01*
X3000298Y5021275D01*
X3004515Y5031486D01*
X3007106Y5042306D01*
X3007969Y5053330D01*
X3007106Y5064353D01*
X3004515Y5075174D01*
X3000298Y5085384D01*
X2994507Y5094833D01*
X2987294Y5103266D01*
X2978861Y5110480D01*
X2969412Y5116271D01*
X2959201Y5120487D01*
X2948432Y5123078D01*
X2936951Y5123992D01*
X2847746Y5123992D01*
X2836316Y5123078D01*
X2825546Y5120487D01*
X2815285Y5116271D01*
X2805836Y5110480D01*
X2797403Y5103266D01*
X2790240Y5094833D01*
X2784449Y5085384D01*
X2780182Y5075174D01*
X2777591Y5064353D01*
X2776728Y5053330D01*
X2777591Y5042306D01*
X2780182Y5031486D01*
X2784449Y5021275D01*
X2790240Y5011826D01*
X2797403Y5003393D01*
X2805836Y4996180D01*
X2815285Y4990388D01*
X2825546Y4986172D01*
X2836316Y4983581D01*
G37*
G36*
X6838035Y4989982D02*
G01*
X6852564Y4989982D01*
X6866991Y4991811D01*
X6881012Y4995418D01*
X6894525Y5000752D01*
X6907275Y5007762D01*
X6919010Y5016296D01*
X6929577Y5026253D01*
X6938873Y5037429D01*
X6946646Y5049672D01*
X6952792Y5062829D01*
X6957314Y5076647D01*
X6960006Y5090922D01*
X6960920Y5105400D01*
X6960006Y5119878D01*
X6957314Y5134152D01*
X6952792Y5147970D01*
X6946646Y5161127D01*
X6938873Y5173370D01*
X6929577Y5184546D01*
X6919010Y5194503D01*
X6907275Y5203037D01*
X6894525Y5210048D01*
X6881012Y5215382D01*
X6866991Y5218988D01*
X6852564Y5220817D01*
X6838035Y5220817D01*
X6823608Y5218988D01*
X6809587Y5215382D01*
X6796074Y5210048D01*
X6783324Y5203037D01*
X6771589Y5194503D01*
X6761022Y5184546D01*
X6751726Y5173370D01*
X6743953Y5161127D01*
X6737807Y5147970D01*
X6733286Y5134152D01*
X6730593Y5119878D01*
X6729679Y5105400D01*
X6730593Y5090922D01*
X6733286Y5076647D01*
X6737807Y5062829D01*
X6743953Y5049672D01*
X6751726Y5037429D01*
X6761022Y5026253D01*
X6771589Y5016296D01*
X6783324Y5007762D01*
X6796074Y5000752D01*
X6809587Y4995418D01*
X6823608Y4991811D01*
G37*
G36*
X7092035Y4989982D02*
G01*
X7106564Y4989982D01*
X7120991Y4991811D01*
X7135012Y4995418D01*
X7148525Y5000752D01*
X7161275Y5007762D01*
X7173010Y5016296D01*
X7183577Y5026253D01*
X7192873Y5037429D01*
X7200646Y5049672D01*
X7206792Y5062829D01*
X7211314Y5076647D01*
X7214006Y5090922D01*
X7214920Y5105400D01*
X7213752Y5124094D01*
X7214717Y5127244D01*
X7216648Y5129885D01*
X7475626Y5388914D01*
X7482586Y5397042D01*
X7487970Y5405831D01*
X7491933Y5415330D01*
X7494320Y5425338D01*
X7495133Y5436006D01*
X7495133Y6362293D01*
X7494320Y6372961D01*
X7491933Y6382969D01*
X7487970Y6392468D01*
X7482586Y6401257D01*
X7475626Y6409385D01*
X7295591Y6589471D01*
X7293356Y6592773D01*
X7292594Y6596684D01*
X7292594Y6669481D01*
X7291882Y6675729D01*
X7290003Y6681165D01*
X7286955Y6685991D01*
X7282891Y6690055D01*
X7278065Y6693103D01*
X7272629Y6694982D01*
X7266381Y6695694D01*
X7110018Y6695694D01*
X7103770Y6694982D01*
X7098334Y6693103D01*
X7093508Y6690055D01*
X7089444Y6685991D01*
X7086396Y6681165D01*
X7084517Y6675729D01*
X7083806Y6669481D01*
X7083806Y6513118D01*
X7084517Y6506870D01*
X7086396Y6501434D01*
X7089444Y6496608D01*
X7093508Y6492544D01*
X7098334Y6489496D01*
X7103770Y6487617D01*
X7110018Y6486906D01*
X7208215Y6486906D01*
X7212126Y6486144D01*
X7215428Y6483908D01*
X7360869Y6338468D01*
X7363053Y6335166D01*
X7363866Y6331305D01*
X7363866Y5466994D01*
X7363053Y5463133D01*
X7360869Y5459831D01*
X7123684Y5222595D01*
X7121194Y5220766D01*
X7118299Y5219801D01*
X7115200Y5219700D01*
X7106564Y5220817D01*
X7092035Y5220817D01*
X7077608Y5218988D01*
X7063587Y5215382D01*
X7050074Y5210048D01*
X7037324Y5203037D01*
X7025589Y5194503D01*
X7015022Y5184546D01*
X7005726Y5173370D01*
X6997953Y5161127D01*
X6991807Y5147970D01*
X6987286Y5134152D01*
X6984593Y5119878D01*
X6983679Y5105400D01*
X6984593Y5090922D01*
X6987286Y5076647D01*
X6991807Y5062829D01*
X6997953Y5049672D01*
X7005726Y5037429D01*
X7015022Y5026253D01*
X7025589Y5016296D01*
X7037324Y5007762D01*
X7050074Y5000752D01*
X7063587Y4995418D01*
X7077608Y4991811D01*
G37*
G36*
X5822035Y4989982D02*
G01*
X5836564Y4989982D01*
X5850991Y4991811D01*
X5865012Y4995418D01*
X5878525Y5000752D01*
X5891276Y5007762D01*
X5903010Y5016296D01*
X5913577Y5026253D01*
X5922873Y5037429D01*
X5930646Y5049672D01*
X5936792Y5062829D01*
X5941314Y5076647D01*
X5944006Y5090922D01*
X5944920Y5105400D01*
X5944006Y5119878D01*
X5941314Y5134152D01*
X5936792Y5147970D01*
X5930646Y5161127D01*
X5922873Y5173370D01*
X5913577Y5184546D01*
X5903010Y5194503D01*
X5891530Y5202834D01*
X5889294Y5205069D01*
X5887821Y5207914D01*
X5887313Y5211064D01*
X5887313Y5573623D01*
X5886500Y5584291D01*
X5884113Y5594299D01*
X5880150Y5603798D01*
X5874766Y5612587D01*
X5867806Y5620715D01*
X4903165Y6585356D01*
X4895037Y6592316D01*
X4886248Y6597700D01*
X4876749Y6601663D01*
X4866741Y6604050D01*
X4856480Y6604863D01*
X4846218Y6604050D01*
X4836210Y6601663D01*
X4826711Y6597700D01*
X4817922Y6592316D01*
X4810099Y6585610D01*
X4803394Y6577787D01*
X4798009Y6568998D01*
X4794046Y6559499D01*
X4791659Y6549491D01*
X4790846Y6539230D01*
X4791659Y6528968D01*
X4794046Y6518960D01*
X4798009Y6509461D01*
X4803394Y6500672D01*
X4810353Y6492544D01*
X5753049Y5549798D01*
X5755233Y5546496D01*
X5756046Y5542635D01*
X5756046Y5199278D01*
X5755182Y5195265D01*
X5752846Y5191912D01*
X5745022Y5184546D01*
X5735726Y5173370D01*
X5727954Y5161127D01*
X5721807Y5147970D01*
X5717286Y5134152D01*
X5714593Y5119878D01*
X5713679Y5105400D01*
X5714593Y5090922D01*
X5717286Y5076647D01*
X5721807Y5062829D01*
X5727954Y5049672D01*
X5735726Y5037429D01*
X5745022Y5026253D01*
X5755589Y5016296D01*
X5767324Y5007762D01*
X5780074Y5000752D01*
X5793587Y4995418D01*
X5807608Y4991811D01*
G37*
G36*
X6330035Y4989982D02*
G01*
X6344564Y4989982D01*
X6358991Y4991811D01*
X6373012Y4995418D01*
X6386525Y5000752D01*
X6399276Y5007762D01*
X6411010Y5016296D01*
X6421577Y5026253D01*
X6430873Y5037429D01*
X6438646Y5049672D01*
X6444792Y5062829D01*
X6449314Y5076647D01*
X6452006Y5090922D01*
X6452920Y5105400D01*
X6452006Y5119878D01*
X6449314Y5134152D01*
X6444792Y5147970D01*
X6438646Y5161127D01*
X6430873Y5173370D01*
X6421577Y5184546D01*
X6411010Y5194503D01*
X6407150Y5197297D01*
X6404914Y5199532D01*
X6403441Y5202377D01*
X6402933Y5205526D01*
X6402933Y6362293D01*
X6402120Y6372961D01*
X6399733Y6382969D01*
X6395770Y6392468D01*
X6390386Y6401257D01*
X6383426Y6409385D01*
X5715508Y7077303D01*
X5713323Y7080605D01*
X5712561Y7084517D01*
X5713323Y7088378D01*
X5715508Y7091680D01*
X6202883Y7579055D01*
X6206185Y7581290D01*
X6210096Y7582052D01*
X6525971Y7582052D01*
X6529781Y7581290D01*
X6536639Y7578547D01*
X6545986Y7576515D01*
X6555587Y7576108D01*
X6565138Y7577328D01*
X6574332Y7580172D01*
X6582867Y7584490D01*
X6590588Y7590180D01*
X6597243Y7597140D01*
X6602628Y7605064D01*
X6606590Y7613853D01*
X6608978Y7623149D01*
X6609842Y7632700D01*
X6608978Y7642250D01*
X6606590Y7651546D01*
X6602628Y7660335D01*
X6597243Y7668259D01*
X6590588Y7675219D01*
X6582867Y7680909D01*
X6574332Y7685227D01*
X6565138Y7688072D01*
X6555587Y7689291D01*
X6545986Y7688834D01*
X6536639Y7686852D01*
X6529781Y7684109D01*
X6525971Y7683347D01*
X6185103Y7683347D01*
X6180480Y7683144D01*
X6176111Y7682585D01*
X6171793Y7681620D01*
X6167577Y7680299D01*
X6163513Y7678623D01*
X6159601Y7676540D01*
X6155842Y7674203D01*
X6152337Y7671511D01*
X6148933Y7668361D01*
X5622239Y7141667D01*
X5619292Y7139635D01*
X5605830Y7136333D01*
X5596331Y7132370D01*
X5587542Y7126986D01*
X5579719Y7120280D01*
X5573014Y7112457D01*
X5567629Y7103668D01*
X5563666Y7094169D01*
X5561279Y7084161D01*
X5560466Y7073900D01*
X5561279Y7063638D01*
X5563666Y7053630D01*
X5567629Y7044131D01*
X5573014Y7035342D01*
X5579973Y7027214D01*
X6268669Y6338468D01*
X6270853Y6335166D01*
X6271666Y6331305D01*
X6271666Y5205526D01*
X6271158Y5202377D01*
X6269685Y5199532D01*
X6267450Y5197297D01*
X6263589Y5194503D01*
X6253022Y5184546D01*
X6243726Y5173370D01*
X6235954Y5161127D01*
X6229807Y5147970D01*
X6225286Y5134152D01*
X6222593Y5119878D01*
X6221679Y5105400D01*
X6222593Y5090922D01*
X6225286Y5076647D01*
X6229807Y5062829D01*
X6235954Y5049672D01*
X6243726Y5037429D01*
X6253022Y5026253D01*
X6263589Y5016296D01*
X6275324Y5007762D01*
X6288074Y5000752D01*
X6301587Y4995418D01*
X6315608Y4991811D01*
G37*
G36*
X5260187Y5201208D02*
G01*
X5269738Y5202428D01*
X5278932Y5205272D01*
X5287467Y5209590D01*
X5295188Y5215280D01*
X5301843Y5222240D01*
X5307228Y5230164D01*
X5311190Y5238953D01*
X5313578Y5248249D01*
X5314442Y5257800D01*
X5313578Y5267350D01*
X5311190Y5276646D01*
X5307228Y5285435D01*
X5301843Y5293360D01*
X5298998Y5296357D01*
X5296865Y5299608D01*
X5296154Y5303418D01*
X5296154Y5809081D01*
X5296865Y5812891D01*
X5298998Y5816142D01*
X5301843Y5819140D01*
X5307228Y5827064D01*
X5311190Y5835853D01*
X5313578Y5845149D01*
X5314442Y5854700D01*
X5313578Y5864250D01*
X5311190Y5873546D01*
X5307228Y5882335D01*
X5301843Y5890260D01*
X5295188Y5897219D01*
X5287467Y5902909D01*
X5278932Y5907227D01*
X5269738Y5910072D01*
X5260187Y5911291D01*
X5250586Y5910834D01*
X5241239Y5908852D01*
X5232298Y5905246D01*
X5224119Y5900216D01*
X5216906Y5893866D01*
X5210911Y5886399D01*
X5206187Y5878017D01*
X5202986Y5868974D01*
X5201361Y5859526D01*
X5201361Y5849874D01*
X5202986Y5840425D01*
X5206187Y5831382D01*
X5210911Y5823000D01*
X5217210Y5815177D01*
X5218887Y5812180D01*
X5219446Y5808827D01*
X5219446Y5303672D01*
X5218887Y5300319D01*
X5217210Y5297322D01*
X5210911Y5289499D01*
X5206187Y5281117D01*
X5202986Y5272074D01*
X5201361Y5262626D01*
X5201361Y5252974D01*
X5202986Y5243525D01*
X5206187Y5234482D01*
X5210911Y5226100D01*
X5216906Y5218633D01*
X5224119Y5212283D01*
X5232298Y5207254D01*
X5241239Y5203647D01*
X5250586Y5201615D01*
G37*
G36*
X3599179Y5721096D02*
G01*
X3608933Y5721959D01*
X3618382Y5724499D01*
X3627221Y5728614D01*
X3635248Y5734253D01*
X3642156Y5741162D01*
X3647795Y5749188D01*
X3651910Y5758027D01*
X3654450Y5767476D01*
X3655314Y5777230D01*
X3654450Y5786983D01*
X3651910Y5796432D01*
X3650792Y5798820D01*
X3649827Y5803138D01*
X3649827Y6539636D01*
X3650589Y6543497D01*
X3652824Y6546799D01*
X3656126Y6548983D01*
X3659987Y6549796D01*
X4284573Y6549796D01*
X4295241Y6550609D01*
X4305249Y6552996D01*
X4314748Y6556959D01*
X4323537Y6562344D01*
X4331360Y6569049D01*
X4338066Y6576872D01*
X4343450Y6585661D01*
X4347413Y6595160D01*
X4349800Y6605168D01*
X4350613Y6615430D01*
X4349800Y6625691D01*
X4347413Y6635699D01*
X4343450Y6645198D01*
X4338066Y6653987D01*
X4331360Y6661810D01*
X4323537Y6668516D01*
X4314748Y6673900D01*
X4305249Y6677863D01*
X4295241Y6680250D01*
X4284573Y6681063D01*
X3548786Y6681063D01*
X3538118Y6680250D01*
X3528110Y6677863D01*
X3518611Y6673900D01*
X3509822Y6668516D01*
X3501999Y6661810D01*
X3495294Y6653987D01*
X3489909Y6645198D01*
X3485946Y6635699D01*
X3483559Y6625691D01*
X3482746Y6615430D01*
X3483559Y6605168D01*
X3485946Y6595160D01*
X3489909Y6585661D01*
X3495294Y6576872D01*
X3501999Y6569049D01*
X3509822Y6562344D01*
X3518611Y6556959D01*
X3528110Y6552996D01*
X3538880Y6550406D01*
X3543604Y6548170D01*
X3546246Y6545884D01*
X3547922Y6542836D01*
X3548532Y6539433D01*
X3548532Y6156248D01*
X3547770Y6152388D01*
X3545535Y6149086D01*
X3542233Y6146850D01*
X3538372Y6146088D01*
X3534460Y6146850D01*
X3531158Y6149086D01*
X3528568Y6151676D01*
X3520541Y6157315D01*
X3511702Y6161430D01*
X3502253Y6163970D01*
X3492500Y6164834D01*
X3482746Y6163970D01*
X3473297Y6161430D01*
X3464458Y6157315D01*
X3456432Y6151676D01*
X3454755Y6150051D01*
X3451453Y6147816D01*
X3447592Y6147054D01*
X3284016Y6147054D01*
X3280105Y6147816D01*
X3276803Y6150051D01*
X3195828Y6231026D01*
X3193796Y6233922D01*
X3192881Y6237325D01*
X3192170Y6245453D01*
X3189630Y6254902D01*
X3185515Y6263741D01*
X3179876Y6271768D01*
X3172968Y6278676D01*
X3164941Y6284315D01*
X3156102Y6288430D01*
X3146653Y6290970D01*
X3136900Y6291834D01*
X3127146Y6290970D01*
X3117697Y6288430D01*
X3108858Y6284315D01*
X3100832Y6278676D01*
X3093923Y6271768D01*
X3088284Y6263741D01*
X3084169Y6254902D01*
X3081629Y6245453D01*
X3080766Y6235700D01*
X3081629Y6225946D01*
X3084169Y6216497D01*
X3088284Y6207658D01*
X3093923Y6199632D01*
X3100832Y6192723D01*
X3108858Y6187084D01*
X3117697Y6182969D01*
X3127146Y6180429D01*
X3135274Y6179718D01*
X3138678Y6178804D01*
X3141573Y6176772D01*
X3236417Y6081928D01*
X3242614Y6076848D01*
X3249218Y6073292D01*
X3256432Y6071108D01*
X3264408Y6070346D01*
X3447592Y6070346D01*
X3451453Y6069584D01*
X3454755Y6067348D01*
X3456432Y6065723D01*
X3464458Y6060084D01*
X3473297Y6055969D01*
X3482746Y6053429D01*
X3492500Y6052566D01*
X3502253Y6053429D01*
X3511702Y6055969D01*
X3520541Y6060084D01*
X3528568Y6065723D01*
X3531158Y6068314D01*
X3534460Y6070549D01*
X3538372Y6071311D01*
X3542233Y6070549D01*
X3545535Y6068314D01*
X3547770Y6065012D01*
X3548532Y6061151D01*
X3548532Y5803138D01*
X3547567Y5798820D01*
X3546449Y5796432D01*
X3543909Y5786983D01*
X3543046Y5777230D01*
X3543909Y5767476D01*
X3546449Y5758027D01*
X3550564Y5749188D01*
X3556203Y5741162D01*
X3563112Y5734253D01*
X3571138Y5728614D01*
X3579977Y5724499D01*
X3589426Y5721959D01*
G37*
G36*
X3357219Y4502607D02*
G01*
X3446424Y4502607D01*
X3457905Y4503521D01*
X3468674Y4506112D01*
X3478885Y4510328D01*
X3488334Y4516120D01*
X3496767Y4523333D01*
X3503980Y4531766D01*
X3509772Y4541215D01*
X3513988Y4551426D01*
X3516579Y4562246D01*
X3517442Y4573270D01*
X3516579Y4584293D01*
X3513988Y4595114D01*
X3509772Y4605324D01*
X3503980Y4614773D01*
X3496767Y4623206D01*
X3488334Y4630420D01*
X3478885Y4636211D01*
X3468674Y4640427D01*
X3457905Y4643018D01*
X3446424Y4643932D01*
X3357219Y4643932D01*
X3345789Y4643018D01*
X3335020Y4640427D01*
X3324758Y4636211D01*
X3315309Y4630420D01*
X3306876Y4623206D01*
X3299714Y4614773D01*
X3293922Y4605324D01*
X3289655Y4595114D01*
X3287064Y4584293D01*
X3286201Y4573270D01*
X3287064Y4562246D01*
X3289655Y4551426D01*
X3293922Y4541215D01*
X3299714Y4531766D01*
X3306876Y4523333D01*
X3315309Y4516120D01*
X3324758Y4510328D01*
X3335020Y4506112D01*
X3345789Y4503521D01*
G37*
G36*
X4333087Y6191808D02*
G01*
X4342638Y6193028D01*
X4351832Y6195872D01*
X4360367Y6200190D01*
X4368088Y6205880D01*
X4374743Y6212840D01*
X4380128Y6220764D01*
X4384090Y6229553D01*
X4386478Y6238849D01*
X4387240Y6247282D01*
X4388154Y6250736D01*
X4390186Y6253632D01*
X4662271Y6525717D01*
X4667351Y6531914D01*
X4670907Y6538518D01*
X4673092Y6545732D01*
X4673854Y6553708D01*
X4673854Y6698081D01*
X4674565Y6701891D01*
X4676698Y6705142D01*
X4679543Y6708140D01*
X4684928Y6716064D01*
X4688890Y6724853D01*
X4691278Y6734149D01*
X4692142Y6743700D01*
X4691278Y6753250D01*
X4688890Y6762546D01*
X4684928Y6771335D01*
X4679543Y6779259D01*
X4672888Y6786219D01*
X4665167Y6791909D01*
X4656632Y6796227D01*
X4647438Y6799072D01*
X4637887Y6800291D01*
X4628286Y6799834D01*
X4618939Y6797852D01*
X4609998Y6794246D01*
X4601819Y6789216D01*
X4594606Y6782866D01*
X4588611Y6775399D01*
X4583887Y6767017D01*
X4580686Y6757974D01*
X4579061Y6748525D01*
X4579061Y6738874D01*
X4580686Y6729425D01*
X4583887Y6720382D01*
X4588611Y6712000D01*
X4594910Y6704177D01*
X4596587Y6701180D01*
X4597146Y6697827D01*
X4597146Y6573316D01*
X4596384Y6569405D01*
X4594148Y6566103D01*
X4335830Y6307785D01*
X4332732Y6305651D01*
X4329074Y6304788D01*
X4323486Y6304534D01*
X4314139Y6302552D01*
X4305198Y6298946D01*
X4297019Y6293916D01*
X4289806Y6287566D01*
X4283811Y6280099D01*
X4279087Y6271717D01*
X4275886Y6262674D01*
X4274261Y6253226D01*
X4274261Y6243574D01*
X4275886Y6234125D01*
X4279087Y6225082D01*
X4283811Y6216700D01*
X4289806Y6209233D01*
X4297019Y6202883D01*
X4305198Y6197854D01*
X4314139Y6194247D01*
X4323486Y6192215D01*
G37*
G36*
X7025487Y6318808D02*
G01*
X7035038Y6320028D01*
X7044232Y6322872D01*
X7052767Y6327190D01*
X7060488Y6332880D01*
X7067143Y6339840D01*
X7072528Y6347764D01*
X7076490Y6356553D01*
X7078878Y6365849D01*
X7079742Y6375400D01*
X7078878Y6384950D01*
X7076490Y6394246D01*
X7072528Y6403035D01*
X7067143Y6410960D01*
X7060488Y6417919D01*
X7052767Y6423609D01*
X7044232Y6427927D01*
X7035038Y6430772D01*
X7025436Y6431940D01*
X7021322Y6432651D01*
X7017816Y6434937D01*
X6764375Y6688378D01*
X6762038Y6692087D01*
X6761429Y6696405D01*
X6762242Y6705600D01*
X6761378Y6715150D01*
X6758990Y6724446D01*
X6755028Y6733235D01*
X6749643Y6741159D01*
X6742988Y6748119D01*
X6735267Y6753809D01*
X6726732Y6758127D01*
X6717538Y6760972D01*
X6707987Y6762191D01*
X6698386Y6761734D01*
X6689039Y6759752D01*
X6680098Y6756146D01*
X6671919Y6751116D01*
X6664706Y6744766D01*
X6658711Y6737299D01*
X6653987Y6728917D01*
X6650786Y6719874D01*
X6649161Y6710425D01*
X6649161Y6700774D01*
X6650786Y6691325D01*
X6653987Y6682282D01*
X6658711Y6673900D01*
X6664706Y6666433D01*
X6671919Y6660083D01*
X6680098Y6655053D01*
X6689039Y6651447D01*
X6693611Y6650024D01*
X6695948Y6648297D01*
X6963714Y6380530D01*
X6965899Y6377228D01*
X6966661Y6373368D01*
X6966661Y6370574D01*
X6968286Y6361125D01*
X6971487Y6352082D01*
X6976211Y6343700D01*
X6982206Y6336233D01*
X6989419Y6329883D01*
X6997598Y6324854D01*
X7006539Y6321247D01*
X7015886Y6319215D01*
G37*
G36*
X7142480Y6751726D02*
G01*
X7142480Y6799580D01*
X7094626Y6799580D01*
X7097826Y6793128D01*
X7105396Y6781749D01*
X7114387Y6771487D01*
X7124649Y6762496D01*
X7136028Y6754926D01*
G37*
G36*
X7233920Y6751726D02*
G01*
X7240371Y6754926D01*
X7251750Y6762496D01*
X7262012Y6771487D01*
X7271003Y6781749D01*
X7278573Y6793128D01*
X7281773Y6799580D01*
X7233920Y6799580D01*
G37*
G36*
X7094626Y6891020D02*
G01*
X7142480Y6891020D01*
X7142480Y6938873D01*
X7136028Y6935673D01*
X7124649Y6928103D01*
X7114387Y6919112D01*
X7105396Y6908850D01*
X7097826Y6897471D01*
G37*
G36*
X7233920Y6891020D02*
G01*
X7281773Y6891020D01*
X7278573Y6897471D01*
X7271003Y6908850D01*
X7262012Y6919112D01*
X7251750Y6928103D01*
X7240371Y6935673D01*
X7233920Y6938873D01*
G37*
G36*
X6484467Y7066838D02*
G01*
X6494018Y7068058D01*
X6503212Y7070902D01*
X6506972Y7072477D01*
X6509359Y7072782D01*
X6532676Y7072782D01*
X6537299Y7072985D01*
X6541668Y7073544D01*
X6545986Y7074509D01*
X6550202Y7075830D01*
X6554266Y7077506D01*
X6558178Y7079589D01*
X6561937Y7081926D01*
X6565442Y7084618D01*
X6568846Y7087768D01*
X6771741Y7290663D01*
X6774891Y7294067D01*
X6777583Y7297572D01*
X6779920Y7301331D01*
X6782003Y7305243D01*
X6783679Y7309307D01*
X6785000Y7313523D01*
X6785965Y7317841D01*
X6786524Y7322210D01*
X6786727Y7326833D01*
X6786727Y7631226D01*
X6786524Y7635849D01*
X6785965Y7640218D01*
X6785000Y7644536D01*
X6783679Y7648752D01*
X6782003Y7652816D01*
X6779920Y7656728D01*
X6777583Y7660487D01*
X6774891Y7663992D01*
X6771741Y7667396D01*
X6594246Y7844891D01*
X6590842Y7848041D01*
X6587337Y7850733D01*
X6583578Y7853070D01*
X6579666Y7855153D01*
X6575602Y7856829D01*
X6571386Y7858150D01*
X6567068Y7859115D01*
X6562699Y7859674D01*
X6558076Y7859877D01*
X5986983Y7859877D01*
X5982360Y7859674D01*
X5977991Y7859115D01*
X5973673Y7858150D01*
X5969457Y7856829D01*
X5965393Y7855153D01*
X5961481Y7853070D01*
X5957722Y7850733D01*
X5954217Y7848041D01*
X5950813Y7844891D01*
X5449417Y7343495D01*
X5446014Y7341260D01*
X5440578Y7339075D01*
X5432399Y7334046D01*
X5425186Y7327696D01*
X5419191Y7320229D01*
X5414467Y7311847D01*
X5411266Y7302804D01*
X5409641Y7293356D01*
X5409641Y7283703D01*
X5411266Y7274255D01*
X5414467Y7265212D01*
X5419191Y7256830D01*
X5425186Y7249363D01*
X5432399Y7243013D01*
X5440578Y7237984D01*
X5449519Y7234377D01*
X5458866Y7232345D01*
X5468467Y7231938D01*
X5478018Y7233158D01*
X5487212Y7236002D01*
X5495747Y7240320D01*
X5503468Y7246010D01*
X5510123Y7252970D01*
X5515508Y7260894D01*
X5519216Y7269073D01*
X5521299Y7272070D01*
X6004763Y7755585D01*
X6008065Y7757820D01*
X6011976Y7758582D01*
X6533083Y7758582D01*
X6536994Y7757820D01*
X6540296Y7755585D01*
X6682435Y7613446D01*
X6684670Y7610144D01*
X6685432Y7606233D01*
X6685432Y7351826D01*
X6684670Y7347915D01*
X6682435Y7344613D01*
X6515404Y7177633D01*
X6511899Y7175296D01*
X6507734Y7174636D01*
X6494018Y7178802D01*
X6484467Y7180021D01*
X6474866Y7179564D01*
X6465519Y7177582D01*
X6456578Y7173975D01*
X6448399Y7168946D01*
X6441186Y7162596D01*
X6435191Y7155129D01*
X6430467Y7146747D01*
X6427266Y7137704D01*
X6425641Y7128256D01*
X6425641Y7118603D01*
X6427266Y7109155D01*
X6430467Y7100112D01*
X6435191Y7091730D01*
X6441186Y7084263D01*
X6448399Y7077913D01*
X6456578Y7072884D01*
X6465519Y7069277D01*
X6474866Y7067245D01*
G37*
G36*
X7142480Y7259726D02*
G01*
X7142480Y7307580D01*
X7094626Y7307580D01*
X7097826Y7301128D01*
X7105396Y7289749D01*
X7114387Y7279487D01*
X7124649Y7270496D01*
X7136028Y7262926D01*
G37*
G36*
X7233920Y7259726D02*
G01*
X7240371Y7262926D01*
X7251750Y7270496D01*
X7262012Y7279487D01*
X7271003Y7289749D01*
X7278573Y7301128D01*
X7281773Y7307580D01*
X7233920Y7307580D01*
G37*
G36*
X7094626Y7399020D02*
G01*
X7142480Y7399020D01*
X7142480Y7446873D01*
X7136028Y7443673D01*
X7124649Y7436103D01*
X7114387Y7427112D01*
X7105396Y7416850D01*
X7097826Y7405471D01*
G37*
G36*
X7233920Y7399020D02*
G01*
X7281773Y7399020D01*
X7278573Y7405471D01*
X7271003Y7416850D01*
X7262012Y7427112D01*
X7251750Y7436103D01*
X7240371Y7443673D01*
X7233920Y7446873D01*
G37*
G36*
X4585208Y4381246D02*
G01*
X7276592Y4381246D01*
X7284567Y4382008D01*
X7291781Y4384192D01*
X7298385Y4387748D01*
X7304582Y4392828D01*
X7608671Y4696917D01*
X7613751Y4703114D01*
X7617307Y4709718D01*
X7619492Y4716932D01*
X7620253Y4724908D01*
X7620253Y6730492D01*
X7619492Y6738467D01*
X7617307Y6745681D01*
X7613751Y6752285D01*
X7608671Y6758482D01*
X7293813Y7073341D01*
X7291882Y7075982D01*
X7290917Y7079183D01*
X7291019Y7082485D01*
X7291679Y7085685D01*
X7292594Y7099300D01*
X7291679Y7112914D01*
X7289038Y7126325D01*
X7284618Y7139228D01*
X7278573Y7151471D01*
X7271003Y7162850D01*
X7262012Y7173112D01*
X7251750Y7182103D01*
X7240371Y7189673D01*
X7228128Y7195718D01*
X7215225Y7200138D01*
X7201814Y7202779D01*
X7188200Y7203694D01*
X7174585Y7202779D01*
X7161174Y7200138D01*
X7148271Y7195718D01*
X7136028Y7189673D01*
X7124649Y7182103D01*
X7114387Y7173112D01*
X7105396Y7162850D01*
X7097826Y7151471D01*
X7091781Y7139228D01*
X7087362Y7126325D01*
X7084720Y7112914D01*
X7083806Y7099300D01*
X7084720Y7085685D01*
X7087362Y7072274D01*
X7091781Y7059371D01*
X7097826Y7047128D01*
X7105396Y7035749D01*
X7114387Y7025487D01*
X7124649Y7016496D01*
X7136028Y7008926D01*
X7148271Y7002881D01*
X7161174Y6998462D01*
X7174585Y6995820D01*
X7188200Y6994906D01*
X7201814Y6995820D01*
X7215225Y6998462D01*
X7228128Y7002881D01*
X7240117Y7008774D01*
X7244181Y7009841D01*
X7248296Y7009130D01*
X7251801Y7006844D01*
X7540548Y6718096D01*
X7542784Y6714794D01*
X7543546Y6710883D01*
X7543546Y4744516D01*
X7542784Y4740605D01*
X7540548Y4737303D01*
X7264196Y4460951D01*
X7260894Y4458716D01*
X7256983Y4457954D01*
X4604816Y4457954D01*
X4600905Y4458716D01*
X4597603Y4460951D01*
X4118051Y4940503D01*
X4115815Y4943805D01*
X4115054Y4947716D01*
X4115054Y5295392D01*
X4114292Y5303367D01*
X4112107Y5310581D01*
X4108551Y5317185D01*
X4103471Y5323382D01*
X4098086Y5328767D01*
X4096054Y5331663D01*
X4095140Y5335117D01*
X4094378Y5343550D01*
X4091990Y5352846D01*
X4088028Y5361635D01*
X4082643Y5369560D01*
X4075988Y5376519D01*
X4068267Y5382209D01*
X4059732Y5386527D01*
X4050537Y5389372D01*
X4040987Y5390591D01*
X4031386Y5390134D01*
X4022039Y5388152D01*
X4013098Y5384546D01*
X4004919Y5379516D01*
X3997706Y5373166D01*
X3991711Y5365699D01*
X3986987Y5357317D01*
X3983786Y5348274D01*
X3982161Y5338826D01*
X3982161Y5329174D01*
X3983786Y5319725D01*
X3986987Y5310682D01*
X3991711Y5302300D01*
X3997706Y5294833D01*
X4004919Y5288483D01*
X4013098Y5283454D01*
X4022039Y5279847D01*
X4030319Y5278069D01*
X4033520Y5276799D01*
X4036110Y5274513D01*
X4037787Y5271516D01*
X4038346Y5268163D01*
X4038346Y4928108D01*
X4039108Y4920132D01*
X4041292Y4912918D01*
X4044848Y4906314D01*
X4049928Y4900117D01*
X4557217Y4392828D01*
X4563414Y4387748D01*
X4570018Y4384192D01*
X4577232Y4382008D01*
G37*

%LPD*%
D11*
X7099300Y5105400D02*
G01*
X7429500Y5435600D01*
X7429500Y6362700D01*
X7200900Y6591300D01*
X7188200Y6591300D01*
X5626100Y7073900D02*
G01*
X6337300Y6362700D01*
X6337300Y5105400D01*
X4284979Y6615429D02*
G01*
X3548379Y6615429D01*
X4856479Y6539229D02*
G01*
X5821679Y5574029D01*
X5821679Y5091429D01*
D12*
X5466079Y7288529D02*
G01*
X5986779Y7809229D01*
X6558279Y7809229D01*
X6736079Y7631429D01*
X6736079Y7326629D01*
X6532879Y7123429D01*
X6482079Y7123429D01*
X3548379Y6615429D02*
G01*
X3599179Y6564629D01*
X3599179Y5777229D01*
X5626100Y7073900D02*
G01*
X6184900Y7632700D01*
X6553200Y7632700D01*
D10*
X4330700Y6248400D02*
G01*
X4635500Y6553200D01*
X4635500Y6743700D01*
X5257800Y5854700D02*
G01*
X5257800Y5257800D01*
X3136900Y6235700D02*
G01*
X3263900Y6108700D01*
X3492500Y6108700D01*
X5181600Y4889500D02*
G01*
X5867400Y4889500D01*
X6083300Y5105400D01*
X7188200Y7099300D02*
G01*
X7213600Y7099300D01*
X7581900Y6731000D01*
X7581900Y4724400D01*
X7277100Y4419600D01*
X4584700Y4419600D01*
X4076700Y4927600D01*
X4076700Y5295900D01*
X4038600Y5334000D01*
X6705600Y6705600D02*
G01*
X6705600Y6692900D01*
X7023100Y6375400D01*
X3181350Y6337300D02*
G01*
X3181350Y6451600D01*
X3702050Y6972300D01*
X5575300Y6972300D01*
X5600700Y6946900D01*
D23*
G01*
X2694152Y4815789D03*
G01*
X3296056Y4815789D03*
D24*
G01*
X7099300Y5105400D03*
G01*
X6845300Y5105400D03*
G01*
X6337300Y5105400D03*
G01*
X5829300Y5105400D03*
G01*
X6083300Y5105400D03*
D25*
G01*
X7188200Y7607300D03*
G01*
X7188200Y7353300D03*
G01*
X7188200Y7099300D03*
G01*
X7188200Y6845300D03*
D26*
G01*
X7188200Y6591300D03*
D16*
G01*
X3548379Y6615429D03*
G01*
X3599179Y5777229D03*
G01*
X3136900Y6235700D03*
G01*
X3492500Y6108700D03*
G01*
X5181600Y4889500D03*
D17*
G01*
X5257800Y5257800D03*
G01*
X4856479Y6539229D03*
G01*
X4284979Y6615429D03*
G01*
X5257800Y5854700D03*
G01*
X4330700Y6248400D03*
G01*
X4635500Y6743700D03*
G01*
X4038600Y5334000D03*
G01*
X5626100Y7073900D03*
G01*
X6553200Y7632700D03*
G01*
X3181350Y6337300D03*
G01*
X5600700Y6946900D03*
G01*
X5466079Y7288529D03*
G01*
X6482079Y7123429D03*
G01*
X6482079Y7123429D03*
G01*
X6705600Y6705600D03*
G01*
X7023100Y6375400D03*
D27*
X3356848Y4573270D02*
G01*
X3446846Y4573270D01*
X2847375Y5053329D02*
G01*
X2937372Y5053329D01*
X2650728Y4573574D02*
G01*
X2740728Y4573574D01*
M02*
