M48
METRIC,LZ,000.000
;FILE_FORMAT=3:3
;TYPE=PLATED
;Layer: Drill PTH
;EasyEDA v6.4.17, 2021-03-05T15:54:57+08:00
;7810626ff2e9405a9b1361f117870e28,a0ab3b0d74464cd6b67425ecbf828b8b,10
;Gerber Generator version 0.2
;Holesize 1 = 0.305 mm
T01C0.305
;Holesize 2 = 0.306 mm
T02C0.306
;Holesize 3 = 0.600 mm
T03C0.600
;Holesize 4 = 0.889 mm
T04C0.889
;Holesize 5 = 1.200 mm
T05C1.200
%
G05
G90
T01
X052578Y052578
X048565Y065392
X042850Y066154
X052578Y058547
X043307Y062484
X046355Y067437
X040386Y053340
X056261Y070739
X065532Y076327
X031814Y063373
X056007Y069469
X054661Y072885
X064821Y071234
X064821Y071234
X067056Y067056
X070231Y063754
T02
X035484Y066154
X035992Y057772
X031369Y062357
X034925Y061087
X051816Y048895
T03
X033718Y045733G85X034318Y045733
X028624Y050533G85X029224Y050533
X026657Y045736G85X027257Y045736
T04
X071882Y076073
X071882Y073533
X071882Y070993
X071882Y068453
X071882Y065913
T05
X026942Y048158
X032961Y048158
X070993Y051054
X068453Y051054
X063373Y051054
X058293Y051054
X060833Y051054
M30
