G04 Layer: TopLayer*
G04 EasyEDA v6.4.17, 2021-03-05T15:54:57+08:00*
G04 7810626ff2e9405a9b1361f117870e28,a0ab3b0d74464cd6b67425ecbf828b8b,10*
G04 Gerber Generator version 0.2*
G04 Scale: 100 percent, Rotated: No, Reflected: No *
G04 Dimensions in millimeters *
G04 leading zeros omitted , absolute positions ,4 integer and 5 decimal *
%FSLAX45Y45*%
%MOMM*%

%ADD10C,0.2540*%
%ADD11C,0.8000*%
%ADD12C,0.5000*%
%ADD13C,0.6300*%
%ADD14C,0.5880*%
%ADD15C,0.5684*%
%ADD16C,0.6100*%
%ADD17C,0.6200*%
%ADD18R,1.8161X1.3589*%
%ADD19R,1.2000X1.9000*%
%ADD20R,1.9000X1.2000*%
%ADD21R,1.2000X1.2000*%
%ADD22R,1.5000X1.6000*%
%ADD23C,1.2000*%
%ADD24C,1.8000*%
%ADD25C,1.5748*%
%ADD26R,1.5748X1.5748*%
%ADD27C,0.9000*%

%LPD*%
G36*
X2067814Y4216654D02*
G01*
X2063902Y4217416D01*
X2060651Y4219651D01*
X2058416Y4222902D01*
X2057654Y4226814D01*
X2057654Y8155686D01*
X2058416Y8159597D01*
X2060651Y8162848D01*
X2063902Y8165084D01*
X2067814Y8165846D01*
X7673086Y8165846D01*
X7676997Y8165084D01*
X7680248Y8162848D01*
X7682484Y8159597D01*
X7683246Y8155686D01*
X7683246Y4226814D01*
X7682484Y4222902D01*
X7680248Y4219651D01*
X7676997Y4217416D01*
X7673086Y4216654D01*
G37*

%LPC*%
G36*
X6038342Y7800848D02*
G01*
X6087668Y7800848D01*
X6087668Y7841437D01*
X6086957Y7847685D01*
X6085078Y7853121D01*
X6082030Y7857947D01*
X6077966Y7862011D01*
X6073089Y7865059D01*
X6067704Y7866938D01*
X6061456Y7867650D01*
X6038342Y7867650D01*
G37*
G36*
X5916371Y7800848D02*
G01*
X5965647Y7800848D01*
X5965647Y7867650D01*
X5942584Y7867650D01*
X5936335Y7866938D01*
X5930900Y7865059D01*
X5926074Y7862011D01*
X5922010Y7857947D01*
X5918962Y7853121D01*
X5917031Y7847685D01*
X5916371Y7841437D01*
G37*
G36*
X5942584Y7626350D02*
G01*
X5965647Y7626350D01*
X5965647Y7693152D01*
X5916371Y7693152D01*
X5916371Y7652562D01*
X5917031Y7646314D01*
X5918962Y7640878D01*
X5922010Y7636052D01*
X5926074Y7631988D01*
X5930900Y7628940D01*
X5936335Y7627061D01*
G37*
G36*
X6038342Y7626350D02*
G01*
X6061456Y7626350D01*
X6067704Y7627061D01*
X6073089Y7628940D01*
X6077966Y7631988D01*
X6082030Y7636052D01*
X6085078Y7640878D01*
X6086957Y7646314D01*
X6087668Y7652562D01*
X6087668Y7693152D01*
X6038342Y7693152D01*
G37*
G36*
X7233920Y7399020D02*
G01*
X7281773Y7399020D01*
X7278573Y7405471D01*
X7271003Y7416850D01*
X7262012Y7427112D01*
X7251750Y7436103D01*
X7240371Y7443673D01*
X7233920Y7446873D01*
G37*
G36*
X7094626Y7399020D02*
G01*
X7142480Y7399020D01*
X7142480Y7446873D01*
X7136028Y7443673D01*
X7124649Y7436103D01*
X7114387Y7427112D01*
X7105396Y7416850D01*
X7097826Y7405471D01*
G37*
G36*
X7044639Y4552035D02*
G01*
X7225080Y4552035D01*
X7231380Y4552746D01*
X7236764Y4554677D01*
X7241641Y4557725D01*
X7245654Y4561738D01*
X7248702Y4566615D01*
X7250633Y4572000D01*
X7251344Y4578299D01*
X7251344Y4713020D01*
X7250633Y4719320D01*
X7248702Y4724704D01*
X7245654Y4729581D01*
X7241641Y4733594D01*
X7236764Y4736642D01*
X7231380Y4738573D01*
X7225080Y4739233D01*
X7210653Y4739233D01*
X7206792Y4740046D01*
X7203490Y4742230D01*
X7201306Y4745532D01*
X7200493Y4749393D01*
X7200493Y5047183D01*
X7201458Y5051501D01*
X7206792Y5062829D01*
X7211314Y5076647D01*
X7214006Y5090922D01*
X7214920Y5105400D01*
X7214006Y5119878D01*
X7211314Y5134152D01*
X7206792Y5147970D01*
X7200646Y5161127D01*
X7192873Y5173370D01*
X7183577Y5184546D01*
X7173010Y5194503D01*
X7161275Y5203037D01*
X7148525Y5210048D01*
X7135012Y5215382D01*
X7120991Y5218988D01*
X7106564Y5220817D01*
X7092035Y5220817D01*
X7077608Y5218988D01*
X7063587Y5215382D01*
X7050074Y5210048D01*
X7037324Y5203037D01*
X7025589Y5194503D01*
X7015022Y5184546D01*
X7005726Y5173370D01*
X6997953Y5161127D01*
X6991807Y5147970D01*
X6987286Y5134152D01*
X6984593Y5119878D01*
X6983679Y5105400D01*
X6984593Y5090922D01*
X6987286Y5076647D01*
X6991807Y5062829D01*
X6997953Y5049672D01*
X7005726Y5037429D01*
X7015022Y5026253D01*
X7025589Y5016296D01*
X7037324Y5007762D01*
X7050074Y5000752D01*
X7062774Y4995722D01*
X7066178Y4993538D01*
X7068413Y4990236D01*
X7069226Y4986274D01*
X7069226Y4749393D01*
X7068413Y4745532D01*
X7066229Y4742230D01*
X7062927Y4740046D01*
X7059066Y4739233D01*
X7044639Y4739233D01*
X7038340Y4738573D01*
X7032955Y4736642D01*
X7028078Y4733594D01*
X7024065Y4729581D01*
X7021017Y4724704D01*
X7019086Y4719320D01*
X7018426Y4713020D01*
X7018426Y4578299D01*
X7019086Y4572000D01*
X7021017Y4566615D01*
X7024065Y4561738D01*
X7028078Y4557725D01*
X7032955Y4554677D01*
X7038340Y4552746D01*
G37*
G36*
X6716979Y4552035D02*
G01*
X6897420Y4552035D01*
X6903720Y4552746D01*
X6909104Y4554677D01*
X6913981Y4557725D01*
X6917994Y4561738D01*
X6921042Y4566615D01*
X6922973Y4572000D01*
X6923684Y4578299D01*
X6923684Y4713020D01*
X6922973Y4719320D01*
X6921042Y4724704D01*
X6917994Y4729581D01*
X6913981Y4733594D01*
X6909104Y4736642D01*
X6903720Y4738573D01*
X6897420Y4739233D01*
X6855714Y4739233D01*
X6851802Y4740046D01*
X6848551Y4742230D01*
X6846316Y4745532D01*
X6845553Y4749393D01*
X6845553Y4980127D01*
X6846214Y4983734D01*
X6848094Y4986883D01*
X6850938Y4989118D01*
X6854444Y4990236D01*
X6866991Y4991811D01*
X6881012Y4995418D01*
X6894525Y5000752D01*
X6907275Y5007762D01*
X6919010Y5016296D01*
X6929577Y5026253D01*
X6938873Y5037429D01*
X6946646Y5049672D01*
X6952792Y5062829D01*
X6957314Y5076647D01*
X6960006Y5090922D01*
X6960920Y5105400D01*
X6960006Y5119878D01*
X6957314Y5134152D01*
X6952792Y5147970D01*
X6946646Y5161127D01*
X6938873Y5173370D01*
X6929577Y5184546D01*
X6919010Y5194503D01*
X6907275Y5203037D01*
X6894525Y5210048D01*
X6881012Y5215382D01*
X6866991Y5218988D01*
X6852564Y5220817D01*
X6838035Y5220817D01*
X6823608Y5218988D01*
X6809587Y5215382D01*
X6796074Y5210048D01*
X6783324Y5203037D01*
X6771589Y5194503D01*
X6761022Y5184546D01*
X6751726Y5173370D01*
X6743953Y5161127D01*
X6737807Y5147970D01*
X6733286Y5134152D01*
X6730593Y5119878D01*
X6729679Y5105400D01*
X6730593Y5090922D01*
X6733286Y5076647D01*
X6737807Y5062829D01*
X6743953Y5049672D01*
X6751726Y5037429D01*
X6761022Y5026253D01*
X6765645Y5021884D01*
X6768033Y5018532D01*
X6768846Y5014468D01*
X6768846Y4749393D01*
X6768084Y4745532D01*
X6765848Y4742230D01*
X6762597Y4740046D01*
X6758686Y4739233D01*
X6716979Y4739233D01*
X6710680Y4738573D01*
X6705295Y4736642D01*
X6700418Y4733594D01*
X6696405Y4729581D01*
X6693357Y4724704D01*
X6691426Y4719320D01*
X6690766Y4713020D01*
X6690766Y4578299D01*
X6691426Y4572000D01*
X6693357Y4566615D01*
X6696405Y4561738D01*
X6700418Y4557725D01*
X6705295Y4554677D01*
X6710680Y4552746D01*
G37*
G36*
X5779719Y4557115D02*
G01*
X5960160Y4557115D01*
X5966460Y4557826D01*
X5971844Y4559757D01*
X5976721Y4562805D01*
X5980734Y4566818D01*
X5983782Y4571695D01*
X5985713Y4577080D01*
X5986424Y4583379D01*
X5986424Y4718100D01*
X5985713Y4724400D01*
X5983782Y4729784D01*
X5980734Y4734661D01*
X5976721Y4738674D01*
X5971844Y4741722D01*
X5966460Y4743653D01*
X5960160Y4744313D01*
X5897473Y4744313D01*
X5893612Y4745126D01*
X5890310Y4747310D01*
X5888126Y4750612D01*
X5887313Y4754473D01*
X5887313Y4999736D01*
X5887821Y5002885D01*
X5889294Y5005730D01*
X5891530Y5007965D01*
X5903010Y5016296D01*
X5913577Y5026253D01*
X5922873Y5037429D01*
X5930646Y5049672D01*
X5936792Y5062829D01*
X5941314Y5076647D01*
X5944006Y5090922D01*
X5944920Y5105400D01*
X5944006Y5119878D01*
X5941314Y5134152D01*
X5936792Y5147970D01*
X5930646Y5161127D01*
X5922873Y5173370D01*
X5913577Y5184546D01*
X5903010Y5194503D01*
X5891276Y5203037D01*
X5878525Y5210048D01*
X5865012Y5215382D01*
X5850991Y5218988D01*
X5836564Y5220817D01*
X5822035Y5220817D01*
X5807608Y5218988D01*
X5793587Y5215382D01*
X5780074Y5210048D01*
X5767324Y5203037D01*
X5755589Y5194503D01*
X5745022Y5184546D01*
X5735726Y5173370D01*
X5727954Y5161127D01*
X5721807Y5147970D01*
X5717286Y5134152D01*
X5714593Y5119878D01*
X5713679Y5105400D01*
X5714593Y5090922D01*
X5717286Y5076647D01*
X5721807Y5062829D01*
X5727954Y5049672D01*
X5735726Y5037429D01*
X5745022Y5026253D01*
X5752846Y5018887D01*
X5755182Y5015534D01*
X5756046Y5011521D01*
X5756046Y4731359D01*
X5755436Y4728006D01*
X5754166Y4724400D01*
X5753506Y4718100D01*
X5753506Y4583379D01*
X5754166Y4577080D01*
X5756097Y4571695D01*
X5759145Y4566818D01*
X5763158Y4562805D01*
X5768035Y4559757D01*
X5773420Y4557826D01*
G37*
G36*
X4725619Y4557115D02*
G01*
X4906060Y4557115D01*
X4912360Y4557826D01*
X4917744Y4559757D01*
X4922621Y4562805D01*
X4926634Y4566818D01*
X4929682Y4571695D01*
X4931613Y4577080D01*
X4932324Y4583379D01*
X4932324Y4708753D01*
X4933086Y4712614D01*
X4935270Y4715916D01*
X5067503Y4848148D01*
X5070805Y4850384D01*
X5074716Y4851146D01*
X5136692Y4851146D01*
X5140553Y4850384D01*
X5143855Y4848148D01*
X5145532Y4846523D01*
X5153558Y4840884D01*
X5162397Y4836769D01*
X5171846Y4834229D01*
X5181600Y4833366D01*
X5191353Y4834229D01*
X5200802Y4836769D01*
X5209641Y4840884D01*
X5217668Y4846523D01*
X5224576Y4853432D01*
X5230215Y4861458D01*
X5234330Y4870297D01*
X5236870Y4879746D01*
X5237734Y4889500D01*
X5236870Y4899253D01*
X5234330Y4908702D01*
X5230215Y4917541D01*
X5224576Y4925568D01*
X5217668Y4932476D01*
X5209641Y4938115D01*
X5200802Y4942230D01*
X5191353Y4944770D01*
X5181600Y4945634D01*
X5171846Y4944770D01*
X5162397Y4942230D01*
X5153558Y4938115D01*
X5145532Y4932476D01*
X5143855Y4930851D01*
X5140553Y4928616D01*
X5136692Y4927854D01*
X5055108Y4927854D01*
X5047132Y4927092D01*
X5039918Y4924907D01*
X5033314Y4921351D01*
X5027117Y4916271D01*
X4858156Y4747310D01*
X4854854Y4745126D01*
X4850993Y4744313D01*
X4725619Y4744313D01*
X4719320Y4743653D01*
X4713935Y4741722D01*
X4709058Y4738674D01*
X4705045Y4734661D01*
X4701997Y4729784D01*
X4700066Y4724400D01*
X4699406Y4718100D01*
X4699406Y4583379D01*
X4700066Y4577080D01*
X4701997Y4571695D01*
X4705045Y4566818D01*
X4709058Y4562805D01*
X4713935Y4559757D01*
X4719320Y4557826D01*
G37*
G36*
X6038342Y7330948D02*
G01*
X6087668Y7330948D01*
X6087668Y7371537D01*
X6086957Y7377785D01*
X6085078Y7383221D01*
X6081979Y7388047D01*
X6077966Y7392111D01*
X6073089Y7395159D01*
X6067704Y7397038D01*
X6061405Y7397750D01*
X6038342Y7397750D01*
G37*
G36*
X5916320Y7330948D02*
G01*
X5965647Y7330948D01*
X5965647Y7397750D01*
X5942584Y7397750D01*
X5936284Y7397038D01*
X5930900Y7395159D01*
X5926023Y7392111D01*
X5922010Y7388047D01*
X5918962Y7383221D01*
X5917031Y7377785D01*
X5916320Y7371537D01*
G37*
G36*
X7142480Y7259726D02*
G01*
X7142480Y7307580D01*
X7094626Y7307580D01*
X7097826Y7301128D01*
X7105396Y7289749D01*
X7114387Y7279487D01*
X7124649Y7270496D01*
X7136028Y7262926D01*
G37*
G36*
X7233920Y7259726D02*
G01*
X7240371Y7262926D01*
X7251750Y7270496D01*
X7262012Y7279487D01*
X7271003Y7289749D01*
X7278573Y7301128D01*
X7281773Y7307580D01*
X7233920Y7307580D01*
G37*
G36*
X5942584Y7156450D02*
G01*
X5965647Y7156450D01*
X5965647Y7223252D01*
X5916320Y7223252D01*
X5916320Y7182662D01*
X5917031Y7176414D01*
X5918962Y7170978D01*
X5922010Y7166152D01*
X5926023Y7162088D01*
X5930900Y7159040D01*
X5936284Y7157161D01*
G37*
G36*
X3953052Y4946650D02*
G01*
X3976115Y4946650D01*
X3982415Y4947361D01*
X3987800Y4949240D01*
X3992676Y4952288D01*
X3996690Y4956352D01*
X3999737Y4961178D01*
X4001668Y4966614D01*
X4002379Y4972862D01*
X4002379Y5013452D01*
X3953052Y5013452D01*
G37*
G36*
X3857294Y4946650D02*
G01*
X3880358Y4946650D01*
X3880358Y5013452D01*
X3831031Y5013452D01*
X3831031Y4972862D01*
X3831742Y4966614D01*
X3833622Y4961178D01*
X3836720Y4956352D01*
X3840734Y4952288D01*
X3845610Y4949240D01*
X3850995Y4947361D01*
G37*
G36*
X4177284Y4946650D02*
G01*
X4296156Y4946650D01*
X4302404Y4947361D01*
X4307789Y4949240D01*
X4312666Y4952288D01*
X4316730Y4956352D01*
X4319778Y4961178D01*
X4321657Y4966614D01*
X4322368Y4972862D01*
X4322368Y5161737D01*
X4321657Y5167985D01*
X4319778Y5173421D01*
X4316730Y5178247D01*
X4312666Y5182311D01*
X4307789Y5185359D01*
X4302404Y5187238D01*
X4296156Y5187950D01*
X4285234Y5187950D01*
X4281322Y5188712D01*
X4278020Y5190947D01*
X4275836Y5194249D01*
X4275074Y5198110D01*
X4275074Y5444642D01*
X4275734Y5448249D01*
X4277614Y5451398D01*
X4280560Y5453634D01*
X4284065Y5454700D01*
X4289704Y5455361D01*
X4295089Y5457240D01*
X4299966Y5460288D01*
X4304030Y5464352D01*
X4307078Y5469178D01*
X4308957Y5474614D01*
X4309668Y5480862D01*
X4309668Y5552186D01*
X4310430Y5556097D01*
X4312615Y5559348D01*
X4315917Y5561584D01*
X4319828Y5562346D01*
X4646371Y5562346D01*
X4650282Y5561584D01*
X4653584Y5559348D01*
X4655769Y5556097D01*
X4656531Y5552186D01*
X4656531Y5506262D01*
X4657242Y5500014D01*
X4659122Y5494578D01*
X4662170Y5489752D01*
X4666234Y5485688D01*
X4671110Y5482640D01*
X4676495Y5480761D01*
X4682744Y5480050D01*
X4801616Y5480050D01*
X4807864Y5480761D01*
X4813300Y5482640D01*
X4818126Y5485688D01*
X4822190Y5489752D01*
X4825238Y5494578D01*
X4827117Y5500014D01*
X4827828Y5506262D01*
X4827828Y5695137D01*
X4827117Y5701385D01*
X4825238Y5706821D01*
X4822190Y5711647D01*
X4818126Y5715711D01*
X4813300Y5718759D01*
X4807864Y5720638D01*
X4801616Y5721350D01*
X4682744Y5721350D01*
X4676495Y5720638D01*
X4671110Y5718759D01*
X4666234Y5715711D01*
X4662170Y5711647D01*
X4659122Y5706821D01*
X4657242Y5701385D01*
X4656531Y5695137D01*
X4656531Y5649214D01*
X4655769Y5645302D01*
X4653584Y5642051D01*
X4650282Y5639816D01*
X4646371Y5639054D01*
X4319828Y5639054D01*
X4315917Y5639816D01*
X4312615Y5642051D01*
X4310430Y5645302D01*
X4309668Y5649214D01*
X4309668Y5669737D01*
X4308957Y5675985D01*
X4307078Y5681421D01*
X4304030Y5686247D01*
X4299966Y5690311D01*
X4295089Y5693359D01*
X4289704Y5695238D01*
X4283456Y5695950D01*
X4164584Y5695950D01*
X4158335Y5695238D01*
X4152900Y5693359D01*
X4148074Y5690311D01*
X4144010Y5686247D01*
X4140962Y5681421D01*
X4139031Y5675985D01*
X4138371Y5669737D01*
X4138371Y5480862D01*
X4139031Y5474614D01*
X4140962Y5469178D01*
X4144010Y5464352D01*
X4148074Y5460288D01*
X4152900Y5457240D01*
X4158335Y5455361D01*
X4164584Y5454650D01*
X4188206Y5454650D01*
X4192066Y5453888D01*
X4195368Y5451652D01*
X4197553Y5448350D01*
X4198315Y5444490D01*
X4198315Y5198110D01*
X4197553Y5194249D01*
X4195368Y5190947D01*
X4192066Y5188712D01*
X4188206Y5187950D01*
X4177284Y5187950D01*
X4171035Y5187238D01*
X4165600Y5185359D01*
X4160774Y5182311D01*
X4156710Y5178247D01*
X4153662Y5173421D01*
X4151782Y5167985D01*
X4151071Y5161737D01*
X4151071Y4972862D01*
X4151782Y4966614D01*
X4153662Y4961178D01*
X4156710Y4956352D01*
X4160774Y4952288D01*
X4165600Y4949240D01*
X4171035Y4947361D01*
G37*
G36*
X6038342Y7156450D02*
G01*
X6061405Y7156450D01*
X6067704Y7157161D01*
X6073089Y7159040D01*
X6077966Y7162088D01*
X6081979Y7166152D01*
X6085078Y7170978D01*
X6086957Y7176414D01*
X6087668Y7182662D01*
X6087668Y7223252D01*
X6038342Y7223252D01*
G37*
G36*
X5002784Y4997450D02*
G01*
X5121656Y4997450D01*
X5127904Y4998161D01*
X5133289Y5000040D01*
X5138166Y5003088D01*
X5142230Y5007152D01*
X5145278Y5011978D01*
X5147157Y5017414D01*
X5147868Y5023662D01*
X5147868Y5089398D01*
X5148630Y5093309D01*
X5150815Y5096611D01*
X5252516Y5198262D01*
X5256022Y5200548D01*
X5269738Y5202428D01*
X5278932Y5205272D01*
X5287467Y5209590D01*
X5295188Y5215280D01*
X5301843Y5222240D01*
X5307228Y5230164D01*
X5311190Y5238953D01*
X5313578Y5248249D01*
X5314442Y5257800D01*
X5313578Y5267350D01*
X5311190Y5276646D01*
X5307228Y5285435D01*
X5301843Y5293360D01*
X5295188Y5300319D01*
X5287467Y5306009D01*
X5278932Y5310327D01*
X5269738Y5313172D01*
X5260187Y5314391D01*
X5250586Y5313934D01*
X5241239Y5311952D01*
X5232298Y5308346D01*
X5224119Y5303316D01*
X5216906Y5296966D01*
X5210911Y5289499D01*
X5206187Y5281117D01*
X5202986Y5272074D01*
X5201361Y5262626D01*
X5201361Y5259832D01*
X5200599Y5255971D01*
X5198414Y5252669D01*
X5163108Y5217312D01*
X5159705Y5215077D01*
X5155692Y5214366D01*
X5151729Y5215280D01*
X5148427Y5217668D01*
X5146344Y5221173D01*
X5145278Y5224221D01*
X5142230Y5229047D01*
X5138166Y5233111D01*
X5133289Y5236159D01*
X5127904Y5238038D01*
X5121656Y5238750D01*
X5002784Y5238750D01*
X4996535Y5238038D01*
X4991100Y5236159D01*
X4986274Y5233111D01*
X4982210Y5229047D01*
X4979162Y5224221D01*
X4977231Y5218785D01*
X4976571Y5212537D01*
X4976571Y5023662D01*
X4977231Y5017414D01*
X4979162Y5011978D01*
X4982210Y5007152D01*
X4986274Y5003088D01*
X4991100Y5000040D01*
X4996535Y4998161D01*
G37*
G36*
X4682794Y4997450D02*
G01*
X4801616Y4997450D01*
X4807915Y4998161D01*
X4813300Y5000040D01*
X4818176Y5003088D01*
X4822190Y5007152D01*
X4825238Y5011978D01*
X4827168Y5017414D01*
X4827879Y5023662D01*
X4827879Y5212537D01*
X4827168Y5218785D01*
X4825238Y5224221D01*
X4822190Y5229047D01*
X4818176Y5233111D01*
X4813300Y5236159D01*
X4807915Y5238038D01*
X4801616Y5238750D01*
X4790744Y5238750D01*
X4786833Y5239512D01*
X4783531Y5241747D01*
X4781346Y5245049D01*
X4780584Y5248910D01*
X4780584Y5260594D01*
X4781346Y5264505D01*
X4783531Y5267807D01*
X4993030Y5477306D01*
X4995468Y5479084D01*
X4998313Y5480100D01*
X5121605Y5480050D01*
X5127904Y5480761D01*
X5133289Y5482640D01*
X5138166Y5485688D01*
X5142179Y5489752D01*
X5145278Y5494578D01*
X5147157Y5500014D01*
X5147868Y5506262D01*
X5147868Y5627878D01*
X5148630Y5631789D01*
X5150815Y5635040D01*
X5227523Y5711748D01*
X5230825Y5713984D01*
X5234736Y5714746D01*
X6197092Y5714746D01*
X6205067Y5715508D01*
X6212281Y5717692D01*
X6218885Y5721248D01*
X6225082Y5726328D01*
X6351371Y5852617D01*
X6356451Y5858814D01*
X6360007Y5865418D01*
X6362192Y5872632D01*
X6362954Y5880608D01*
X6362954Y6405372D01*
X6362192Y6413347D01*
X6360007Y6420561D01*
X6356451Y6427165D01*
X6351371Y6433362D01*
X6346393Y6438290D01*
X6344615Y6440728D01*
X6343599Y6443624D01*
X6343650Y6566916D01*
X6342938Y6573164D01*
X6341059Y6578600D01*
X6338011Y6583425D01*
X6333947Y6587490D01*
X6329121Y6590538D01*
X6323685Y6592417D01*
X6317437Y6593128D01*
X6128562Y6593128D01*
X6122314Y6592417D01*
X6116878Y6590538D01*
X6112052Y6587490D01*
X6107988Y6583425D01*
X6104940Y6578600D01*
X6103061Y6573164D01*
X6102350Y6566916D01*
X6102350Y6448044D01*
X6103061Y6441795D01*
X6104940Y6436410D01*
X6107988Y6431534D01*
X6112052Y6427470D01*
X6116878Y6424422D01*
X6122314Y6422542D01*
X6128562Y6421831D01*
X6250178Y6421831D01*
X6254089Y6421069D01*
X6257391Y6418884D01*
X6283248Y6392976D01*
X6285484Y6389674D01*
X6286246Y6385763D01*
X6286246Y5900216D01*
X6285484Y5896305D01*
X6283248Y5893003D01*
X6184696Y5794451D01*
X6181394Y5792216D01*
X6177483Y5791454D01*
X5297982Y5791454D01*
X5293868Y5792317D01*
X5290464Y5794806D01*
X5288330Y5798413D01*
X5287873Y5802630D01*
X5289143Y5806643D01*
X5291937Y5809792D01*
X5295188Y5812180D01*
X5301843Y5819140D01*
X5307228Y5827064D01*
X5311190Y5835853D01*
X5313578Y5845149D01*
X5314442Y5854700D01*
X5313578Y5864250D01*
X5311190Y5873546D01*
X5307228Y5882335D01*
X5301843Y5890260D01*
X5295188Y5897219D01*
X5287467Y5902909D01*
X5278932Y5907227D01*
X5269738Y5910072D01*
X5260136Y5911240D01*
X5256022Y5911951D01*
X5252516Y5914237D01*
X5177231Y5989523D01*
X5175046Y5992774D01*
X5174284Y5996686D01*
X5175046Y6000597D01*
X5177231Y6003848D01*
X5180533Y6006084D01*
X5184444Y6006846D01*
X5344871Y6006846D01*
X5348782Y6006084D01*
X5352084Y6003848D01*
X5354269Y6000597D01*
X5355031Y5996686D01*
X5355031Y5938062D01*
X5355742Y5931814D01*
X5357622Y5926378D01*
X5360670Y5921552D01*
X5364734Y5917488D01*
X5369610Y5914440D01*
X5374995Y5912561D01*
X5381244Y5911850D01*
X5500116Y5911850D01*
X5506364Y5912561D01*
X5511800Y5914440D01*
X5516626Y5917488D01*
X5520690Y5921552D01*
X5523738Y5926378D01*
X5525617Y5931814D01*
X5526328Y5938062D01*
X5526328Y6126937D01*
X5525617Y6133185D01*
X5523738Y6138621D01*
X5520690Y6143447D01*
X5516626Y6147511D01*
X5511800Y6150559D01*
X5506364Y6152438D01*
X5500116Y6153150D01*
X5489244Y6153150D01*
X5485333Y6153912D01*
X5482031Y6156147D01*
X5479846Y6159449D01*
X5479084Y6163310D01*
X5479084Y6632092D01*
X5479796Y6635953D01*
X5481929Y6639204D01*
X5485130Y6641439D01*
X5487974Y6642658D01*
X5495899Y6647840D01*
X5502808Y6654190D01*
X5508599Y6661658D01*
X5513120Y6669938D01*
X5515711Y6677558D01*
X5517794Y6681063D01*
X5521096Y6683502D01*
X5525058Y6684416D01*
X5529122Y6683705D01*
X5532526Y6681470D01*
X5533948Y6679996D01*
X5536184Y6676694D01*
X5536946Y6672783D01*
X5536946Y6218428D01*
X5537708Y6210452D01*
X5539892Y6203238D01*
X5543448Y6196634D01*
X5548528Y6190437D01*
X5672074Y6066891D01*
X5674258Y6063640D01*
X5675020Y6059728D01*
X5675020Y5938062D01*
X5675731Y5931814D01*
X5677662Y5926378D01*
X5680710Y5921552D01*
X5684723Y5917488D01*
X5689600Y5914440D01*
X5694984Y5912561D01*
X5701284Y5911850D01*
X5820105Y5911850D01*
X5826404Y5912561D01*
X5831789Y5914440D01*
X5836666Y5917488D01*
X5840679Y5921552D01*
X5843778Y5926378D01*
X5845657Y5931814D01*
X5846368Y5938062D01*
X5846368Y5983986D01*
X5847130Y5987897D01*
X5849315Y5991148D01*
X5852617Y5993384D01*
X5856528Y5994146D01*
X6081471Y5994146D01*
X6085382Y5993384D01*
X6088684Y5991148D01*
X6090869Y5987897D01*
X6091631Y5983986D01*
X6091631Y5938062D01*
X6092342Y5931814D01*
X6094222Y5926378D01*
X6097270Y5921552D01*
X6101334Y5917488D01*
X6106210Y5914440D01*
X6111595Y5912561D01*
X6117844Y5911850D01*
X6236716Y5911850D01*
X6242964Y5912561D01*
X6248400Y5914440D01*
X6253226Y5917488D01*
X6257290Y5921552D01*
X6260338Y5926378D01*
X6262217Y5931814D01*
X6262928Y5938062D01*
X6262928Y6126937D01*
X6262217Y6133185D01*
X6260338Y6138621D01*
X6257290Y6143447D01*
X6253226Y6147511D01*
X6248400Y6150559D01*
X6242964Y6152438D01*
X6236716Y6153150D01*
X6117844Y6153150D01*
X6111595Y6152438D01*
X6106210Y6150559D01*
X6101334Y6147511D01*
X6097270Y6143447D01*
X6094222Y6138621D01*
X6092342Y6133185D01*
X6091631Y6126937D01*
X6091631Y6081014D01*
X6090869Y6077102D01*
X6088684Y6073851D01*
X6085382Y6071616D01*
X6081471Y6070854D01*
X5856528Y6070854D01*
X5852617Y6071616D01*
X5849315Y6073851D01*
X5847130Y6077102D01*
X5846368Y6081014D01*
X5846368Y6126937D01*
X5845657Y6133185D01*
X5843778Y6138621D01*
X5840679Y6143447D01*
X5836666Y6147511D01*
X5831789Y6150559D01*
X5826404Y6152438D01*
X5820105Y6153150D01*
X5696864Y6153099D01*
X5693968Y6154115D01*
X5691530Y6155893D01*
X5616651Y6230823D01*
X5614416Y6234125D01*
X5613654Y6238036D01*
X5613654Y6690055D01*
X5614416Y6693966D01*
X5616651Y6697268D01*
X5619902Y6699453D01*
X5623814Y6700215D01*
X5627725Y6699453D01*
X5630976Y6697268D01*
X5723077Y6605168D01*
X5725160Y6602171D01*
X5726074Y6598666D01*
X5725668Y6595059D01*
X5723991Y6591808D01*
X5721299Y6589369D01*
X5718352Y6587490D01*
X5714288Y6583476D01*
X5711240Y6578600D01*
X5709361Y6573215D01*
X5708650Y6566916D01*
X5708650Y6448094D01*
X5709361Y6441795D01*
X5711240Y6436410D01*
X5714288Y6431534D01*
X5718352Y6427470D01*
X5723178Y6424422D01*
X5728614Y6422542D01*
X5734862Y6421831D01*
X5923737Y6421831D01*
X5929985Y6422542D01*
X5935421Y6424422D01*
X5940247Y6427470D01*
X5944311Y6431534D01*
X5947359Y6436410D01*
X5949238Y6441795D01*
X5949950Y6448094D01*
X5949950Y6495999D01*
X5950712Y6499910D01*
X5952947Y6503162D01*
X6188608Y6738874D01*
X6191910Y6741058D01*
X6195822Y6741820D01*
X6317437Y6741820D01*
X6323685Y6742531D01*
X6329121Y6744462D01*
X6333947Y6747509D01*
X6338011Y6751523D01*
X6341059Y6756400D01*
X6342938Y6761784D01*
X6343650Y6768084D01*
X6343650Y6886905D01*
X6342938Y6893204D01*
X6341059Y6898589D01*
X6338011Y6903466D01*
X6333947Y6907479D01*
X6329121Y6910527D01*
X6323685Y6912457D01*
X6317437Y6913168D01*
X6128562Y6913168D01*
X6122314Y6912457D01*
X6116878Y6910527D01*
X6112052Y6907479D01*
X6107988Y6903466D01*
X6104940Y6898589D01*
X6103061Y6893204D01*
X6102350Y6886905D01*
X6102400Y6763613D01*
X6101384Y6760768D01*
X6099606Y6758330D01*
X5936792Y6595516D01*
X5934354Y6593738D01*
X5931509Y6592722D01*
X5928461Y6592620D01*
X5923737Y6593128D01*
X5847791Y6593128D01*
X5843930Y6593941D01*
X5840628Y6596125D01*
X5517489Y6919214D01*
X5515406Y6922312D01*
X5514543Y6925970D01*
X5515102Y6929729D01*
X5516168Y6932879D01*
X5517743Y6942175D01*
X5517743Y6951624D01*
X5516168Y6960920D01*
X5513120Y6969861D01*
X5508599Y6978142D01*
X5502808Y6985609D01*
X5495899Y6991959D01*
X5487974Y6997141D01*
X5478932Y7001103D01*
X5475732Y7003338D01*
X5473598Y7006590D01*
X5472887Y7010400D01*
X5473598Y7014209D01*
X5475732Y7017461D01*
X5478932Y7019696D01*
X5485079Y7022388D01*
X5489143Y7023252D01*
X5598871Y7023252D01*
X5602681Y7022490D01*
X5609539Y7019747D01*
X5618886Y7017715D01*
X5628487Y7017308D01*
X5638038Y7018528D01*
X5647232Y7021372D01*
X5655767Y7025690D01*
X5663488Y7031380D01*
X5670143Y7038340D01*
X5675528Y7046264D01*
X5679490Y7055053D01*
X5681878Y7064349D01*
X5682742Y7073900D01*
X5681878Y7083450D01*
X5679490Y7092746D01*
X5675528Y7101535D01*
X5670143Y7109459D01*
X5663488Y7116419D01*
X5655767Y7122109D01*
X5647232Y7126427D01*
X5638038Y7129272D01*
X5628487Y7130491D01*
X5618886Y7130034D01*
X5609539Y7128052D01*
X5602681Y7125309D01*
X5598871Y7124547D01*
X5489143Y7124547D01*
X5485079Y7125411D01*
X5479338Y7127900D01*
X5470194Y7130237D01*
X5460390Y7131050D01*
X5404764Y7131050D01*
X5400903Y7131812D01*
X5397601Y7134047D01*
X5395366Y7137349D01*
X5394604Y7141209D01*
X5395366Y7145121D01*
X5397601Y7148372D01*
X5482488Y7233310D01*
X5484469Y7234834D01*
X5487212Y7236002D01*
X5495747Y7240320D01*
X5503468Y7246010D01*
X5510123Y7252970D01*
X5515508Y7260894D01*
X5519470Y7269683D01*
X5521858Y7278979D01*
X5522722Y7288530D01*
X5521858Y7298080D01*
X5519470Y7307376D01*
X5515508Y7316165D01*
X5510123Y7324090D01*
X5503468Y7331049D01*
X5495747Y7336739D01*
X5487212Y7341057D01*
X5478018Y7343902D01*
X5468467Y7345121D01*
X5458866Y7344664D01*
X5449519Y7342682D01*
X5440578Y7339075D01*
X5432399Y7334046D01*
X5425186Y7327696D01*
X5419191Y7320229D01*
X5414467Y7311847D01*
X5413451Y7308951D01*
X5411063Y7305141D01*
X5333796Y7227874D01*
X5330494Y7225639D01*
X5326583Y7224877D01*
X5288483Y7224877D01*
X5283860Y7224674D01*
X5279491Y7224115D01*
X5275173Y7223150D01*
X5270957Y7221829D01*
X5266893Y7220153D01*
X5262981Y7218070D01*
X5259222Y7215733D01*
X5255717Y7213041D01*
X5252313Y7209891D01*
X5186476Y7144105D01*
X5183225Y7141870D01*
X5179314Y7141108D01*
X5175402Y7141870D01*
X5172151Y7144105D01*
X5169916Y7147356D01*
X5169154Y7151268D01*
X5169154Y7249363D01*
X5169916Y7253274D01*
X5172151Y7256576D01*
X5234330Y7318806D01*
X5236768Y7320584D01*
X5239664Y7321600D01*
X5362956Y7321550D01*
X5369204Y7322261D01*
X5374589Y7324140D01*
X5379466Y7327188D01*
X5383530Y7331252D01*
X5386578Y7336078D01*
X5388457Y7341514D01*
X5389168Y7347762D01*
X5389168Y7536637D01*
X5388457Y7542885D01*
X5386578Y7548321D01*
X5383530Y7553147D01*
X5379466Y7557211D01*
X5374589Y7560259D01*
X5369204Y7562138D01*
X5362956Y7562850D01*
X5244084Y7562850D01*
X5237835Y7562138D01*
X5232400Y7560259D01*
X5227574Y7557211D01*
X5223510Y7553147D01*
X5220462Y7548321D01*
X5218582Y7542885D01*
X5217871Y7536637D01*
X5217871Y7414971D01*
X5217058Y7411110D01*
X5214874Y7407808D01*
X5104028Y7296962D01*
X5098288Y7289901D01*
X5095087Y7287310D01*
X5091074Y7286193D01*
X5087010Y7286752D01*
X5083454Y7288936D01*
X5081117Y7292289D01*
X5080254Y7296353D01*
X5080254Y7301992D01*
X5079492Y7309967D01*
X5077307Y7317181D01*
X5073751Y7323785D01*
X5069332Y7329170D01*
X5067604Y7332218D01*
X5066995Y7335570D01*
X5067554Y7338974D01*
X5068468Y7341514D01*
X5069179Y7347762D01*
X5069179Y7469428D01*
X5069941Y7473340D01*
X5072126Y7476591D01*
X5224983Y7629448D01*
X5228285Y7631684D01*
X5232196Y7632446D01*
X5402783Y7632446D01*
X5406694Y7631684D01*
X5409996Y7629448D01*
X5624830Y7414615D01*
X5626963Y7411466D01*
X5627827Y7407808D01*
X5627268Y7404049D01*
X5625388Y7400798D01*
X5622391Y7398461D01*
X5618784Y7397343D01*
X5616295Y7397038D01*
X5610910Y7395159D01*
X5606034Y7392111D01*
X5601970Y7388047D01*
X5598922Y7383221D01*
X5597042Y7377785D01*
X5596331Y7371537D01*
X5596331Y7182662D01*
X5597042Y7176414D01*
X5598922Y7170978D01*
X5601970Y7166152D01*
X5606034Y7162088D01*
X5610910Y7159040D01*
X5616295Y7157161D01*
X5622544Y7156450D01*
X5741416Y7156450D01*
X5747664Y7157161D01*
X5753100Y7159040D01*
X5757926Y7162088D01*
X5761990Y7166152D01*
X5765038Y7170978D01*
X5766917Y7176414D01*
X5767628Y7182662D01*
X5767628Y7296708D01*
X5768441Y7300569D01*
X5770626Y7303871D01*
X5868771Y7402017D01*
X5873851Y7408214D01*
X5877407Y7414818D01*
X5879592Y7422032D01*
X5880354Y7430008D01*
X5880354Y7853883D01*
X5881116Y7857794D01*
X5883351Y7861096D01*
X5931103Y7908848D01*
X5934405Y7911084D01*
X5938316Y7911846D01*
X6063183Y7911846D01*
X6067094Y7911084D01*
X6070396Y7908848D01*
X6118148Y7861096D01*
X6120384Y7857794D01*
X6121146Y7853883D01*
X6121146Y7506208D01*
X6121908Y7498232D01*
X6124092Y7491018D01*
X6127648Y7484414D01*
X6132728Y7478217D01*
X6177788Y7433157D01*
X6180226Y7429246D01*
X6183579Y7419238D01*
X6188100Y7410958D01*
X6193891Y7403490D01*
X6200800Y7397140D01*
X6208725Y7391958D01*
X6217767Y7387996D01*
X6220968Y7385761D01*
X6223101Y7382509D01*
X6223812Y7378700D01*
X6223101Y7374890D01*
X6220968Y7371638D01*
X6217767Y7369403D01*
X6208725Y7365441D01*
X6200800Y7360259D01*
X6193891Y7353909D01*
X6188100Y7346442D01*
X6183579Y7338161D01*
X6180531Y7329220D01*
X6178956Y7319924D01*
X6178956Y7310475D01*
X6180531Y7301179D01*
X6183579Y7292238D01*
X6188100Y7283958D01*
X6193891Y7276490D01*
X6200800Y7270140D01*
X6208725Y7264958D01*
X6217361Y7261199D01*
X6226505Y7258862D01*
X6230061Y7258558D01*
X6233668Y7257592D01*
X6236716Y7255306D01*
X6238697Y7252157D01*
X6239357Y7248448D01*
X6239357Y7226808D01*
X6239560Y7222185D01*
X6240170Y7217765D01*
X6241135Y7213447D01*
X6242456Y7209281D01*
X6244132Y7205167D01*
X6246164Y7201255D01*
X6248552Y7197547D01*
X6251244Y7194042D01*
X6254394Y7190587D01*
X6357213Y7087768D01*
X6360617Y7084618D01*
X6364122Y7081926D01*
X6367881Y7079589D01*
X6371793Y7077506D01*
X6375857Y7075830D01*
X6380073Y7074509D01*
X6384391Y7073544D01*
X6388760Y7072985D01*
X6393383Y7072782D01*
X6454851Y7072782D01*
X6458661Y7072020D01*
X6465519Y7069277D01*
X6474866Y7067245D01*
X6484467Y7066838D01*
X6494018Y7068058D01*
X6503212Y7070902D01*
X6511747Y7075220D01*
X6519468Y7080910D01*
X6526123Y7087870D01*
X6531508Y7095794D01*
X6535470Y7104583D01*
X6537858Y7113879D01*
X6538722Y7123430D01*
X6537858Y7132980D01*
X6535470Y7142276D01*
X6531508Y7151065D01*
X6526123Y7158990D01*
X6519468Y7165949D01*
X6511747Y7171639D01*
X6503212Y7175957D01*
X6494018Y7178802D01*
X6484467Y7180021D01*
X6474866Y7179564D01*
X6465519Y7177582D01*
X6458661Y7174839D01*
X6454851Y7174077D01*
X6418376Y7174077D01*
X6414465Y7174839D01*
X6411163Y7177074D01*
X6347561Y7240727D01*
X6345326Y7243978D01*
X6344564Y7247890D01*
X6345326Y7251750D01*
X6347561Y7255052D01*
X6350863Y7257288D01*
X6354724Y7258050D01*
X6358991Y7258050D01*
X6368796Y7258862D01*
X6377940Y7261199D01*
X6386576Y7264958D01*
X6394500Y7270140D01*
X6401409Y7276490D01*
X6407200Y7283958D01*
X6411722Y7292238D01*
X6414770Y7301179D01*
X6416344Y7310475D01*
X6416344Y7319924D01*
X6414770Y7329220D01*
X6411722Y7338161D01*
X6407200Y7346442D01*
X6401409Y7353909D01*
X6394500Y7360259D01*
X6386576Y7365441D01*
X6377533Y7369403D01*
X6374333Y7371638D01*
X6372199Y7374890D01*
X6371488Y7378700D01*
X6372199Y7382509D01*
X6374333Y7385761D01*
X6377533Y7387996D01*
X6386576Y7391958D01*
X6394500Y7397140D01*
X6401409Y7403490D01*
X6407200Y7410958D01*
X6411722Y7419238D01*
X6414770Y7428179D01*
X6416344Y7437475D01*
X6416294Y7452410D01*
X6418224Y7456220D01*
X6421475Y7458913D01*
X6425590Y7459980D01*
X6429756Y7459370D01*
X6433312Y7457033D01*
X6664248Y7226096D01*
X6666484Y7222794D01*
X6667246Y7218883D01*
X6667246Y6923328D01*
X6666484Y6919417D01*
X6664248Y6916115D01*
X6660997Y6913930D01*
X6657086Y6913168D01*
X6611162Y6913168D01*
X6604914Y6912457D01*
X6599478Y6910578D01*
X6594652Y6907530D01*
X6590588Y6903466D01*
X6587540Y6898589D01*
X6585661Y6893204D01*
X6584950Y6886956D01*
X6584950Y6768084D01*
X6585661Y6761835D01*
X6587540Y6756400D01*
X6590588Y6751574D01*
X6594652Y6747509D01*
X6599478Y6744462D01*
X6604914Y6742582D01*
X6611162Y6741871D01*
X6644233Y6741871D01*
X6647992Y6741109D01*
X6651244Y6739026D01*
X6653479Y6735876D01*
X6654342Y6732117D01*
X6653784Y6728307D01*
X6650786Y6719874D01*
X6649161Y6710425D01*
X6649161Y6700774D01*
X6650786Y6691325D01*
X6653987Y6682282D01*
X6658711Y6673900D01*
X6664706Y6666433D01*
X6671919Y6660083D01*
X6680098Y6655053D01*
X6689039Y6651447D01*
X6698386Y6649415D01*
X6707987Y6649008D01*
X6717538Y6650228D01*
X6726732Y6653072D01*
X6735267Y6657390D01*
X6742988Y6663080D01*
X6749643Y6670040D01*
X6755028Y6677964D01*
X6758990Y6686753D01*
X6761378Y6696049D01*
X6762242Y6705600D01*
X6761378Y6715150D01*
X6758990Y6724446D01*
X6757619Y6727494D01*
X6756704Y6731457D01*
X6757416Y6735419D01*
X6759600Y6738772D01*
X6762902Y6741058D01*
X6766864Y6741871D01*
X6800037Y6741871D01*
X6806285Y6742582D01*
X6811721Y6744462D01*
X6816547Y6747509D01*
X6820611Y6751574D01*
X6823659Y6756400D01*
X6825538Y6761835D01*
X6826250Y6768084D01*
X6826250Y6886956D01*
X6825538Y6893204D01*
X6823659Y6898589D01*
X6820611Y6903466D01*
X6816547Y6907530D01*
X6811721Y6910578D01*
X6806285Y6912457D01*
X6800037Y6913168D01*
X6754114Y6913168D01*
X6750202Y6913930D01*
X6746951Y6916115D01*
X6744716Y6919417D01*
X6743953Y6923328D01*
X6743953Y7238492D01*
X6743192Y7246467D01*
X6742684Y7248093D01*
X6742328Y7252360D01*
X6743750Y7256373D01*
X6746697Y7259472D01*
X6750608Y7261047D01*
X6754875Y7260894D01*
X6763003Y7258862D01*
X6772808Y7258050D01*
X6895490Y7258050D01*
X6905294Y7258862D01*
X6914438Y7261199D01*
X6923074Y7264958D01*
X6930999Y7270140D01*
X6937908Y7276490D01*
X6943699Y7283958D01*
X6948220Y7292238D01*
X6951268Y7301179D01*
X6952843Y7310475D01*
X6952843Y7319924D01*
X6951268Y7329220D01*
X6948220Y7338161D01*
X6943699Y7346442D01*
X6937908Y7353909D01*
X6930999Y7360259D01*
X6923074Y7365441D01*
X6914032Y7369403D01*
X6910831Y7371638D01*
X6908698Y7374890D01*
X6907987Y7378700D01*
X6908698Y7382509D01*
X6910831Y7385761D01*
X6914032Y7387996D01*
X6923074Y7391958D01*
X6930999Y7397140D01*
X6935368Y7401153D01*
X6938568Y7403134D01*
X6942226Y7403846D01*
X7022592Y7403846D01*
X7030567Y7404608D01*
X7037781Y7406792D01*
X7044385Y7410348D01*
X7050582Y7415428D01*
X7142124Y7506970D01*
X7145223Y7509103D01*
X7148880Y7509916D01*
X7152589Y7509408D01*
X7161174Y7506462D01*
X7174585Y7503820D01*
X7188200Y7502906D01*
X7201814Y7503820D01*
X7215225Y7506462D01*
X7223810Y7509408D01*
X7227519Y7509916D01*
X7231176Y7509103D01*
X7234275Y7506970D01*
X7464348Y7276896D01*
X7466584Y7273594D01*
X7467346Y7269683D01*
X7467346Y6319316D01*
X7466584Y6315405D01*
X7464348Y6312103D01*
X7293356Y6141110D01*
X7289749Y6138773D01*
X7285532Y6138164D01*
X7136587Y6138164D01*
X7130288Y6137452D01*
X7124903Y6135573D01*
X7120026Y6132525D01*
X7116013Y6128461D01*
X7112965Y6123584D01*
X7111034Y6118199D01*
X7110323Y6111951D01*
X7110323Y5953048D01*
X7111034Y5946800D01*
X7112965Y5941415D01*
X7116013Y5936538D01*
X7120026Y5932474D01*
X7124903Y5929426D01*
X7130288Y5927547D01*
X7136587Y5926836D01*
X7285431Y5926836D01*
X7291679Y5927547D01*
X7297115Y5929426D01*
X7301941Y5932474D01*
X7306005Y5936538D01*
X7309053Y5941415D01*
X7310932Y5946800D01*
X7311644Y5953048D01*
X7311644Y6046724D01*
X7312406Y6050584D01*
X7314641Y6053886D01*
X7532471Y6271717D01*
X7537551Y6277914D01*
X7541107Y6284518D01*
X7543292Y6291732D01*
X7544053Y6299708D01*
X7544053Y7289292D01*
X7543292Y7297267D01*
X7541107Y7304481D01*
X7537551Y7311085D01*
X7532471Y7317282D01*
X7288530Y7561224D01*
X7286396Y7564323D01*
X7285583Y7567980D01*
X7286091Y7571689D01*
X7289038Y7580274D01*
X7291679Y7593685D01*
X7292594Y7607300D01*
X7291679Y7620914D01*
X7289038Y7634325D01*
X7284618Y7647228D01*
X7278573Y7659471D01*
X7271003Y7670850D01*
X7262012Y7681112D01*
X7251750Y7690103D01*
X7240371Y7697673D01*
X7228128Y7703718D01*
X7215225Y7708138D01*
X7201814Y7710779D01*
X7188200Y7711694D01*
X7174585Y7710779D01*
X7161174Y7708138D01*
X7148271Y7703718D01*
X7136028Y7697673D01*
X7124649Y7690103D01*
X7114387Y7681112D01*
X7105396Y7670850D01*
X7097826Y7659471D01*
X7091781Y7647228D01*
X7087362Y7634325D01*
X7084720Y7620914D01*
X7083806Y7607300D01*
X7084720Y7593685D01*
X7087362Y7580274D01*
X7090308Y7571689D01*
X7090816Y7567980D01*
X7090003Y7564323D01*
X7087870Y7561224D01*
X7010196Y7483551D01*
X7006894Y7481316D01*
X7002983Y7480553D01*
X6942226Y7480553D01*
X6938568Y7481265D01*
X6935368Y7483246D01*
X6930999Y7487259D01*
X6923074Y7492441D01*
X6914032Y7496403D01*
X6910831Y7498638D01*
X6908698Y7501890D01*
X6907987Y7505700D01*
X6908698Y7509509D01*
X6910831Y7512761D01*
X6914032Y7514996D01*
X6923074Y7518958D01*
X6930999Y7524140D01*
X6937908Y7530490D01*
X6943699Y7537958D01*
X6948220Y7546238D01*
X6951268Y7555179D01*
X6952843Y7564475D01*
X6952843Y7573924D01*
X6951268Y7583220D01*
X6948220Y7592161D01*
X6943699Y7600442D01*
X6937908Y7607909D01*
X6930999Y7614259D01*
X6923074Y7619441D01*
X6914032Y7623403D01*
X6910831Y7625638D01*
X6908698Y7628890D01*
X6907987Y7632700D01*
X6908698Y7636509D01*
X6910831Y7639761D01*
X6914032Y7641996D01*
X6923074Y7645958D01*
X6930999Y7651140D01*
X6937908Y7657490D01*
X6943699Y7664958D01*
X6948220Y7673238D01*
X6951268Y7682179D01*
X6952843Y7691475D01*
X6952843Y7700924D01*
X6951268Y7710220D01*
X6948220Y7719161D01*
X6943699Y7727442D01*
X6937908Y7734909D01*
X6930999Y7741259D01*
X6923074Y7746441D01*
X6914438Y7750200D01*
X6905294Y7752537D01*
X6895490Y7753350D01*
X6772808Y7753350D01*
X6763003Y7752537D01*
X6753859Y7750200D01*
X6745224Y7746441D01*
X6737299Y7741259D01*
X6730390Y7734909D01*
X6724599Y7727442D01*
X6720078Y7719161D01*
X6717030Y7710220D01*
X6715455Y7700924D01*
X6715455Y7691475D01*
X6717030Y7682179D01*
X6720078Y7673238D01*
X6724599Y7664958D01*
X6730390Y7657490D01*
X6737299Y7651140D01*
X6745224Y7645958D01*
X6754266Y7641996D01*
X6757466Y7639761D01*
X6759600Y7636509D01*
X6760311Y7632700D01*
X6759600Y7628890D01*
X6757466Y7625638D01*
X6754266Y7623403D01*
X6748119Y7620711D01*
X6744055Y7619847D01*
X6641896Y7619847D01*
X6637985Y7620609D01*
X6634683Y7622844D01*
X6608419Y7649159D01*
X6606336Y7652156D01*
X6602628Y7660335D01*
X6597243Y7668259D01*
X6590588Y7675219D01*
X6582867Y7680909D01*
X6574332Y7685227D01*
X6565138Y7688072D01*
X6555587Y7689291D01*
X6545986Y7688834D01*
X6536639Y7686852D01*
X6527698Y7683246D01*
X6519519Y7678216D01*
X6512306Y7671866D01*
X6506311Y7664399D01*
X6501587Y7656017D01*
X6498386Y7646974D01*
X6496761Y7637525D01*
X6496761Y7627874D01*
X6498386Y7618425D01*
X6501587Y7609382D01*
X6506311Y7601000D01*
X6512306Y7593533D01*
X6519519Y7587183D01*
X6527698Y7582153D01*
X6533134Y7579969D01*
X6536537Y7577734D01*
X6580733Y7533538D01*
X6584137Y7530388D01*
X6587642Y7527696D01*
X6591401Y7525359D01*
X6595313Y7523276D01*
X6599377Y7521600D01*
X6603593Y7520279D01*
X6607911Y7519314D01*
X6612280Y7518755D01*
X6616903Y7518552D01*
X6744055Y7518552D01*
X6748119Y7517688D01*
X6754266Y7514996D01*
X6757466Y7512761D01*
X6759600Y7509509D01*
X6760311Y7505700D01*
X6759600Y7501890D01*
X6757466Y7498638D01*
X6754266Y7496403D01*
X6745224Y7492441D01*
X6737299Y7487259D01*
X6730390Y7480909D01*
X6724599Y7473442D01*
X6720078Y7465161D01*
X6717030Y7456220D01*
X6715455Y7446924D01*
X6715455Y7437475D01*
X6717030Y7428179D01*
X6720078Y7419238D01*
X6724599Y7410958D01*
X6730390Y7403490D01*
X6737299Y7397140D01*
X6745224Y7391958D01*
X6754266Y7387996D01*
X6757466Y7385761D01*
X6759600Y7382509D01*
X6760311Y7378700D01*
X6759600Y7374890D01*
X6757466Y7371638D01*
X6754266Y7369403D01*
X6745224Y7365441D01*
X6737299Y7360259D01*
X6730390Y7353909D01*
X6724599Y7346442D01*
X6720078Y7338161D01*
X6717030Y7329220D01*
X6715455Y7319924D01*
X6715506Y7304989D01*
X6713575Y7301179D01*
X6710324Y7298486D01*
X6706209Y7297420D01*
X6702044Y7298029D01*
X6698488Y7300366D01*
X6415989Y7582865D01*
X6413550Y7586725D01*
X6411722Y7592161D01*
X6407200Y7600442D01*
X6401409Y7607909D01*
X6394500Y7614259D01*
X6386576Y7619441D01*
X6377533Y7623403D01*
X6374333Y7625638D01*
X6372199Y7628890D01*
X6371488Y7632700D01*
X6372199Y7636509D01*
X6374333Y7639761D01*
X6377533Y7641996D01*
X6386576Y7645958D01*
X6394500Y7651140D01*
X6401409Y7657490D01*
X6407200Y7664958D01*
X6411722Y7673238D01*
X6414770Y7682179D01*
X6416344Y7691475D01*
X6416344Y7700924D01*
X6414770Y7710220D01*
X6411722Y7719161D01*
X6407200Y7727442D01*
X6401409Y7734909D01*
X6394500Y7741259D01*
X6386576Y7746441D01*
X6377940Y7750200D01*
X6368796Y7752537D01*
X6358991Y7753350D01*
X6236309Y7753350D01*
X6226505Y7752537D01*
X6217361Y7750200D01*
X6212078Y7747914D01*
X6208166Y7747050D01*
X6204254Y7747762D01*
X6200902Y7749997D01*
X6198666Y7753299D01*
X6197854Y7757210D01*
X6197854Y7873492D01*
X6197092Y7881467D01*
X6194907Y7888681D01*
X6191351Y7895285D01*
X6186271Y7901482D01*
X6110782Y7976971D01*
X6104585Y7982051D01*
X6097981Y7985607D01*
X6090767Y7987792D01*
X6082792Y7988553D01*
X5918708Y7988553D01*
X5910732Y7987792D01*
X5903518Y7985607D01*
X5896914Y7982051D01*
X5890717Y7976971D01*
X5815228Y7901482D01*
X5810148Y7895285D01*
X5806592Y7888681D01*
X5804408Y7881467D01*
X5803646Y7873492D01*
X5803646Y7449616D01*
X5802884Y7445705D01*
X5800648Y7442403D01*
X5757824Y7399578D01*
X5754878Y7397496D01*
X5751322Y7396632D01*
X5741416Y7397750D01*
X5730494Y7397750D01*
X5726582Y7398512D01*
X5723331Y7400747D01*
X5721096Y7404049D01*
X5720334Y7407909D01*
X5720334Y7411212D01*
X5719572Y7419187D01*
X5717387Y7426401D01*
X5713831Y7433005D01*
X5708751Y7439202D01*
X5450382Y7697571D01*
X5444185Y7702651D01*
X5437581Y7706207D01*
X5430367Y7708392D01*
X5422392Y7709153D01*
X5212588Y7709153D01*
X5204612Y7708392D01*
X5197398Y7706207D01*
X5190794Y7702651D01*
X5184597Y7697571D01*
X5052669Y7565593D01*
X5050231Y7563815D01*
X5047335Y7562799D01*
X4924094Y7562850D01*
X4917795Y7562138D01*
X4912410Y7560259D01*
X4907534Y7557211D01*
X4903520Y7553147D01*
X4900472Y7548321D01*
X4898542Y7542885D01*
X4897831Y7536637D01*
X4897831Y7347762D01*
X4898542Y7341514D01*
X4900472Y7336078D01*
X4903520Y7331252D01*
X4907534Y7327188D01*
X4912410Y7324140D01*
X4917795Y7322261D01*
X4924094Y7321550D01*
X4964430Y7321550D01*
X4968290Y7320788D01*
X4971592Y7318552D01*
X5000548Y7289596D01*
X5002784Y7286294D01*
X5003546Y7282383D01*
X5003546Y7005116D01*
X5002784Y7001205D01*
X5000548Y6997903D01*
X4990896Y6988251D01*
X4987594Y6986016D01*
X4983683Y6985253D01*
X4970627Y6985253D01*
X4966970Y6985965D01*
X4963769Y6987946D01*
X4959400Y6991959D01*
X4951476Y6997141D01*
X4942433Y7001103D01*
X4939233Y7003338D01*
X4937099Y7006590D01*
X4936388Y7010400D01*
X4937099Y7014209D01*
X4939233Y7017461D01*
X4942433Y7019696D01*
X4951476Y7023658D01*
X4959400Y7028840D01*
X4966309Y7035190D01*
X4972100Y7042658D01*
X4976622Y7050938D01*
X4979670Y7059879D01*
X4981244Y7069175D01*
X4981244Y7078624D01*
X4979670Y7087920D01*
X4976622Y7096861D01*
X4972100Y7105142D01*
X4966309Y7112609D01*
X4959400Y7118959D01*
X4951476Y7124141D01*
X4942840Y7127900D01*
X4933696Y7130237D01*
X4923891Y7131050D01*
X4840020Y7131050D01*
X4836109Y7131812D01*
X4832807Y7134047D01*
X4714951Y7251903D01*
X4712716Y7255205D01*
X4711954Y7259116D01*
X4711954Y7561783D01*
X4712716Y7565694D01*
X4714951Y7568996D01*
X4902403Y7756448D01*
X4905705Y7758684D01*
X4909616Y7759446D01*
X5586171Y7759446D01*
X5590082Y7758684D01*
X5593384Y7756448D01*
X5595569Y7753197D01*
X5596331Y7749286D01*
X5596331Y7652562D01*
X5597042Y7646314D01*
X5598922Y7640878D01*
X5601970Y7636052D01*
X5606034Y7631988D01*
X5610910Y7628940D01*
X5616295Y7627061D01*
X5622594Y7626350D01*
X5741416Y7626350D01*
X5747715Y7627061D01*
X5753100Y7628940D01*
X5757976Y7631988D01*
X5761990Y7636052D01*
X5765038Y7640878D01*
X5766968Y7646314D01*
X5767679Y7652562D01*
X5767679Y7841437D01*
X5766968Y7847685D01*
X5765038Y7853121D01*
X5761990Y7857947D01*
X5757976Y7862011D01*
X5753100Y7865059D01*
X5747715Y7866938D01*
X5741416Y7867650D01*
X5622594Y7867650D01*
X5616295Y7866938D01*
X5610910Y7865059D01*
X5606034Y7862011D01*
X5601970Y7857947D01*
X5598922Y7853121D01*
X5597042Y7847685D01*
X5596788Y7845196D01*
X5595721Y7841640D01*
X5593435Y7838744D01*
X5590286Y7836814D01*
X5586679Y7836153D01*
X4890008Y7836153D01*
X4882032Y7835392D01*
X4874818Y7833207D01*
X4868214Y7829651D01*
X4862017Y7824571D01*
X4646828Y7609382D01*
X4641748Y7603185D01*
X4638192Y7596581D01*
X4636008Y7589367D01*
X4635246Y7581392D01*
X4635246Y7239508D01*
X4636008Y7231532D01*
X4638192Y7224318D01*
X4641748Y7217714D01*
X4646828Y7211517D01*
X4728768Y7129576D01*
X4730953Y7126325D01*
X4731715Y7122414D01*
X4730953Y7118502D01*
X4728768Y7115251D01*
X4725466Y7113016D01*
X4721555Y7112253D01*
X4529328Y7112253D01*
X4521352Y7111492D01*
X4514138Y7109307D01*
X4507534Y7105751D01*
X4501337Y7100671D01*
X4352391Y6951725D01*
X4349140Y6949541D01*
X4345228Y6948779D01*
X4223562Y6948779D01*
X4217314Y6948068D01*
X4211878Y6946138D01*
X4207052Y6943090D01*
X4202988Y6939076D01*
X4199940Y6934200D01*
X4198061Y6928815D01*
X4197350Y6922516D01*
X4197350Y6803694D01*
X4198061Y6797395D01*
X4199940Y6792010D01*
X4202988Y6787134D01*
X4207052Y6783120D01*
X4211878Y6780022D01*
X4217314Y6778142D01*
X4223562Y6777431D01*
X4412437Y6777431D01*
X4418685Y6778142D01*
X4424121Y6780022D01*
X4428947Y6783120D01*
X4433011Y6787134D01*
X4436059Y6792010D01*
X4437938Y6797395D01*
X4438650Y6803694D01*
X4438599Y6926935D01*
X4439615Y6929831D01*
X4441393Y6932269D01*
X4541723Y7032548D01*
X4545025Y7034784D01*
X4548936Y7035546D01*
X4754473Y7035546D01*
X4758131Y7034834D01*
X4761331Y7032853D01*
X4765700Y7028840D01*
X4773625Y7023658D01*
X4782667Y7019696D01*
X4785868Y7017461D01*
X4788001Y7014209D01*
X4788712Y7010400D01*
X4788001Y7006590D01*
X4785868Y7003338D01*
X4782667Y7001103D01*
X4773625Y6997141D01*
X4765700Y6991959D01*
X4758791Y6985609D01*
X4753000Y6978142D01*
X4748479Y6969861D01*
X4745431Y6960920D01*
X4743856Y6951624D01*
X4743856Y6942175D01*
X4745431Y6932879D01*
X4748479Y6923938D01*
X4753000Y6915658D01*
X4758791Y6908190D01*
X4765700Y6901840D01*
X4773625Y6896658D01*
X4782667Y6892696D01*
X4785868Y6890461D01*
X4788001Y6887209D01*
X4788712Y6883400D01*
X4788001Y6879590D01*
X4785868Y6876338D01*
X4782667Y6874103D01*
X4773625Y6870141D01*
X4765700Y6864959D01*
X4761331Y6860946D01*
X4758131Y6858965D01*
X4754473Y6858253D01*
X4712208Y6858253D01*
X4704232Y6857492D01*
X4697018Y6855307D01*
X4690414Y6851751D01*
X4684217Y6846671D01*
X4640630Y6803085D01*
X4637532Y6800951D01*
X4633874Y6800088D01*
X4628286Y6799834D01*
X4618939Y6797852D01*
X4609998Y6794246D01*
X4601819Y6789216D01*
X4594606Y6782866D01*
X4588611Y6775399D01*
X4583887Y6767017D01*
X4580686Y6757974D01*
X4579061Y6748525D01*
X4579061Y6738874D01*
X4580686Y6729425D01*
X4583887Y6720382D01*
X4588611Y6712000D01*
X4594606Y6704533D01*
X4601057Y6698894D01*
X4603496Y6695643D01*
X4604461Y6691680D01*
X4603851Y6687667D01*
X4601667Y6684213D01*
X4598314Y6681876D01*
X4594352Y6681063D01*
X4285386Y6681063D01*
X4274718Y6680250D01*
X4264710Y6677863D01*
X4255211Y6673900D01*
X4246422Y6668516D01*
X4238599Y6661810D01*
X4231894Y6653987D01*
X4226509Y6645198D01*
X4222546Y6635699D01*
X4220159Y6625691D01*
X4219346Y6615430D01*
X4220159Y6605168D01*
X4222546Y6595160D01*
X4226509Y6585661D01*
X4231894Y6576872D01*
X4238599Y6569049D01*
X4246422Y6562344D01*
X4255211Y6556959D01*
X4264710Y6552996D01*
X4274718Y6550609D01*
X4285386Y6549796D01*
X4780635Y6549796D01*
X4784344Y6549085D01*
X4787544Y6547104D01*
X4789779Y6544056D01*
X4790795Y6540449D01*
X4791811Y6528206D01*
X4794300Y6518249D01*
X4798314Y6508800D01*
X4803800Y6500063D01*
X4810607Y6492341D01*
X4818481Y6485737D01*
X4827320Y6480454D01*
X4836871Y6476593D01*
X4846929Y6474307D01*
X4857191Y6473596D01*
X4867452Y6474510D01*
X4877460Y6477050D01*
X4886909Y6481064D01*
X4895646Y6486550D01*
X4903368Y6493357D01*
X4909972Y6501231D01*
X4915255Y6510070D01*
X4919116Y6519621D01*
X4921402Y6529679D01*
X4922113Y6540347D01*
X4921300Y6618020D01*
X4922012Y6621932D01*
X4924196Y6625285D01*
X4927549Y6627469D01*
X4931460Y6628282D01*
X5097576Y6628282D01*
X5102199Y6628485D01*
X5106568Y6629044D01*
X5110886Y6630009D01*
X5115102Y6631330D01*
X5119166Y6633006D01*
X5123078Y6635089D01*
X5126837Y6637426D01*
X5130342Y6640118D01*
X5133746Y6643268D01*
X5247741Y6757263D01*
X5250891Y6760667D01*
X5253583Y6764172D01*
X5255920Y6767931D01*
X5258003Y6771843D01*
X5259679Y6775907D01*
X5261000Y6780123D01*
X5261965Y6784441D01*
X5262524Y6788810D01*
X5262727Y6800900D01*
X5263540Y6804863D01*
X5265826Y6808216D01*
X5269280Y6810400D01*
X5273243Y6811060D01*
X5277205Y6810095D01*
X5280456Y6807708D01*
X5282488Y6804202D01*
X5284978Y6796938D01*
X5289499Y6788658D01*
X5295290Y6781190D01*
X5302199Y6774840D01*
X5310124Y6769658D01*
X5319166Y6765696D01*
X5322366Y6763461D01*
X5324500Y6760209D01*
X5325211Y6756400D01*
X5324500Y6752590D01*
X5322366Y6749338D01*
X5319166Y6747103D01*
X5310124Y6743141D01*
X5302199Y6737959D01*
X5295290Y6731609D01*
X5289499Y6724142D01*
X5284978Y6715861D01*
X5281930Y6706920D01*
X5280355Y6697624D01*
X5280355Y6688175D01*
X5281930Y6678879D01*
X5284978Y6669938D01*
X5289499Y6661658D01*
X5295290Y6654190D01*
X5302199Y6647840D01*
X5310124Y6642658D01*
X5318760Y6638899D01*
X5327904Y6636562D01*
X5337708Y6635750D01*
X5392216Y6635750D01*
X5396077Y6634988D01*
X5399379Y6632752D01*
X5401564Y6629450D01*
X5402376Y6625590D01*
X5402376Y6163310D01*
X5401564Y6159449D01*
X5399379Y6156147D01*
X5396077Y6153912D01*
X5392216Y6153150D01*
X5381244Y6153150D01*
X5374995Y6152438D01*
X5369610Y6150559D01*
X5364734Y6147511D01*
X5360670Y6143447D01*
X5357622Y6138621D01*
X5355742Y6133185D01*
X5355031Y6126937D01*
X5355031Y6093714D01*
X5354269Y6089802D01*
X5352084Y6086551D01*
X5348782Y6084316D01*
X5344871Y6083554D01*
X5158028Y6083554D01*
X5154117Y6084316D01*
X5150815Y6086551D01*
X5148630Y6089802D01*
X5147868Y6093714D01*
X5147868Y6139637D01*
X5147157Y6145885D01*
X5145278Y6151321D01*
X5142230Y6156147D01*
X5138166Y6160211D01*
X5133289Y6163259D01*
X5127904Y6165138D01*
X5121656Y6165850D01*
X5002784Y6165850D01*
X4996535Y6165138D01*
X4991100Y6163259D01*
X4986274Y6160211D01*
X4982210Y6156147D01*
X4979162Y6151321D01*
X4977282Y6145885D01*
X4976571Y6139637D01*
X4976571Y5950762D01*
X4977282Y5944514D01*
X4979162Y5939078D01*
X4982210Y5934252D01*
X4986274Y5930188D01*
X4991100Y5927140D01*
X4996535Y5925261D01*
X5002784Y5924550D01*
X5121656Y5924550D01*
X5127650Y5925210D01*
X5130647Y5925108D01*
X5133492Y5924092D01*
X5135930Y5922314D01*
X5198414Y5859830D01*
X5200599Y5856528D01*
X5201361Y5852668D01*
X5201361Y5849874D01*
X5202986Y5840425D01*
X5206187Y5831382D01*
X5210911Y5823000D01*
X5216906Y5815533D01*
X5224068Y5809234D01*
X5226507Y5805982D01*
X5227523Y5802020D01*
X5226862Y5798007D01*
X5224678Y5794603D01*
X5221325Y5792266D01*
X5217363Y5791454D01*
X5215128Y5791454D01*
X5207152Y5790692D01*
X5199938Y5788507D01*
X5193334Y5784951D01*
X5187137Y5779871D01*
X5131358Y5724093D01*
X5128971Y5722315D01*
X5126075Y5721299D01*
X5002784Y5721350D01*
X4996484Y5720638D01*
X4991100Y5718759D01*
X4986223Y5715711D01*
X4982210Y5711647D01*
X4979162Y5706821D01*
X4977231Y5701385D01*
X4976520Y5695137D01*
X4976520Y5573522D01*
X4975758Y5569610D01*
X4973574Y5566308D01*
X4715459Y5308193D01*
X4710379Y5301996D01*
X4706823Y5295392D01*
X4704638Y5288178D01*
X4703876Y5280202D01*
X4703876Y5248910D01*
X4703064Y5245049D01*
X4700879Y5241747D01*
X4697577Y5239512D01*
X4693716Y5238750D01*
X4682794Y5238750D01*
X4676495Y5238038D01*
X4671110Y5236159D01*
X4666234Y5233111D01*
X4662170Y5229047D01*
X4659122Y5224221D01*
X4657242Y5218785D01*
X4656531Y5212537D01*
X4656531Y5023662D01*
X4657242Y5017414D01*
X4659122Y5011978D01*
X4662170Y5007152D01*
X4666234Y5003088D01*
X4671110Y5000040D01*
X4676495Y4998161D01*
G37*
G36*
X3831031Y5121148D02*
G01*
X3880358Y5121148D01*
X3880358Y5187950D01*
X3857294Y5187950D01*
X3850995Y5187238D01*
X3845610Y5185359D01*
X3840734Y5182311D01*
X3836720Y5178247D01*
X3833622Y5173421D01*
X3831742Y5167985D01*
X3831031Y5161737D01*
G37*
G36*
X3953052Y5121148D02*
G01*
X4002379Y5121148D01*
X4002379Y5161737D01*
X4001668Y5167985D01*
X3999737Y5173421D01*
X3996690Y5178247D01*
X3992676Y5182311D01*
X3987800Y5185359D01*
X3982415Y5187238D01*
X3976115Y5187950D01*
X3953052Y5187950D01*
G37*
G36*
X7188200Y6994906D02*
G01*
X7201814Y6995820D01*
X7215225Y6998462D01*
X7228128Y7002881D01*
X7240371Y7008926D01*
X7251750Y7016496D01*
X7262012Y7025487D01*
X7271003Y7035749D01*
X7278573Y7047128D01*
X7284618Y7059371D01*
X7289038Y7072274D01*
X7291679Y7085685D01*
X7292594Y7099300D01*
X7291679Y7112914D01*
X7289038Y7126325D01*
X7284618Y7139228D01*
X7278573Y7151471D01*
X7271003Y7162850D01*
X7262012Y7173112D01*
X7251750Y7182103D01*
X7240371Y7189673D01*
X7228128Y7195718D01*
X7215225Y7200138D01*
X7201814Y7202779D01*
X7188200Y7203694D01*
X7174585Y7202779D01*
X7161174Y7200138D01*
X7148271Y7195718D01*
X7136028Y7189673D01*
X7124649Y7182103D01*
X7114387Y7173112D01*
X7105396Y7162850D01*
X7097826Y7151471D01*
X7091781Y7139228D01*
X7087362Y7126325D01*
X7084720Y7112914D01*
X7083806Y7099300D01*
X7084720Y7085685D01*
X7087362Y7072274D01*
X7091781Y7059371D01*
X7097826Y7047128D01*
X7105396Y7035749D01*
X7114387Y7025487D01*
X7124649Y7016496D01*
X7136028Y7008926D01*
X7148271Y7002881D01*
X7161174Y6998462D01*
X7174585Y6995820D01*
G37*
G36*
X4040987Y5277408D02*
G01*
X4050537Y5278628D01*
X4059732Y5281472D01*
X4068267Y5285790D01*
X4075988Y5291480D01*
X4082643Y5298440D01*
X4088028Y5306364D01*
X4091990Y5315153D01*
X4094378Y5324449D01*
X4095242Y5334000D01*
X4094378Y5343550D01*
X4091990Y5352846D01*
X4088028Y5361635D01*
X4082643Y5369560D01*
X4075988Y5376519D01*
X4068267Y5382209D01*
X4059732Y5386527D01*
X4050537Y5389372D01*
X4040936Y5390540D01*
X4036822Y5391251D01*
X4033316Y5393537D01*
X3980434Y5446420D01*
X3978249Y5449722D01*
X3977436Y5453583D01*
X3978249Y5457494D01*
X3980434Y5460796D01*
X3983990Y5464352D01*
X3987037Y5469178D01*
X3988968Y5474614D01*
X3989679Y5480862D01*
X3989679Y5669737D01*
X3988968Y5675985D01*
X3987037Y5681421D01*
X3983990Y5686247D01*
X3979976Y5690311D01*
X3975100Y5693359D01*
X3969715Y5695238D01*
X3963415Y5695950D01*
X3844594Y5695950D01*
X3838295Y5695238D01*
X3832910Y5693359D01*
X3828034Y5690311D01*
X3823970Y5686247D01*
X3820922Y5681421D01*
X3819042Y5675985D01*
X3818331Y5669737D01*
X3818331Y5623814D01*
X3817569Y5619902D01*
X3815384Y5616651D01*
X3812082Y5614416D01*
X3808171Y5613654D01*
X3541217Y5613654D01*
X3538016Y5614162D01*
X3535172Y5615686D01*
X3532886Y5617972D01*
X3529126Y5623356D01*
X3522370Y5630164D01*
X3519728Y5631992D01*
X3516884Y5634990D01*
X3515512Y5638800D01*
X3515715Y5642864D01*
X3517493Y5646572D01*
X3520592Y5649214D01*
X3524504Y5650433D01*
X3531920Y5651195D01*
X3536086Y5652109D01*
X3540302Y5653430D01*
X3544366Y5655106D01*
X3548278Y5657189D01*
X3552037Y5659526D01*
X3555542Y5662218D01*
X3558946Y5665368D01*
X3616553Y5722975D01*
X3619449Y5725007D01*
X3627221Y5728614D01*
X3635248Y5734253D01*
X3642156Y5741162D01*
X3647795Y5749188D01*
X3651910Y5758027D01*
X3654450Y5767476D01*
X3655314Y5777230D01*
X3654450Y5786983D01*
X3651910Y5796432D01*
X3647795Y5805271D01*
X3642156Y5813298D01*
X3635248Y5820206D01*
X3627221Y5825845D01*
X3618382Y5829960D01*
X3608933Y5832500D01*
X3599179Y5833364D01*
X3589426Y5832500D01*
X3579977Y5829960D01*
X3571138Y5825845D01*
X3563112Y5820206D01*
X3555492Y5812586D01*
X3551783Y5810199D01*
X3547414Y5809589D01*
X3543198Y5810910D01*
X3539998Y5813907D01*
X3538270Y5817971D01*
X3538474Y5822340D01*
X3541166Y5832449D01*
X3542029Y5842000D01*
X3541166Y5851550D01*
X3540404Y5854344D01*
X3540150Y5858052D01*
X3541166Y5861608D01*
X3543452Y5864555D01*
X3546601Y5866485D01*
X3550259Y5867146D01*
X3758692Y5867146D01*
X3766667Y5867908D01*
X3773881Y5870092D01*
X3780485Y5873648D01*
X3786682Y5878728D01*
X3887571Y5979617D01*
X3892651Y5985814D01*
X3896207Y5992418D01*
X3898392Y5999632D01*
X3899001Y6006287D01*
X3900068Y6009843D01*
X3902303Y6012840D01*
X3905504Y6014770D01*
X3909110Y6015431D01*
X3955237Y6015431D01*
X3961485Y6016142D01*
X3966921Y6018022D01*
X3971747Y6021120D01*
X3975811Y6025134D01*
X3978859Y6030010D01*
X3980738Y6035395D01*
X3981450Y6041694D01*
X3981450Y6160516D01*
X3980738Y6166815D01*
X3978859Y6172200D01*
X3975811Y6177076D01*
X3971747Y6181090D01*
X3966921Y6184138D01*
X3961485Y6186068D01*
X3955237Y6186779D01*
X3766362Y6186779D01*
X3760114Y6186068D01*
X3754678Y6184138D01*
X3749852Y6181090D01*
X3745788Y6177076D01*
X3742740Y6172200D01*
X3740861Y6166815D01*
X3740150Y6160516D01*
X3740150Y6041694D01*
X3740861Y6035395D01*
X3742740Y6030010D01*
X3745788Y6025134D01*
X3749852Y6021120D01*
X3754678Y6018022D01*
X3760114Y6016142D01*
X3766362Y6015431D01*
X3790391Y6015431D01*
X3794251Y6014669D01*
X3797554Y6012484D01*
X3799789Y6009182D01*
X3800551Y6005271D01*
X3799789Y6001410D01*
X3797554Y5998108D01*
X3746296Y5946851D01*
X3742994Y5944616D01*
X3739083Y5943854D01*
X3467354Y5943854D01*
X3463645Y5943701D01*
X3459581Y5943092D01*
X3456228Y5942279D01*
X3452418Y5940907D01*
X3449269Y5939434D01*
X3445764Y5937351D01*
X3443020Y5935319D01*
X3439972Y5932576D01*
X3437483Y5929833D01*
X3413251Y5900724D01*
X3409746Y5898032D01*
X3405428Y5897067D01*
X3341725Y5897067D01*
X3331768Y5896203D01*
X3322472Y5893714D01*
X3313785Y5889650D01*
X3305962Y5884164D01*
X3299155Y5877356D01*
X3293668Y5869482D01*
X3289604Y5860796D01*
X3287115Y5851550D01*
X3286302Y5842000D01*
X3287115Y5832449D01*
X3289604Y5823204D01*
X3293668Y5814517D01*
X3299155Y5806643D01*
X3305962Y5799836D01*
X3313785Y5794349D01*
X3322472Y5790285D01*
X3329889Y5788304D01*
X3333800Y5786272D01*
X3336493Y5782818D01*
X3337458Y5778500D01*
X3336493Y5774182D01*
X3333800Y5770727D01*
X3329889Y5768695D01*
X3322472Y5766714D01*
X3313785Y5762650D01*
X3305962Y5757164D01*
X3299155Y5750356D01*
X3293668Y5742482D01*
X3289604Y5733796D01*
X3287115Y5724550D01*
X3286302Y5715000D01*
X3287115Y5705449D01*
X3289604Y5696204D01*
X3293668Y5687517D01*
X3299155Y5679643D01*
X3305962Y5672836D01*
X3313785Y5667349D01*
X3322472Y5663285D01*
X3329889Y5661304D01*
X3333800Y5659272D01*
X3336493Y5655818D01*
X3337458Y5651500D01*
X3336493Y5647182D01*
X3333800Y5643727D01*
X3329889Y5641695D01*
X3322472Y5639714D01*
X3313785Y5635650D01*
X3305962Y5630164D01*
X3299155Y5623356D01*
X3293668Y5615482D01*
X3289604Y5606796D01*
X3287115Y5597550D01*
X3286302Y5588000D01*
X3287115Y5578449D01*
X3289604Y5569204D01*
X3293668Y5560517D01*
X3299155Y5552643D01*
X3305962Y5545836D01*
X3313785Y5540349D01*
X3322472Y5536285D01*
X3329889Y5534304D01*
X3333800Y5532272D01*
X3336493Y5528818D01*
X3337458Y5524500D01*
X3336493Y5520182D01*
X3333800Y5516727D01*
X3329889Y5514695D01*
X3322472Y5512714D01*
X3313785Y5508650D01*
X3305962Y5503164D01*
X3299155Y5496356D01*
X3293668Y5488482D01*
X3290620Y5482031D01*
X3356660Y5482031D01*
X3356660Y5522772D01*
X3357473Y5526684D01*
X3359658Y5529986D01*
X3362960Y5532170D01*
X3366820Y5532932D01*
X3461461Y5532932D01*
X3465372Y5532170D01*
X3468674Y5529986D01*
X3470859Y5526684D01*
X3471621Y5522772D01*
X3471621Y5482031D01*
X3537661Y5482031D01*
X3534664Y5488482D01*
X3529126Y5496356D01*
X3522370Y5503164D01*
X3514496Y5508650D01*
X3505809Y5512714D01*
X3498392Y5514695D01*
X3494481Y5516727D01*
X3491788Y5520182D01*
X3490874Y5524500D01*
X3491788Y5528767D01*
X3494481Y5532272D01*
X3498342Y5534304D01*
X3506774Y5536590D01*
X3509467Y5536946D01*
X3808171Y5536946D01*
X3812082Y5536184D01*
X3815384Y5533948D01*
X3817569Y5530697D01*
X3818331Y5526786D01*
X3818331Y5480862D01*
X3819042Y5474614D01*
X3820922Y5469178D01*
X3823970Y5464352D01*
X3828034Y5460288D01*
X3832910Y5457240D01*
X3838295Y5455361D01*
X3844594Y5454650D01*
X3862171Y5454650D01*
X3865727Y5453989D01*
X3868826Y5452110D01*
X3871112Y5449265D01*
X3872179Y5447334D01*
X3877259Y5441137D01*
X3979214Y5339130D01*
X3981399Y5335828D01*
X3982161Y5331968D01*
X3982161Y5329174D01*
X3983786Y5319725D01*
X3986987Y5310682D01*
X3991711Y5302300D01*
X3997706Y5294833D01*
X4004919Y5288483D01*
X4013098Y5283454D01*
X4022039Y5279847D01*
X4031386Y5277815D01*
G37*
G36*
X3471621Y5405932D02*
G01*
X3486556Y5405932D01*
X3496564Y5406796D01*
X3505809Y5409285D01*
X3514496Y5413349D01*
X3522370Y5418836D01*
X3529126Y5425643D01*
X3534664Y5433517D01*
X3537661Y5439968D01*
X3471621Y5439968D01*
G37*
G36*
X3341725Y5405932D02*
G01*
X3356660Y5405932D01*
X3356660Y5439968D01*
X3290620Y5439968D01*
X3293668Y5433517D01*
X3299155Y5425643D01*
X3305962Y5418836D01*
X3313785Y5413349D01*
X3322472Y5409285D01*
X3331768Y5406796D01*
G37*
G36*
X7094626Y6891020D02*
G01*
X7142480Y6891020D01*
X7142480Y6938873D01*
X7136028Y6935673D01*
X7124649Y6928103D01*
X7114387Y6919112D01*
X7105396Y6908850D01*
X7097826Y6897471D01*
G37*
G36*
X7233920Y6891020D02*
G01*
X7281773Y6891020D01*
X7278573Y6897471D01*
X7271003Y6908850D01*
X7262012Y6919112D01*
X7251750Y6928103D01*
X7240371Y6935673D01*
X7233920Y6938873D01*
G37*
G36*
X5883148Y6863842D02*
G01*
X5949950Y6863842D01*
X5949950Y6886956D01*
X5949238Y6893204D01*
X5947359Y6898589D01*
X5944311Y6903466D01*
X5940247Y6907530D01*
X5935421Y6910578D01*
X5929985Y6912457D01*
X5923737Y6913168D01*
X5883148Y6913168D01*
G37*
G36*
X5708650Y6863842D02*
G01*
X5775452Y6863842D01*
X5775452Y6913168D01*
X5734862Y6913168D01*
X5728614Y6912457D01*
X5723178Y6910578D01*
X5718352Y6907530D01*
X5714288Y6903466D01*
X5711240Y6898589D01*
X5709361Y6893204D01*
X5708650Y6886956D01*
G37*
G36*
X7142480Y6751726D02*
G01*
X7142480Y6799580D01*
X7094626Y6799580D01*
X7097826Y6793128D01*
X7105396Y6781749D01*
X7114387Y6771487D01*
X7124649Y6762496D01*
X7136028Y6754926D01*
G37*
G36*
X7233920Y6751726D02*
G01*
X7240371Y6754926D01*
X7251750Y6762496D01*
X7262012Y6771487D01*
X7271003Y6781749D01*
X7278573Y6793128D01*
X7281773Y6799580D01*
X7233920Y6799580D01*
G37*
G36*
X5883148Y6741871D02*
G01*
X5923737Y6741871D01*
X5929985Y6742531D01*
X5935421Y6744462D01*
X5940247Y6747509D01*
X5944311Y6751574D01*
X5947359Y6756400D01*
X5949238Y6761835D01*
X5949950Y6768084D01*
X5949950Y6791147D01*
X5883148Y6791147D01*
G37*
G36*
X5734862Y6741871D02*
G01*
X5775452Y6741871D01*
X5775452Y6791147D01*
X5708650Y6791147D01*
X5708650Y6768084D01*
X5709361Y6761835D01*
X5711240Y6756400D01*
X5714288Y6751574D01*
X5718352Y6747509D01*
X5723178Y6744462D01*
X5728614Y6742531D01*
G37*
G36*
X6759448Y6543852D02*
G01*
X6826250Y6543852D01*
X6826250Y6566916D01*
X6825538Y6573215D01*
X6823659Y6578600D01*
X6820611Y6583476D01*
X6816547Y6587490D01*
X6811721Y6590538D01*
X6806285Y6592468D01*
X6800037Y6593179D01*
X6759448Y6593179D01*
G37*
G36*
X6826554Y5846826D02*
G01*
X6945426Y5846826D01*
X6951675Y5847537D01*
X6957110Y5849467D01*
X6961936Y5852515D01*
X6966000Y5856528D01*
X6969048Y5861405D01*
X6970928Y5866790D01*
X6971639Y5873089D01*
X6971639Y5922619D01*
X6972452Y5926480D01*
X6974636Y5929782D01*
X7049871Y6005017D01*
X7054951Y6011214D01*
X7058507Y6017818D01*
X7060692Y6025032D01*
X7061453Y6033008D01*
X7061453Y6329781D01*
X7062165Y6333591D01*
X7064298Y6336842D01*
X7067143Y6339840D01*
X7072528Y6347764D01*
X7076490Y6356553D01*
X7078878Y6365849D01*
X7079742Y6375400D01*
X7078878Y6384950D01*
X7076490Y6394246D01*
X7072528Y6403035D01*
X7067143Y6410960D01*
X7060488Y6417919D01*
X7052767Y6423609D01*
X7044232Y6427927D01*
X7035038Y6430772D01*
X7025487Y6431991D01*
X7015886Y6431534D01*
X7006539Y6429552D01*
X6997598Y6425946D01*
X6989419Y6420916D01*
X6982206Y6414566D01*
X6976211Y6407099D01*
X6971487Y6398717D01*
X6968286Y6389674D01*
X6966661Y6380226D01*
X6966661Y6370574D01*
X6968286Y6361125D01*
X6971487Y6352082D01*
X6976211Y6343700D01*
X6982510Y6335877D01*
X6984187Y6332880D01*
X6984746Y6329527D01*
X6984746Y6213906D01*
X6983831Y6209690D01*
X6981240Y6206236D01*
X6977430Y6204153D01*
X6973112Y6203848D01*
X6969048Y6205372D01*
X6961936Y6212484D01*
X6957110Y6215532D01*
X6951675Y6217462D01*
X6945426Y6218174D01*
X6826554Y6218174D01*
X6820306Y6217462D01*
X6814921Y6215532D01*
X6810044Y6212484D01*
X6805980Y6208471D01*
X6802932Y6203594D01*
X6801053Y6198209D01*
X6800342Y6191910D01*
X6800342Y6073089D01*
X6801053Y6066790D01*
X6802932Y6061405D01*
X6805980Y6056528D01*
X6810044Y6052515D01*
X6814921Y6049467D01*
X6820306Y6047536D01*
X6826554Y6046825D01*
X6945426Y6046825D01*
X6951675Y6047536D01*
X6957110Y6049467D01*
X6961936Y6051448D01*
X6966102Y6051143D01*
X6969810Y6049213D01*
X6972452Y6045962D01*
X6973519Y6041847D01*
X6972858Y6037732D01*
X6970572Y6034176D01*
X6957059Y6020714D01*
X6954621Y6018885D01*
X6951776Y6017920D01*
X6948728Y6017768D01*
X6945426Y6018174D01*
X6826554Y6018174D01*
X6820306Y6017463D01*
X6814921Y6015532D01*
X6810044Y6012484D01*
X6805980Y6008471D01*
X6802932Y6003594D01*
X6801053Y5998210D01*
X6800342Y5991910D01*
X6800342Y5873089D01*
X6801053Y5866790D01*
X6802932Y5861405D01*
X6805980Y5856528D01*
X6810044Y5852515D01*
X6814921Y5849467D01*
X6820306Y5847537D01*
G37*
G36*
X6584950Y6543852D02*
G01*
X6651752Y6543852D01*
X6651752Y6593179D01*
X6611162Y6593179D01*
X6604914Y6592468D01*
X6599478Y6590538D01*
X6594652Y6587490D01*
X6590588Y6583476D01*
X6587540Y6578600D01*
X6585661Y6573215D01*
X6584950Y6566916D01*
G37*
G36*
X6533642Y5911850D02*
G01*
X6556705Y5911850D01*
X6563004Y5912561D01*
X6568389Y5914440D01*
X6573266Y5917488D01*
X6577279Y5921552D01*
X6580378Y5926378D01*
X6582257Y5931814D01*
X6582968Y5938062D01*
X6582968Y5978652D01*
X6533642Y5978652D01*
G37*
G36*
X6437884Y5911850D02*
G01*
X6460947Y5911850D01*
X6460947Y5978652D01*
X6411620Y5978652D01*
X6411620Y5938062D01*
X6412331Y5931814D01*
X6414262Y5926378D01*
X6417310Y5921552D01*
X6421323Y5917488D01*
X6426200Y5914440D01*
X6431584Y5912561D01*
G37*
G36*
X7110018Y6486906D02*
G01*
X7266381Y6486906D01*
X7272629Y6487617D01*
X7278065Y6489496D01*
X7282891Y6492544D01*
X7286955Y6496608D01*
X7290003Y6501434D01*
X7291882Y6506870D01*
X7292594Y6513118D01*
X7292594Y6669481D01*
X7291882Y6675729D01*
X7290003Y6681165D01*
X7286955Y6685991D01*
X7282891Y6690055D01*
X7278065Y6693103D01*
X7272629Y6694982D01*
X7266381Y6695694D01*
X7110018Y6695694D01*
X7103770Y6694982D01*
X7098334Y6693103D01*
X7093508Y6690055D01*
X7089444Y6685991D01*
X7086396Y6681165D01*
X7084517Y6675729D01*
X7083806Y6669481D01*
X7083806Y6513118D01*
X7084517Y6506870D01*
X7086396Y6501434D01*
X7089444Y6496608D01*
X7093508Y6492544D01*
X7098334Y6489496D01*
X7103770Y6487617D01*
G37*
G36*
X6611162Y6421831D02*
G01*
X6651752Y6421831D01*
X6651752Y6471158D01*
X6584950Y6471158D01*
X6584950Y6448094D01*
X6585661Y6441795D01*
X6587540Y6436410D01*
X6590588Y6431534D01*
X6594652Y6427520D01*
X6599478Y6424422D01*
X6604914Y6422542D01*
G37*
G36*
X6759448Y6421831D02*
G01*
X6800037Y6421831D01*
X6806285Y6422542D01*
X6811721Y6424422D01*
X6816547Y6427520D01*
X6820611Y6431534D01*
X6823659Y6436410D01*
X6825538Y6441795D01*
X6826250Y6448094D01*
X6826250Y6471158D01*
X6759448Y6471158D01*
G37*
G36*
X4682794Y5924550D02*
G01*
X4801616Y5924550D01*
X4807915Y5925261D01*
X4813300Y5927140D01*
X4818176Y5930188D01*
X4822190Y5934252D01*
X4825238Y5939078D01*
X4827168Y5944514D01*
X4827879Y5950762D01*
X4827879Y6139637D01*
X4827168Y6145885D01*
X4825238Y6151321D01*
X4822190Y6156147D01*
X4818176Y6160211D01*
X4813300Y6163259D01*
X4807915Y6165138D01*
X4801616Y6165850D01*
X4682794Y6165850D01*
X4676495Y6165138D01*
X4671110Y6163259D01*
X4666234Y6160211D01*
X4663236Y6157163D01*
X4659934Y6154978D01*
X4656023Y6154216D01*
X4652162Y6154978D01*
X4648860Y6157163D01*
X4454093Y6351930D01*
X4452315Y6354368D01*
X4451299Y6357213D01*
X4451350Y6480505D01*
X4450638Y6486804D01*
X4448759Y6492189D01*
X4445711Y6497066D01*
X4441647Y6501130D01*
X4436821Y6504178D01*
X4431385Y6506057D01*
X4425137Y6506768D01*
X4257802Y6506768D01*
X4253890Y6507530D01*
X4250588Y6509715D01*
X4168851Y6591503D01*
X4166615Y6594805D01*
X4165854Y6598716D01*
X4165854Y6972503D01*
X4166615Y6976364D01*
X4168851Y6979666D01*
X4283608Y7094474D01*
X4286910Y7096658D01*
X4290822Y7097471D01*
X4412437Y7097471D01*
X4418685Y7098182D01*
X4424121Y7100062D01*
X4428947Y7103109D01*
X4433011Y7107174D01*
X4436059Y7112000D01*
X4437938Y7117435D01*
X4438650Y7123684D01*
X4438650Y7242556D01*
X4437938Y7248804D01*
X4436059Y7254189D01*
X4433011Y7259066D01*
X4428947Y7263130D01*
X4424121Y7266178D01*
X4418685Y7268057D01*
X4412437Y7268768D01*
X4223562Y7268768D01*
X4217314Y7268057D01*
X4211878Y7266178D01*
X4207052Y7263130D01*
X4202988Y7259066D01*
X4199940Y7254189D01*
X4198061Y7248804D01*
X4197350Y7242556D01*
X4197400Y7119213D01*
X4196384Y7116368D01*
X4194606Y7113930D01*
X4100728Y7020052D01*
X4095648Y7013854D01*
X4092092Y7007250D01*
X4089908Y7000087D01*
X4089146Y6992112D01*
X4089146Y6579108D01*
X4089908Y6571132D01*
X4092092Y6563918D01*
X4095648Y6557314D01*
X4100728Y6551117D01*
X4207052Y6444792D01*
X4209288Y6441490D01*
X4210050Y6437579D01*
X4210050Y6361684D01*
X4210761Y6355384D01*
X4212640Y6350000D01*
X4215688Y6345123D01*
X4219752Y6341110D01*
X4224578Y6338062D01*
X4230014Y6336131D01*
X4236262Y6335420D01*
X4357878Y6335420D01*
X4361789Y6334658D01*
X4365091Y6332474D01*
X4653584Y6043980D01*
X4655769Y6040678D01*
X4656531Y6036818D01*
X4656531Y5950762D01*
X4657242Y5944514D01*
X4659172Y5939078D01*
X4662220Y5934252D01*
X4666234Y5930188D01*
X4671110Y5927140D01*
X4676495Y5925261D01*
G37*
G36*
X3288487Y6268974D02*
G01*
X3352292Y6268974D01*
X3352292Y6311188D01*
X3353054Y6315049D01*
X3355289Y6318351D01*
X3358591Y6320536D01*
X3362451Y6321348D01*
X3452368Y6321348D01*
X3456228Y6320536D01*
X3459530Y6318351D01*
X3461765Y6315049D01*
X3462528Y6311188D01*
X3462528Y6268974D01*
X3526332Y6268974D01*
X3523284Y6275425D01*
X3517900Y6283147D01*
X3511245Y6289802D01*
X3503523Y6295186D01*
X3494989Y6299200D01*
X3485896Y6301638D01*
X3484016Y6301790D01*
X3479901Y6303060D01*
X3476701Y6305854D01*
X3474974Y6309766D01*
X3474974Y6314033D01*
X3476701Y6317945D01*
X3479901Y6320739D01*
X3484016Y6322009D01*
X3485896Y6322161D01*
X3494989Y6324600D01*
X3503523Y6328613D01*
X3511245Y6333998D01*
X3517900Y6340652D01*
X3523284Y6348374D01*
X3527298Y6356908D01*
X3529736Y6366002D01*
X3530549Y6375400D01*
X3530193Y6379159D01*
X3530803Y6383477D01*
X3533140Y6387185D01*
X3887571Y6741617D01*
X3892651Y6747814D01*
X3896207Y6754418D01*
X3898392Y6761632D01*
X3899001Y6768287D01*
X3900068Y6771843D01*
X3902303Y6774789D01*
X3905453Y6776770D01*
X3909110Y6777431D01*
X3955237Y6777431D01*
X3961485Y6778142D01*
X3966921Y6780022D01*
X3971747Y6783070D01*
X3975811Y6787134D01*
X3978859Y6792010D01*
X3980738Y6797395D01*
X3981450Y6803644D01*
X3981450Y6922516D01*
X3980738Y6928764D01*
X3978859Y6934200D01*
X3975811Y6939025D01*
X3971747Y6943090D01*
X3966921Y6946138D01*
X3961485Y6948017D01*
X3955237Y6948728D01*
X3766362Y6948728D01*
X3760114Y6948017D01*
X3754678Y6946138D01*
X3749852Y6943090D01*
X3745788Y6939025D01*
X3742740Y6934200D01*
X3740861Y6928764D01*
X3740150Y6922516D01*
X3740150Y6803644D01*
X3740861Y6797395D01*
X3742740Y6792010D01*
X3745788Y6787134D01*
X3749852Y6783070D01*
X3754678Y6780022D01*
X3760114Y6778142D01*
X3766362Y6777431D01*
X3790391Y6777431D01*
X3794251Y6776669D01*
X3797554Y6774484D01*
X3799738Y6771182D01*
X3800551Y6767271D01*
X3799738Y6763410D01*
X3797554Y6760108D01*
X3613404Y6575907D01*
X3610051Y6573723D01*
X3606088Y6572961D01*
X3602126Y6573774D01*
X3598824Y6576110D01*
X3596690Y6579514D01*
X3596030Y6583476D01*
X3596995Y6587388D01*
X3601110Y6596227D01*
X3603650Y6605676D01*
X3604514Y6615430D01*
X3603650Y6625183D01*
X3601110Y6634632D01*
X3596995Y6643471D01*
X3591356Y6651498D01*
X3584448Y6658406D01*
X3576421Y6664045D01*
X3567582Y6668160D01*
X3558133Y6670700D01*
X3548379Y6671564D01*
X3538626Y6670700D01*
X3529177Y6668160D01*
X3525164Y6666280D01*
X3521201Y6665366D01*
X3517137Y6666077D01*
X3513683Y6668312D01*
X3511245Y6670802D01*
X3503523Y6676186D01*
X3494989Y6680200D01*
X3485896Y6682638D01*
X3476040Y6683451D01*
X3338779Y6683451D01*
X3328924Y6682638D01*
X3319830Y6680200D01*
X3311296Y6676186D01*
X3303574Y6670802D01*
X3296920Y6664147D01*
X3291535Y6656425D01*
X3287522Y6647891D01*
X3285083Y6638798D01*
X3284829Y6635546D01*
X3283762Y6631838D01*
X3281476Y6628841D01*
X3278174Y6626859D01*
X3274415Y6626250D01*
X3270656Y6627063D01*
X3267506Y6629247D01*
X3203651Y6693103D01*
X3201416Y6696405D01*
X3200654Y6700316D01*
X3200654Y7008063D01*
X3201416Y7011974D01*
X3203651Y7015276D01*
X3227730Y7039406D01*
X3230168Y7041184D01*
X3233064Y7042200D01*
X3356356Y7042150D01*
X3362604Y7042861D01*
X3367989Y7044740D01*
X3372865Y7047788D01*
X3376929Y7051852D01*
X3379978Y7056678D01*
X3381857Y7062114D01*
X3382568Y7068362D01*
X3382568Y7134555D01*
X3383330Y7138466D01*
X3385515Y7141768D01*
X3388817Y7143953D01*
X3392728Y7144715D01*
X3729990Y7144715D01*
X3733850Y7143953D01*
X3737152Y7141768D01*
X3739387Y7138466D01*
X3740150Y7134555D01*
X3740150Y7123684D01*
X3740861Y7117384D01*
X3742740Y7112000D01*
X3745788Y7107123D01*
X3749852Y7103109D01*
X3754678Y7100062D01*
X3760114Y7098131D01*
X3766362Y7097420D01*
X3955237Y7097420D01*
X3961485Y7098131D01*
X3966921Y7100062D01*
X3971747Y7103109D01*
X3975811Y7107123D01*
X3978859Y7112000D01*
X3980738Y7117384D01*
X3981450Y7123684D01*
X3981450Y7242505D01*
X3980738Y7248804D01*
X3978859Y7254189D01*
X3975811Y7259066D01*
X3971747Y7263079D01*
X3966921Y7266127D01*
X3961485Y7268057D01*
X3955237Y7268768D01*
X3766362Y7268768D01*
X3760114Y7268057D01*
X3754678Y7266127D01*
X3749852Y7263079D01*
X3745788Y7259066D01*
X3742740Y7254189D01*
X3740861Y7248804D01*
X3740150Y7242505D01*
X3740150Y7231583D01*
X3739387Y7227722D01*
X3737152Y7224420D01*
X3733850Y7222236D01*
X3729990Y7221423D01*
X3392728Y7221423D01*
X3388817Y7222236D01*
X3385515Y7224420D01*
X3383330Y7227722D01*
X3382568Y7231583D01*
X3382568Y7257237D01*
X3381857Y7263485D01*
X3379978Y7268921D01*
X3376929Y7273747D01*
X3372865Y7277811D01*
X3367989Y7280859D01*
X3362604Y7282738D01*
X3356356Y7283450D01*
X3237484Y7283450D01*
X3231235Y7282738D01*
X3225800Y7280859D01*
X3220974Y7277811D01*
X3216910Y7273747D01*
X3213862Y7268921D01*
X3211982Y7263485D01*
X3211271Y7257237D01*
X3211271Y7135571D01*
X3210458Y7131710D01*
X3208274Y7128408D01*
X3135528Y7055662D01*
X3130448Y7049465D01*
X3126892Y7042861D01*
X3124708Y7035647D01*
X3123946Y7027672D01*
X3123946Y6683044D01*
X3123184Y6679133D01*
X3120948Y6675831D01*
X3117697Y6673646D01*
X3113786Y6672884D01*
X3109874Y6673646D01*
X3106623Y6675831D01*
X2999282Y6783171D01*
X2993085Y6788251D01*
X2986481Y6791807D01*
X2979267Y6793992D01*
X2971292Y6794753D01*
X2936036Y6794753D01*
X2932125Y6795516D01*
X2928823Y6797751D01*
X2599893Y7126630D01*
X2598115Y7129068D01*
X2597099Y7131964D01*
X2597150Y7255205D01*
X2596438Y7261504D01*
X2594559Y7266889D01*
X2591511Y7271766D01*
X2587447Y7275779D01*
X2582621Y7278827D01*
X2577185Y7280757D01*
X2570937Y7281468D01*
X2382062Y7281468D01*
X2375814Y7280757D01*
X2370378Y7278827D01*
X2365552Y7275779D01*
X2361488Y7271766D01*
X2358440Y7266889D01*
X2356561Y7261504D01*
X2355850Y7255205D01*
X2355850Y7136384D01*
X2356561Y7130084D01*
X2358440Y7124700D01*
X2361488Y7119823D01*
X2365552Y7115809D01*
X2370378Y7112762D01*
X2375814Y7110831D01*
X2382062Y7110120D01*
X2503728Y7110120D01*
X2507640Y7109358D01*
X2510891Y7107174D01*
X2888437Y6729628D01*
X2894634Y6724548D01*
X2901238Y6720992D01*
X2908452Y6718808D01*
X2916428Y6718046D01*
X2951683Y6718046D01*
X2955594Y6717284D01*
X2958896Y6715048D01*
X3282086Y6391859D01*
X3284423Y6388150D01*
X3285032Y6383782D01*
X3284270Y6375400D01*
X3285083Y6366002D01*
X3287522Y6356908D01*
X3291535Y6348374D01*
X3296920Y6340652D01*
X3303574Y6333998D01*
X3311296Y6328613D01*
X3319830Y6324600D01*
X3328924Y6322161D01*
X3330803Y6322009D01*
X3334918Y6320739D01*
X3338118Y6317945D01*
X3339846Y6314033D01*
X3339846Y6309766D01*
X3338118Y6305854D01*
X3334918Y6303060D01*
X3330803Y6301790D01*
X3328924Y6301638D01*
X3319830Y6299200D01*
X3311296Y6295186D01*
X3303574Y6289802D01*
X3296920Y6283147D01*
X3291535Y6275425D01*
G37*
G36*
X3378606Y4290466D02*
G01*
X4848453Y4290466D01*
X4859121Y4291279D01*
X4869129Y4293666D01*
X4878628Y4297629D01*
X4887417Y4303014D01*
X4895545Y4309973D01*
X5139791Y4554169D01*
X5143093Y4556353D01*
X5146954Y4557115D01*
X5162905Y4557115D01*
X5166766Y4556353D01*
X5170068Y4554169D01*
X5338114Y4386173D01*
X5346242Y4379214D01*
X5355031Y4373829D01*
X5364530Y4369866D01*
X5374538Y4367479D01*
X5385206Y4366666D01*
X6273393Y4366666D01*
X6284061Y4367479D01*
X6294069Y4369866D01*
X6303568Y4373829D01*
X6312357Y4379214D01*
X6320485Y4386173D01*
X6459626Y4525314D01*
X6466586Y4533442D01*
X6471970Y4542231D01*
X6475933Y4551730D01*
X6478320Y4561738D01*
X6479133Y4572406D01*
X6479133Y5028793D01*
X6478320Y5039461D01*
X6475933Y5049469D01*
X6471970Y5058968D01*
X6466586Y5067757D01*
X6459626Y5075885D01*
X6454648Y5080914D01*
X6452717Y5083556D01*
X6451752Y5086705D01*
X6452920Y5105400D01*
X6452006Y5119878D01*
X6449314Y5134152D01*
X6444792Y5147970D01*
X6438646Y5161127D01*
X6430873Y5173370D01*
X6421577Y5184546D01*
X6411010Y5194503D01*
X6399276Y5203037D01*
X6386525Y5210048D01*
X6373012Y5215382D01*
X6358991Y5218988D01*
X6344564Y5220817D01*
X6330035Y5220817D01*
X6315608Y5218988D01*
X6301587Y5215382D01*
X6288074Y5210048D01*
X6275324Y5203037D01*
X6263589Y5194503D01*
X6253022Y5184546D01*
X6243726Y5173370D01*
X6235954Y5161127D01*
X6229807Y5147970D01*
X6225286Y5134152D01*
X6222593Y5119878D01*
X6221679Y5105400D01*
X6222593Y5090922D01*
X6225286Y5076647D01*
X6229807Y5062829D01*
X6235954Y5049672D01*
X6243726Y5037429D01*
X6253022Y5026253D01*
X6263589Y5016296D01*
X6275324Y5007762D01*
X6288074Y5000752D01*
X6301587Y4995418D01*
X6315608Y4991811D01*
X6330035Y4989982D01*
X6337706Y4989982D01*
X6341567Y4989220D01*
X6344869Y4987036D01*
X6347053Y4983734D01*
X6347866Y4979822D01*
X6347866Y4603394D01*
X6347053Y4599533D01*
X6344869Y4596231D01*
X6331407Y4582769D01*
X6328105Y4580534D01*
X6324244Y4579772D01*
X6320332Y4580534D01*
X6317030Y4582769D01*
X6314846Y4586071D01*
X6314084Y4589932D01*
X6314084Y4718100D01*
X6313373Y4724400D01*
X6311442Y4729784D01*
X6308394Y4734661D01*
X6304381Y4738674D01*
X6299504Y4741722D01*
X6294120Y4743653D01*
X6287820Y4744313D01*
X6246114Y4744313D01*
X6242202Y4745126D01*
X6238951Y4747310D01*
X6236716Y4750612D01*
X6235954Y4754473D01*
X6235954Y4990592D01*
X6235192Y4998567D01*
X6233007Y5005781D01*
X6229451Y5012385D01*
X6224371Y5018582D01*
X6192418Y5050485D01*
X6190183Y5053939D01*
X6189472Y5058003D01*
X6190792Y5062829D01*
X6195314Y5076647D01*
X6198006Y5090922D01*
X6198920Y5105400D01*
X6198006Y5119878D01*
X6195314Y5134152D01*
X6190792Y5147970D01*
X6184646Y5161127D01*
X6176873Y5173370D01*
X6167577Y5184546D01*
X6157010Y5194503D01*
X6145276Y5203037D01*
X6132525Y5210048D01*
X6119012Y5215382D01*
X6104991Y5218988D01*
X6090564Y5220817D01*
X6076035Y5220817D01*
X6061608Y5218988D01*
X6047587Y5215382D01*
X6034074Y5210048D01*
X6021324Y5203037D01*
X6009589Y5194503D01*
X5999022Y5184546D01*
X5989726Y5173370D01*
X5981954Y5161127D01*
X5975807Y5147970D01*
X5971286Y5134152D01*
X5968593Y5119878D01*
X5967679Y5105400D01*
X5968593Y5090922D01*
X5971286Y5076647D01*
X5975807Y5062829D01*
X5981954Y5049672D01*
X5989726Y5037429D01*
X5999022Y5026253D01*
X6009589Y5016296D01*
X6021324Y5007762D01*
X6034074Y5000752D01*
X6047587Y4995418D01*
X6061608Y4991811D01*
X6076035Y4989982D01*
X6090564Y4989982D01*
X6104991Y4991811D01*
X6119012Y4995418D01*
X6127140Y4998618D01*
X6131001Y4999329D01*
X6134811Y4998567D01*
X6138062Y4996383D01*
X6156248Y4978196D01*
X6158484Y4974894D01*
X6159246Y4970983D01*
X6159246Y4754473D01*
X6158484Y4750612D01*
X6156248Y4747310D01*
X6152997Y4745126D01*
X6149086Y4744313D01*
X6107379Y4744313D01*
X6101080Y4743653D01*
X6095695Y4741722D01*
X6090818Y4738674D01*
X6086805Y4734661D01*
X6083757Y4729784D01*
X6081826Y4724400D01*
X6081166Y4718100D01*
X6081166Y4583379D01*
X6081826Y4577080D01*
X6083757Y4571695D01*
X6086805Y4566818D01*
X6090818Y4562805D01*
X6095695Y4559757D01*
X6101080Y4557826D01*
X6107379Y4557115D01*
X6281267Y4557115D01*
X6285128Y4556353D01*
X6288430Y4554169D01*
X6290665Y4550867D01*
X6291427Y4546955D01*
X6290665Y4543094D01*
X6288430Y4539792D01*
X6249568Y4500930D01*
X6246266Y4498746D01*
X6242405Y4497933D01*
X5416194Y4497933D01*
X5412333Y4498746D01*
X5409031Y4500930D01*
X5262930Y4647031D01*
X5260746Y4650333D01*
X5259984Y4654194D01*
X5259984Y4718100D01*
X5259273Y4724400D01*
X5257342Y4729784D01*
X5254294Y4734661D01*
X5250281Y4738674D01*
X5245404Y4741722D01*
X5240020Y4743653D01*
X5233720Y4744313D01*
X5053279Y4744313D01*
X5046980Y4743653D01*
X5041595Y4741722D01*
X5036718Y4738674D01*
X5032705Y4734661D01*
X5029657Y4729784D01*
X5027726Y4724400D01*
X5027066Y4718100D01*
X5027066Y4631334D01*
X5026253Y4627473D01*
X5024069Y4624171D01*
X4824628Y4424730D01*
X4821326Y4422546D01*
X4817465Y4421733D01*
X3409594Y4421733D01*
X3405733Y4422546D01*
X3402431Y4424730D01*
X3341217Y4485944D01*
X3338982Y4489348D01*
X3338220Y4493361D01*
X3339185Y4497374D01*
X3341624Y4500676D01*
X3345129Y4502759D01*
X3349193Y4503267D01*
X3357219Y4502607D01*
X3446424Y4502607D01*
X3457905Y4503521D01*
X3468674Y4506112D01*
X3478885Y4510328D01*
X3488334Y4516120D01*
X3496767Y4523333D01*
X3503980Y4531766D01*
X3509772Y4541215D01*
X3513988Y4551426D01*
X3516579Y4562246D01*
X3517442Y4573270D01*
X3516579Y4584293D01*
X3513988Y4595114D01*
X3509772Y4605324D01*
X3503980Y4614773D01*
X3496767Y4623206D01*
X3488334Y4630420D01*
X3478885Y4636211D01*
X3468674Y4640427D01*
X3457905Y4643018D01*
X3446424Y4643932D01*
X3389629Y4643932D01*
X3385769Y4644694D01*
X3382467Y4646879D01*
X3313277Y4716119D01*
X3310940Y4719726D01*
X3310331Y4723993D01*
X3311499Y4728159D01*
X3314344Y4731410D01*
X3318256Y4733188D01*
X3320186Y4733645D01*
X3331616Y4737912D01*
X3342386Y4743754D01*
X3352139Y4751070D01*
X3360775Y4759706D01*
X3368090Y4769510D01*
X3373983Y4780229D01*
X3378250Y4791659D01*
X3380841Y4803597D01*
X3381705Y4815789D01*
X3380841Y4827981D01*
X3378250Y4839919D01*
X3373983Y4851349D01*
X3368090Y4862068D01*
X3360775Y4871872D01*
X3352139Y4880508D01*
X3342386Y4887823D01*
X3331616Y4893665D01*
X3320186Y4897932D01*
X3308248Y4900523D01*
X3296056Y4901438D01*
X3283864Y4900523D01*
X3271926Y4897932D01*
X3260496Y4893665D01*
X3249777Y4887823D01*
X3239973Y4880508D01*
X3231337Y4871872D01*
X3224022Y4862068D01*
X3218180Y4851349D01*
X3213912Y4839919D01*
X3213506Y4837988D01*
X3211677Y4834077D01*
X3208426Y4831232D01*
X3204311Y4830013D01*
X3199993Y4830622D01*
X3196386Y4832959D01*
X3140151Y4889246D01*
X3137916Y4892548D01*
X3137154Y4896408D01*
X3137154Y5650992D01*
X3136392Y5658967D01*
X3134207Y5666181D01*
X3130651Y5672785D01*
X3125571Y5678982D01*
X3050082Y5754471D01*
X3043885Y5759551D01*
X3037281Y5763107D01*
X3030067Y5765292D01*
X3022092Y5766054D01*
X2954934Y5766054D01*
X2952292Y5766409D01*
X2943860Y5768695D01*
X2939948Y5770727D01*
X2937306Y5774232D01*
X2936341Y5778500D01*
X2937306Y5782818D01*
X2939999Y5786272D01*
X2943860Y5788304D01*
X2951327Y5790285D01*
X2960014Y5794349D01*
X2967837Y5799836D01*
X2974644Y5806643D01*
X2980131Y5814517D01*
X2984195Y5823204D01*
X2986684Y5832449D01*
X2987497Y5842000D01*
X2986684Y5851550D01*
X2984195Y5860796D01*
X2980131Y5869482D01*
X2974644Y5877356D01*
X2967837Y5884164D01*
X2960014Y5889650D01*
X2951327Y5893714D01*
X2942031Y5896203D01*
X2932074Y5897067D01*
X2787243Y5897067D01*
X2777236Y5896203D01*
X2767990Y5893714D01*
X2759303Y5889650D01*
X2747314Y5881116D01*
X2743454Y5880354D01*
X2730296Y5880354D01*
X2726385Y5881116D01*
X2723083Y5883351D01*
X2599893Y6006541D01*
X2598115Y6008928D01*
X2597099Y6011824D01*
X2597150Y6135116D01*
X2596438Y6141415D01*
X2594559Y6146800D01*
X2591511Y6151676D01*
X2587447Y6155690D01*
X2582621Y6158738D01*
X2577185Y6160668D01*
X2570937Y6161379D01*
X2396744Y6161379D01*
X2392832Y6162141D01*
X2389530Y6164326D01*
X2387346Y6167628D01*
X2386584Y6171539D01*
X2387346Y6175400D01*
X2389530Y6178702D01*
X2405583Y6194755D01*
X2408885Y6196990D01*
X2412796Y6197752D01*
X2777032Y6197752D01*
X2779674Y6197396D01*
X2787904Y6195161D01*
X2797759Y6194348D01*
X2935020Y6194348D01*
X2944876Y6195161D01*
X2953969Y6197600D01*
X2962503Y6201613D01*
X2970225Y6206998D01*
X2976880Y6213652D01*
X2982264Y6221374D01*
X2986278Y6229908D01*
X2988716Y6239002D01*
X2989529Y6248400D01*
X2988716Y6257798D01*
X2986278Y6266891D01*
X2982264Y6275425D01*
X2976880Y6283147D01*
X2970225Y6289802D01*
X2962503Y6295186D01*
X2953969Y6299200D01*
X2944876Y6301638D01*
X2942996Y6301790D01*
X2938881Y6303060D01*
X2935681Y6305854D01*
X2933954Y6309766D01*
X2933954Y6314033D01*
X2935681Y6317945D01*
X2938881Y6320739D01*
X2942996Y6322009D01*
X2944876Y6322161D01*
X2953969Y6324600D01*
X2962503Y6328613D01*
X2973527Y6336131D01*
X2977388Y6336842D01*
X2981198Y6336080D01*
X2984449Y6333896D01*
X3077972Y6240373D01*
X3080004Y6237478D01*
X3080918Y6234074D01*
X3081629Y6225946D01*
X3084169Y6216497D01*
X3088284Y6207658D01*
X3093923Y6199632D01*
X3100832Y6192723D01*
X3108858Y6187084D01*
X3117697Y6182969D01*
X3127146Y6180429D01*
X3136900Y6179566D01*
X3146653Y6180429D01*
X3156102Y6182969D01*
X3164941Y6187084D01*
X3172968Y6192723D01*
X3179876Y6199632D01*
X3185515Y6207658D01*
X3189630Y6216497D01*
X3192170Y6225946D01*
X3193034Y6235700D01*
X3192170Y6245453D01*
X3189630Y6254902D01*
X3185515Y6263741D01*
X3179876Y6271768D01*
X3172968Y6278676D01*
X3164941Y6284315D01*
X3156102Y6288430D01*
X3146653Y6290970D01*
X3138525Y6291681D01*
X3135122Y6292596D01*
X3132226Y6294628D01*
X3024682Y6402171D01*
X3018485Y6407251D01*
X3011881Y6410807D01*
X3004667Y6412992D01*
X2996692Y6413754D01*
X2977438Y6413754D01*
X2973578Y6414516D01*
X2962503Y6422186D01*
X2953969Y6426200D01*
X2944876Y6428638D01*
X2942996Y6428790D01*
X2938881Y6430060D01*
X2935681Y6432854D01*
X2933954Y6436766D01*
X2933954Y6441033D01*
X2935681Y6444945D01*
X2938881Y6447739D01*
X2942996Y6449009D01*
X2944876Y6449161D01*
X2953969Y6451600D01*
X2962503Y6455613D01*
X2970225Y6460998D01*
X2976880Y6467652D01*
X2982264Y6475374D01*
X2986278Y6483908D01*
X2988716Y6493002D01*
X2989529Y6502400D01*
X2988716Y6511798D01*
X2986278Y6520891D01*
X2982264Y6529425D01*
X2976880Y6537147D01*
X2970225Y6543802D01*
X2962503Y6549186D01*
X2953969Y6553200D01*
X2944876Y6555638D01*
X2942996Y6555790D01*
X2938881Y6557060D01*
X2935681Y6559854D01*
X2933954Y6563766D01*
X2933954Y6568033D01*
X2935681Y6571945D01*
X2938881Y6574739D01*
X2942996Y6576009D01*
X2944876Y6576161D01*
X2953969Y6578600D01*
X2962503Y6582613D01*
X2970225Y6587998D01*
X2976880Y6594652D01*
X2982264Y6602374D01*
X2986278Y6610908D01*
X2988716Y6620002D01*
X2989529Y6629400D01*
X2988716Y6638798D01*
X2986278Y6647891D01*
X2982264Y6656425D01*
X2976880Y6664147D01*
X2970225Y6670802D01*
X2962503Y6676186D01*
X2953969Y6680200D01*
X2944876Y6682638D01*
X2935020Y6683451D01*
X2797759Y6683451D01*
X2787904Y6682638D01*
X2778810Y6680200D01*
X2770276Y6676186D01*
X2759202Y6668516D01*
X2755341Y6667753D01*
X2742996Y6667753D01*
X2739085Y6668516D01*
X2735783Y6670751D01*
X2599893Y6806590D01*
X2598115Y6809028D01*
X2597099Y6811924D01*
X2597150Y6935216D01*
X2596438Y6941464D01*
X2594559Y6946900D01*
X2591511Y6951725D01*
X2587447Y6955790D01*
X2582621Y6958838D01*
X2577185Y6960717D01*
X2570937Y6961428D01*
X2382062Y6961428D01*
X2375814Y6960717D01*
X2370378Y6958838D01*
X2365552Y6955790D01*
X2361488Y6951725D01*
X2358440Y6946900D01*
X2356561Y6941464D01*
X2355850Y6935216D01*
X2355850Y6816344D01*
X2356561Y6810095D01*
X2358440Y6804710D01*
X2361488Y6799834D01*
X2365552Y6795770D01*
X2370378Y6792722D01*
X2375814Y6790842D01*
X2382062Y6790131D01*
X2503678Y6790131D01*
X2507589Y6789369D01*
X2510891Y6787184D01*
X2695397Y6602628D01*
X2701594Y6597548D01*
X2708198Y6593992D01*
X2715412Y6591808D01*
X2723388Y6591046D01*
X2755341Y6591046D01*
X2759202Y6590284D01*
X2770276Y6582613D01*
X2778810Y6578600D01*
X2787904Y6576161D01*
X2789783Y6576009D01*
X2793898Y6574739D01*
X2797098Y6571945D01*
X2798826Y6568033D01*
X2798826Y6563766D01*
X2797098Y6559854D01*
X2793898Y6557060D01*
X2789783Y6555790D01*
X2787904Y6555638D01*
X2778810Y6553200D01*
X2770276Y6549186D01*
X2762554Y6543802D01*
X2755900Y6537147D01*
X2750515Y6529425D01*
X2746502Y6520891D01*
X2744063Y6511798D01*
X2743250Y6502400D01*
X2744063Y6493002D01*
X2746502Y6483908D01*
X2750515Y6475374D01*
X2755900Y6467652D01*
X2762554Y6460998D01*
X2770276Y6455613D01*
X2778810Y6451600D01*
X2787904Y6449161D01*
X2789783Y6449009D01*
X2793898Y6447739D01*
X2797098Y6444945D01*
X2798826Y6441033D01*
X2798826Y6436766D01*
X2797098Y6432854D01*
X2793898Y6430060D01*
X2789783Y6428790D01*
X2787904Y6428638D01*
X2778810Y6426200D01*
X2770276Y6422186D01*
X2759202Y6414516D01*
X2755341Y6413754D01*
X2607310Y6413754D01*
X2603449Y6414516D01*
X2600147Y6416751D01*
X2597912Y6420002D01*
X2597150Y6423914D01*
X2597150Y6455156D01*
X2596438Y6461404D01*
X2594559Y6466789D01*
X2591511Y6471666D01*
X2587447Y6475730D01*
X2582621Y6478778D01*
X2577185Y6480657D01*
X2570937Y6481368D01*
X2382062Y6481368D01*
X2375814Y6480657D01*
X2370378Y6478778D01*
X2365552Y6475730D01*
X2361488Y6471666D01*
X2358440Y6466789D01*
X2356561Y6461404D01*
X2355850Y6455156D01*
X2355850Y6336284D01*
X2356561Y6330035D01*
X2358440Y6324600D01*
X2361488Y6319774D01*
X2365552Y6315710D01*
X2369667Y6313119D01*
X2372766Y6310122D01*
X2374290Y6306108D01*
X2374087Y6301790D01*
X2372106Y6297980D01*
X2368702Y6295339D01*
X2362149Y6292189D01*
X2358542Y6289903D01*
X2355037Y6287211D01*
X2351633Y6284061D01*
X2237638Y6170066D01*
X2234082Y6166154D01*
X2230831Y6163767D01*
X2226868Y6162852D01*
X2222906Y6163513D01*
X2219502Y6165697D01*
X2217216Y6169050D01*
X2216404Y6173012D01*
X2216404Y7161733D01*
X2217166Y7165644D01*
X2219401Y7168946D01*
X2387803Y7337348D01*
X2391105Y7339584D01*
X2395016Y7340346D01*
X2735783Y7340346D01*
X2739694Y7339584D01*
X2742996Y7337348D01*
X2888284Y7192060D01*
X2890469Y7188809D01*
X2891231Y7184898D01*
X2891231Y7068362D01*
X2891942Y7062114D01*
X2893822Y7056678D01*
X2896920Y7051852D01*
X2900934Y7047788D01*
X2905810Y7044740D01*
X2911195Y7042861D01*
X2917494Y7042150D01*
X3036316Y7042150D01*
X3042615Y7042861D01*
X3048000Y7044740D01*
X3052876Y7047788D01*
X3056890Y7051852D01*
X3059938Y7056678D01*
X3061868Y7062114D01*
X3062579Y7068362D01*
X3062579Y7257237D01*
X3061868Y7263485D01*
X3059938Y7268921D01*
X3056890Y7273747D01*
X3052876Y7277811D01*
X3048000Y7280859D01*
X3042615Y7282738D01*
X3036316Y7283450D01*
X2917494Y7283450D01*
X2911449Y7282789D01*
X2908452Y7282891D01*
X2905607Y7283907D01*
X2903169Y7285685D01*
X2783382Y7405471D01*
X2777185Y7410551D01*
X2770581Y7414107D01*
X2763367Y7416292D01*
X2755392Y7417053D01*
X2375408Y7417053D01*
X2367432Y7416292D01*
X2360218Y7414107D01*
X2353614Y7410551D01*
X2347417Y7405471D01*
X2151278Y7209332D01*
X2146198Y7203135D01*
X2142642Y7196531D01*
X2140458Y7189317D01*
X2139696Y7181342D01*
X2139696Y5091734D01*
X2140458Y5083759D01*
X2142642Y5076596D01*
X2146198Y5069992D01*
X2151278Y5063794D01*
X2590342Y4624730D01*
X2592730Y4620920D01*
X2593289Y4616450D01*
X2591816Y4612233D01*
X2587802Y4605629D01*
X2583535Y4595418D01*
X2580944Y4584598D01*
X2580081Y4573574D01*
X2580944Y4562551D01*
X2583535Y4551730D01*
X2587802Y4541520D01*
X2593594Y4532071D01*
X2600756Y4523638D01*
X2609189Y4516424D01*
X2618638Y4510633D01*
X2628900Y4506417D01*
X2639669Y4503826D01*
X2651099Y4502912D01*
X2740304Y4502912D01*
X2751785Y4503826D01*
X2762554Y4506417D01*
X2772765Y4510633D01*
X2782214Y4516424D01*
X2790647Y4523638D01*
X2797860Y4532071D01*
X2803652Y4541520D01*
X2807868Y4551730D01*
X2810459Y4562551D01*
X2811322Y4573574D01*
X2810459Y4584598D01*
X2807868Y4595418D01*
X2803652Y4605629D01*
X2797860Y4615078D01*
X2790647Y4623511D01*
X2782214Y4630724D01*
X2772765Y4636516D01*
X2762554Y4640732D01*
X2751785Y4643323D01*
X2740304Y4644237D01*
X2683510Y4644237D01*
X2679649Y4644999D01*
X2676347Y4647184D01*
X2219401Y5104180D01*
X2217166Y5107482D01*
X2216404Y5111343D01*
X2216404Y5803087D01*
X2217216Y5807049D01*
X2219502Y5810402D01*
X2222906Y5812586D01*
X2226868Y5813247D01*
X2230831Y5812332D01*
X2234082Y5809945D01*
X2237638Y5806033D01*
X2618333Y5425338D01*
X2621737Y5422188D01*
X2625242Y5419496D01*
X2629001Y5417159D01*
X2632913Y5415076D01*
X2636977Y5413400D01*
X2641193Y5412079D01*
X2645511Y5411114D01*
X2649880Y5410555D01*
X2654503Y5410352D01*
X2691485Y5410352D01*
X2695397Y5409590D01*
X2698699Y5407355D01*
X2700883Y5404053D01*
X2701645Y5400192D01*
X2700883Y5396280D01*
X2698699Y5392978D01*
X2658973Y5353253D01*
X2652014Y5345125D01*
X2646629Y5336336D01*
X2642666Y5326837D01*
X2640279Y5316829D01*
X2639466Y5306161D01*
X2639466Y5029606D01*
X2640279Y5018938D01*
X2642666Y5008930D01*
X2646629Y4999431D01*
X2652014Y4990642D01*
X2658973Y4982514D01*
X2726029Y4915408D01*
X2728366Y4911750D01*
X2728976Y4907483D01*
X2727756Y4903368D01*
X2724962Y4900066D01*
X2721000Y4898288D01*
X2716682Y4898288D01*
X2706370Y4900523D01*
X2694178Y4901438D01*
X2681986Y4900523D01*
X2670048Y4897932D01*
X2658618Y4893665D01*
X2647848Y4887823D01*
X2638094Y4880508D01*
X2629458Y4871872D01*
X2622143Y4862068D01*
X2616250Y4851349D01*
X2611983Y4839919D01*
X2609392Y4827981D01*
X2608529Y4815789D01*
X2609392Y4803597D01*
X2611983Y4791659D01*
X2616250Y4780229D01*
X2622143Y4769510D01*
X2629458Y4759706D01*
X2638094Y4751070D01*
X2647848Y4743754D01*
X2658618Y4737912D01*
X2670048Y4733645D01*
X2681986Y4731054D01*
X2694178Y4730140D01*
X2706370Y4731054D01*
X2718308Y4733645D01*
X2729738Y4737912D01*
X2740456Y4743754D01*
X2750261Y4751070D01*
X2758897Y4759706D01*
X2766212Y4769510D01*
X2772054Y4780229D01*
X2776321Y4791659D01*
X2778912Y4803597D01*
X2779776Y4815789D01*
X2778912Y4827981D01*
X2776677Y4838344D01*
X2776677Y4842662D01*
X2778455Y4846574D01*
X2781706Y4849418D01*
X2785872Y4850638D01*
X2790139Y4850028D01*
X2793796Y4847691D01*
X3331514Y4309973D01*
X3339642Y4303014D01*
X3348431Y4297629D01*
X3357930Y4293666D01*
X3367938Y4291279D01*
G37*
G36*
X4236262Y6015431D02*
G01*
X4425137Y6015431D01*
X4431385Y6016142D01*
X4436821Y6018022D01*
X4441647Y6021070D01*
X4445711Y6025134D01*
X4448759Y6030010D01*
X4450638Y6035395D01*
X4451350Y6041644D01*
X4451350Y6160516D01*
X4450638Y6166764D01*
X4448759Y6172200D01*
X4445711Y6177026D01*
X4441647Y6181090D01*
X4436821Y6184138D01*
X4431385Y6186068D01*
X4425137Y6186728D01*
X4379214Y6186728D01*
X4375302Y6187541D01*
X4372051Y6189726D01*
X4369816Y6193028D01*
X4369054Y6196888D01*
X4369054Y6202781D01*
X4369765Y6206591D01*
X4371898Y6209842D01*
X4374743Y6212840D01*
X4380128Y6220764D01*
X4384090Y6229553D01*
X4386478Y6238849D01*
X4387342Y6248400D01*
X4386478Y6257950D01*
X4384090Y6267246D01*
X4380128Y6276035D01*
X4374743Y6283960D01*
X4368088Y6290919D01*
X4360367Y6296609D01*
X4351832Y6300927D01*
X4342638Y6303772D01*
X4333087Y6304991D01*
X4323486Y6304534D01*
X4314139Y6302552D01*
X4305198Y6298946D01*
X4297019Y6293916D01*
X4289806Y6287566D01*
X4283811Y6280099D01*
X4279087Y6271717D01*
X4275886Y6262674D01*
X4274261Y6253226D01*
X4274261Y6243574D01*
X4275886Y6234125D01*
X4279087Y6225082D01*
X4283811Y6216700D01*
X4290110Y6208877D01*
X4291787Y6205880D01*
X4292346Y6202527D01*
X4292346Y6196888D01*
X4291584Y6193028D01*
X4289348Y6189726D01*
X4286097Y6187541D01*
X4282186Y6186728D01*
X4236262Y6186728D01*
X4230014Y6186068D01*
X4224578Y6184138D01*
X4219752Y6181090D01*
X4215688Y6177026D01*
X4212640Y6172200D01*
X4210761Y6166764D01*
X4210050Y6160516D01*
X4210050Y6041644D01*
X4210761Y6035395D01*
X4212640Y6030010D01*
X4215688Y6025134D01*
X4219752Y6021070D01*
X4224578Y6018022D01*
X4230014Y6016142D01*
G37*
G36*
X3338779Y6194348D02*
G01*
X3352292Y6194348D01*
X3352292Y6227826D01*
X3288487Y6227826D01*
X3291535Y6221374D01*
X3296920Y6213652D01*
X3303574Y6206998D01*
X3311296Y6201613D01*
X3319830Y6197600D01*
X3328924Y6195161D01*
G37*
G36*
X6411620Y6086348D02*
G01*
X6460947Y6086348D01*
X6460947Y6153150D01*
X6437884Y6153150D01*
X6431584Y6152438D01*
X6426200Y6150559D01*
X6421323Y6147511D01*
X6417310Y6143447D01*
X6414262Y6138621D01*
X6412331Y6133185D01*
X6411620Y6126937D01*
G37*
G36*
X3492500Y6052566D02*
G01*
X3502253Y6053429D01*
X3511702Y6055969D01*
X3520541Y6060084D01*
X3528568Y6065723D01*
X3535476Y6072632D01*
X3541115Y6080658D01*
X3545230Y6089497D01*
X3547770Y6098946D01*
X3548481Y6107074D01*
X3549396Y6110478D01*
X3551428Y6113373D01*
X3770528Y6332474D01*
X3773830Y6334658D01*
X3777691Y6335471D01*
X3955237Y6335471D01*
X3961485Y6336182D01*
X3966921Y6338062D01*
X3971747Y6341110D01*
X3975811Y6345174D01*
X3978859Y6350000D01*
X3980738Y6355435D01*
X3981450Y6361684D01*
X3981450Y6480556D01*
X3980738Y6486804D01*
X3978859Y6492189D01*
X3975811Y6497066D01*
X3971747Y6501130D01*
X3966921Y6504178D01*
X3961485Y6506057D01*
X3955237Y6506768D01*
X3766362Y6506768D01*
X3760114Y6506057D01*
X3754678Y6504178D01*
X3749852Y6501130D01*
X3745788Y6497066D01*
X3742740Y6492189D01*
X3740861Y6486804D01*
X3740150Y6480556D01*
X3740150Y6414770D01*
X3739387Y6410909D01*
X3737152Y6407607D01*
X3539896Y6210350D01*
X3536543Y6208115D01*
X3532581Y6207353D01*
X3528618Y6208217D01*
X3525316Y6210503D01*
X3523183Y6213906D01*
X3522573Y6217869D01*
X3523487Y6221780D01*
X3526332Y6227826D01*
X3462528Y6227826D01*
X3462528Y6194348D01*
X3476040Y6194348D01*
X3485896Y6195161D01*
X3494989Y6197600D01*
X3503117Y6201410D01*
X3507028Y6202375D01*
X3510991Y6201714D01*
X3514394Y6199581D01*
X3516680Y6196279D01*
X3517544Y6192316D01*
X3516782Y6188354D01*
X3514598Y6185001D01*
X3497173Y6167628D01*
X3494278Y6165596D01*
X3490874Y6164681D01*
X3482746Y6163970D01*
X3473297Y6161430D01*
X3464458Y6157315D01*
X3456432Y6151676D01*
X3449523Y6144768D01*
X3443884Y6136741D01*
X3439769Y6127902D01*
X3437229Y6118453D01*
X3436365Y6108700D01*
X3437229Y6098946D01*
X3439769Y6089497D01*
X3443884Y6080658D01*
X3449523Y6072632D01*
X3456432Y6065723D01*
X3464458Y6060084D01*
X3473297Y6055969D01*
X3482746Y6053429D01*
G37*
G36*
X6533642Y6086348D02*
G01*
X6582968Y6086348D01*
X6582968Y6126937D01*
X6582257Y6133185D01*
X6580378Y6138621D01*
X6577279Y6143447D01*
X6573266Y6147511D01*
X6568389Y6150559D01*
X6563004Y6152438D01*
X6556705Y6153150D01*
X6533642Y6153150D01*
G37*

%LPD*%
D10*
X5682005Y7747000D02*
G01*
X5631205Y7797800D01*
X4889500Y7797800D01*
X4673600Y7581900D01*
X4673600Y7239000D01*
X4838700Y7073900D01*
X4862550Y7073900D01*
D11*
X4284979Y6615429D02*
G01*
X4791430Y6615429D01*
X4854930Y6678929D01*
X4856479Y6539229D02*
G01*
X4854956Y6678929D01*
X5821679Y5091429D02*
G01*
X5821679Y4636770D01*
D12*
X2866390Y6248400D02*
G01*
X2387600Y6248400D01*
X2273300Y6134100D01*
X2273300Y5842000D01*
X2654300Y5461000D01*
X2859659Y5461000D01*
D11*
X2859531Y5461000D02*
G01*
X2705100Y5306568D01*
X2705100Y5029200D01*
X3378200Y4356100D01*
X4848859Y4356100D01*
X5143500Y4650739D01*
X6337300Y5105400D02*
G01*
X6413500Y5029200D01*
X6413500Y4572000D01*
X6273800Y4432300D01*
X5384800Y4432300D01*
X5166359Y4650739D01*
X5143500Y4650739D01*
X7099300Y5105400D02*
G01*
X7134859Y5069839D01*
X7134859Y4645660D01*
D12*
X6482079Y7123429D02*
G01*
X6393179Y7123429D01*
X6290030Y7226579D01*
X6290030Y7301229D01*
X4854956Y6678929D02*
G01*
X5097779Y6678929D01*
X5212079Y6793229D01*
X5212079Y7098029D01*
X5288279Y7174229D01*
X5351779Y7174229D01*
X5466079Y7288529D01*
X3599179Y5777229D02*
G01*
X3522979Y5701029D01*
X3406520Y5701029D01*
X6553200Y7632700D02*
G01*
X6616700Y7569200D01*
X6834149Y7569200D01*
X5399049Y7073900D02*
G01*
X5626100Y7073900D01*
D10*
X7023100Y6375400D02*
G01*
X7023100Y6032500D01*
X6923100Y5932500D01*
X6885990Y5932500D01*
X6705600Y6827494D02*
G01*
X6705600Y6705600D01*
X5681979Y7277100D02*
G01*
X5689600Y7277100D01*
X5842000Y7429500D01*
X5842000Y7874000D01*
X5918200Y7950200D01*
X6083300Y7950200D01*
X6159500Y7874000D01*
X6159500Y7505700D01*
X6223000Y7442200D01*
X6297675Y7442200D01*
X6001994Y7277100D02*
G01*
X5829300Y7104405D01*
X5829300Y6827520D01*
X5600700Y6946900D02*
G01*
X5720079Y6827520D01*
X5829300Y6827520D01*
X3407407Y6248400D02*
G01*
X3270250Y6248400D01*
X3181350Y6337300D01*
X6297650Y7569200D02*
G01*
X6375400Y7569200D01*
X6705600Y7239000D01*
X6705600Y6827494D01*
X3904005Y5575300D02*
G01*
X3904005Y5468594D01*
X4038600Y5334000D01*
X4862575Y6819900D02*
G01*
X5067300Y6819900D01*
X5130800Y6883400D01*
X5130800Y7269479D01*
X5303520Y7442200D01*
X6845300Y5105400D02*
G01*
X6807200Y5067300D01*
X6807200Y4645660D01*
X4815840Y4650739D02*
G01*
X5054600Y4889500D01*
X5181600Y4889500D01*
X6083300Y5105400D02*
G01*
X6197600Y4991100D01*
X6197600Y4650739D01*
X3492500Y6108700D02*
G01*
X3804894Y6421094D01*
X3860800Y6421094D01*
X2866390Y6375400D02*
G01*
X2997200Y6375400D01*
X3136900Y6235700D01*
X3414268Y5842000D02*
G01*
X3467100Y5905500D01*
X3759200Y5905500D01*
X3860800Y6007100D01*
X3860800Y6101079D01*
X3399790Y6615429D02*
G01*
X3548379Y6615429D01*
X3407409Y6248400D02*
G01*
X3149600Y5990589D01*
X3149600Y5537200D01*
X3225800Y5461000D01*
X3414140Y5461000D01*
X4224020Y5575300D02*
G01*
X4249420Y5600700D01*
X4742205Y5600700D01*
X4224020Y5575300D02*
G01*
X4236694Y5562625D01*
X4236694Y5067300D01*
X3414140Y5588000D02*
G01*
X3426840Y5575300D01*
X3904005Y5575300D01*
X3407409Y6375400D02*
G01*
X3467100Y6375400D01*
X3860800Y6769100D01*
X3860800Y6863079D01*
X3414140Y5461000D02*
G01*
X3528440Y5346700D01*
X3695700Y5346700D01*
X3916705Y5125694D01*
X3916705Y5067300D01*
X3296894Y7162800D02*
G01*
X3317189Y7183094D01*
X3860800Y7183094D01*
X2859659Y5715000D02*
G01*
X2872359Y5727700D01*
X3022600Y5727700D01*
X3098800Y5651500D01*
X3098800Y4876317D01*
X3401847Y4573270D01*
X2859659Y5588000D02*
G01*
X2933700Y5588000D01*
X3009900Y5511800D01*
X3009900Y5170855D01*
X2892374Y5053329D01*
X3296920Y7162800D02*
G01*
X3162300Y7028179D01*
X3162300Y6680200D01*
X3340100Y6502400D01*
X3407409Y6502400D01*
X2476500Y7195820D02*
G01*
X2915920Y6756400D01*
X2971800Y6756400D01*
X3352800Y6375400D01*
X3407409Y6375400D01*
X2976905Y7162800D02*
G01*
X2971800Y7162800D01*
X2755900Y7378700D01*
X2374900Y7378700D01*
X2178050Y7181850D01*
X2178050Y5091252D01*
X2695727Y4573574D01*
X2866390Y6502400D02*
G01*
X2866390Y6629400D01*
X2476500Y6875779D02*
G01*
X2722879Y6629400D01*
X2866390Y6629400D01*
X2476500Y6075679D02*
G01*
X2710179Y5842000D01*
X2859659Y5842000D01*
X2476500Y6395694D02*
G01*
X2496794Y6375400D01*
X2866390Y6375400D01*
X4330700Y6421094D02*
G01*
X4706594Y6045200D01*
X4742205Y6045200D01*
X4318000Y7183094D02*
G01*
X4127500Y6992594D01*
X4127500Y6578600D01*
X4285005Y6421094D01*
X4330700Y6421094D01*
X4318000Y6863079D02*
G01*
X4528820Y7073900D01*
X4862550Y7073900D01*
X5062194Y5600700D02*
G01*
X4742205Y5280710D01*
X4742205Y5118100D01*
X5760694Y6032500D02*
G01*
X6177305Y6032500D01*
X5440705Y6032500D02*
G01*
X5428005Y6045200D01*
X5062194Y6045200D01*
X5062194Y6045200D02*
G01*
X5067300Y6045200D01*
X5257800Y5854700D01*
X5257800Y5257800D02*
G01*
X5118100Y5118100D01*
X5062220Y5118100D01*
X5399049Y6692900D02*
G01*
X5440705Y6651244D01*
X5440705Y6032500D01*
X5399049Y6946900D02*
G01*
X5435600Y6946900D01*
X5829300Y6553200D01*
X5829300Y6507505D01*
X5399024Y6819900D02*
G01*
X5448300Y6819900D01*
X5575300Y6692900D01*
X5575300Y6217920D01*
X5760720Y6032500D01*
X6223000Y6827494D02*
G01*
X5903010Y6507505D01*
X5829300Y6507505D01*
X5062220Y5600700D02*
G01*
X5214620Y5753100D01*
X6197600Y5753100D01*
X6324600Y5880100D01*
X6324600Y6405879D01*
X6223000Y6507479D01*
X6705600Y6507479D02*
G01*
X6497294Y6299174D01*
X6497294Y6032500D01*
X5829300Y6827520D02*
G01*
X6037579Y7035800D01*
X6362700Y7035800D01*
X6477000Y6921500D01*
X6477000Y6756400D01*
X6705600Y6527800D01*
X6705600Y6507479D01*
X6002020Y7747000D02*
G01*
X6002020Y7277100D01*
X4862550Y6946900D02*
G01*
X5003800Y6946900D01*
X5041900Y6985000D01*
X5041900Y7302500D01*
X4983505Y7360894D01*
X4983505Y7442200D01*
X4983479Y7442200D02*
G01*
X5212079Y7670800D01*
X5422900Y7670800D01*
X5681979Y7411720D01*
X5681979Y7277100D01*
X6834149Y7442200D02*
G01*
X7023100Y7442200D01*
X7188200Y7607300D01*
X7188200Y7607300D02*
G01*
X7505700Y7289800D01*
X7505700Y6299200D01*
X7239000Y6032500D01*
X7211059Y6032500D01*
X7188200Y7353300D02*
G01*
X7366000Y7175500D01*
X7366000Y6997700D01*
X7213600Y6845300D01*
X7188200Y6845300D01*
X6705600Y6507479D02*
G01*
X7043420Y6845300D01*
X7188200Y6845300D01*
X4330700Y6101079D02*
G01*
X4330700Y6248400D01*
X4635500Y6743700D02*
G01*
X4711700Y6819900D01*
X4862550Y6819900D01*
D13*
X6359400Y7696200D02*
G01*
X6235900Y7696200D01*
X6359400Y7569200D02*
G01*
X6235900Y7569200D01*
X6359400Y7442200D02*
G01*
X6235900Y7442200D01*
X6359400Y7315200D02*
G01*
X6235900Y7315200D01*
X6895899Y7696200D02*
G01*
X6772399Y7696200D01*
X6895899Y7569200D02*
G01*
X6772399Y7569200D01*
X6895899Y7442200D02*
G01*
X6772399Y7442200D01*
X6895899Y7315200D02*
G01*
X6772399Y7315200D01*
D14*
X2932508Y5842000D02*
G01*
X2786809Y5842000D01*
X2932508Y5715000D02*
G01*
X2786809Y5715000D01*
X2932508Y5588000D02*
G01*
X2786809Y5588000D01*
X2932508Y5461000D02*
G01*
X2786809Y5461000D01*
X3486990Y5842000D02*
G01*
X3341291Y5842000D01*
X3486990Y5715000D02*
G01*
X3341291Y5715000D01*
X3486990Y5588000D02*
G01*
X3341291Y5588000D01*
X3486990Y5461000D02*
G01*
X3341291Y5461000D01*
D15*
X2935480Y6629400D02*
G01*
X2797299Y6629400D01*
X2935480Y6502400D02*
G01*
X2797299Y6502400D01*
X2935480Y6375400D02*
G01*
X2797299Y6375400D01*
X2935480Y6248400D02*
G01*
X2797299Y6248400D01*
X3476500Y6629400D02*
G01*
X3338319Y6629400D01*
X3476500Y6502400D02*
G01*
X3338319Y6502400D01*
X3476500Y6375400D02*
G01*
X3338319Y6375400D01*
X3476500Y6248400D02*
G01*
X3338319Y6248400D01*
D13*
X5337299Y6692900D02*
G01*
X5460799Y6692900D01*
X5337299Y6819900D02*
G01*
X5460799Y6819900D01*
X5337299Y6946900D02*
G01*
X5460799Y6946900D01*
X5337299Y7073900D02*
G01*
X5460799Y7073900D01*
X4800800Y6692900D02*
G01*
X4924300Y6692900D01*
X4800800Y6819900D02*
G01*
X4924300Y6819900D01*
X4800800Y6946900D02*
G01*
X4924300Y6946900D01*
X4800800Y7073900D02*
G01*
X4924300Y7073900D01*
G36*
X6106795Y4718685D02*
G01*
X6288404Y4718685D01*
X6288404Y4582795D01*
X6106795Y4582795D01*
G37*
G36*
X5779134Y4718685D02*
G01*
X5960745Y4718685D01*
X5960745Y4582795D01*
X5779134Y4582795D01*
G37*
D18*
G01*
X6807200Y4645660D03*
G01*
X7134859Y4645660D03*
G36*
X5052695Y4718685D02*
G01*
X5234304Y4718685D01*
X5234304Y4582795D01*
X5052695Y4582795D01*
G37*
G36*
X4725034Y4718685D02*
G01*
X4906645Y4718685D01*
X4906645Y4582795D01*
X4725034Y4582795D01*
G37*
G36*
X3844000Y5670301D02*
G01*
X3964000Y5670301D01*
X3964000Y5480298D01*
X3844000Y5480298D01*
G37*
G36*
X4164015Y5670301D02*
G01*
X4284014Y5670301D01*
X4284014Y5480298D01*
X4164015Y5480298D01*
G37*
D20*
G01*
X4330700Y6421094D03*
G01*
X4330700Y6101079D03*
G36*
X5622000Y7842001D02*
G01*
X5742000Y7842001D01*
X5742000Y7651998D01*
X5622000Y7651998D01*
G37*
G36*
X5942015Y7842001D02*
G01*
X6062014Y7842001D01*
X6062014Y7651998D01*
X5942015Y7651998D01*
G37*
G36*
X4682200Y5213101D02*
G01*
X4802200Y5213101D01*
X4802200Y5023098D01*
X4682200Y5023098D01*
G37*
G36*
X5002215Y5213101D02*
G01*
X5122214Y5213101D01*
X5122214Y5023098D01*
X5002215Y5023098D01*
G37*
G01*
X5829300Y6507505D03*
G01*
X5829300Y6827520D03*
D21*
G01*
X6885990Y5932500D03*
D22*
G01*
X7211009Y6032500D03*
D21*
G01*
X6885990Y6132499D03*
D20*
G01*
X2476500Y6075679D03*
G01*
X2476500Y6395694D03*
G01*
X3860800Y6101079D03*
G01*
X3860800Y6421094D03*
G01*
X2476500Y7195794D03*
G01*
X2476500Y6875779D03*
G01*
X3860800Y7183094D03*
G01*
X3860800Y6863079D03*
D19*
G01*
X2976905Y7162800D03*
G01*
X3296894Y7162800D03*
G01*
X3916705Y5067300D03*
G01*
X4236694Y5067300D03*
G36*
X5002207Y5695701D02*
G01*
X5122207Y5695701D01*
X5122207Y5505698D01*
X5002207Y5505698D01*
G37*
G36*
X4682192Y5695701D02*
G01*
X4802192Y5695701D01*
X4802192Y5505698D01*
X4682192Y5505698D01*
G37*
D20*
G01*
X6223000Y6827494D03*
G01*
X6223000Y6507479D03*
G36*
X5700707Y6127501D02*
G01*
X5820707Y6127501D01*
X5820707Y5937498D01*
X5700707Y5937498D01*
G37*
G36*
X5380692Y6127501D02*
G01*
X5500692Y6127501D01*
X5500692Y5937498D01*
X5380692Y5937498D01*
G37*
G36*
X6437307Y6127501D02*
G01*
X6557307Y6127501D01*
X6557307Y5937498D01*
X6437307Y5937498D01*
G37*
G36*
X6117292Y6127501D02*
G01*
X6237292Y6127501D01*
X6237292Y5937498D01*
X6117292Y5937498D01*
G37*
D19*
G01*
X4742205Y6045200D03*
G01*
X5062194Y6045200D03*
D20*
G01*
X4318000Y6863079D03*
G01*
X4318000Y7183094D03*
D19*
G01*
X4983505Y7442200D03*
G01*
X5303494Y7442200D03*
G36*
X5942007Y7372101D02*
G01*
X6062007Y7372101D01*
X6062007Y7182098D01*
X5942007Y7182098D01*
G37*
G36*
X5621992Y7372101D02*
G01*
X5741992Y7372101D01*
X5741992Y7182098D01*
X5621992Y7182098D01*
G37*
D20*
G01*
X6705600Y6507479D03*
G01*
X6705600Y6827494D03*
D23*
G01*
X2694152Y4815789D03*
G01*
X3296056Y4815789D03*
D24*
G01*
X7099300Y5105400D03*
G01*
X6845300Y5105400D03*
G01*
X6337300Y5105400D03*
G01*
X5829300Y5105400D03*
G01*
X6083300Y5105400D03*
D25*
G01*
X7188200Y7607300D03*
G01*
X7188200Y7353300D03*
G01*
X7188200Y7099300D03*
G01*
X7188200Y6845300D03*
D26*
G01*
X7188200Y6591300D03*
D16*
G01*
X3548379Y6615429D03*
G01*
X3599179Y5777229D03*
G01*
X3136900Y6235700D03*
G01*
X3492500Y6108700D03*
G01*
X5181600Y4889500D03*
D17*
G01*
X5257800Y5257800D03*
G01*
X4856479Y6539229D03*
G01*
X4284979Y6615429D03*
G01*
X5257800Y5854700D03*
G01*
X4330700Y6248400D03*
G01*
X4635500Y6743700D03*
G01*
X4038600Y5334000D03*
G01*
X5626100Y7073900D03*
G01*
X6553200Y7632700D03*
G01*
X3181350Y6337300D03*
G01*
X5600700Y6946900D03*
G01*
X5466079Y7288529D03*
G01*
X6482079Y7123429D03*
G01*
X6482079Y7123429D03*
G01*
X6705600Y6705600D03*
G01*
X7023100Y6375400D03*
D27*
X3356848Y4573270D02*
G01*
X3446846Y4573270D01*
X2847375Y5053329D02*
G01*
X2937372Y5053329D01*
X2650728Y4573574D02*
G01*
X2740728Y4573574D01*
M02*
